<?xml version="1.0" encoding="utf-8"?>
<!-- Generator: Adobe Illustrator 16.0.0, SVG Export Plug-In . SVG Version: 6.00 Build 0)  -->
<!DOCTYPE svg PUBLIC "-//W3C//DTD SVG 1.1//EN" "http://www.w3.org/Graphics/SVG/1.1/DTD/svg11.dtd">
<svg version="1.1" id="Layer_1" xmlns="http://www.w3.org/2000/svg" xmlns:xlink="http://www.w3.org/1999/xlink" x="0px" y="0px"
	 width="100px" height="100px" viewBox="0 0 100 100" enable-background="new 0 0 100 100" xml:space="preserve">
<g>
	<path d="M34.158,59.678c0,9.323,5.511,15.348,14.039,15.348s14.039-6.024,14.039-15.348c0-0.553-0.448-1-1-1H35.158
		C34.606,58.678,34.158,59.125,34.158,59.678z M60.214,60.678c-0.409,9.079-6.399,12.348-12.017,12.348S36.589,69.757,36.18,60.678
		H60.214z"/>
	<path d="M48.197,54.609c4.896,0,8.879-3.983,8.879-8.879s-3.983-8.879-8.879-8.879s-8.879,3.983-8.879,8.879
		S43.301,54.609,48.197,54.609z M48.197,38.852c3.793,0,6.879,3.086,6.879,6.879s-3.086,6.879-6.879,6.879s-6.879-3.086-6.879-6.879
		S44.404,38.852,48.197,38.852z"/>
	<path d="M23.772,73.659v-8.425c0-1.775,0.47-3.044,1.398-3.77c1.401-1.097,3.532-0.776,4.101-0.666
		c1.368,7.209,5.096,13.212,10.047,16.533v9.596c0,0.553,0.448,1,1,1s1-0.447,1-1v-8.433c2.141,1.058,4.458,1.641,6.879,1.641
		s4.738-0.583,6.879-1.641v8.433c0,0.553,0.448,1,1,1s1-0.447,1-1v-9.596c4.947-3.318,8.673-9.313,10.044-16.515
		c0.275,0.028,0.587,0.049,0.932,0.049c1.195,0,2.719-0.238,3.968-1.21c1.445-1.123,2.177-2.925,2.177-5.354v-8.425
		c0-0.553-0.448-1-1-1s-1,0.447-1,1v8.425c0,1.775-0.47,3.044-1.398,3.77c-1.032,0.808-2.458,0.846-3.367,0.767
		c0.171-1.354,0.265-2.744,0.265-4.161c0-1.561-0.119-3.133-0.341-4.686c1.656-0.748,2.755-2.386,2.755-4.262
		c0-2.827-2.567-5.09-5.421-4.622c-1.396-2.888-3.235-5.401-5.393-7.354c1.311-1.409,3.447-4.844,4.046-12.624
		c0.023-0.296-0.087-0.587-0.3-0.794s-0.508-0.311-0.801-0.277c-0.273,0.028-6.481,0.81-8.994,10.042
		c-2.907-1.018-5.958-1.142-8.947-0.348c-2.229-5.537-6.316-6.05-6.498-6.069c-0.301-0.032-0.59,0.069-0.803,0.276
		c-0.213,0.207-0.324,0.498-0.301,0.795c0.249,3.231,0.867,5.854,1.84,7.815c-2.788,2.077-5.129,5.005-6.84,8.556
		c-0.299-0.06-0.604-0.092-0.915-0.092c-2.59,0-4.697,2.106-4.697,4.696c0,1.944,1.193,3.635,2.938,4.338
		c-0.214,1.527-0.33,3.073-0.33,4.609c0,1.379,0.087,2.731,0.25,4.051c-1.215-0.135-3.347-0.131-4.998,1.152
		c-1.445,1.123-2.177,2.925-2.177,5.354v8.425c0,0.553,0.448,1,1,1S23.772,74.212,23.772,73.659z M31.51,46.93
		c0-0.138,0.112-0.25,0.25-0.25s0.25,0.112,0.25,0.25C32.01,47.205,31.51,47.205,31.51,46.93z M66.876,45.016
		c0,0.275-0.5,0.275-0.5,0c0-0.138,0.112-0.25,0.25-0.25S66.876,44.878,66.876,45.016z M65.557,43.049
		c-0.7,0.382-1.181,1.115-1.181,1.967c0,1.24,1.009,2.25,2.25,2.25c0.445,0,0.857-0.134,1.207-0.357
		c-0.346,0.71-0.993,1.254-1.811,1.442c-0.001,0-0.001,0.001-0.002,0.001c-0.221,0.051-0.419,0.076-0.605,0.076
		c-1.487,0-2.697-1.21-2.697-2.697c0-1.115,0.711-2.128,1.769-2.519c0,0,0.001-0.001,0.001-0.001
		c0.325-0.118,0.628-0.177,0.926-0.177C65.463,43.034,65.508,43.046,65.557,43.049z M40.396,33.689
		c0.051-0.034,0.083-0.085,0.125-0.127c0.047-0.046,0.101-0.085,0.138-0.139c0.038-0.056,0.056-0.118,0.082-0.179
		c0.024-0.058,0.056-0.11,0.07-0.171c0.014-0.063,0.007-0.127,0.009-0.191c0.002-0.064,0.011-0.127,0-0.19
		c-0.011-0.064-0.043-0.123-0.067-0.186c-0.021-0.056-0.028-0.114-0.061-0.167c-0.64-1.052-1.438-2.955-1.847-6.224
		c1.156,0.601,2.838,1.988,3.894,5.162l0,0c0,0,0,0,0,0.001l0,0c0.025,0.075,0.073,0.133,0.113,0.197
		c0.029,0.048,0.047,0.105,0.084,0.146c0.046,0.053,0.107,0.084,0.162,0.125c0.231,0.174,0.524,0.246,0.821,0.175
		c0.028-0.006,0.056-0.001,0.084-0.01c0,0,0,0,0.001-0.001c3.188-1.056,6.458-0.89,9.531,0.436c0.029,0.013,0.06,0.009,0.089,0.019
		c0.032,0.011,0.057,0.032,0.09,0.04c0.037,0.008,0.073-0.002,0.11,0.001c0.036,0.004,0.071,0.022,0.106,0.022
		c0.045,0,0.088-0.014,0.132-0.02c0.026-0.003,0.051-0.005,0.077-0.011c0.229-0.05,0.436-0.176,0.582-0.368
		c0.019-0.025,0.032-0.053,0.049-0.079c0.026-0.042,0.058-0.079,0.078-0.126c0.013-0.031,0.01-0.063,0.02-0.094
		c0.01-0.03,0.031-0.054,0.038-0.086c1.405-6.321,4.552-8.498,6.306-9.234c-0.943,8.515-3.905,10.458-3.919,10.468
		c-0.109,0.062-0.205,0.143-0.284,0.239l0.003,0.003c-0.006,0.007-0.014,0.009-0.019,0.016c-0.346,0.431-0.277,1.06,0.154,1.405
		c2.28,1.831,4.226,4.346,5.676,7.3c-1.288,0.858-2.108,2.308-2.108,3.888c0,2.578,2.088,4.674,4.662,4.693
		c0.195,1.413,0.318,2.837,0.318,4.254c0,12.935-7.851,23.458-17.5,23.458s-17.5-10.523-17.5-23.458c0-1.425,0.123-2.855,0.32-4.273
		c2.48-0.124,4.465-2.163,4.465-4.674c0-1.531-0.747-2.927-1.953-3.797C35.234,38.419,37.59,35.574,40.396,33.689z M30.786,43.034
		c0.366,0,0.72,0.072,1.053,0.214c0,0,0.001,0,0.001,0c0.918,0.392,1.531,1.25,1.624,2.229c-0.413-0.484-1.02-0.798-1.704-0.798
		c-1.241,0-2.25,1.01-2.25,2.25c0,0.513,0.179,0.979,0.468,1.358c-1.111-0.349-1.889-1.369-1.889-2.558
		C28.089,44.244,29.299,43.034,30.786,43.034z"/>
	<path d="M48.197,51.678c3.279,0,5.947-2.668,5.947-5.947c0-3.278-2.667-5.946-5.947-5.946s-5.947,2.668-5.947,5.946
		C42.25,49.01,44.918,51.678,48.197,51.678z M48.197,41.784c2.176,0,3.947,1.771,3.947,3.946c0,2.177-1.771,3.947-3.947,3.947
		s-3.947-1.771-3.947-3.947C44.25,43.555,46.021,41.784,48.197,41.784z"/>
</g>
</svg>
