<?xml version="1.0" encoding="iso-8859-1"?>
<!-- Generator: Adobe Illustrator 17.1.0, SVG Export Plug-In . SVG Version: 6.00 Build 0)  -->
<!DOCTYPE svg PUBLIC "-//W3C//DTD SVG 1.1//EN" "http://www.w3.org/Graphics/SVG/1.1/DTD/svg11.dtd">
<svg version="1.1" id="Capa_1" xmlns="http://www.w3.org/2000/svg" xmlns:xlink="http://www.w3.org/1999/xlink" x="0px" y="0px"
	 viewBox="0 0 150 150" style="enable-background:new 0 0 150 150;" xml:space="preserve">
<g>
	<path d="M20.288,60.161c0,30.556,38.839,85.006,55.327,85.006c16.488,0,55.327-54.45,55.327-85.006S106.172,4.833,75.616,4.833
		S20.288,29.604,20.288,60.161z M90.019,57.677c8.496-8.496,19.236-11.53,23.989-6.777c4.753,4.753,1.719,15.493-6.777,23.989
		s-19.236,11.53-23.989,6.777C78.489,76.913,81.523,66.173,90.019,57.677z M78.554,91.293c1.071,0,1.939,1.805,1.939,4.033
		c0,2.227-0.868,4.033-1.939,4.033s-1.939-1.805-1.939-4.033C76.616,93.098,77.484,91.293,78.554,91.293z M71.446,91.293
		c1.071,0,1.939,1.805,1.939,4.033c0,2.227-0.868,4.033-1.939,4.033s-1.939-1.805-1.939-4.033
		C69.507,93.098,70.375,91.293,71.446,91.293z M59.981,57.677c8.496,8.496,11.53,19.236,6.777,23.989
		c-4.753,4.753-15.493,1.719-23.989-6.777S31.239,55.653,35.992,50.9C40.745,46.147,51.485,49.181,59.981,57.677z"/>
</g>
</svg>
