<?xml version="1.0" encoding="utf-8"?>
<!-- Generator: Adobe Illustrator 17.1.0, SVG Export Plug-In . SVG Version: 6.00 Build 0)  -->
<!DOCTYPE svg PUBLIC "-//W3C//DTD SVG 1.1//EN" "http://www.w3.org/Graphics/SVG/1.1/DTD/svg11.dtd">
<svg version="1.1" id="Layer_1" xmlns="http://www.w3.org/2000/svg" xmlns:xlink="http://www.w3.org/1999/xlink" x="0px" y="0px"
	 viewBox="0 0 612 792" enable-background="new 0 0 612 792" xml:space="preserve">
<g>
	<path d="M72.1,173.8c-30.1,0-54.5,24.5-54.5,54.5s24.5,54.5,54.5,54.5c20.9,0,39.7-11.8,48.8-30.3c23.3,4.2,33.8,25.2,38.2,39
		c-16.5,26.8-25.2,57-25.2,87.5l0,0v206.4l0,0.5l0.1,0.6c0,0,0.8,3.1,0.8,4.4c0,25.5,20.7,44,49.2,44c13.3,0,25.7-5.8,35-16
		c9.2,10.3,22.4,16.3,36.5,16.3c15.7,0,35.5-2,44.7-16.5c8.5,14.1,26.8,16.3,43,16.3c15.4,0,29.7-7.4,38.9-19.6
		c9.1,11.8,23.2,18.8,38.2,18.8c25.9,0,40.1-15.6,40.1-43.8c0-1.8-0.8-4.2-1.5-5.9V379.1c0-41.1-9-73.5-27.6-99
		c8.3-15.7,25.4-24.7,47.5-24.8c9.6,16.6,28.8,27.6,48.6,27.6c30.4,0,55.2-24.5,55.2-54.5s-24.2-54.5-53.9-54.5
		c-23.4,0-44.1,15-51.6,36.9c-30,1.2-55.4,14.1-72.2,36.9c-29.3-23-65.8-35.7-103.2-35.7c-40.8,0-79.8,14.8-110.5,41.9
		c-15.2-25.6-39.8-42-68.6-45.4C114.6,187.6,94.6,173.8,72.1,173.8z M351.9,510.8h-91.7c-6.4,0-11.5-5.2-11.5-11.5v-5.6
		c0-6.4,5.2-11.5,11.5-11.5h91.7c6.4,0,11.5,5.2,11.5,11.5v5.6C363.4,505.6,358.2,510.8,351.9,510.8z M377.1,444.1
		c-25.8,0-46.7-20.9-46.7-46.7c0-25.8,20.9-46.7,46.7-46.7s46.7,20.9,46.7,46.7C423.7,423.2,402.8,444.1,377.1,444.1z M298,356.1
		c-25.8,0-46.7-20.9-46.7-46.7s20.9-46.7,46.7-46.7s46.7,20.9,46.7,46.7C344.7,335.2,323.8,356.1,298,356.1z M227.8,350.8
		c25.8,0,46.7,20.9,46.7,46.7s-20.9,46.7-46.7,46.7c-25.8,0-46.7-20.9-46.7-46.7S202,350.8,227.8,350.8z"/>
	<circle cx="298" cy="308.9" r="28"/>
	<circle cx="227.8" cy="396.9" r="28"/>
	<circle cx="377.1" cy="396.9" r="28"/>
</g>
</svg>
