<?xml version="1.0" encoding="utf-8"?>
<!-- Generator: Adobe Illustrator 16.0.0, SVG Export Plug-In . SVG Version: 6.00 Build 0)  -->
<!DOCTYPE svg PUBLIC "-//W3C//DTD SVG 1.1//EN" "http://www.w3.org/Graphics/SVG/1.1/DTD/svg11.dtd">
<svg version="1.1" id="Layer_1" xmlns="http://www.w3.org/2000/svg" xmlns:xlink="http://www.w3.org/1999/xlink" x="0px" y="0px"
	 width="50px" height="50px" viewBox="0 0 50 50" enable-background="new 0 0 50 50" xml:space="preserve">
<g>
	<path d="M36.129,19.963c-0.293-0.622-1.035-0.888-1.66-0.601c-0.013,0.006-0.652,0.291-1.968,0.595v-5.915c0-1.65-1.35-3-3-3h-9
		c-1.65,0-3,1.35-3,3v5.915c-1.297-0.3-1.936-0.581-1.967-0.595c-0.623-0.292-1.363-0.028-1.661,0.592
		c-0.298,0.623-0.034,1.369,0.589,1.667c0.135,0.064,3.375,1.573,10.539,1.573s10.404-1.509,10.539-1.573
		C36.16,21.325,36.421,20.585,36.129,19.963z M30.561,20.22c-1.596,0.347-3.467,0.523-5.562,0.523s-3.966-0.176-5.562-0.523
		c-0.539-0.117-0.882-0.65-0.765-1.189c0.118-0.54,0.646-0.883,1.19-0.765c1.001,0.218,2.704,0.477,5.136,0.477
		s4.135-0.259,5.136-0.477c0.544-0.119,1.072,0.225,1.19,0.765C31.442,19.57,31.1,20.103,30.561,20.22z"/>
	<polygon points="19.845,38.958 24.999,36.381 19.845,33.804 	"/>
	<polygon points="30.153,38.958 30.153,33.804 24.999,36.381 	"/>
	<path d="M30.856,31.706c-1.329-0.808-3.585-3.448-5.264-3.448c-0.324,0-0.497,0.165-0.594,0.428
		c-0.097-0.264-0.27-0.428-0.594-0.428c-1.679,0-3.935,2.64-5.264,3.448c-0.563,0.342-1.196-0.063-1.056-0.82
		c-0.956,1.434,0.607,2.564,2.139,2.171c0.098-0.025,4.264-1.458,4.774-2.536c0.511,1.079,4.677,2.511,4.774,2.536
		c1.531,0.393,3.095-0.737,2.139-2.171C32.053,31.644,31.42,32.048,30.856,31.706z"/>
</g>
</svg>
