<?xml version="1.0" encoding="utf-8"?>
<!-- Generator: Adobe Illustrator 16.0.0, SVG Export Plug-In . SVG Version: 6.00 Build 0)  -->
<!DOCTYPE svg PUBLIC "-//W3C//DTD SVG 1.1//EN" "http://www.w3.org/Graphics/SVG/1.1/DTD/svg11.dtd">
<svg version="1.1" id="Layer_1" xmlns="http://www.w3.org/2000/svg" xmlns:xlink="http://www.w3.org/1999/xlink" x="0px" y="0px"
	 width="500px" height="500px" viewBox="0 0 500 500" enable-background="new 0 0 500 500" xml:space="preserve">
<g>
	<path d="M381.911,227.551l-5.654,3.14l-11.556,6.415c0.564-4.337,0.865-8.748,0.865-13.227c0-0.721-0.014-1.438-0.03-2.154
		l40.357-26.896l88.412,29.895l-86.07-48.316l-3.292-1.85l-4.777,2.227l-38.798,18.071c-4.784-16.18-13.47-30.834-25.047-43.023
		l67.797-45.185l90.021,68.683l-83.675-86.695l-3.979-4.124l-6.422,2.991l-91.813,42.765c-17.104-9.38-37.006-14.762-58.252-14.762
		s-41.148,5.382-58.252,14.762L99.936,87.502l-6.421-2.991l-3.979,4.124L5.86,175.33l90.021-68.683l67.797,45.185
		c-11.577,12.189-20.263,26.845-25.047,43.024l-38.798-18.072l-4.776-2.227l-3.293,1.85l-86.07,48.316l88.412-29.895l40.357,26.896
		c-0.017,0.717-0.03,1.434-0.03,2.154c0,4.479,0.301,8.89,0.864,13.227l-11.555-6.415l-5.654-3.14l-3.824,3.362l-71.05,62.467
		l75.338-45.521l25.969,20.345c7.648,15.979,19.301,29.903,33.766,40.651l-8.681,0.025l-7.301,0.02l-1.874,4.822l-39.589,101.768
		l51.438-87.473l26.616,8.522c11.853,14.236,30.33,23.397,51.103,23.397c20.773,0,39.25-9.161,51.104-23.397l26.615-8.522
		l51.438,87.473l-39.589-101.768l-1.874-4.822l-7.301-0.02l-8.681-0.025c14.465-10.748,26.117-24.673,33.766-40.651l25.969-20.345
		l75.338,45.521l-71.051-62.467L381.911,227.551z M250,333.637c-20.63,0-37.355-16.876-37.355-37.695S229.37,258.246,250,258.246
		s37.355,16.876,37.355,37.695S270.63,333.637,250,333.637z"/>
	<path d="M254.673,270.029c-3.799,3.833-1.827,12.038,4.402,18.325c6.23,6.287,14.361,8.276,18.16,4.443
		c3.798-3.834,1.827-12.039-4.402-18.326C266.603,268.185,258.473,266.195,254.673,270.029z"/>
</g>
</svg>
