<?xml version="1.0" encoding="utf-8"?>
<!-- Generator: Adobe Illustrator 16.0.0, SVG Export Plug-In . SVG Version: 6.00 Build 0)  -->
<!DOCTYPE svg PUBLIC "-//W3C//DTD SVG 1.1//EN" "http://www.w3.org/Graphics/SVG/1.1/DTD/svg11.dtd">
<svg version="1.1" id="Layer_1" xmlns="http://www.w3.org/2000/svg" xmlns:xlink="http://www.w3.org/1999/xlink" x="0px" y="0px"
	 width="126px" height="126px" viewBox="0 0 126 126" enable-background="new 0 0 126 126" xml:space="preserve">
<g>
	<path fill="#010101" d="M61.407,54.107l12.767,5.922c9.728,1.228,19.543-3.854,23.887-13.222
		c5.379-11.594,0.34-25.354-11.256-30.731c-11.594-5.378-25.354-0.338-30.73,11.256C51.729,36.7,54.188,47.475,61.407,54.107z
		 M87.77,34.644l-0.688-3.267l2.829-0.596l0.689,3.266l3.424-0.721l0.597,2.83l-3.425,0.721l0.688,3.266l-2.829,0.596l-0.689-3.266
		l-3.108,0.655l-0.596-2.831L87.77,34.644z M68.604,21.419l2.83-0.596l0.689,3.266l3.424-0.721l0.596,2.831l-3.424,0.721
		l0.686,3.267l-2.829,0.596l-0.688-3.266l-3.108,0.654l-0.597-2.831l3.109-0.654L68.604,21.419z M62.644,44.21
		c0.239-0.061,2.419-0.594,5.099-0.594c3.11,0,5.646,0.695,7.539,2.066c2.196,1.587,3.414,3.998,3.627,7.164l0.047,0.722
		l-2.887,0.192l-0.047-0.721c-0.15-2.265-0.971-3.951-2.433-5.012c-1.382-1.003-3.343-1.512-5.827-1.512
		c-2.417,0-4.382,0.492-4.401,0.498l-0.698,0.177l-0.721-2.801L62.644,44.21z"/>
	<path fill="#010101" d="M82.095,92.625l4,19.453h14.12c0-23.499-11.607-43.272-27.392-49.177H53.178
		c-15.785,5.905-27.394,25.678-27.394,49.177h11.549l4-19.453l0,0v19.453h40.762V92.625L82.095,92.625z"/>
	<polygon fill="#010101" points="53.921,50.875 41.804,44.208 52.677,52.755 	"/>
	<polygon fill="#010101" points="53.863,57.862 52.734,55.911 47.551,60.21 	"/>
	<path fill="#010101" d="M91.969,66.406c0.183-0.03,0.352-0.075,0.506-0.129h0.002c0.723-0.253,1.225-0.758,1.446-1.459
		c0.198-0.633,0.158-1.389-0.121-2.186c-0.573-1.641-2.201-2.263-4.146-1.584c-1.483,0.519-4.597,0.441-4.627,0.44l-0.934-0.025
		l0.646,0.673C84.929,62.33,89.309,66.859,91.969,66.406z"/>
	<path fill="#010101" d="M83.583,64.146l-0.825-0.438l0.28,0.891c0.105,0.341,1.085,3.348,2.494,3.772
		c0.337,0.102,0.651,0.102,0.939,0.001c0.552-0.194,0.924-0.734,1.019-1.484c0.067-0.527-0.088-0.99-0.445-1.339
		c-0.31-0.3-0.748-0.495-1.275-0.561C85.127,64.908,83.973,64.353,83.583,64.146z M86.729,66.793
		c-0.084,0.664-0.441,1.008-0.975,0.845c-0.597-0.179-1.242-1.353-1.671-2.403c0.5,0.219,1.119,0.456,1.59,0.515
		c0.354,0.044,0.651,0.168,0.836,0.348C86.694,66.278,86.767,66.505,86.729,66.793z"/>
</g>
</svg>
