<?xml version="1.0" encoding="iso-8859-1"?>
<!-- Generator: Adobe Illustrator 17.0.0, SVG Export Plug-In . SVG Version: 6.00 Build 0)  -->
<!DOCTYPE svg PUBLIC "-//W3C//DTD SVG 1.1//EN" "http://www.w3.org/Graphics/SVG/1.1/DTD/svg11.dtd">
<svg version="1.1" id="Capa_1" xmlns="http://www.w3.org/2000/svg" xmlns:xlink="http://www.w3.org/1999/xlink" x="0px" y="0px"
	 width="64px" height="64px" viewBox="0 0 64 64" style="enable-background:new 0 0 64 64;" xml:space="preserve">
<g>
	<path d="M62.09,54.038c-0.777-0.521-0.752-1.5-0.757-2.371c0-0.034-0.008-0.063-0.01-0.096c0.11-7.709,1.326-17.706-2.167-25.524
		c0.003-0.016,0.009-0.03,0.011-0.047c0.355-2.722,0.794-5.428,1-8.167c0.086-1.142,0.099-3.316-1.167-3.93
		c-1.654-0.802-3.211-0.248-4.867,0.321c-2.424,0.833-5.154,0.918-7.74,1.05C42.802,14.146,38.399,13.5,32.96,13.5
		c-5.288,0-9.608,0.595-13.148,1.647c-1.453-0.459-3.003-0.626-4.388-1.276c-1.631-0.765-3.173-1.671-4.858-2.318
		c-0.629-0.242-1.368,0.157-1.694,0.689c-0.909,1.482-0.712,3.387-0.603,5.046c0.12,1.825,0.114,3.637,0.226,5.451
		c-5.685,8.05-4.062,19.781-3.902,28.603c-0.052,0.148-0.089,0.308-0.092,0.491c-0.01,0.499-0.109,0.976-0.301,1.613
		c-0.094,0.31-0.196,0.537-0.363,0.827c-0.029,0.05-0.047,0.083-0.058,0.107c-0.003,0.002-0.006,0.004-0.009,0.006l0,0
		c-1.889,0.418-1.088,3.31,0.798,2.893c1.89-0.418,2.692-2.838,2.887-4.696h3.487c-0.072,1.379-0.893,2.816-1.385,4.018
		c-0.31,0.758,0.33,1.648,1.048,1.845c0.86,0.237,1.536-0.292,1.845-1.048c0.652-1.593,1.369-3.146,1.46-4.815h4.204
		c-0.022,0.466-0.045,0.931-0.052,1.397c-0.015,0.995-0.07,2.332,0.714,3.08c1.314,1.256,3.269-0.541,2.335-1.873
		c-0.003-0.082-0.037-0.357-0.036-0.343c-0.025-0.442-0.013-0.886-0.003-1.328c0.007-0.311,0.024-0.622,0.04-0.934h4.818
		c0.001,0.02,0.002,0.033,0.003,0.055c0.039,0.588,0.005,1.184-0.009,1.773c-0.025,1.104,0.013,2.154,0.451,3.179
		c0.321,0.753,1.414,0.912,2.052,0.538c0.77-0.451,0.859-1.3,0.538-2.052c-0.295-0.691-0.011-2.314-0.024-3.203
		c-0.001-0.093-0.007-0.192-0.011-0.29h10.698c-0.012,1.792,0.165,3.515,1.482,4.977c1.297,1.44,3.412-0.688,2.121-2.121
		c-0.652-0.724-0.732-1.793-0.687-2.856h4.061c0.23,1.311,0.568,2.584,1.104,3.84c0.321,0.753,1.414,0.912,2.052,0.538
		c0.771-0.451,0.859-1.3,0.538-2.052c-0.317-0.743-0.529-1.529-0.685-2.326h2.968c0.519,2.129,1.708,4.037,1.922,6.25
		c0.184,1.908,3.186,1.926,3,0c-0.213-2.204-1.394-4.154-1.916-6.25h2.796c0.148,1.634,0.713,3.051,2.196,4.045
		c0.68,0.456,1.658,0.134,2.052-0.538C63.061,55.352,62.768,54.492,62.09,54.038z M12.833,41.167c-2.579,0-2.579-4,0-4
		S15.413,41.167,12.833,41.167z M11.35,19.597c-0.006-0.476-0.012-0.953-0.026-1.431c-0.025-0.886-0.278-2.088-0.207-3.132
		c1.163,0.554,2.292,1.193,3.455,1.738c0.199,0.094,0.411,0.156,0.617,0.231C13.728,17.767,12.453,18.636,11.35,19.597z
		 M35.45,45.208c-0.281,2.91-1.719,5.125-3.45,5.125c-1.933,0-3.5-2.761-3.5-6.167h7C35.5,44.522,35.483,44.87,35.45,45.208z
		 M54.833,43.5c-2.579,0-2.579-4,0-4S57.413,43.5,54.833,43.5z M57.174,17.288c0.002,0.785-0.087,1.564-0.163,2.344
		c-0.077,0.792-0.178,1.582-0.286,2.371c-1.282-1.625-2.892-3.078-4.899-4.307c1.515-0.24,3.017-0.566,4.511-1.049
		C57.626,16.232,57.172,16.399,57.174,17.288z"/>
</g>
</svg>
