<?xml version="1.0" encoding="utf-8"?>
<!-- Generator: Adobe Illustrator 16.0.0, SVG Export Plug-In . SVG Version: 6.00 Build 0)  -->
<!DOCTYPE svg PUBLIC "-//W3C//DTD SVG 1.1//EN" "http://www.w3.org/Graphics/SVG/1.1/DTD/svg11.dtd">
<svg version="1.1" id="Layer_2" xmlns="http://www.w3.org/2000/svg" xmlns:xlink="http://www.w3.org/1999/xlink" x="0px" y="0px"
	 width="50px" height="50px" viewBox="0 0 50 50" enable-background="new 0 0 50 50" xml:space="preserve">
<g>
	<ellipse cx="24.99" cy="32.042" rx="2.5" ry="1"/>
	<path d="M17.017,30.102c0.6,0.188,1.138,0.281,1.601,0.281c1.313,0,1.688-0.752,1.789-1.076c0.163-0.524,0.016-1.064-0.416-1.522
		c-0.403-0.429-1.051-0.783-1.924-1.056c-0.503-0.155-1.103-0.234-1.782-0.234c-1.303,0-2.471,0.288-2.52,0.3
		c-0.169,0.042-0.305,0.17-0.356,0.336c-0.051,0.166-0.013,0.348,0.103,0.479C13.58,27.688,15.235,29.548,17.017,30.102z"/>
	<path d="M31.362,30.311c0.462,0,1.001-0.095,1.601-0.28c1.781-0.555,3.438-2.414,3.508-2.492c0.114-0.131,0.153-0.313,0.103-0.479
		s-0.187-0.294-0.356-0.336c-0.049-0.013-1.217-0.3-2.52-0.3c-0.679,0-1.279,0.079-1.782,0.235
		c-0.874,0.271-1.521,0.627-1.924,1.055c-0.431,0.458-0.579,0.998-0.416,1.522C29.674,29.558,30.049,30.311,31.362,30.311z"/>
	<path d="M48.838,19.87L26.524,2.515c-0.902-0.702-2.167-0.702-3.069,0l-22.5,17.5c-0.843,0.655-1.177,1.774-0.83,2.785
		c0.347,1.011,1.297,1.688,2.365,1.688h3.14c-1.307,1.203-2.14,2.963-2.14,4.93c0,2.969,1.885,5.483,4.463,6.291
		c1.879,3.597,4.852,6.452,8.42,8.231v2.071c0,1.104,0.896,2,2,2s2-0.896,2-2v-0.604c1.498,0.368,3.054,0.573,4.648,0.573
		c1.572,0,3.105-0.199,4.585-0.559v0.59c0,1.104,0.896,2,2,2c1.104,0,2-0.896,2-2V43.97c3.603-1.782,6.604-4.657,8.495-8.285
		c2.54-0.833,4.389-3.327,4.389-6.267c0-1.966-0.833-3.727-2.141-4.93h3.141c0.005,0,0.012,0,0.021,0c1.381,0,2.5-1.119,2.5-2.5
		C50.009,21.095,49.542,20.312,48.838,19.87z M40.24,26.854c0.002,0,0.004-0.001,0.006-0.001c1.245,0,2.243,1.147,2.243,2.563
		s-0.998,2.563-2.243,2.563c-0.29,0-0.563-0.066-0.816-0.182c-1.068,3.099-3.139,5.735-5.823,7.552v-3.401c0-1.104-0.896-2-2-2
		h-3.144c-1.104,0-2,0.896-2,2c0,1.104,0.896,2,2,2h1.144v3.33c-1.447,0.451-2.985,0.701-4.585,0.701
		c-1.623,0-3.183-0.255-4.648-0.719v-3.313h1.143c1.104,0,2-0.896,2-2c0-1.104-0.896-2-2-2h-3.143c-1.104,0-2,0.896-2,2v3.359
		c-2.661-1.819-4.71-4.447-5.767-7.53c-0.269,0.13-0.564,0.201-0.874,0.201c-1.245,0-2.243-1.146-2.243-2.563
		s0.998-2.563,2.243-2.563c0.023,0,0.045,0.007,0.069,0.008c0.005-0.685,0.063-1.511,0.16-2.375h30.12
		C40.178,25.348,40.235,26.172,40.24,26.854z"/>
</g>
</svg>
