<?xml version="1.0" encoding="utf-8"?>
<!-- Generator: Adobe Illustrator 18.0.0, SVG Export Plug-In . SVG Version: 6.00 Build 0)  -->
<!DOCTYPE svg PUBLIC "-//W3C//DTD SVG 1.1//EN" "http://www.w3.org/Graphics/SVG/1.1/DTD/svg11.dtd">
<svg version="1.1" id="Capa_1" xmlns="http://www.w3.org/2000/svg" xmlns:xlink="http://www.w3.org/1999/xlink" x="0px" y="0px"
	 width="1000px" height="1000px" viewBox="0 0 1000 1000" enable-background="new 0 0 1000 1000" xml:space="preserve">
<path d="M208.4,829.9c86.6,55.6,186,84.7,288.6,85.3c102.6-0.6,202-29.7,288.6-85.3c76.5-49.6,140.1-117.6,183.5-197.8
	c7-13,5.4-29-4.1-40.3c-0.1-0.1-0.1-0.1-0.2-0.2c-42.2-49.1-97.9-85.7-156.8-111.9c-4.7-2.1-57.1-22.2-57-22.4
	c5.8-20.4,11.1-40.9,12.6-62c0.4-5.3,5.4-9,10.5-7.8c14.4,3.5,31,1.4,44.6-1.9c24.4-6,48-22.8,57.5-46.6c4.5-11.2,3.2-22.2,3.3-34
	c0,0,22.4-8,24.6-9.1c29.8-15.4,45.7-48.7,36.2-81.8c-4.8-16.9-16.3-31.6-31.1-41c-14.2-9-27.8-10.4-42.7-11.1
	c-8-0.4-14.6-6.3-16.2-14.2c-8.7-45.4-65.9-69.8-108.6-61.2c-34.1,6.9-61.2,32-67.9,64.9c-1.5,7.2-10,10.5-15.9,6
	c-7.5-5.6-15-11.3-23.1-16.1c-13.6-8.1-28-14.9-42.9-20.4c-30.2-11.2-62.5-17-94.7-17c-0.1,0-0.2,0-0.2,0c-0.1,0-0.2,0-0.2,0
	c-32.3,0-64.5,5.7-94.7,17c-14.9,5.5-29.2,12.3-42.9,20.4c-8.2,4.8-15.6,10.5-23.1,16.1c-5.9,4.4-14.4,1.2-15.9-6
	c-6.8-32.9-33.8-58-67.9-64.9c-42.7-8.6-99.8,15.8-108.6,61c-1.6,8.1-8.8,13.8-17.1,13.7c-7-0.1-13.9,0.1-21.3,2.3
	c-27.2,8.1-49.8,31.5-53.9,59.9c-4.3,30.3,11.9,58.6,38.5,72.3c2.1,1.1,24.6,9.1,24.6,9.1c0.1,11.8-1.2,22.8,3.3,34
	c9.5,23.8,33.1,40.7,57.5,46.6c13.6,3.3,30.2,5.4,44.6,1.9c5.2-1.2,10.2,2.5,10.5,7.8c1.5,21.1,6.7,41.6,12.6,62
	c0,0.2-52.3,20.3-57,22.4c-58.8,26.1-114.6,62.8-156.8,111.9c0,0.1-0.1,0.1-0.2,0.2c-9.5,11.3-11.1,27.3-4.1,40.3
	C68.3,712.4,132,780.3,208.4,829.9z M585,213.8c18.9,0,34.2,15.3,34.2,34.2s-15.3,34.2-34.2,34.2s-34.2-15.3-34.2-34.2
	S566.1,213.8,585,213.8z M497,285c40.5,0,73.2,32.8,73.2,73.2c0,40.5-32.8,73.2-73.2,73.2s-73.2-32.8-73.2-73.2
	C423.8,317.8,456.5,285,497,285z M409,213.8c18.9,0,34.2,15.3,34.2,34.2s-15.3,34.2-34.2,34.2s-34.2-15.3-34.2-34.2
	S390.1,213.8,409,213.8z M343.5,354.4c16.4-2.7,31.8,8.5,34.4,24.8c4.5,27.9,18.9,53.5,40.5,72.1c21.8,18.8,49.7,29.1,78.6,29.1
	c28.8,0,56.7-10.3,78.5-29c21.6-18.5,36-44.1,40.6-72c2.7-16.4,18.1-27.4,34.5-24.8c16.4,2.7,27.4,18.1,24.8,34.5
	c-6.8,41.8-28.4,80.1-60.7,107.8c-32.7,28-74.4,43.5-117.6,43.5c-43.2,0-85-15.5-117.7-43.6c-32.3-27.8-53.9-66.1-60.7-108
	C316,372.4,327.1,357,343.5,354.4z"/>
</svg>
