<?xml version="1.0" encoding="utf-8"?>
<!-- Generator: Adobe Illustrator 16.0.0, SVG Export Plug-In . SVG Version: 6.00 Build 0)  -->
<!DOCTYPE svg PUBLIC "-//W3C//DTD SVG 1.1//EN" "http://www.w3.org/Graphics/SVG/1.1/DTD/svg11.dtd">
<svg version="1.1" id="Layer_1" xmlns="http://www.w3.org/2000/svg" xmlns:xlink="http://www.w3.org/1999/xlink" x="0px" y="0px"
	 width="126px" height="126px" viewBox="0 0 126 126" enable-background="new 0 0 126 126" xml:space="preserve">
<path d="M116.527,16.029H70.338c-1.65-0.525-3.408-0.813-5.232-0.813c-1.826,0-3.582,0.288-5.234,0.813H12.244v1.093h45.004
	c-5.572,2.86-9.393,8.65-9.393,15.345c0,1.223,0.141,2.412,0.383,3.563H12.244v1.093h36.25c1.754,6.263,6.955,11.083,13.432,12.291
	c-5.059,0.992-9.291,3.328-12.004,6.616H12.244v1.093h36.848c-0.605,0.891-1.107,1.842-1.494,2.847l-0.318,0.832h-9.885v5.009
	c-0.002,0.001-0.006,0.001-0.008,0.002c-1.736,0.586-4.459,2.002-6.75,4.433c-0.08-0.016-0.158-0.037-0.244-0.037
	c-0.697,0-1.09,0.374-1.324,0.775h-0.027l-0.033-0.68h-0.672c0.025,0.348,0.035,0.705,0.035,1.141v1.874
	c-0.463,0.829-0.857,1.734-1.168,2.712H12.244v1.093h14.654c-0.541,2.307-0.598,4.997,0.109,8.11
	c0.254,1.123,0.711,3.356,2.475,4.738c-0.174,0.136-0.313,0.299-0.414,0.473h-0.027l-0.033-0.68h-0.672
	c0.025,0.348,0.035,0.705,0.035,1.141v3.076h0.75v-2.545c0-0.131,0.016-0.262,0.061-0.375c0.109-0.344,0.406-0.672,0.811-0.738
	c0.26,0.156,0.541,0.298,0.85,0.416c0.105,0.195,0.17,0.433,0.17,0.715v2.527h0.748v-2.605c0-0.131,0.025-0.258,0.057-0.361
	c0.492,0.098,1.029,0.154,1.631,0.146c0.053,0,0.1,0.001,0.15,0c0.023,0.135,0.045,0.271,0.045,0.433v2.388h0.748v-2.483
	c0-0.124-0.014-0.229-0.023-0.337c1.049,0,2.061,0.012,3.027,0v4.869h-25.15v1.093h25.15v9.715h9.926v3.015
	c0,2.258,0.336,4.305,0.91,6.178H12.244v1.093h104.283v-1.093H86.789c0.574-1.872,0.912-3.92,0.912-6.178v-3.015h12.955v-9.715
	h15.871v-1.093h-15.871v-4.873c1.379,0.032,2.814-0.015,4.377,0.004c3.84,0.048,5.643-2.41,6.441-5.928
	c0.707-3.113,0.65-5.804,0.109-8.11h4.943v-1.093h-5.248c-1.945-6.123-7.363-9.266-10.184-10.218
	c-0.164-0.056-0.307-0.087-0.439-0.108v-4.902H87.742l-0.318-0.832c-0.387-1.007-0.9-1.954-1.51-2.847h30.613v-1.093H85.096
	c-3.242-3.93-8.654-6.499-15.053-7.037c5.646-1.685,10.072-6.186,11.666-11.87h34.818v-1.093H81.975
	c0.242-1.151,0.383-2.339,0.383-3.563c0-6.694-3.82-12.485-9.395-15.345h43.564V16.029z M29.121,72.119v-0.145
	c0-0.131,0.016-0.261,0.061-0.374c0.119-0.375,0.457-0.745,0.92-0.761C29.76,71.24,29.432,71.668,29.121,72.119z M96.617,64.84
	v9.916c-2.301,0.322-4.428,1.568-5.736,3.804c-2.133,3.645-1.012,9.035,2.896,11.05c0.971,0.499,1.908,0.836,2.84,1.068v12.121
	H41.432V90.767c1.074-0.231,2.152-0.581,3.271-1.157c3.91-2.015,5.033-7.405,2.898-11.05c-1.322-2.256-3.473-3.505-5.799-3.813
	c-0.096-0.411-0.217-0.816-0.371-1.21V64.84H96.617z M9.621,10.22L9.473,9.636l1.236-0.663h0.654v5.664h-0.742V9.688h-0.016
	L9.621,10.22z M13.359,13.199c0,0.828,0.715,1.534,1.9,1.534c1.08,0,1.926-0.662,1.926-1.646c0-0.688-0.436-1.185-1.141-1.464
	v-0.026c0.697-0.332,0.932-0.845,0.932-1.325c0-0.706-0.549-1.394-1.646-1.394c-0.994,0-1.752,0.61-1.752,1.508
	c0,0.487,0.27,0.975,0.896,1.272l0.01,0.026C13.787,11.979,13.359,12.485,13.359,13.199z M14.301,10.333
	c0-0.488,0.35-0.906,0.986-0.906c0.688,0,0.957,0.47,0.957,0.923c0,0.514-0.375,0.862-0.861,1.028
	C14.729,11.204,14.301,10.899,14.301,10.333z M15.164,11.927c0.766,0.218,1.246,0.549,1.246,1.237c0,0.584-0.443,1.011-1.133,1.011
	c-0.723,0-1.158-0.505-1.133-1.081C14.145,12.555,14.502,12.119,15.164,11.927z M19.697,14.733c1.254,0,1.969-1.063,1.969-2.988
	c0-1.804-0.68-2.867-1.873-2.867c-1.15,0-1.971,1.046-1.971,2.945C17.842,13.696,18.59,14.733,19.697,14.733z M19.748,9.47
	c0.793,0,1.15,0.916,1.15,2.31c0,1.446-0.375,2.361-1.158,2.361c-0.697,0-1.15-0.836-1.15-2.309
	C18.59,10.29,19.078,9.47,19.748,9.47z M24.16,12.572c0-1.298,0.889-2.239,2.266-2.239c0.453,0,0.854,0.113,1.063,0.218
	l-0.174,0.592c-0.182-0.104-0.471-0.2-0.889-0.2c-0.967,0-1.49,0.715-1.49,1.594c0,0.976,0.629,1.577,1.465,1.577
	c0.436,0,0.723-0.113,0.939-0.209l0.133,0.575c-0.201,0.104-0.646,0.244-1.213,0.244C24.988,14.724,24.16,13.862,24.16,12.572z
	 M28.371,11.562c0-0.436-0.01-0.793-0.035-1.141h0.672l0.033,0.68h0.027c0.234-0.401,0.627-0.775,1.324-0.775
	c0.574,0,1.01,0.348,1.193,0.845h0.018c0.131-0.235,0.295-0.418,0.471-0.549c0.252-0.192,0.531-0.296,0.932-0.296
	c0.559,0,1.385,0.366,1.385,1.83v2.483h-0.748V12.25c0-0.81-0.297-1.298-0.916-1.298c-0.436,0-0.775,0.322-0.906,0.697
	c-0.033,0.105-0.061,0.244-0.061,0.384v2.605h-0.748V12.11c0-0.67-0.297-1.159-0.881-1.159c-0.479,0-0.828,0.383-0.949,0.767
	c-0.045,0.113-0.061,0.244-0.061,0.375v2.544h-0.75V11.562z M9.621,30.181l-0.148-0.584l1.236-0.662h0.654v5.663h-0.742v-4.949
	h-0.016L9.621,30.181z M16.305,29.588V29.57h-2.77v-0.636h3.572v0.505l-2.467,5.158h-0.793L16.305,29.588z M21.666,31.705
	c0-1.803-0.68-2.867-1.873-2.867c-1.15,0-1.971,1.046-1.971,2.945c0.02,1.874,0.768,2.91,1.875,2.91
	C20.951,34.693,21.666,33.631,21.666,31.705z M18.59,31.792c0-1.542,0.488-2.361,1.158-2.361c0.793,0,1.15,0.915,1.15,2.309
	c0,1.446-0.375,2.361-1.158,2.361C19.043,34.101,18.59,33.265,18.59,31.792z M24.936,32.498c0,0.976,0.629,1.577,1.465,1.577
	c0.436,0,0.723-0.113,0.939-0.209l0.133,0.575c-0.201,0.104-0.646,0.244-1.213,0.244c-1.271,0-2.1-0.863-2.1-2.152
	c0-1.298,0.889-2.239,2.266-2.239c0.453,0,0.854,0.113,1.063,0.218l-0.174,0.593c-0.182-0.104-0.471-0.201-0.889-0.201
	C25.459,30.903,24.936,31.618,24.936,32.498z M33.643,34.598V32.21c0-0.81-0.297-1.298-0.916-1.298
	c-0.436,0-0.775,0.323-0.906,0.697c-0.033,0.104-0.061,0.244-0.061,0.383v2.605h-0.748v-2.526c0-0.671-0.297-1.159-0.881-1.159
	c-0.479,0-0.828,0.384-0.949,0.767c-0.045,0.113-0.061,0.244-0.061,0.375v2.544h-0.75v-3.076c0-0.436-0.01-0.793-0.035-1.141h0.672
	l0.033,0.68h0.027c0.234-0.401,0.627-0.775,1.324-0.775c0.574,0,1.01,0.348,1.193,0.845h0.018c0.131-0.235,0.295-0.418,0.471-0.548
	c0.252-0.192,0.531-0.296,0.932-0.296c0.559,0,1.385,0.366,1.385,1.83v2.483H33.643z M9.621,50.141l-0.148-0.584l1.236-0.662h0.654
	v5.663h-0.742v-4.949h-0.016L9.621,50.141z M16.088,49.47c0.217-0.035,0.418-0.043,0.574-0.035v-0.627
	c-0.139,0-0.33,0.008-0.557,0.043c-0.715,0.087-1.342,0.375-1.813,0.836c-0.557,0.558-0.959,1.438-0.959,2.553
	c0,1.472,0.793,2.413,2.004,2.413c1.176,0,1.883-0.958,1.883-1.995c0-1.106-0.707-1.83-1.709-1.83c-0.627,0-1.098,0.296-1.367,0.653
	h-0.025C14.25,50.55,14.885,49.67,16.088,49.47z M14.18,52.101c0.209-0.409,0.635-0.697,1.098-0.697
	c0.705,0,1.168,0.488,1.168,1.298c0,0.81-0.445,1.359-1.107,1.359c-0.801,0-1.229-0.688-1.246-1.621
	C14.092,52.302,14.127,52.188,14.18,52.101z M21.666,51.666c0-1.803-0.68-2.866-1.873-2.866c-1.15,0-1.971,1.045-1.971,2.945
	c0.02,1.873,0.768,2.91,1.875,2.91C20.951,54.654,21.666,53.591,21.666,51.666z M18.59,51.753c0-1.542,0.488-2.361,1.158-2.361
	c0.793,0,1.15,0.915,1.15,2.309c0,1.446-0.375,2.361-1.158,2.361C19.043,54.062,18.59,53.225,18.59,51.753z M24.936,52.458
	c0,0.976,0.629,1.577,1.465,1.577c0.436,0,0.723-0.113,0.939-0.209l0.133,0.575c-0.201,0.105-0.646,0.244-1.213,0.244
	c-1.271,0-2.1-0.863-2.1-2.152c0-1.298,0.889-2.239,2.266-2.239c0.453,0,0.854,0.113,1.063,0.218l-0.174,0.592
	c-0.182-0.104-0.471-0.2-0.889-0.2C25.459,50.864,24.936,51.579,24.936,52.458z M33.643,54.558v-2.387
	c0-0.81-0.297-1.298-0.916-1.298c-0.436,0-0.775,0.322-0.906,0.697c-0.033,0.104-0.061,0.244-0.061,0.383v2.605h-0.748v-2.526
	c0-0.671-0.297-1.159-0.881-1.159c-0.479,0-0.828,0.383-0.949,0.767c-0.045,0.113-0.061,0.244-0.061,0.375v2.544h-0.75v-3.076
	c0-0.436-0.01-0.792-0.035-1.141h0.672l0.033,0.68h0.027c0.234-0.401,0.627-0.775,1.324-0.775c0.574,0,1.01,0.349,1.193,0.845h0.018
	c0.131-0.235,0.295-0.418,0.471-0.549c0.252-0.192,0.531-0.296,0.932-0.296c0.559,0,1.385,0.366,1.385,1.83v2.483H33.643z
	 M9.621,70.102l-0.148-0.584l1.236-0.662h0.654v5.664h-0.742V69.57h-0.016L9.621,70.102z M16.148,72.768
	c-0.008-0.731-0.496-1.254-1.629-1.254c-0.322,0-0.576,0.035-0.783,0.061l0.365-2.719h2.709v0.646h-2.16l-0.219,1.454
	c0.131-0.017,0.254-0.034,0.463-0.034c0.436,0,0.871,0.097,1.219,0.305c0.445,0.253,0.811,0.741,0.811,1.455
	c0,1.106-0.879,1.935-2.109,1.935c-0.617,0-1.141-0.174-1.41-0.349l0.191-0.584c0.236,0.14,0.697,0.313,1.211,0.313
	C15.529,73.996,16.148,73.525,16.148,72.768z M21.666,71.627c0-1.804-0.68-2.867-1.873-2.867c-1.15,0-1.971,1.046-1.971,2.945
	c0.02,1.873,0.768,2.91,1.875,2.91C20.951,74.615,21.666,73.553,21.666,71.627z M18.59,71.714c0-1.542,0.488-2.361,1.158-2.361
	c0.793,0,1.15,0.915,1.15,2.31c0,1.445-0.375,2.36-1.158,2.36C19.043,74.022,18.59,73.186,18.59,71.714z M24.936,72.42
	c0,0.975,0.629,1.576,1.465,1.576c0.436,0,0.723-0.113,0.939-0.209l0.133,0.575c-0.201,0.104-0.646,0.244-1.213,0.244
	c-1.271,0-2.1-0.862-2.1-2.151c0-1.299,0.889-2.24,2.266-2.24c0.453,0,0.854,0.113,1.063,0.219l-0.174,0.592
	c-0.182-0.104-0.471-0.2-0.889-0.2C25.459,70.825,24.936,71.539,24.936,72.42z M10.605,89.031l-0.984,0.531l-0.148-0.584
	l1.236-0.662h0.654v5.664h-0.742v-4.949H10.605z M15.695,88.316l-2.527,3.616v0.505h2.633v1.543h0.723v-1.543h0.793v-0.602h-0.793
	v-3.52H15.695z M15.801,89.946v1.89h-1.857v-0.017l1.387-1.926c0.156-0.261,0.297-0.505,0.471-0.837h0.025
	C15.809,89.354,15.801,89.649,15.801,89.946z M21.666,91.088c0-1.805-0.68-2.867-1.873-2.867c-1.15,0-1.971,1.046-1.971,2.945
	c0.02,1.873,0.768,2.91,1.875,2.91C20.951,94.076,21.666,93.013,21.666,91.088z M18.59,91.174c0-1.541,0.488-2.361,1.158-2.361
	c0.793,0,1.15,0.916,1.15,2.31c0,1.446-0.375,2.361-1.158,2.361C19.043,93.483,18.59,92.646,18.59,91.174z M24.936,91.88
	c0,0.976,0.629,1.577,1.465,1.577c0.436,0,0.723-0.113,0.939-0.209l0.133,0.574c-0.201,0.105-0.646,0.244-1.213,0.244
	c-1.271,0-2.1-0.861-2.1-2.151c0-1.298,0.889-2.239,2.266-2.239c0.453,0,0.854,0.113,1.063,0.218l-0.174,0.593
	c-0.182-0.104-0.471-0.201-0.889-0.201C25.459,90.285,24.936,91,24.936,91.88z M11.559,107.936h0.645v5.592h-0.732v-4.886h-0.016
	l-0.973,0.524l-0.146-0.576L11.559,107.936z M16.928,111.928c-0.008-0.783-0.713-1.119-1.443-1.119h-0.422v-0.567h0.422
	c0.551,0,1.246-0.283,1.246-0.946c0-0.447-0.283-0.843-0.98-0.843c-0.447,0-0.877,0.198-1.117,0.37l-0.199-0.551
	c0.293-0.215,0.861-0.43,1.463-0.43c1.102,0,1.602,0.654,1.602,1.333c0,0.577-0.344,1.066-1.033,1.316v0.017
	c0.689,0.139,1.246,0.654,1.246,1.438c0,0.895-0.695,1.678-2.037,1.678c-0.629,0-1.18-0.199-1.455-0.379l0.207-0.585
	c0.215,0.138,0.715,0.353,1.238,0.353C16.637,113.012,16.938,112.393,16.928,111.928z M22.377,110.672c0-1.781-0.672-2.83-1.85-2.83
	c-1.135,0-1.945,1.031-1.945,2.906c0.02,1.852,0.758,2.875,1.852,2.875C21.672,113.623,22.377,112.573,22.377,110.672z
	 M19.34,110.758c0-1.523,0.482-2.331,1.145-2.331c0.783,0,1.135,0.903,1.135,2.28c0,1.428-0.369,2.33-1.143,2.33
	C19.787,113.037,19.34,112.211,19.34,110.758z M25.607,111.455c0,0.963,0.619,1.557,1.445,1.557c0.43,0,0.713-0.111,0.928-0.207
	l0.131,0.568c-0.199,0.104-0.637,0.241-1.197,0.241c-1.256,0-2.074-0.853-2.074-2.126c0-1.281,0.879-2.21,2.238-2.21
	c0.447,0,0.844,0.111,1.049,0.215l-0.172,0.585c-0.182-0.104-0.465-0.197-0.877-0.197C26.125,109.881,25.607,110.586,25.607,111.455
	z M34.203,113.527v-2.356c0-0.8-0.293-1.282-0.904-1.282c-0.43,0-0.764,0.318-0.893,0.688c-0.035,0.103-0.063,0.241-0.063,0.379
	v2.571h-0.738v-2.494c0-0.662-0.293-1.145-0.869-1.145c-0.473,0-0.816,0.379-0.938,0.758c-0.043,0.111-0.061,0.24-0.061,0.369v2.512
	h-0.74v-3.036c0-0.431-0.008-0.782-0.035-1.127h0.664l0.033,0.671h0.027c0.232-0.396,0.619-0.766,1.307-0.766
	c0.568,0,0.996,0.344,1.178,0.834h0.02c0.127-0.232,0.291-0.412,0.463-0.541c0.25-0.189,0.525-0.293,0.922-0.293
	c0.549,0,1.367,0.361,1.367,1.807v2.451H34.203z M59.596,82.284c1.691-0.13,2.838-0.525,3.508-1.241
	c0.484-0.549,0.787-1.251,0.717-2.143c-0.115-1.537-1.332-2.264-2.334-2.434l-0.002-0.031c1.061-0.482,1.654-1.41,1.578-2.408
	c-0.063-0.814-0.434-1.405-1.002-1.764c-0.686-0.473-1.563-0.639-2.9-0.535c-0.938,0.071-1.852,0.234-2.428,0.401l0.779,10.19
	C57.963,82.348,58.674,82.355,59.596,82.284z M62.406,78.993c0.115,1.507-1.121,2.11-2.506,2.218
	c-0.475,0.035-0.859,0.049-1.125,0.023l-0.303-3.95l1.105-0.085C61.039,77.088,62.299,77.58,62.406,78.993z M59.314,72.752
	c1.354-0.104,2.313,0.303,2.406,1.517c0.076,0.999-0.697,1.8-2.111,1.909l-1.215,0.092l-0.254-3.335
	C58.352,72.871,58.701,72.799,59.314,72.752z M65.07,79.795c0.08,1.075,0.932,2.078,2.438,1.962c1.061-0.081,1.818-0.665,2.189-1.28
	l0.047-0.004l0.18,0.93l1.229-0.094c-0.131-0.5-0.209-1.129-0.26-1.773l-0.213-2.783c-0.113-1.49-0.785-3-3.061-2.826
	c-0.938,0.072-1.809,0.401-2.393,0.848l0.375,0.867c0.498-0.377,1.203-0.647,1.895-0.7c1.521-0.116,1.775,0.978,1.822,1.592
	l0.012,0.153C66.453,76.891,64.932,77.996,65.07,79.795z M69.432,77.621l0.1,1.291c0.01,0.139-0.008,0.295-0.043,0.436
	c-0.168,0.646-0.734,1.31-1.703,1.384c-0.693,0.053-1.309-0.318-1.375-1.194C66.299,78.094,67.953,77.703,69.432,77.621z
	 M75.873,81.117c1.213-0.093,2.072-0.793,2.424-1.653l0.031-0.003l0.16,1.286l1.213-0.093c-0.084-0.504-0.158-1.256-0.207-1.916
	l-0.688-8.991l-1.354,0.104l0.34,4.441l-0.029,0.002c-0.385-0.573-1.195-1.052-2.332-0.966c-1.813,0.139-3.236,1.777-3.029,4.252
	C72.576,79.838,74.074,81.255,75.873,81.117z M75.773,74.369c1.016-0.078,1.807,0.572,2.072,1.418
	c0.059,0.166,0.092,0.395,0.105,0.564l0.098,1.291c0.016,0.215,0.016,0.4-0.016,0.588c-0.168,1.033-0.951,1.696-1.859,1.766
	c-1.461,0.112-2.293-1.076-2.408-2.582C73.641,75.769,74.375,74.477,75.773,74.369z M60.576,84.381
	c-0.938,0.071-1.852,0.234-2.428,0.402l0.779,10.189c0.451,0.027,1.162,0.035,2.084-0.035c1.691-0.13,2.836-0.526,3.508-1.242
	c0.484-0.547,0.785-1.25,0.717-2.143c-0.117-1.537-1.332-2.263-2.334-2.434L62.9,89.088c1.061-0.482,1.654-1.409,1.578-2.408
	c-0.063-0.814-0.434-1.404-1.002-1.764C62.791,84.443,61.914,84.278,60.576,84.381z M63.822,91.646
	c0.113,1.506-1.123,2.11-2.506,2.216c-0.475,0.036-0.861,0.052-1.127,0.024l-0.301-3.949l1.105-0.085
	C62.455,89.74,63.715,90.232,63.822,91.646z M61.025,88.83l-1.215,0.092l-0.254-3.334c0.211-0.063,0.561-0.137,1.174-0.184
	c1.354-0.104,2.313,0.303,2.404,1.518C63.213,87.92,62.439,88.722,61.025,88.83z M69.85,86.518c-2.061,0.156-3.576,1.74-3.387,4.23
	c0.182,2.352,1.846,3.709,3.857,3.555c1.799-0.138,3.613-1.482,3.404-4.233C73.549,87.795,71.986,86.354,69.85,86.518z
	 M70.305,93.283c-1.322,0.102-2.352-1.057-2.477-2.686c-0.109-1.414,0.471-2.942,2.068-3.064s2.35,1.428,2.447,2.688
	C72.471,91.896,71.596,93.185,70.305,93.283z M79.627,85.939l1.428-0.109l-1.623,5.457c-0.771,2.625-1.332,3.982-2.193,4.852
	c-0.617,0.635-1.26,0.916-1.594,1.004l-0.424-1.111c0.328-0.134,0.758-0.383,1.131-0.752c0.348-0.32,0.77-0.878,1.023-1.594
	c0.051-0.143,0.09-0.254,0.082-0.33c-0.006-0.077-0.045-0.182-0.119-0.347l-3.273-6.645l1.475-0.112l1.965,4.271
	c0.207,0.479,0.436,1.049,0.592,1.485l0.033-0.003c0.102-0.456,0.213-1.036,0.355-1.589L79.627,85.939z"/>
</svg>
