<svg xmlns:svg="http://www.w3.org/2000/svg" xmlns="http://www.w3.org/2000/svg" version="1.1" width="649.5" height="743.1" xml:space="preserve"><defs><clipPath clipPathUnits="userSpaceOnUse"><path d="m0 0 2164.9 0 0 2477L0 2477 0 0z"/></clipPath></defs><g transform="matrix(1.25,0,0,-1.25,0,743.125)"><g transform="scale(0.24,0.24)"><g clip-path="url(#clipPath3041)"><path d="m1379.7 984.7 58.9 63.4-62-57.4 4.8 51.2-8.3-52.7-50.2 63.1 45.4-66.3-40.5 5.1 40-8.6-57.9-63.7 61.6 59-4.4-52.8 7.4 51.3 51.2-61.7-44.4 65.3 39.5-4.1-41 9zM867 998.3l58.9 63.3-62-57.4 4.8 51.2-8.3-52.7-50.2 63.1 45.4-66.3-40.5 5.1 40-8.6-57.9-63.7 61.6 59-4.4-52.8 7.4 51.3 51.2-61.7-44.4 65.3 39.5-4.1-41 9zm335.4-234.8c-2.9 7.4-2.9 11.1-2.9 22.1 0 7.4 0 14.7-2.9 22.1-2.9 3.7-5.8 7.4-8.7 11.1-2.9 3.7-5.8 11.1-8.7 14.8-2.9 3.7-5.8 7.4-8.7 11.1-2.9 3.7-2.9 7.4-5.8 11.1-2.9 7.4-8.7 14.8-11.6 18.5-8.7 3.7-14.5-22.1-23.3-18.5 0 2.3-4.4 3.9-10.2 5.5 0-0.2-2.3-0.5-2.3-0.8l-2.1-0.2c0-1.3-0.5-1.5-1.2-1.9-0.1 12.8-3.2 31.8-6.9 43.8-1 3.4-1.5 1-0.7-1.7 3.4-11.3-0.3-28.4-0.7-40.7-6.2-5.4-15.3-3.3-22.4-0.3-5.8 3.7-14.5 14.8-17.5 14.8 0 0-8.7-7.4-8.7-11.1-2.9-7.4-5.8-11.1-8.7-18.4-2.9-7.4-5.8-11.1-8.7-18.4 0-7.4-2.9-25.8-11.6-25.8 0-11.1-5.8-14.7-5.8-22.1-2.9-11.1-2.9-29.5 0-40.6 2.9-3.7 2.9-3.7 2.9-11.1l0-11.1c0-7.4 0-7.4 5.8-14.8 2.9-3.7 0-3.7 5.8-7.4l17.5 0 5.8 11.1 0 3.7c0 7.4 2.9 14.7 2.9 22.1 0 14.8 5.8 22.1 11.6 33.2 2.9 11.1 8.7 22.1 14.5 29.5 5.8 11.1 11.6 7.4 17.5 0 2.4-3.1 7-11.6 6.9-18.6-0.9-1.3-0.7-4.4-0.5-6.7 1-9.9-14.6-30.1-18.7-37.8-2.6-4.8-5.3-19.5-8.5-21.8-1.2-0.9-2.5-2.7-2.5-4.6 0-7.4-4.2-14.4-4.2-21.8 0-5.7 10.3-2.5 10.3 1.7 0 3.9-0.7 15.7-0.1 18.4 4.3 3.1 5 12.6 6.3 17.8 3.2 13.1 15.7 17 19.4 29.4 2.5-3.2 4-4.1 5.5-7.2 2.2-4.2 5.5-3.9 8.8-6.3 2.5-1.8 3.2-1.2 3.2-5.6 0-3.9 1.1-7.8 2.1-11.4 2.8-10.6 5.3-31.6 15.3-34.8 3.2-1 11.6 1.4 8.1 2.6-7.9 2.5-21.2 38.3-19.2 47.7 0.4 1.7 0.2 3.1-1.1 4-7.2 4.7-12.6 11.1-16.4 20.4-1.5 3.7-2.2 13.2-4.9 16 2.5 7.5-2 21.9 5 22.4 11.6 3.7 14.5 3.7 20.4-7.4 2.9-3.7 5.8-11.1 8.7-11.1 0-3.7 2.9-7.4 2.9-11.1 2.9-7.4 2.9-14.8 5.8-18.4 2.9-7.4 8.7-14.8 8.7-18.5l0-11c0 0 2.9 0 5.8-3.7l1-14.8 7.8 0c2.9 0 11.6 3.7 14.6 7.4 5.8 7.4 8.7 14.7 8.7 25.8 0 11.1 0 18.4-2.9 29.5m721.6 1388.3 15.7 18.3-23.7-4.7c-4.8-0.9-116.5-24-201.5-107.9-3 0.2-7.6 0.5-13.4 0.5-30.8 0-87.5-6.5-120.9-50l-9.5-12.4 15.6-1c20.7-1.3 39.2-10.7 53.6-27.4 20.1-23.1 30.9-58.3 28.2-91.7-4.7-58.2-32.7-93.9-88.1-112.5-17.6-5.9-35.6-8.9-53.5-8.9-50.1 0-87.3 24-94.3 47.1l-5.9 19.4-9.4-17.9c-14.4-27.3-57.7-56.5-99.2-56.5-1.4 0-2.9 0-4.3 0.1-46.6 2.4-117.1 36.6-120.1 121.4-2.5 68.2 59.3 116.2 102.9 119.2l8.1 0.6-0.4 8.1c0 0.7-4.5 71.9-106 85.5 4.1 18.8 9.5 61.5-12.4 101.1-18.6 33.5-52.3 56.6-100.2 68.5l-2 0.5-2-0.5c-47-11.4-80.5-34.1-99.5-67.5-23.5-41.1-18.2-86.7-14.2-106.7-52.1-3.9-79.9-29.7-92.1-45.3-10.3-13.2-16.1-27.4-14.2-35.2l1.4-5.9 6.1-0.5c46.6-3.5 115.6-41.5 115.6-112 0-66.1-26-91.5-67.9-111.1-13.2-6.2-28-9.3-43.9-9.3-46.8 0-94.9 27.8-108.9 52.7l-8.9 16-6.2-17.2c-10.1-28.1-48.6-58-100.1-58-6 0-12.1 0.4-18.1 1.3-62 8.6-105 49-118 110.9-6.8 32.3 4.3 75.4 26.3 102.5 9.1 11.3 24.2 24.7 43.9 24.7l15 0-8 12.8c-31.1 49.7-84.8 57.2-114.1 57.2-6 0-10.8-0.3-14-0.6-80.5 83.8-185.5 103.4-189.9 104.2l-24.2 4.3 16.5-18.1c151.8-166.5 278.2-599.2 279.4-603.6l1.3-4.5 4.6-1.2c134.7-35.4 346.8-56.5 567.5-56.5l0.1 0c215.6 0 401.9 19.7 524.4 55.4l4.3 1.3 1.3 4.3c1.4 4.5 141.4 448.8 277.2 607.1m73.9 65.1c-171.8-207.4-319.4-702.5-319.4-702.5-304-105.6-860.3-93.7-1159.6 0 0 0-141.9 482.5-336.5 702.5 0 0 204.1-12.2 294.3-126.9 0 0 115.8-22.1 161.6-109.6-59.4 0-109.1-53.2-98.4-102 10.7-48.8 64-88.4 119.1-88.4 55.1 0 86.8 38.9 87.7 88.4 14.1-47.1 56.7-88.4 111.8-88.4 55.1 0 97.6 39.6 94.9 88.4-2.5 45.8-58 87.2-113.6 92.2-2.6 13.3-15.4 98.7 93.7 121.2 0 0-15.9 142.9 150.4 190.9 165.8-49.3 148.7-192.1 148.7-192.1 118.1-25.4 92.3-123.8 92.3-123.8-54.2-4.6-96.5-42.7-99-88.4-2.6-48.8 39.9-88.4 95-88.4 55.1 0 97.2 45.5 111.8 88.4 2.1-43.5 32.6-88.4 87.7-88.4 55.1 0 108.4 39.6 119.1 88.4 10.7 48.8-47 104.9-117.1 110 48.8 87.5 181.2 101.6 181.2 101.6 95.4 114.7 294.3 127 294.3 127m-277.2-176.7-4 0.5c-0.1 0-6.1 0.7-15.5 0.7-24.8 0-68.1-4.5-97.7-32.5 18.7-4.5 35.5-14.9 49.1-30.7 22.9-26.4 35.2-66.2 32.2-104-5.2-64.7-37.7-106.3-99.4-127-19.4-6.5-39.1-9.8-58.8-9.8-45.6 0-86 18-103.4 44.4-23.1-29.8-67.1-52.4-105.5-52.4-1.7 0-3.4 0.1-5.2 0.1-52.7 2.7-132.5 41.5-136 137.4-2.7 73.4 60.1 126.4 109.4 135.3-4.3 16.8-22.6 56.1-99.2 63.2l-10.4 1 3.2 9.9c0.2 0.5 16.4 52.7-8.7 97.8-16 28.8-45.5 48.9-87.6 59.8-41.3-10.4-70.6-30.3-87-59-27-47.3-10.4-103.3-10.2-103.9l3.2-10.6-11.1-0.2c-43.8-0.7-69.6-18-83.5-32.4-8.6-8.9-13.3-17.3-15.5-22.8 52.2-8 121.8-51.1 121.8-127.5 0-79.1-37.3-107.4-77.6-126.2-15.4-7.2-32.6-10.8-51-10.8-47.6 0-92.7 23.7-114.8 49.2-17.7-28.9-58-55.6-109.3-55.6-6.8 0-13.6 0.5-20.4 1.4-68.3 9.4-117.7 55.8-132 123.9-7.8 37.4 4.4 85.3 29.7 116.5 12.4 15.3 26.7 25.1 41.9 29-27.4 33.1-68.6 38.4-92.1 38.4-9.7 0-15.9-0.9-16-0.9l-4.3-0.6-3 3.2c-54.2 57.8-122.5 84.8-158.6 95.7 139.6-172.4 250.4-537.8 264.4-585.3 133.6-34.3 341.9-54.8 558.7-54.8l0.1 0c208.5 0 395.9 19.5 515.5 53.5 14.9 47.1 136.2 422 263 588.7-37.8-11.5-112.8-40.2-171.6-99.6l-2.9-2.9zm0 0-4 0.5c-0.1 0-6.1 0.7-15.5 0.7-24.8 0-68.1-4.5-97.7-32.5 18.7-4.5 35.5-14.9 49.1-30.7 22.9-26.4 35.2-66.2 32.2-104-5.2-64.7-37.7-106.3-99.4-127-19.4-6.5-39.1-9.8-58.8-9.8-45.6 0-86 18-103.4 44.4-23.1-29.8-67.1-52.4-105.5-52.4-1.7 0-3.4 0.1-5.2 0.1-52.7 2.7-132.5 41.5-136 137.4-2.7 73.4 60.1 126.4 109.4 135.3-4.3 16.8-22.6 56.1-99.2 63.2l-10.4 1 3.2 9.9c0.2 0.5 16.4 52.7-8.7 97.8-16 28.8-45.5 48.9-87.6 59.8-41.3-10.4-70.6-30.3-87-59-27-47.3-10.4-103.3-10.2-103.9l3.2-10.6-11.1-0.2c-43.8-0.7-69.6-18-83.5-32.4-8.6-8.9-13.3-17.3-15.5-22.8 52.2-8 121.8-51.1 121.8-127.5 0-79.1-37.3-107.4-77.6-126.2-15.4-7.2-32.6-10.8-51-10.8-47.6 0-92.7 23.7-114.8 49.2-17.7-28.9-58-55.6-109.3-55.6-6.8 0-13.6 0.5-20.4 1.4-68.3 9.4-117.7 55.8-132 123.9-7.8 37.4 4.4 85.3 29.7 116.5 12.4 15.3 26.7 25.1 41.9 29-27.4 33.1-68.6 38.4-92.1 38.4-9.7 0-15.9-0.9-16-0.9l-4.3-0.6-3 3.2c-54.2 57.8-122.5 84.8-158.6 95.7 139.6-172.4 250.4-537.8 264.4-585.3 133.6-34.3 341.9-54.8 558.7-54.8l0.1 0c208.5 0 395.9 19.5 515.5 53.5 14.9 47.1 136.2 422 263 588.7-37.8-11.5-112.8-40.2-171.6-99.6l-2.9-2.9zM1438.8 639.3c0 32.6-3.1 68.8 2.5 101.8l-3.3-4.3 0-2.9c-2.9 0-2.9 0-2.9-2.9-2.9-5.8-5.8-11.6-5.8-17.5-2.9-8.7-5.8-14.5-5.8-20.4 0-5.8-2.9-8.7-2.9-14.6 0-2.9 0-5.8-2.9-11.6-5.8-17.5-26.2-29.1-29.1-49.5-1.2-8.3 1.3-17-0.2-25.3-1.2-6.9-5.2-12.8-7.8-19.2-4-10.2-9.3-18.9-16.1-27.4-3.4-4.3-4-10.5-7.6-14.7-4.6-5.4-9-1.7-14.5-1.2-17.7 1.7-9.9-18.5-14.9-28.5-2.9-5.8-8.7-14.6-14.6-20.4-8.7-5.8-17.4-2.9-20.3-11.6-5.8-5.8-5.8-14.6-11.6-20.4-5.8-2.9-5.1-8.5-10.9-11.4-2.9-2.9-9.5-3.2-15.3-6.1-3.5 5.3-13.9-15.6-20.1-14.8 0.6-0.1-2.6-6.3-3-6.7-3.9-5-10.6-7.6-14.6-12.5-2.7 2-14.8 9.7-18.1 4.5 0 0-5.3-8.3-5.3-8.3-5.8-5.8-20.3-7-26.1-1.2l-8.8 0.3-2.9-11.1-20.4 0.4c-11.6-8.7-20.3 5.8-29.1 11.6-2.9-2.9-2.9-8.7-2.9-11.6-2.9 0-4.7-2.4-7.6-2.4l0 0.5-7.6 10.4-12.9 3.2c-1.6 0.4-3.5 2-4.9 2.8-1.7 1-2.6 5.6-6.1 3.1-0.4-2.6 1-4.9 1.7-7.3 0.8-2.7 1.4-5.5 2.5-8.2 0.6-1.4 1.9-3 1.6-4.6-0.4-2.1-2.8-1.5-4.3-1-3.5 1.4-6.3 3.9-9.5 5.8-1.2 0.8-2.8 0.7-3.3 2.3-0.6 1.8 0.6 4 0.5 5.8 0 0.9-0.3 1.5-0.9 2.2-0.6 0.7-2.4 1.3-2.8 2-2.9 5.8-7.5 2.8-10.4-0.2-2.9-5.8-2.9-8.7-5.8-14.6-5.8-5.8-8.7 2.9-11.6 5.8-5.8 5.8-17.5 5.8-20.4 8.7-2.2 2.2-4.6 5.4-3.9 8.2 0.8 3.5 1.3 4.2-0.5 7.4-1.5 2.7-2.6 5.3-5.1 7.2-2.4 1.8-4.3 3.1-6.9 4.7-1.7 1-3.8 2.8-5.5 0.7-2.8-3.6-2.6-4.5-3.1-8.6-0.2-1.8-1.1-5.6-3.8-4.7-2 0.6-3.6 2.4-3.9 4.6-0.3 3.2 0.7 6.5 0.7 9.7 0 5.8-3.5-1.5-9.3 4.3-2.9 2.9-8.3 2-11.2 5 0 2.2-7.1 8.8-8.3 10.9-4.3 0.1-16.4 9.8-16.4 15.6-5.8 14.5 0.7 21.3-13.9 27.1-8.7 2.9-4.8 12.7-10.7 21.4-2.9 5.8-8.7 11.6-14.5 11.6 0 5.8 2.9 11.6 0 17.4-2.9 5.8-8.7 2.9-14.5 0-2.9-2.9-11.6-5.8-14.5 0l0 8.7c-2.9 2.9-2.9 2.9-2.9 5.8-5.8 8.7-8.7 8.7-14.5 14.5-2.9 5.8-2.9 8.7-2.9 14.6-2.9 8.7-2.9 17.5-5.8 26.2-2.9 5.8-5.8 11.6-5.8 14.6-2.9 5.8-2.9 8.7-2.9 14.5 0 2.9-2.9 8.7-2.9 14.6l0 2.9c0 11.6-22.8 35.9-25.7 47.5-2.9 0 4.6 22.3 4.6 22.3l-11.9 17.4 4.2 2.6c-4.2-0.7-8.1-0.4-11.7 0.9 6.9-42.8 3.9-87 4.1-130.2 0.2-27.6-6.8-67.4 8.1-92.2 12.4-20.6 29.5-46.2 45.7-63.8 24-26.1 48.5-45.8 71.3-72.9 20.2-24.1 40.4-59.7 60.6-83.9 37.3-44.8 103.8-44.6 165-45.7 86.9-1.5 105 56.3 149.4 97.5 26 24.2 51.5 48.9 77.3 73.3 23.1 21.9 58.9 49.6 77.1 75.5 26.4 37.6 2.3 92.5 2.3 135.5m-573.8 39.3c0-2.9 2.9-5.8 2.9-11.6 0-5.8-2.9-11.6 2.9-17.5l2.9-2.9c5.8-2.9 17.4-5.8 20.4-2.9 5.8 5.8 2.9 23.3 2.9 29.1-2.9 0-8.7 2.9-11.6 2.9-2.9 1.5-4.4 3.6-5.5 5.8-1.1 2.2-1.8 4.4-3.3 5.8l-11.6 0 0-8.7zm30.1-116.8c0-11.6 3.3-31.5 14.9-34.4 11.6-2.9 19.8 35.1 22.7 43.8 2.9 2.9 6.3 19.8 9.2 19.8 0 5.8-1.4 25.5-7.2 25.5 0 2.9-14.5 1.1-17.4 1.1-8.7-2.9-14.6-7.5-17.4-19.3-2.7-11.5-4.9-27.7-4.9-36.5m45.5-0.6c-4.4-8.5-11.7-17.2-14.8-26.3-1.1-3.1-13.3-29.5-7-30.5 1.9-0.3 12.6 2.8 14.8 3.4 4.6 1.3 8.9 1.6 13.5 2.6 6.5 1.4 12.3 5.2 18.3 7.9 3.8 1.7 4.5 3.8 7.3 6.5 2.5 2.5 3.2 6.8 4.6 10 1.9 4.2 4.2 8.2 6 12.5 5.2 12.9 10.2 24.4 12.2 38.4 0.7 5 0.9 14.2-1.8 18.7-2.5 4.3-7.2 6.2-12.2 7.2-7.6 1.5-22.6-19.7-29.2-29.9-4.3-6.6-8.1-13.6-11.7-20.6m31.5-95.5c-6.5 20.1-19.4 19.5-19.4 19.5-5.2-0.3-18.8 1.8-18.3-2 0.9-6.3 6.5-17 12.8-23.8 0.9-1 24.2-24.9 28.9-20.3 4.7 4.6-3.9 26.6-3.9 26.6m6.7 56.1c-4.5-10.5-2.3-19.3 8.9-24 8-3.4 17.3-10 26.3-10 22.3 0 25.3 32 28.7 48.5 3 14.4 1.5 27.9 0.1 42.3-1.2 11.7-13.7 12.3-23.1 9.3-4.7-1.5-6-4.8-9.2-8-2.9-2.9-5.8-8.7-8.7-14.5-7.3-14.6-16.5-28.6-22.9-43.5m33.3-61.9-33.7 9.4 0-2.9c0-5.8 2.9-8.7 2.9-14.5 2.9-8.7 5.8-20.3 14.5-26.2 0 0 25.9-35.6 26.7-13.3 0.7 22.3-10.4 47.5-10.4 47.5m12.6-19.2c1.4-8.5 4.6-16.8 9-24.4 1-1.8 2.4-3.5 4-4.9 4-3.8 9.6-6.3 14.9-6.6 7-0.5 13.1 3.4 13.1 10.8 0 18.9-6.2 38.8-6.2 38.8l-40.4 5.2c0.2 0 5.5-17.4 5.7-18.7m85.7-4.2c0 5.8 0.5 8.2-0.3 13l-41.5 4.2c0-5.8 2.9-16.5 2.9-22.3 0-5.8 5.6-14.5 8.5-20.4 0-2.9 5.7-11.9 11.5-11.9l9.8-1c9.2 6.1 10.2 9.2 10.2 15l0 11.6c0 5.8-1.1 8.7-1.1 11.6m-66.6 71c-2.6-6.2-6.7-13.8-5.2-20.9 3.8-17.7 37.6-15.5 50.5-16.9 9.3-1 22.2-2.8 22.2 10.5 0 5.6 1.1 11.2 0.5 16.7-1.4 12.6-2.1 25.2-2.4 37.8-0.2 9.3-2.5 38.2-15.4 39.8-17.9 2.1-29-12.9-36.3-26.9-4-7.5-6.1-15.4-8.3-23.3-1.6-5.6-3.2-11.3-5.5-16.8m72.9-71c0-2.9-0.5-5.9-0.5-11.8 0-2.9 0.3-5.1 0.3-10.9 0-6.4 3.6-13.7 9.5-16.7 2.4-1.2 5.1-1.6 7.7-1.4 2.3 0.2 6.7 0.6 8.6 2 3.1 2.3 4.5 6 5.9 9.5 2 5 4.6 10 4.8 15.4 0.2 4.5 0.6 9.5 1.5 13.9 0 0 2.1 10.9 2.1 10.9 0 2.9-11.7 1.1-11.7 1.1l-27.9 0.2c-1.2-4.9-0.3-6.4-0.3-12.2m6 47.6c1-19.6 21.5-12.6 34.4-12.3 11.7 0.3 30.6-2.8 30.6 14.6 0 9.7-3.7 19.9-6.4 29.1-2 7-4.1 14.1-6.9 20.9-4 9.5-8.8 19.8-15.5 27.7-3 3.6-6.6 6.4-11.4 7-3.4 0.4-12.3-0.3-14.9-2.8-5.9-5.8-9-15.8-10.8-23.7-4.4-19.6-0.2-40.7 0.7-60.5m78.9-26.6-35.5-6.8c0 0-18.9-43-5.1-47.9 4.1-1.4 10.2-3.7 14.4-2.1 9.4 3.6 13.9 14.4 17 22.7 2.1 5.7 3.4 11.5 5.5 17.2 0.5 1.6 4.2 17 3.6 16.9m7.7 5.9c0 0-21.1-57.7 7.8-45.8 3.9 1.6 7.9 11.8 10.6 14.9 0 2 9.7 17.3 9.7 19.2 2.9 8.7 2.9 14.5 2.9 23.3l-31-11.6zm-22.7 95.2c4.1-16.6 7.6-33.7 10.8-50.5 1.4-7.3 1.5-16.8 9.3-20.4 7.6-3.6 21.1-0.7 27.5 3.6 2.4 1.6 13 8.3 14.6 10.1 13.3 14.6-0.8 33.7-9.2 49.5-3.4 6.4-5.6 13.3-9.1 19.6-0.5 0.9-13 16-13.8 12.5 1.5 6.5-17.4 5.9-21 5.4-15.6-2.3-11.6-19.4-9-29.7m60.7-80.5c0 0-8-38.4 9.6-36.5 7.9 0.9 12.2 9.9 12.2 9.9 5.9 7.9 5.6 10.1 7 15.9 2.1 8.5 2.9 15.8 2.9 24.5l-31.7-13.8zm-8.4 93.7c4.7-9.4 8.4-20.9 14.4-29.5 2.9-4.1 6.7-10.1 10.1-13.9 10.1-11.1 17.7-10.7 22.4-11.6 4.2-0.9 12.8-0.9 17.4-1.7 3.1-0.5 4.6 0.5 8.2 3.7 0 0 0.6 1.3 0.6 1.4 2.8 3-5.9 13.2-7.2 15.8-3.2 6.7-6.4 13.3-10 19.8-5.1 9-7.4 18.5-13.2 28.2-3.3 5.5-6.6 9.1-11.1 13.9-5.9 6.4-12 6.7-19.8 7.5-3.2 0.4-5.3 0.1-7.4-1.9-7.9-7.9-9.3-21.8-4.4-31.7m48.7 24.7c2.9-5.3 5.4-20.4 8.7-23.3 3.4-8.6 14.1-34.5 26.8-31.3 12.7 3.2 12.4 21.8 12.1 33.4-0.2 8.7 0 15.1-4.2 25.3-5.9 11.2-11.9 18.7-21.5 21.4-3.2-0.1-16.7 2.7-16.6-0.2-6.4-0.1-7.3-15.6-5.2-25.3m38.3 82.2c0-2 1.4-4.1 2.2-7.1 0.4-1.3 0.7-2.8 0.7-4.5 0-5.8-2.9-11.6 2.9-17.5 2.9-2.9 6.8-9.2 6.8-9.2 5.8-2.9 10.2 6.5 13.1 9.4 5.8 5.8 7 19.7 7 25.5-2.9 0-3.4 10.2-6.2 10.6 0 0-0.1 0.1-0.1 0.1-5.8 2.9-11.9-1.4-14.8 1.5l-11.6 0 0-8.7zm350.2 683.9c-8.9-71.4-47.8-133.6-55.8-204.8 1.6-1.4-1.4-13.2-1.9-17.1-0.1-0.8-0.2-1.7-0.4-2.5-0.6-4.2-1.5-12.5-4-18 1.5-7 3-14 4.3-20.8 7.6-39.4 29.2-73.7 30-114.6 0.7-35.5-5.8-72-18.8-105.1-12.8-32.7-29.6-63.2-54-88.7-9.9-10.3-48.3-47.1-64.6-29.7-10.5 11.2-21.2 35.9-37.8 18.9-2.4-2.4-5-4.7-7.8-6.9 3.8-1.1 6.1-4.7 3.9-11.6-7-22.4-5.2-47.3-5.6-70.7-0.5-27.2-1.5-54.7 1.1-81.9 4.2-44.4 14.7-94.7-19.9-130.5-25.9-26.8-55.8-50.3-82.8-76.2-28.3-27.1-47.7-58.2-76.9-84.3-44.5-39.7-61.9-78-106.5-86.5-48.4-2.4-114.5 3.1-168.3 8.5-66.9 27.1-129.5 144.2-178.2 197.2-18.1 19.6-43.3 41.2-57.2 64.3-13.2 22-15.1 47.4-16 72.5-2.4 64.2 7 131.3-12.5 193.5-1 3.1-0.2 6.4 1.5 9.4-0.5 0.3-0.9 0.7-1.4 0.9-7.5 4.2-20.1-11.9-25.1-16.2-63-53.3-119.4 123.6-126.6 159.4-14 70 7.4 134.2 23.6 200.2-0.5 0.4-1.1 0.9-1.8 1.6-55.4 58.6-89.1 182.1-93.2 259.8-2.4 45.2 0.9 89.3 11.6 133.2 5.7-1.8 23.3-6.1 28.9-8.1-39-51.3-8.6-291.8 60.8-359.2 4.3 18.7 4.6 22 6.9 41.1 5.1 43.8 4.8 84-4.8 126.6-4.6 20.3-6.3 44.4-15.3 63.3-6.1 12.9-12.6 32.4-18.9 45.1-5.8 11.7-1.5 18.9 5.1 5.8 7.4-14.7 17.3-26.6 23.3-42.2 6.5-17 17.7-32.9 21.7-50.7 7.4-32.9 27.8-64.8 25.3-98.2 3.1 2.4 6.9 5.5 12.5 10.4 14.1 12.4 30.8 17.6 51.7 21.3 20.4 3.6 40.5-9 58.6-16.3 23.6-9.6 43.6-19.2 65.7-30.6 23.3-11.9 44.1-26 67.6-37.9 10.1-5.1 15.3-15.8 25-20.4 18.7-8.9 38.9-10.3 57.5-3.5 5.4 2 6-1.3 2-2.8-14.9-5.5-30.5-8.7-47.1-5.3-22.9 4.7-31.2 21-50.4 30.7-51.8 26.2-105 62.6-170.5 63.6-32.5 0.5-62.1-17.9-79.8-44.8-4.1-15.4-9.4-32.9-15-51.9 0-4.6 0.2-9.3 1.5-14.5 5.1-21-3.5-32.5-8.1-52.8-0.8-3.4-5.9-13.9-9-22.6-8.4-39.5-20-75.1-14.5-110.2 7.8-50.6 26.6-105.6 58-146.5 7.6-9.8 26.3-41.2 43.3-22.6 4.4 4.9 13.6 11.2 19.4 14.5 8.7 5 14.4 7.6 23.8 2.4 12.4-7 26.1-37 42.2-31 10.8 4 26.7 14.9 37.6 6.8 14.4-10.6 22.3-33.5 34.1-47 10.8-12.4 9-24.7 16.9-38.3l7.1-3.9 12.4 22.8 16 7.3c0-5.8-5.8-11.6-11.6-11.6-8.7-11.6-8.7-23.3-8.7-37.8 0-5.8 2.9-11.6 2.9-20.4 2.9-5.8-5.8-11.6-2.9-20.4 5.8 0 8.7 2.9 14.5 2.9l11.6 0c5.8 0 11.6 0 17.4-5.8 5.8-2.9 8.7-8.7 14.5-8.7 8.7 0 14.5 11.6 26.2 8.7 5.8 0 14.5-11.6 17.4-14.6 2.9-2.9 0-8.7 5.8-8.7 2.9 0 11.6 2.9 14.5 5.8 2.9-2.9 5.8-2.9 8.7-5.8 2.9-2.9 5.8-5.8 8.7-11.6 2.9-5.8 8.7-5.8 17.5-5.8 5.8 0 11.6 2.9 20.4 2.9 5.8 0 8.7 2.9 11.6 0 2.9 0 5.8-5.8 8.7-5.8 2.9 2.9 2.9 8.7 5.8 11.6 2.9 2.9 8.7 5.8 11.6 8.7 5.8-2.9 5.8-11.6 8.7-14.5 8.7-5.8 11.6 0 20.4-2.9 8.7-2.9 8.7-5.8 14.5 2.9 2.9 5.8 8.7 11.6 14.5 14.5l23.3 0c2.9 0 8.7-2.9 11.6-2.9 2.9 2.9 2.9 8.7 5.8 11.6 5.8 5.8 14.5 5.8 20.4 11.6 2.9-5.8 8.7-11.6 14.6-11.6 5.8 0 8.7 14.6 14.5 20.4 2.9 2.9 8.7 5.8 11.6 5.8 2.9 0 5.8-2.9 5.8-2.9 5.8-2.9 23.3-2.9 26.2 2.9 2.9 5.8 0 17.4 0 23.3 0 6.3 3 12.6 5.8 18.9-0.4 1.3-0.6 2.6-0.5 4 0.3 4.6 0.8 9.5 1.5 14.3-2.8 3.6-7.7 6-12.6 9.3-5.8 2.9-14.5 11.6-14.5 20.4l-1 6.5 17.9-17.2 13.4-5.6c2.1 6.4 5.2 12.3 9.9 17 13.4 13.6 28.7 12.9 43.1 25.5 15.8 13.8 38.3 21.4 59.2 24.2 20.3 2.8 21.6 18.1 36 31.5 10 9.3 22.9 6.4 33.9 1.6 10.1-4.4 23.1-34.6 35.3-26.8 32.5 20.5 53.4 62.3 66.2 97.8 12.9 35.8 22.5 76.8 15.7 115.1-3.4 19.3-11.8 36.3-18.3 54.4-0.2-0.1-0.3-0.2-0.5-0.3-3.5-2-8.4 8.4-5 10.3 2.5 1.5-20.3 19.9-21.6 25.5-4.6 20.3-13.2 31.8-8.1 52.8 2.8 11.5 0.7 20.2 1.3 32.2 1.1 20.5-6 18.8-10.1 26.4-16.8 31.1-49 53.2-84.5 52.7-65.5-1.1-118.6-37.4-170.5-63.6-19.3-9.8-27.6-26-50.4-30.7-16.6-3.4-32.2-0.2-47.1 5.3-4 1.5-3.4 4.8 2 2.8 18.7-6.9 38.9-5.4 57.5 3.5 9.7 4.7 14.9 15.3 25 20.4 23.5 11.9 44.3 26 67.6 37.9 22.1 11.3 42.1 21 65.8 30.6 18.1 7.4 38.2 19.9 58.6 16.3 21-3.7 37.7-8.9 51.7-21.3 20.1-17.7 19.2-13.2 29.1-21.1 8.9 19.5 9.6 31.1 14.5 58.4 3.8 21.2 9.3 40.5 14.6 61.4 6.1 23.9 23 49.3 24.1 74.2 0.6 13.1 8.1 24.2 7.3 6.3-2.2-52.2-25.4-100.4-31-152.7-4.4-40.9 1.9-74.2 11.2-116.6 9.8 84.4 37.9 153.1 42.9 238.8 2.2 37.7-5.9 74.5-12.3 112.2 8.5 1.9 30.3 5.4 38.7 7.6 8.1-50.9 8.1-102.5 1.4-155.8m-130.3-271.9 0-17.9c0-5.8 4.4-12 4.4-17.8 2.9-8.7 0.5-15.7 0.5-27.3 0-5.8 0.9-14.5 0.9-20.4 0-5.8-5.8-8.7-5.8-14.5 0-5.8 0-8.7-2.9-11.7-2.8-11.1-3-19.6-5.5-27.9 0.4-0.2 0.8-0.3 1-0.1-0.6-3.3-4.6-13.3-7.5-20.2 0 0 0-0.1 0-0.1-1.1-2.6-1.2-4.4-1.8-5.5 0.2 0.4-1.9-3.5-1.6-2.7-1.7-3.3-2.4-3.1-3-3.6 0.9 1.2 3.1 10.5 4.5 13.3 2.1 7.7 6 18.4 6 19.9-0.1 2.5-0.6 4.6-0.6 9.5 0 5.8-2.9 11.6-2.9 17.4 0 2.9-2.9 5.8-2.9 11.7-14.5 8.7-17.4-20.4-20.3-29.1l0-5.8c-2.9-2.9-5.8-5.8-5.8-8.7-2.9-5.8-2.9-14.5-5.8-20.4-5.8-11.6-14.5-26.2-23.3-37.8-8.7-8.7-14.5-20.4-23.3-29.1-5.8-2.9-11.6-2.9-17.4-5.8-5.8-2.9-14.5-8.7-20.4-11.6-8.7-5.8-26.2 5.8-37.8 5.8-14.5 0-23.2-5.8-37.8 0-10.3 2.6-20.7 5.1-32.9 7.7-1.6 0.3-3.2 0.7-4.9 1l2 2c-3.7 3.3-8.9 6.7-10.7 6.7 0 2.9-2.9 2.9-2.9 5.8-5.8 2.9-8.7 8.7-11.6 11.6-2.9 5.8-5.8 8.7-11.6 11.6-2.9 5.8-8.7 8.7-11.6 14.5-5.8 5.8-8.7 11.6-11.6 17.5-5.8 8.7-14.5 20.4-23.3 26.2-5.8 5.8-14.5 8.7-17.4 17.5-2.9 11.6 0 26.2 0 37.8 0 8.7-5.8 17.5 0 26.2 2.9 2.9 5.8 8.7 8.7 11.6 0 2.9 2.9 2.9 2.9 5.8l0 5.8c2.9 2.9 8.7 5.8 11.6 8.7 5.8 5.8 11.6 8.7 17.4 14.6 23.3 14.5 40.7 29.1 64 40.7 5.8 2.9 14.6 8.7 20.4 11.6 2.9 2.9 5.8 2.9 11.6 2.9 2.9 0 2.9 2.9 5.8 2.9l78.5 0c8.7-2.9 14.6 0 23.3 5.8 11.6 5.8 20.4 2.9 32-2.9 8.7-5.8 17.5-8.7 29.1-11.6 2.9 0 2.9 0 5.8-2.9 2.9 0 17.2-5.8 17.2-11.6 2.9-8.7 14.8-18.4 17.7-27.1m-242.3-232.7 0.9-1.9c0 0.5-0.4 1.2-0.9 1.9m-287 120.3c-5.8-8.7-8.7-20.4-14.5-29.1-8.7-14.5-17.4-23.3-26.2-34.9-20.4-20.4-37.8-40.7-58.2-61.1-8.7-8.7-14.5-11.6-29.1-11.6-5.8 0-11.6 0-17.4 2.9l-49.4 0c-2.9 0-11.6 2.9-14.5 5.8-5.8 2.9-2.9 11.6-5.8 14.6-2.9 2.9-11.6 5.8-14.5 5.8-5.8 2.9-11.6 8.7-20.4 11.6l-11.6 0c-5.8 2.9-8.7 8.7-8.7 14.5-5.8 20.4-17.5 40.7-26.2 61.1-5.8 8.7-8.7 20.4-14.5 32 0 5.8-5.8 11.6-8.7 17.4-2.9 5.8-2.9 8.7-8.7 11.6l0-26.2c0-8.7 2.9-17.5 2.9-26.2 2.9-14.5 5.8-26.2 5.8-40.7l-2.9 5.8c0 5.8 0 11.6-2.9 17.5-5.8 5.8-8.7 5.8-8.7 14.5 0 11.6-8.7 23.3-8.7 37.8l0 8.7c0 2.9-2.9 5.8-2.9 8.7 0 2.9 2.9 5.8 2.9 8.7l0 26.2c0 2.9-2.9 5.8-2.9 11.6 0 11.6 2.9 23.3 5.8 32 2.9 5.8 2.9 11.6 5.8 14.5 2.9 5.8 5.8 5.8 11.6 5.8 14.5 2.9 23.3 11.6 34.9 17.5 5.8 2.9 14.5 0 17.5 5.8 5.8 0 11.6 5.8 14.5 8.7 5.8 5.8 11.6 0.3 20.4 0.3 8.7 0 14.5 2.9 23.3 0 11.6-2.9 17.5-3.2 29.1-6.1l11.6 0c2.9 0 2.9-2.9 5.8-2.9l8.7 0c2.9 0 5.8-2.9 8.7-2.9l8.7 0c2.9 0 5.8-2.9 8.7-2.9l11.6 0c11.6-2.9 23.3-14.5 34.9-20.4 8.7-2.9 20.4-8.7 29.1-14.5 8.7-2.9 11.6-8.7 17.4-14.5 2.9-2.9 5.8-5.8 11.6-11.6 5.8-11.6 14.5-20.4 23.3-32 11.6-17.4 11.6-43.6 2.9-64m70.3 159.7c34.1-22 63.6 9.7 88.6 31.4 14.7 12.8 28.4 21.6 35.3 41.3 0.5 1.3 2.4 4.8 3.9 5-0.1-0.3 3.4 2.2 3.3 1.8 0.5 3.2 3.2 6.5 2.6 2.1-0.1-0.8-0.2-1.7-0.4-2.5-0.2-1.6-1.5-3.7-3.3-3.9-2.3-0.3-11.3-17-11.6-17.6-5.3-10.2-10.5-20.3-19.2-27.9-19.3-16.8-54.9-63-80-55.4-18.7 5.6-52.1 37.2-67.9 49-8.1 6.1-16.4 17.3-20.8 25.9-8.3 16.2-9.8 23.3-22.6 36.1l-6.2 8.4c-2.4 2.4-1.1 4.8 1.2 2.4 15.6-15.6 24.7-31 36.9-49.2 12.3-18.4 41-34.5 60.2-46.9" fill="#231f20"/></g></g></g></svg>
