<?xml version="1.0" encoding="utf-8"?>
<!-- Generator: Adobe Illustrator 16.0.4, SVG Export Plug-In . SVG Version: 6.00 Build 0)  -->
<!DOCTYPE svg PUBLIC "-//W3C//DTD SVG 1.1//EN" "http://www.w3.org/Graphics/SVG/1.1/DTD/svg11.dtd">
<svg version="1.1"
	 id="Capa_1" shape-rendering="geometricPrecision" text-rendering="geometricPrecision" image-rendering="optimizeQuality"
	 xmlns="http://www.w3.org/2000/svg" xmlns:xlink="http://www.w3.org/1999/xlink" x="0px" y="0px" width="300px" height="300px"
	 viewBox="0 0 300 300" enable-background="new 0 0 300 300" xml:space="preserve">
<path d="M191.139,36.696c-1.834,0.494-4.035,0.046-5.285,1.053c-2.579,2.086-3.512,11.199-4.574,15.149
	c-1.089,3.914-2.197,7.824-3.291,11.729c-0.553,4.423-1.097,8.841-1.641,13.27c-2.389,7.316-4.771,14.63-7.159,21.961
	c-0.081,0.025-0.162,0.065-0.247,0.105c-1.164-0.222-2.344-0.469-3.518-0.705c-1.717-1.446-3.439-2.897-5.158-4.332
	c-0.09-2.167-0.962-4.067-0.579-6.585c0.181-2.973,0.373-5.945,0.579-8.917c-0.508-1.603-1.018-3.205-1.531-4.801
	c-0.272-2.978-0.539-5.955-0.822-8.938c-0.225-4.263-0.467-8.53-0.699-12.787c-0.721-4.545-0.393-11.497-5.98-10.458
	c-0.866,0.171-1.728,0.322-2.589,0.474c-6.167,3.5-4.599,13.265-4.227,21.255c0.131,3.047-1.606,6.852-0.937,10.917
	c0.463,2.893,0.937,5.784,1.41,8.681c-0.434,1.637-0.872,3.279-1.294,4.932c-0.156,1.829-0.313,3.683-0.469,5.516
	c-0.085,3.174-0.156,6.333-0.241,9.507c-1.407,6.983-3.789,14.434-10.207,16.44c-1.139-0.051-2.283-0.091-3.402-0.122
	c-6.116-0.081-6.997-1.96-9.511-5.4c-1.779-2.423-3.511-4.872-5.29-7.387c-0.73-1.017-1.481-2.04-2.222-3.058
	c-0.941-2.54-0.519-5.224-1.521-7.512c-1.415-3.225-3.889-6.423-5.995-9.038c-2.292-2.846-6.786-8.871-12.56-6.458
	c-1.712,0.709-2.291,2.242-3.516,3.396c2.11,4.575,4.474,9.552,5.864,14.791c0.832,3.164,0.176,7.22,1.174,9.98
	c2.146,5.884,5.411,11.824,7.163,17.955c0.389,3.496,0.782,6.982,1.165,10.458c0.941,2.268,3.314,3.447,4.71,5.286
	c0.816,1.214,1.637,2.423,2.464,3.642c2.887,4.418,4.599,9.612,7.27,14.082c2.62,4.378,6.322,8.579,8.333,13.37
	c1.32,3.123,1.803,6.539,2.831,9.986c1.557,6.055,3.113,12.126,4.69,18.201l2.081,15.95l-15.471,1.87l-16.601,7.465
	c-13.834-9.85-25.845-4.543-36.923,8.299c-7.274-8.072-21.896-5.623-25.305,7.053c-18.379-0.973-26.011,12.016-17.839,20.334
	L279,259.984c-13.174-20.883-26.51-33.906-40.242-26.555c-0.143-9.256-7.738-14.541-24.479-14.939
	c-8.177-9.436-18.368-12.413-31.528-5.809l-1.617,0.197l-0.096-5.038c-0.832-5.37-0.453-13.386,0.354-18.429
	c0-2.735,0-5.481,0-8.213c0.458-2.423,0.568-4.996,1.174-7.752c0.407-1.875,2.297-3.674,3.289-5.159
	c2.075-3.401,4.152-6.812,6.211-10.223c4.299-7.285,8.51-14.252,12.928-21.246c1.557-2.529,3.119-5.078,4.696-7.622
	c2.549-3.42,6.646-5.593,9.144-8.928c3.834-5.057,7.613-9.945,10.928-15.486c1.063-1.799,1.335-4.125,2.111-6.222
	c2.146-4.856,4.297-9.713,6.453-14.575c0.796-2.044,1.738-5.566,0.357-7.839c-2.811-4.63-8.283,0.358-9.98,2.57
	c-1.445,2.236-2.896,4.463-4.342,6.685c-0.625,1.572-1.26,3.138-1.875,4.695c-1.612,1.925-3.214,3.829-4.816,5.759
	c-1.062,1.955-2.126,3.91-3.178,5.869c-0.893,0.746-1.799,1.492-2.695,2.222c-2.707,2.152-5.396,4.403-7.281,7.401
	c-0.735,0-1.49,0-2.227,0c0.071-0.071,0.156-0.156,0.236-0.236c1.487-1.794,2.963-3.602,4.455-5.386
	c2.07-3.375,4.16-6.756,6.227-10.096c0.735-3.249,1.491-6.504,2.221-9.753c1.688-6.378,3.376-12.751,5.059-19.124
	c1.622-5.506,6.565-14.968-1.058-17.492c-2.298-0.766-5.154-0.151-6.343,1.174c-1.678,4.227-3.355,8.444-5.048,12.671
	c-0.122,1.572-0.237,3.138-0.343,4.695c-1.566,2.933-3.144,5.875-4.705,8.802c-0.73,2.317-1.48,4.621-2.222,6.922
	c-0.278,1.375-0.55,2.755-0.822,4.121c-1.173,1.098-2.353,2.192-3.521,3.275c-1.068,1.42-2.117,2.827-3.18,4.241
	c-2.322,3.291-2.957,8.268-8.564,6.323c0-0.03,0-0.081,0-0.111c1.088-4.473,3.083-8.74,4.801-12.674c0.682-1.22,1.342-2.419,2-3.643
	c0.051-3.749,0.086-7.518,0.117-11.26c0.79-5.773,1.576-11.511,2.353-17.266c0.726-3.652,2.821-14.675,1.173-17.366
	C194.327,37.834,192.408,37.578,191.139,36.696L191.139,36.696z"/>
<path d="M199.975,197.604c2.051,0,3.708,1.657,3.708,3.708s-1.657,3.707-3.708,3.707c-2.05,0-3.707-1.656-3.707-3.707
	S197.925,197.604,199.975,197.604z"/>
<circle cx="190.308" cy="185.981" r="6"/>
<path d="M101.997,203.635c2.398,0,4.337,1.939,4.337,4.338c0,2.397-1.939,4.338-4.337,4.338c-2.398,0-4.338-1.94-4.338-4.338
	C97.659,205.574,99.598,203.635,101.997,203.635z"/>
<circle cx="108.662" cy="190.314" r="6.666"/>
<circle cx="96.667" cy="177.649" r="6.665"/>
</svg>
