<?xml version="1.0" encoding="UTF-8" standalone="no"?>
<!-- Created with Inkscape (http://www.inkscape.org/) -->
<svg
   xmlns:svg="http://www.w3.org/2000/svg"
   xmlns="http://www.w3.org/2000/svg"
   xmlns:xlink="http://www.w3.org/1999/xlink"
   xmlns:inkscape="http://www.inkscape.org/namespaces/inkscape"
   version="1.0"
   width="559.39258"
   height="593.8858"
   id="svg2">
  <defs
     id="defs4">
    <linearGradient
       id="linearGradient13919">
      <stop
         style="stop-color:#ffffff;stop-opacity:1"
         offset="0"
         id="stop13921" />
      <stop
         style="stop-color:#959595;stop-opacity:1"
         offset="1"
         id="stop13923" />
    </linearGradient>
    <linearGradient
       id="linearGradient12932">
      <stop
         style="stop-color:#000000;stop-opacity:1"
         offset="0"
         id="stop12934" />
      <stop
         style="stop-color:#3e3e3e;stop-opacity:1"
         offset="1"
         id="stop12936" />
    </linearGradient>
    <linearGradient
       x1="113.11522"
       y1="753.27679"
       x2="113.11522"
       y2="178.30824"
       id="linearGradient12938"
       xlink:href="#linearGradient12932"
       gradientUnits="userSpaceOnUse" />
    <linearGradient
       x1="501.19025"
       y1="313.8848"
       x2="643.4162"
       y2="431.43213"
       id="linearGradient13925"
       xlink:href="#linearGradient13919"
       gradientUnits="userSpaceOnUse" />
    <filter
       id="filter14908">
      <feGaussianBlur
         id="feGaussianBlur14910"
         stdDeviation="3.9481105"
         inkscape:collect="always" />
    </filter>
  </defs>
  <g
     transform="translate(-103.93952,-170.14828)"
     id="layer1">
    <path
       d="M 272.00589,182.8341 C 272.00589,182.8341 280.97552,178.64828 291.73906,178.64828 C 302.50261,178.64828 329.11249,181.93714 341.66996,223.49639 C 354.22743,265.05564 354.82541,336.81262 354.82541,336.81262 C 354.82541,336.81262 414.02492,337.4106 485.7819,333.52376 C 485.7819,333.52376 510.59785,348.47313 512.39178,417.24024 C 513.61713,464.21191 509.10292,470.46 492.95759,482.41949 C 492.95759,482.41949 426.2834,416.64226 356.91832,425.61189 C 356.91832,425.61189 364.39301,565.23901 436.14999,729.08412 C 436.14999,729.08412 360.21911,763.53407 297.21713,763.53407 C 234.21516,763.53407 171.00176,736.89565 158.3168,729.49609 C 158.3168,729.49609 192.35478,714.48555 206.73107,652.32924 C 221.10736,590.17292 224.49002,551.27237 224.49002,551.27237 C 224.49002,551.27237 188.97212,545.77556 161.91087,528.86227 C 134.84962,511.94899 112.43952,489.96172 112.43952,489.96172 C 112.43952,489.96172 179.66982,421.46293 189.39496,410.89213 C 199.12009,400.32133 220.89595,378.96831 242.46038,343.87324 C 242.46038,343.87324 224.06719,321.25173 224.06719,296.30464 C 224.06719,271.35755 244.36313,234.57116 247.74578,227.80584 C 251.12844,221.04053 266.35039,187.21397 272.00589,182.8341 z "
       style="opacity:0.79148937;fill:#000000;fill-opacity:1;fill-rule:evenodd;stroke:#000000;stroke-width:1px;stroke-linecap:butt;stroke-linejoin:miter;stroke-opacity:1;filter:url(#filter14908)"
       id="path13929" />
    <path
       d="M 493.65644,280.27083 C 493.65644,280.27083 504.65007,280.05941 515.64371,283.65349 C 526.63734,287.24756 560.67532,298.24119 573.5717,307.33208 C 586.46808,316.42297 592.59914,329.9536 592.59914,329.9536 L 616.27774,370.12264 L 638.89925,418.95975 L 652.85271,460.39729 L 653.06413,465.89411 C 653.06413,465.89411 642.49333,446.23241 639.5335,441.58126 C 636.57368,436.93011 603.38136,379.21353 590.06215,365.89432 C 576.74294,352.57511 572.09179,344.5413 572.09179,344.5413 C 572.09179,344.5413 538.89947,325.72528 530.02,325.72528 C 521.14052,325.72528 490.69661,325.51386 490.69661,325.51386 L 493.65644,280.27083 z "
       style="opacity:1;color:#000000;fill:url(#linearGradient13925);fill-opacity:1;fill-rule:evenodd;stroke:#4549ff;stroke-width:1px;stroke-linecap:butt;stroke-linejoin:miter;marker:none;marker-start:none;marker-mid:none;marker-end:none;stroke-miterlimit:4;stroke-dasharray:none;stroke-dashoffset:0;stroke-opacity:1;visibility:visible;display:inline;overflow:visible;enable-background:accumulate"
       id="path13917" />
    <path
       d="M 491.53125,277.28125 L 491.40625,279.28125 L 489.09375,326.25 L 488.96875,328.8125 L 491.4375,328.125 C 491.4375,328.125 530.3228,317.28519 567.59375,345 C 586.27407,358.89077 607.93711,390.90225 624.65625,419.34375 C 641.37539,447.78525 653.28125,472.6875 653.28125,472.6875 L 663.3321,494.0979 L 656.75,471.375 C 638.31403,405.87109 611.26268,352.83555 590.34375,323.0625 C 577.49592,304.77673 553.27503,293.57697 532.3125,286.75 C 511.34997,279.92303 493.5,277.53125 493.5,277.53125 L 491.53125,277.28125 z M 495.03125,281.5625 C 497.74523,281.95194 512.35719,284.12762 531.15625,290.25 C 551.77124,296.96379 575.3259,308.12749 587.3125,325.1875 C 605.72586,351.39448 634.06015,404.80452 650.67814,461.32018 C 645.68588,451.77527 635.56481,430.60331 627.84375,417.46875 C 611.03654,388.87741 589.55769,356.71385 569.8125,342.03125 C 534.59944,315.84669 499.17536,322.64304 492.90625,324.09375 L 495.03125,281.5625 z "
       style="opacity:1;color:#000000;fill:#000000;fill-opacity:1;fill-rule:evenodd;stroke:none;stroke-width:3.70000005;stroke-linecap:butt;stroke-linejoin:miter;marker:none;stroke-miterlimit:4;stroke-dasharray:none;stroke-dashoffset:0;stroke-opacity:1;visibility:visible;display:inline;overflow:visible;enable-background:accumulate"
       id="path8073" />
    <path
       d="M 264.00589,174.8341 C 264.00589,174.8341 272.97552,170.64828 283.73906,170.64828 C 294.50261,170.64828 321.11249,173.93714 333.66996,215.49639 C 346.22743,257.05564 346.82541,328.81262 346.82541,328.81262 C 346.82541,328.81262 406.02492,329.4106 477.7819,325.52376 C 477.7819,325.52376 502.59785,340.47313 504.39178,409.24024 C 505.61713,456.21191 501.10292,462.46 484.95759,474.41949 C 484.95759,474.41949 418.2834,408.64226 348.91832,417.61189 C 348.91832,417.61189 356.39301,557.23901 428.14999,721.08412 C 428.14999,721.08412 352.21911,755.53407 289.21713,755.53407 C 226.21516,755.53407 163.00176,728.89565 150.3168,721.49609 C 150.3168,721.49609 184.35478,706.48555 198.73107,644.32924 C 213.10736,582.17292 216.49002,543.27237 216.49002,543.27237 C 216.49002,543.27237 180.97212,537.77556 153.91087,520.86227 C 126.84962,503.94899 104.43952,481.96172 104.43952,481.96172 C 104.43952,481.96172 171.66982,413.46293 181.39496,402.89213 C 191.12009,392.32133 212.89595,370.96831 234.46038,335.87324 C 234.46038,335.87324 216.06719,313.25173 216.06719,288.30464 C 216.06719,263.35755 236.36313,226.57116 239.74578,219.80584 C 243.12844,213.04053 258.35039,179.21397 264.00589,174.8341 z "
       style="fill:#000000;fill-opacity:1;fill-rule:evenodd;stroke:#000000;stroke-width:1px;stroke-linecap:butt;stroke-linejoin:miter;stroke-opacity:1"
       id="path2221" />
    <path
       d="M 265.96137,184.60507 L 267.75841,190.63043 C 267.75841,190.63043 262.36146,198.45411 259.37159,205.6298 C 256.38171,212.8055 248.60804,230.44576 246.21614,235.67804 C 243.82424,240.91032 239.48892,254.21526 237.24652,259.59703 C 235.00411,264.97881 233.21019,275.44337 233.21019,279.92818 C 233.21019,284.41299 234.10715,292.63514 238.44247,299.96034 C 242.77779,307.28553 255.93324,322.83287 262.36147,327.16819 C 268.7897,331.50351 266.73026,330.5282 269.23818,331.50351 C 271.92906,332.54997 275.8159,334.0449 275.8159,334.0449 C 275.8159,334.0449 275.96539,331.05503 277.46033,329.70958 C 277.46033,329.70958 279.40375,327.61667 280.15121,326.27123 C 280.89868,324.92579 287.47641,313.86325 288.82185,312.21882 C 290.16729,310.57439 291.66223,307.8835 291.96122,305.94008 C 292.2602,303.99667 293.90464,300.8573 294.6521,299.81084 C 295.39957,298.76439 297.49248,293.23312 297.64198,290.54223 C 297.79147,287.85135 298.68843,276.9383 295.99755,264.08185 C 293.30666,251.22539 275.51691,189.63398 274.91893,187.84005 C 274.32096,186.04613 272.82602,182.45828 275.36742,180.96334 C 277.90881,179.4684 284.03805,177.37549 292.85818,180.21587 C 301.67831,183.05625 320.51452,194.26828 328.73667,225.66196 C 336.95882,257.05564 340.84566,280.07767 342.63959,334.49338 C 342.63959,334.49338 375.22921,338.67921 402.73606,338.67921 C 430.2429,338.67921 479.87481,330.90553 479.87481,330.90553 C 479.87481,330.90553 464.92544,347.05085 464.92544,373.66074 C 464.92544,400.27062 482.86469,467.54279 482.86469,467.54279 C 482.86469,467.54279 440.40847,410.1372 372.53833,410.1372 C 372.53833,410.1372 352.50617,409.53923 344.43351,413.72505 C 344.43351,413.72505 341.14465,476.21342 354.89807,527.63926 C 368.65149,579.06509 423.96416,721.08412 423.96416,721.08412 C 423.96416,721.08412 343.53655,752.77679 296.89451,752.77679 C 250.25247,752.77679 213.776,746.49805 156.07143,722.28007 C 156.07143,722.28007 185.97018,700.75297 200.91955,658.29676 C 215.86892,615.84055 221.98683,602.04603 226.63799,527.20476 C 231.28914,452.36348 231.71197,423.6109 231.71197,423.6109 L 217.33568,506.90882 C 217.33568,506.90882 192.84689,484.88406 165.34004,479.80127 C 137.8332,474.71848 113.61522,478.60532 113.61522,478.60532 C 113.61522,478.60532 172.21675,430.46835 191.35195,407.44631 C 210.48714,384.42428 240.68487,337.18427 240.68487,337.18427 C 240.68487,337.18427 226.93145,300.10983 226.93145,278.88172 C 226.93145,257.65362 254.13931,202.93892 265.96137,184.60507 z "
       style="opacity:1;color:#000000;fill:url(#linearGradient12938);fill-opacity:1;fill-rule:evenodd;stroke:#000000;stroke-width:1px;stroke-linecap:butt;stroke-linejoin:miter;marker:none;marker-start:none;marker-mid:none;marker-end:none;stroke-miterlimit:4;stroke-dasharray:none;stroke-dashoffset:0;stroke-opacity:1;visibility:visible;display:inline;overflow:visible;enable-background:accumulate"
       id="path3212" />
    <path
       d="M 281.34718,232.23969 C 281.34718,232.23969 278.02024,235.07862 274.65896,236.97768 C 271.93678,238.51566 269.1358,238.87615 269.83615,241.05981 C 270.65921,243.62609 272.65999,242.94357 274.17148,241.80728 C 277.51449,239.29411 281.34718,232.23969 281.34718,232.23969 z "
       style="opacity:1;color:#000000;fill:#c60000;fill-opacity:1;fill-rule:evenodd;stroke:#c60000;stroke-width:1px;stroke-linecap:butt;stroke-linejoin:miter;marker:none;marker-start:none;marker-mid:none;marker-end:none;stroke-miterlimit:4;stroke-dasharray:none;stroke-dashoffset:0;stroke-opacity:1;visibility:visible;display:inline;overflow:visible;enable-background:accumulate"
       id="path3214" />
    <path
       d="M 250.53686,232.11988 C 250.53686,232.11988 253.9208,234.89061 257.31998,236.72097 C 260.07286,238.20331 262.88058,238.50681 262.22475,240.70425 C 261.45401,243.28672 259.43978,242.64501 257.90551,241.53966 C 254.51212,239.09495 250.53686,232.11988 250.53686,232.11988 z "
       style="opacity:1;color:#000000;fill:#c60000;fill-opacity:1;fill-rule:evenodd;stroke:#c60000;stroke-width:1px;stroke-linecap:butt;stroke-linejoin:miter;marker:none;marker-start:none;marker-mid:none;marker-end:none;stroke-miterlimit:4;stroke-dasharray:none;stroke-dashoffset:0;stroke-opacity:1;visibility:visible;display:inline;overflow:visible;enable-background:accumulate"
       id="path3216" />
    <path
       d="M 476.95593,273.16936 C 476.95593,273.16936 479.47835,297.40258 482.13105,327.68738 C 482.62552,333.33244 484.39028,338.63665 484.84781,344.41454 C 486.46914,364.88982 486.06274,385.7771 486.45253,399.67264 C 487.73116,445.41366 485.14844,486.09034 478.42122,513.1487 C 473.11578,534.48838 469.15261,568.4407 469.15261,578.60628 C 469.15261,588.77185 467.91531,605.97396 463.72949,626.00612 C 459.54367,646.03828 440.90863,728.57948 440.90863,728.57948 C 440.90863,728.57948 442.245,733.75629 447.88316,735.7345 C 453.56946,737.7296 464.06982,730.81155 464.62645,728.5588 C 465.20468,726.21867 474.19405,665.47246 474.79203,654.11094 C 475.39,642.74941 483.76165,583.54991 484.35962,576.97218 C 484.9576,570.39446 494.22621,489.96684 494.22621,463.95494 C 494.22621,437.94303 497.51507,397.87872 496.31912,341.96807 C 496.31912,341.96807 496.31912,335.98832 493.62823,332.25098 C 490.93735,328.51363 491.38583,322.68338 491.38583,318.64705 C 491.38583,314.61072 493.32925,273.64944 494.22621,270.65957 C 495.12317,267.66969 477.10542,273.76733 476.95593,273.16936 z "
       style="opacity:1;color:#000000;fill:#ff9c00;fill-opacity:1;fill-rule:evenodd;stroke:#000000;stroke-width:3.70000005;stroke-linecap:butt;stroke-linejoin:miter;marker:none;marker-start:none;marker-mid:none;marker-end:none;stroke-miterlimit:4;stroke-dasharray:none;stroke-dashoffset:0;stroke-opacity:1;visibility:visible;display:inline;overflow:visible;enable-background:accumulate"
       id="path3218" />
    <path
       d="M 442.56664,727.74938 L 448.48032,718.15964 L 450.07861,730.14681 C 450.07861,730.14681 454.87348,724.39297 459.66835,703.45536 C 459.66835,703.45536 455.67263,726.95023 455.03331,728.70835 C 454.39399,730.46647 463.34442,725.99126 467.65981,703.93485 C 471.97519,681.87844 464.94271,728.38869 464.94271,728.38869 L 453.91451,734.4622 L 446.88203,735.26134 L 440.6487,728.86818 L 442.56664,727.74938 z "
       style="opacity:1;color:#000000;fill:#000000;fill-opacity:1;fill-rule:evenodd;stroke:#000000;stroke-width:0.30000001;stroke-linecap:butt;stroke-linejoin:miter;marker:none;marker-start:none;marker-mid:none;marker-end:none;stroke-miterlimit:4;stroke-dasharray:none;stroke-dashoffset:0;stroke-opacity:1;visibility:visible;display:inline;overflow:visible;enable-background:accumulate"
       id="path5160" />
    <path
       d="M 432.49742 258.41138 A 6.9525638 3.4363246 0 1 1  418.5923,258.41138 A 6.9525638 3.4363246 0 1 1  432.49742 258.41138 z"
       transform="matrix(1.2764381,0,0,0.9546539,-57.860767,23.225633)"
       style="fill:#503100;fill-opacity:1;stroke:#000000;stroke-width:3;stroke-miterlimit:4;stroke-dasharray:none;stroke-opacity:1"
       id="path5162" />
    <path
       d="M 478.36835,273.83487 C 478.36835,273.83487 481.56493,275.91265 481.72476,278.9494 C 481.88459,281.98615 484.92134,285.0229 484.76151,287.26051 C 484.60169,289.49812 485.241,295.41179 485.241,295.41179 C 485.241,295.41179 485.08117,277.19128 486.67946,276.07248 C 488.27775,274.95367 488.27775,278.9494 488.59741,281.02718 C 488.91707,283.10496 488.91707,284.86308 488.91707,284.86308 C 488.91707,284.86308 492.11365,280.70752 492.75297,278.15026 C 493.39228,275.59299 493.55211,271.91692 493.55211,271.91692 L 479.00767,272.07675 L 478.36835,273.83487 z "
       style="opacity:1;color:#000000;fill:#000000;fill-opacity:1;fill-rule:evenodd;stroke:#000000;stroke-width:0.30000001;stroke-linecap:butt;stroke-linejoin:miter;marker:none;marker-start:none;marker-mid:none;marker-end:none;stroke-miterlimit:4;stroke-dasharray:none;stroke-dashoffset:0;stroke-opacity:1;visibility:visible;display:inline;overflow:visible;enable-background:accumulate"
       id="path6133" />
    <path
       d="M 491.87292,321.61856 C 492.65157,321.6926 498.46184,322.37618 499.70601,321.7541 C 501.53374,320.84023 502.40246,319.65781 503.69568,319.0112 C 504.98613,318.36597 507.2177,318.54355 508.18405,319.50991 C 509.53301,320.85886 509.44463,321.00603 511.42566,321.00603 C 511.93392,321.00603 514.66056,318.88987 515.41533,318.51249 C 516.30345,318.06843 518.86267,318.51249 519.90371,318.51249 C 521.62603,318.51249 522.44481,319.55747 523.64402,320.75668 C 524.96521,322.07787 526.82979,322.62944 528.38175,323.25022 C 529.75709,323.80036 532.46452,323.77636 533.86755,323.25022 C 535.86238,322.50216 537.4682,322.6412 539.10399,323.25022 C 541.11323,323.99828 541.4435,323.84425 542.8443,325.24506 C 543.7642,326.16495 545.09025,326.9923 545.83655,327.7386 C 546.62786,328.52991 548.17898,329.23472 549.70154,329.23472 C 551.05133,329.23472 552.60724,329.93951 553.69121,330.48149 C 555.26613,331.26896 556.55911,331.3544 558.05491,332.1023 C 559.61974,332.88472 560.36173,334.47175 561.04716,335.84262 C 561.56483,336.87795 564.18987,337.38924 565.28619,338.21148 C 565.91756,338.68501 568.44936,338.5659 569.0265,338.71019 C 570.17908,338.99833 571.31533,339.35589 572.51746,339.95696 C 574.03516,340.71581 574.60442,342.93652 575.50971,344.44534 C 576.5034,346.10148 577.53188,347.83212 579.00067,348.93372 C 580.15266,349.79771 580.00683,351.08658 581.36954,351.42726 C 582.7205,351.765 583.83604,352.35558 585.10985,352.67403 C 586.23577,352.95551 587.84238,354.66109 588.85017,355.41693 C 590.12238,356.37109 590.99046,359.48974 591.34371,360.90272 C 591.82288,362.81942 592.6361,364.6324 593.33854,366.38852 C 593.97914,367.99 596.56069,368.73792 597.70225,369.87948 C 598.79508,370.97231 599.27958,371.85258 600.56982,372.4977 C 601.63174,373.02866 602.76991,374.51685 603.31272,375.2406 C 604.02141,376.18552 604.03827,378.1428 604.31014,379.23026 C 604.71562,380.85219 605.99516,382.39127 606.80368,383.46929 C 607.88041,384.90493 608.65853,386.0722 609.79593,387.2096 C 610.35715,387.77082 612.12797,388.37562 612.78818,388.70573 C 613.71947,389.17137 614.10309,391.58489 614.53366,392.44604 C 614.96675,393.31222 615.34972,395.21156 615.53108,395.937 C 615.90599,397.43666 617.45791,398.16985 617.89994,399.05393 C 618.45204,400.15813 619.36994,401.02263 620.14413,401.79683 C 621.05271,402.7054 621.78531,404.08176 622.38832,405.28779 C 623.1166,406.74433 623.32459,407.47558 623.63509,409.0281 C 623.8692,410.19865 624.56215,411.13157 625.13122,412.26971 C 625.68634,413.37996 626.65957,414.31825 627.37541,415.51131 C 628.13186,416.77207 628.52666,417.37878 629.37024,418.50356 C 630.17118,419.57148 630.53347,420.83002 631.11572,421.99452 C 631.68999,423.14306 631.91187,424.58423 632.36249,425.48548 C 632.43684,425.63417 632.23781,427.31409 632.23781,427.48032 L 632.11314,427.35564 C 632.11314,427.35564 616.40382,399.67731 593.71258,368.6327 C 571.02134,337.58809 544.96381,330.4815 529.12982,325.99312 C 513.29582,321.50474 496.09037,324.9957 496.09037,324.9957 L 491.87292,321.61856 z "
       style="fill:#000000;fill-opacity:1;fill-rule:evenodd;stroke:#000000;stroke-width:0.2;stroke-linecap:butt;stroke-linejoin:miter;stroke-miterlimit:4;stroke-dasharray:none;stroke-opacity:1"
       id="path8075" />
    <path
       d="M 478.75158,286.61331 C 478.66408,285.29668 477.99738,283.95281 477.16598,282.91353 C 476.46958,282.04306 475.73478,281.58803 474.94608,280.79937 C 474.19058,280.04384 473.88908,278.79672 473.88908,277.73384 C 473.88908,277.59289 473.88908,277.45195 473.88908,277.311 C 473.88908,274.63447 476.49728,279.67343 476.84888,280.37654 C 477.12208,280.92289 477.44578,281.38389 477.80028,281.85645"
       style="fill:#000000;fill-opacity:1;fill-rule:evenodd;stroke:#000000;stroke-width:1px;stroke-linecap:butt;stroke-linejoin:miter;stroke-opacity:1"
       id="path13927" />
  </g>
</svg>
