<?xml version="1.0" encoding="utf-8"?>
<!-- Generator: Adobe Illustrator 17.0.0, SVG Export Plug-In . SVG Version: 6.00 Build 0)  -->
<!DOCTYPE svg PUBLIC "-//W3C//DTD SVG 1.1//EN" "http://www.w3.org/Graphics/SVG/1.1/DTD/svg11.dtd">
<svg version="1.1" id="Capa_1" xmlns="http://www.w3.org/2000/svg" xmlns:xlink="http://www.w3.org/1999/xlink" x="0px" y="0px"
	 width="24.016px" height="23.95px" viewBox="0 0 24.016 23.95" enable-background="new 0 0 24.016 23.95" xml:space="preserve">
<path d="M22.017,5.069c0.986,1.642,1.559,3.656,1.559,6.021c0,7.09-5.069,12.86-11.302,12.86c-6.233,0-11.303-5.769-11.303-12.86
	c0-2.135,0.468-3.981,1.28-5.531L0,1.054l7.217,3.575L7.191,4.797C6.734,7.728,3.795,8.219,3.765,8.223L3.596,8.249L3.35,7.757
	C3.02,8.766,2.837,9.876,2.837,11.09c0,6.064,4.231,10.996,9.435,10.996c5.204,0,9.438-4.932,9.438-10.996
	c0-1.461-0.257-2.782-0.73-3.946L22.017,5.069z M12.273,1.864c2.502,0,4.616,0.69,6.205,1.932l-1.681,0.833l0.025,0.168
	c0.457,2.931,3.399,3.422,3.428,3.426l0.168,0.026l3.598-7.195l-3.737,1.851C18.229,1.007,15.399,0,12.273,0
	C9.06,0,6.161,1.073,4.102,3.074l1.781,0.883C7.492,2.617,9.67,1.864,12.273,1.864z M7.083,14.105c0,0.814,0.661,1.476,1.474,1.476
	c0.815,0,1.475-0.661,1.475-1.476c0-0.253-0.069-0.484-0.18-0.692l-2.066-0.559C7.365,13.113,7.083,13.575,7.083,14.105z
	 M15.83,19.083H8.717v0.696h7.113V19.083z M10.895,13.696l-4.894-2.652v1.325l1.785,0.485l2.066,0.558L10.895,13.696z
	 M18.582,11.044l-4.894,2.652l1.172-0.319c-0.124,0.218-0.198,0.462-0.198,0.728c0,0.814,0.658,1.476,1.475,1.476
	c0.812,0,1.473-0.661,1.473-1.476c-0.001-0.545-0.3-1.017-0.741-1.272l1.713-0.464V11.044z"/>
</svg>
