<?xml version="1.0" encoding="utf-8"?>
<!-- Generator: Adobe Illustrator 17.0.2, SVG Export Plug-In . SVG Version: 6.00 Build 0)  -->
<!DOCTYPE svg PUBLIC "-//W3C//DTD SVG 1.0//EN" "http://www.w3.org/TR/2001/REC-SVG-20010904/DTD/svg10.dtd">
<svg version="1.0" id="Layer_1" xmlns="http://www.w3.org/2000/svg" xmlns:xlink="http://www.w3.org/1999/xlink" x="0px" y="0px"
	 width="26px" height="26px" viewBox="0 0 26 26" style="enable-background:new 0 0 26 26;" xml:space="preserve">
<g>
	<path d="M12,15.9c-0.6-0.3-3-1.3-4.2-2c0,0,0,2.1,1,2.7C10,17.3,11.9,16.6,12,15.9z"/>
	<path d="M17.2,16.6c1-0.6,1-2.7,1-2.7c-1.2,0.7-3.6,1.7-4.2,2C14.1,16.6,16,17.3,17.2,16.6z"/>
	<path d="M13,19.6c-1.6,0-2.3-1.2-3,0.2c-0.4,0.8,1,2.7,3,2.7s3.4-2,3-2.7C15.2,18.3,14.6,19.6,13,19.6z M14.5,20.5
		c0,0-0.4-0.1-0.5-0.3c-0.1,0.2-0.4,0.5-0.5,0.5c-0.1,0-0.5-0.4-0.6-0.5c-0.1,0.2-0.4,0.5-0.5,0.5c-0.1,0-0.4-0.4-0.4-0.6
		c-0.2,0.2-0.5,0.4-0.6,0.4s-0.5-0.8-0.5-0.9c0.5,0.1,1,0.5,2,0.5s1.7-0.3,2-0.5C14.9,20.1,14.5,20.5,14.5,20.5z"/>
	<path d="M13,8.8c4,0,6.3-1,7.2-1.5C20,6.8,20,6.4,19.9,5.7C19,2,17.9,0.1,16,0.1c-1,0-2.2,1.6-3,1.6c-0.7,0-2-1.6-3-1.6
		c-1.9,0-3,2-3.9,5.6c0,0.3,0,1.4-0.1,1.7C7,7.9,9.2,8.8,13,8.8L13,8.8z"/>
	<path d="M24.9,10.2c0-0.5-2.8,0.1-4.2-1.7c-1.1,0.6-3.5,1.6-7.7,1.6c-4.1,0-6.5-1-7.6-1.6C4,9.8,1.1,9.7,1.1,10.2
		c0,0.285,1.09,1.131,2.983,1.943c0.003,0.022,0.005,0.045,0.008,0.067C3.542,12.823,3.2,13.736,3.2,14.8
		c0,1.613,1.236,2.979,2.356,3.437C6.183,22.694,11.35,25.8,13,25.8c1.657,0,6.713-3.017,7.43-7.536
		c1.25-0.459,2.37-1.997,2.37-3.464c0-1.019-0.349-1.928-0.894-2.552c0.009-0.037,0.018-0.074,0.026-0.111
		C23.815,11.327,24.9,10.484,24.9,10.2z M19.7,16.8c-0.421,0-0.77,0.325-0.798,0.745C18.637,21.444,13.906,24.2,13,24.2
		c-0.931,0-5.724-2.749-5.901-6.637C7.08,17.148,6.716,16.816,6.301,16.8c-0.368-0.016-1.501-0.935-1.501-2
		c0-0.874,0.342-1.507,0.728-1.718C6.2,13.353,6.6,14,6.6,14l0.134-0.938C8.504,13.548,10.618,13.9,13,13.9
		c2.386,0,4.504-0.353,6.275-0.841L19.4,13.9c0,0,0.329-0.572,0.892-0.881C20.73,13.112,21.2,13.852,21.2,14.8
		C21.2,15.833,20.169,16.8,19.7,16.8z"/>
</g>
</svg>
