<?xml version="1.0" encoding="utf-8"?>

<!-- License Agreement at http://iconmonstr.com/license/ -->

<!DOCTYPE svg PUBLIC "-//W3C//DTD SVG 1.1//EN" "http://www.w3.org/Graphics/SVG/1.1/DTD/svg11.dtd">
<svg version="1.1" xmlns="http://www.w3.org/2000/svg" xmlns:xlink="http://www.w3.org/1999/xlink" x="0px" y="0px"
	 width="512px" height="512px" viewBox="0 0 512 512" enable-background="new 0 0 512 512" xml:space="preserve">
<path id="christmas-gingerbread-icon" d="M373.879,412.057c15.287,22.55,1.627,42.234-11.986,47.447
	c-19.107,7.316-38.573-2.203-55.872-18.779c1.692-2.482,2.431-4.965,2.996-6.881c1.375-4.662,3.088-5.288,7.327-4.555
	c11.571,2.01,19.838-3.202,23.134-14.377c1.442-4.886,3.352-5.244,7.327-4.555c9.958,1.73,16.967-2.346,20.55-8.135
	C369.438,405.431,371.605,408.703,373.879,412.057z M390.647,245.568c-44.487,16.726-97.101,34.295-32.49,141.953
	c-0.784,1.643-1.248,3.203-1.632,4.501c-1.438,4.873-3.344,5.249-7.327,4.557c-11.785-2.038-19.901,3.422-23.133,14.377
	c-1.38,4.672-3.1,5.289-7.33,4.557c-11.278-1.957-19.782,3.031-23.078,14.192c-17.202-20.118-31.413-45.864-39.657-65.759
	c-8.244,19.895-22.455,45.641-39.657,65.759c-3.296-11.161-11.8-16.149-23.078-14.192c-4.23,0.732-5.95,0.115-7.33-4.557
	c-3.231-10.955-11.348-16.415-23.133-14.377c-3.983,0.692-5.89,0.316-7.327-4.557c-0.384-1.298-0.848-2.858-1.632-4.501
	c64.61-107.658,11.997-125.228-32.49-141.953c6.255-4.317,10.039-12.642,6.225-23.116c-1.411-3.875-1.286-5.776,3.19-8.016
	c10.324-5.167,14.122-14.18,10.071-25.305c-0.019-0.052-0.032-0.092-0.051-0.141c6.517,0.668,13.315,1.154,20.307,1.154
	c31.871,0,43.102-11.573,43.102-11.573c-14.127-13.596-22.931-32.683-22.931-53.838C181.266,83.46,214.726,50,256,50
	s74.734,33.46,74.734,74.734c0,21.155-8.804,40.242-22.931,53.838c0,0,11.23,11.573,43.102,11.573c6.991,0,13.79-0.486,20.307-1.154
	c-0.019,0.049-0.032,0.089-0.051,0.141c-4.051,11.125-0.253,20.138,10.071,25.305c4.477,2.239,4.602,4.141,3.19,8.016
	C380.608,232.927,384.393,241.251,390.647,245.568z M219.943,109.488c0,6.895,5.59,12.485,12.488,12.485
	c6.895,0,12.483-5.591,12.483-12.485c0-6.896-5.589-12.485-12.483-12.485C225.533,97.003,219.943,102.592,219.943,109.488z
	 M268.499,279.21c0-6.896-5.59-12.486-12.485-12.486c0,0-0.009,0.001-0.014,0.001l-0.014-0.001c-6.896,0-12.485,5.591-12.485,12.486
	c0,6.896,5.59,12.485,12.485,12.485l0.014-0.001c0.005,0,0.009,0.001,0.009,0.001C262.909,291.695,268.499,286.106,268.499,279.21z
	 M268.499,230.266c0-6.896-5.59-12.485-12.485-12.485c0,0-0.009,0.001-0.014,0.001l-0.014-0.001
	c-6.896,0-12.485,5.589-12.485,12.485s5.59,12.486,12.485,12.486l0.014-0.001c0.005,0,0.009,0.001,0.009,0.001
	C262.909,242.752,268.499,237.162,268.499,230.266z M288.599,139.843c-2.772-2.688-7.199-2.618-9.888,0.154
	c-6.026,6.217-13.242,9.112-22.711,9.112s-16.685-2.896-22.711-9.112c-2.688-2.772-7.115-2.842-9.888-0.154
	c-2.772,2.688-2.841,7.115-0.154,9.888c8.596,8.866,19.615,13.362,32.753,13.362s24.157-4.496,32.753-13.362
	C291.439,146.958,291.371,142.531,288.599,139.843z M292.057,109.488c0-6.896-5.59-12.485-12.488-12.485
	c-6.895,0-12.483,5.589-12.483,12.485c0,6.895,5.589,12.485,12.483,12.485C286.467,121.974,292.057,116.383,292.057,109.488z
	 M402.837,185.337c-5.188,0.378-10.858,1.109-16.895,1.89c-0.201,2.717-1.006,4.946-1.642,6.69c-1.468,4.033-1.165,5.835,3.19,8.015
	c10.299,5.155,14.131,14.159,10.072,25.305c-1.459,4.007-1.184,5.828,3.191,8.018c1.71,0.856,3.904,1.959,5.972,3.898
	c4.886-2.163,9.428-4.474,13.399-7.094C442.786,217.115,432.302,183.189,402.837,185.337z M124.509,201.932
	c4.355-2.18,4.658-3.981,3.19-8.015c-0.636-1.744-1.44-3.974-1.642-6.69c-6.036-0.78-11.706-1.512-16.895-1.89
	c-29.465-2.147-39.949,31.778-17.289,46.722c3.972,2.62,8.514,4.931,13.399,7.094c2.067-1.939,4.262-3.042,5.972-3.898
	c4.375-2.189,4.65-4.011,3.191-8.018C110.378,216.091,114.21,207.087,124.509,201.932z M195.656,429.289
	c-11.571,2.01-19.838-3.202-23.134-14.377c-1.442-4.886-3.352-5.244-7.327-4.555c-9.958,1.73-16.967-2.346-20.55-8.135
	c-2.083,3.208-4.251,6.48-6.524,9.834c-15.287,22.55-1.627,42.234,11.986,47.447c19.107,7.316,38.573-2.203,55.872-18.779
	c-1.692-2.482-2.431-4.965-2.996-6.881C201.608,429.182,199.896,428.556,195.656,429.289z"/>
</svg>
