<?xml version="1.0" encoding="utf-8"?>
<!-- Generator: Adobe Illustrator 17.0.2, SVG Export Plug-In . SVG Version: 6.00 Build 0)  -->
<!DOCTYPE svg PUBLIC "-//W3C//DTD SVG 1.0//EN" "http://www.w3.org/TR/2001/REC-SVG-20010904/DTD/svg10.dtd">
<svg version="1.0" id="Layer_1" xmlns="http://www.w3.org/2000/svg" xmlns:xlink="http://www.w3.org/1999/xlink" x="0px" y="0px"
	 width="26px" height="26px" viewBox="0 0 26 26" style="enable-background:new 0 0 26 26;" xml:space="preserve">
<g>
	<path d="M25.6,4c0.6-0.6,0.4-2.8-0.5-2.8c-3.085-0.096-4.961,2.039-6.795,4.254C17.212,5.208,16.274,5.2,16.2,5.2
		c-0.177,0-0.344,0.033-0.515,0.051C14.842,4.198,13,3.6,13,3.6s-1.842,0.598-2.685,1.651C10.143,5.233,9.977,5.2,9.8,5.2
		c-0.479,0-1.255,0.088-2.076,0.288C5.881,3.261,4.001,1.103,0.9,1.2C0,1.2-0.2,3.4,0.4,4c0.1,0.1-1.1,3.9,0.8,5
		c-0.8,1.5,0.4,3.8,1.5,3.9c-0.931,1.086-0.294,2.829,0.97,3.558c1.353,4.51,5.422,8.389,9.136,9.318
		C12.87,25.792,12.935,25.8,13,25.8c0.065,0,0.13-0.008,0.194-0.023c3.74-0.935,7.825-4.736,9.155-9.329
		c1.252-0.736,1.877-2.467,0.951-3.548c1.1-0.1,2.3-2.4,1.5-3.9C26.7,7.9,25.5,4.1,25.6,4z M13,24.172
		C9.164,23.089,4.8,18.232,4.8,13.4c0-0.747,0.882-1.415,1.525-1.903c0.187-0.142,0.357-0.271,0.496-0.39
		c0.175-0.15,0.277-0.369,0.279-0.601c0.002-0.231-0.096-0.451-0.269-0.605C6.267,9.401,6.069,8.554,6.145,7.891
		C6.995,7.165,8.896,6.8,9.8,6.8c1.407,0,2.716,0.937,2.727,0.945c0.28,0.205,0.664,0.206,0.945,0.001
		C13.484,7.737,14.793,6.8,16.2,6.8c1.086,0,2.868,0.334,3.652,1.072c0.082,0.666-0.114,1.523-0.684,2.03
		c-0.173,0.153-0.271,0.374-0.269,0.605s0.104,0.45,0.279,0.6c0.138,0.119,0.309,0.248,0.495,0.39
		c0.644,0.488,1.525,1.156,1.525,1.903C21.2,18.707,16.488,23.181,13,24.172z"/>
	<path d="M16.1,11.4c-1.6,0.9-2.5,1.9-2.5,1.9s1.8,2.4,3.4,1.4c2.3-1.5,1.8-4.1,1.8-4.1S17.7,10.6,16.1,11.4z M16.3,14.4
		c-0.1-0.3-0.4-2-0.4-2.5c0-0.1,0.6-0.5,0.7-0.5C17.1,12.7,16.3,14.4,16.3,14.4z"/>
	<path d="M9,14.7c1.6,1,3.4-1.4,3.4-1.4s-0.9-1-2.5-1.9c-1.6-0.8-2.7-0.8-2.7-0.8S6.7,13.2,9,14.7z M9.3,11.4
		C9.4,11.5,10,11.9,10,12c0,0.5-0.3,2.2-0.4,2.5C9.7,14.4,8.9,12.7,9.3,11.4z"/>
	<path d="M7.6,17c0,0,3.4,6,5.4,6s5.4-6,5.4-6s-1.5,1-5.4,1S7.6,17,7.6,17z M16.1,18.7l-0.7,1.5l-0.7-1h0L14,20.6l-1-1.4l-1,1.4
		l-0.7-1.4l-0.5,1l-1-1.5c0,0,1.2,0.5,3.2,0.5S16.1,18.7,16.1,18.7z"/>
	<path d="M14.5,16.5c0.5-0.1,0.6-0.7,0.3-0.9c-0.2-0.2-0.5-0.1-0.8,0.1c0,0-0.2,0.3-0.4,0.6c-0.1,0.3-0.1,0.9,0,0.9
		C13.8,17.2,13.8,16.9,14.5,16.5z"/>
	<path d="M12,15.7c-0.3-0.2-0.6-0.3-0.8-0.1c-0.3,0.2-0.2,0.8,0.3,0.9c0.7,0.4,0.7,0.7,0.9,0.7c0.1,0,0.1-0.6,0-0.9
		C12.2,16,12,15.7,12,15.7z"/>
</g>
</svg>
