<?xml version="1.0" encoding="utf-8"?>
<!-- Generator: Adobe Illustrator 18.0.0, SVG Export Plug-In . SVG Version: 6.00 Build 0)  -->
<!DOCTYPE svg PUBLIC "-//W3C//DTD SVG 1.1//EN" "http://www.w3.org/Graphics/SVG/1.1/DTD/svg11.dtd">
<svg version="1.1" id="Capa_1" xmlns="http://www.w3.org/2000/svg" xmlns:xlink="http://www.w3.org/1999/xlink" x="0px" y="0px"
	 viewBox="0 0 200 200" enable-background="new 0 0 200 200" xml:space="preserve">
<path d="M190.4,29.1c-15.5-27.7-62.2-14.7-87.6-15.4C80.2,13.1-4.5-3.3,7.7,43.3c-0.9,37.3-9.8,78-2.2,114.5
	c5.1,24.8,30.3,30.7,51.9,32.8c21.4,2.1,43.2,0.4,64.6-1.3c15-1.2,37.2,0.6,51-7.1c28.3-15.7,20.6-53.2,20.1-80.2
	C192.6,79.2,202.4,50.6,190.4,29.1z M102.7,20.4C128.6,23,177.6,6.2,187.1,40c1.1,4.1,1.8,8.3,2.1,12.6c-0.6,0.1-1.2,0.5-1.6,1.2
	c-5.3,9.4-5.8-1.4-8.6-6.5c-0.8-1.5-3.6-1.8-4.3,0c-2.8,6.5-2.5,4.9-2.7,12c-0.7,17.9-9.8-7.4-11.2-14.1c-0.5-2.3-3.3-2.1-4.5-0.6
	c-2.8,4.6-6.7,8.2-11.5,10.8c-0.9-3.9-2.8-7.2-4.5-10.7c-0.9-1.7-3.2-1.4-4.1,0c-2.9,4.1-3.9,4.9-3.9,10.2c0,15.6-11.4-1.8-13.8-7.8
	c-0.8-2-4.1-2.6-4.6,0c-5.4,24.9-9.2,1.5-11.1-3.7c-0.7-1.8-3.1-2.4-4.2-0.5c-2.6,4.4-5.3,8.2-5.8,13.5c-1.5,16.2-11.4,0.8-14.4-6
	c-0.7-1.6-3.5-1.2-3.8,0.5c-4.8,8.4-7.8,8.1-8.9-0.9c-0.7-1.7-3.7-2.3-4,0c-1.3,8.7-1.3,5.3-0.1,14.1c0,0.2,0.1,0.4,0.1,0.6
	c-10.6,0.2-16.9-6.5-19-20.2c-0.5-2.2-3.4-1.8-4,0c-1.7,4.6-11.2,32-9.6,15.2c0.6-6.3-1.5-12-4-17.6c-0.9-1.9-3.5-1.1-4.1,0.5
	c-1.7,4.9-4.3,11-4.8,16.3c-0.8,8.2-3-4.4-4.1-14.1c0.4-0.4,0.7-0.9,0.6-1.6C7.9,4.2,79.8,18,102.7,20.4z M152.1,180.3
	c-31.3,3.6-63.2,6.1-94.7,4.2c-31.6-2-47.1-16.8-47.8-48.3c-0.6-25.3,2.2-50.2,2-75.3c1.1,2.4,2.5,4.8,4.1,7.3
	c1.2,1.9,3.8,1,4.1-1.1c3.7-35.7,4.8-4.1,3.1,3.1c-0.5,2.3,2,3.4,3.6,2.1c4.7-3.7,15.8-16.4,13.7-20.1c6,10.9,14,16.7,25.6,20.6
	c1.4,0.5,3.2-1.1,2.6-2.6c-7.3-17.9-5-14.8-1.2-5.3c0.6,1.5,2.2,2,3.4,0.9c6.4-5.4,4.7-11.8,8.1-4.6c3.3,7,8.3,10.4,15.7,11.7
	c1.3,0.2,2.9-0.6,2.8-2.1c-1.6-6.8-0.4-13.3,3.6-19.4c1.4,4.7,2.4,9.6,3,14.5c0.3,1.8,2.8,2.2,3.9,1c6.4-6.4,4.5-4,9.1-11.5
	c0.4,0.8,0.9,1.8,1.5,3c3.9,7.6,11.2,9.3,19,9.2c1.5,0,2.9-1.5,2.3-3c-1.5-4.2-0.7-13.6,1.8-2.4c0.3,1.5,2.3,2.3,3.5,1.4
	c4.1-2.7,6.2-3.9,9.3-8c5.8-7.7,3-2.7,5.8,4.7c2.9,7.6,8.7,11.1,16.2,12.9c1.8,0.4,3.5-1.2,3-3c-0.5-1.9-1.9-18.3,0.8-5.1
	c0.4,1.9,2.8,2.2,4.1,1.1c3.9-3.5,4.3-3.6,5.4-5.6c0.1,13.9-2.4,28.4-3.1,41.6C184.6,133.8,198.2,174.9,152.1,180.3z"/>
<path d="M168.3,98.3c0-0.2,0-0.5-0.1-0.7c-0.1-0.3-0.1-0.5-0.1-0.8c-0.3-1.1-1.2-1.6-2.1-1.7c-10.9-8.3-33.7-4.2-45.7-3.7
	c-30.6,1.4-62.1,5.3-92.6,1.9c-1.2-0.1-1.9,0.8-2.1,1.8l0,0c-1.1-0.4-2.5,0.3-3,1.2c-6,10.9,6.7,26.8,13.9,33.9
	c9.1,8.9,22.4,12.3,31.7,4.8c12.6-6.3,21.2-24.2,26-35.8c0.1-0.1,0-0.3,0.1-0.4c1.4-0.1,2.7-0.2,4.1-0.3c1.1,7.8,6.7,16.4,10.5,22.8
	c4.8,8.1,12.2,12.7,21.4,14.1c17,2.6,34.5-13.3,37.4-29.6C168.4,103.3,168.7,100.8,168.3,98.3z M54.1,124.4
	c-11.9,0-26.1-13.9-24.7-26.2c6.4,1.3,12.9,2,19.4,2.3c-1.2,4.3,1,9.5,5.7,10.2c5.6,0.9,9.7-3.8,10.8-8.9c0.1-0.4,0.1-0.8,0-1.2
	c7.1-0.2,14.3-0.7,21.5-1.3C79.6,112.8,71,124.4,54.1,124.4z M138.2,121.7c-17.6,6.2-26.5-10-31.1-24c6.9-0.5,13.8-0.9,20.7-0.9
	c-1,2.6-1.3,5.9,0.4,8.1c1.9,2.5,4.8,2.9,7.8,2.4c2.9-0.5,5.7-2.5,7.8-4.6c1.2-1.2,2.4-3.1,3-5.1c5.2,0.5,10.4,1.3,15.5,2.6
	C157.7,110.8,149.7,117.6,138.2,121.7z"/>
<path d="M155.7,152.9c0.1-0.4,0.2-0.8,0.3-1.2c0.3-1.6-0.7-2.8-2.3-3c-23.4-2.4-48.1-0.6-71.6,0.6c-9.5,0.5-19,0.8-28.5,1.1
	c-2.3,0.1-8.4,1.3-12.2,1.3c-0.5-0.4-1.3-0.5-1.8-0.2c-0.2-0.1-0.5-0.1-0.6-0.2c-0.8-0.4-1.4,0.5-0.9,1.1c0.2,0.3,0.5,0.5,0.7,0.7
	c-1.5,11.7,9.2,14.3,14.9,7.4c4,7.2,13.3,6.8,18.2-0.6c4.1,5,10.7,4.5,14.9-0.6c1.6,2.6,4.2,4.5,7.7,4.9c3.7,0.4,7.9-2.2,9.9-5.7
	c0.4,2.9,2.5,5.2,6.4,5.4c2.8,0.1,5.4-1.2,7.5-2.9c0.6-0.5,1.2-1.1,1.8-1.9c1.6,3.2,4.3,5.7,8,6.5c4.5,1,7.2-1.6,8.7-5
	c2.6,3.4,6.5,5.5,11.2,4.6C153.8,164.1,158.1,158.3,155.7,152.9z M42.4,154.8c2.4,0.8,5.4,1.1,8.6,1.1
	C48.4,160.6,43.4,160.6,42.4,154.8z M57.1,155.8c4.5-0.3,8.8-0.8,12.1-1.1C66.6,161.6,58.8,163.6,57.1,155.8z M74.4,154.4
	c3.5-0.1,6.9-0.3,10.4-0.5C82.6,157.5,77.8,163.7,74.4,154.4z M95.2,159.7c-3,0.2-5-1.7-6.2-4.2c0.2-0.5,0.4-0.9,0.6-1.4
	c0.1-0.2,0.1-0.4,0.1-0.5c4-0.2,8.1-0.3,12.1-0.4C100.2,156.2,99.4,159.5,95.2,159.7z M116.4,156.7c-1.2,1.3-2.7,2.2-4.4,2.7
	c-4.3,1.2-4.4-3.3-3.9-6.3c2.8-0.1,6.4-0.3,10.5-0.4C117.8,154,117.4,155.6,116.4,156.7z M127,160.7c-2.3-1.1-3.8-3-4.8-5.3
	c0.3-1,0.4-2,0.2-2.9c4.1-0.1,8.3-0.3,12.3-0.3c-0.4,0.4-0.6,0.8-0.6,1.4C133.9,157.8,132.2,163,127,160.7z M146.6,161.1
	c-4.8,0.4-7.4-3.9-8.2-8c-0.1-0.4-0.2-0.6-0.4-0.9c7.6-0.1,13.6,0.2,13.9,1c0,0,0.1,0.1,0.1,0.1
	C151.8,157.3,151.8,160.7,146.6,161.1z"/>
</svg>
