<?xml version="1.0" encoding="iso-8859-1"?>
<!-- Generator: Adobe Illustrator 16.0.4, SVG Export Plug-In . SVG Version: 6.00 Build 0)  -->
<!DOCTYPE svg PUBLIC "-//W3C//DTD SVG 1.1//EN" "http://www.w3.org/Graphics/SVG/1.1/DTD/svg11.dtd">
<svg version="1.1"
	 id="Capa_1" text-rendering="geometricPrecision" image-rendering="optimizeQuality" shape-rendering="geometricPrecision"
	 xmlns="http://www.w3.org/2000/svg" xmlns:xlink="http://www.w3.org/1999/xlink" x="0px" y="0px" width="300px" height="300px"
	 viewBox="0 0 300 300" style="enable-background:new 0 0 300 300;" xml:space="preserve">
<path d="M213.801,111.047c-23.461,23.866-33.701,42.283-34.16,31l-0.314-12.971c12.903-8.665,14.346-14.686,3.948-32.259
	c-2.322-130.582-90.129-81.874-63.883-49.179v0c1.266-26.208,35.583-5.485,26.411,10.432c-10.489,15.448-18.235,29.888-25.01,48.552
	c-2.544,3.706-3.814,7.046-0.13,11.656c0.386,5.302,2.727,8.14,6.479,9.222c0.757,7.498-1.587,10.004-10.122,2.528
	c-3.962-30.602-11.583-43.692-32.423-29.573l-18.977,19.612c8.851,8.145,8.347,22.85,6.167,38.744
	c0.562,6.594,4.815,5.317,11.705-1.58c1.584,13.81,4.001,24.25,7.272,31.314c4.285,10.6,8.374,14.123,8.542,6.641l-0.949-35.426
	c1.748-9.878,5.111-5.299,9.805,11.388c2.958,18.901,4.533,35.179,2.843,45.228c-1.099,9.367,1.629,11.292,8.542,5.061
	c-2.325,10.453-2.2,17.695,2.215,19.295c3.691,14.67,7.161,16.219,10.435,7.275l4.43,26.567c1.273,15.212,9.487,21.685,12.336,2.845
	l6.324-33.842c6.047,22.654,11.46,25.105,15.816-5.379l3.795-30.679c9.361,12.349,14.047,9.479,13.281-11.07l2.215-20.558
	c1.075-8.477,5.839-10.079,12.969-6.957c8.729,14.895,13.102,14.417,15.5,6.957c0.44,22.906,11.051,28.17,10.758,15.496
	l4.742-69.269C234.744,103.836,229.258,97.571,213.801,111.047z M149.692,97.675c-3.183,8.388-0.923,14.96,4.743,20.403
	C142.768,120.313,130.825,99.334,149.692,97.675z M146.865,153.33c1.14-28.087,17.543-24.223,18.491-18.688l0.173,8.248
	C158.355,137.343,152.343,140.315,146.865,153.33z M160.074,118.128c7.031-3.508,11.15-9.104,10.611-18.059
	C188.201,107.279,170.543,123.741,160.074,118.128z"/>
</svg>
