<?xml version="1.0" encoding="iso-8859-1"?>
<!-- Generator: Adobe Illustrator 16.0.0, SVG Export Plug-In . SVG Version: 6.00 Build 0)  -->
<!DOCTYPE svg PUBLIC "-//W3C//DTD SVG 1.1//EN" "http://www.w3.org/Graphics/SVG/1.1/DTD/svg11.dtd">
<svg version="1.1" id="Layer_1" xmlns="http://www.w3.org/2000/svg" xmlns:xlink="http://www.w3.org/1999/xlink" x="0px" y="0px"
	 width="256px" height="256px" viewBox="0 0 256 256" style="enable-background:new 0 0 256 256;" xml:space="preserve">
<path d="M243.824,110.632c-2.117-23.237-14.211-44.966-34.227-61.391c-21.863-17.94-50.84-27.82-81.598-27.82
	c-30.756,0-59.734,9.88-81.598,27.82c-20.016,16.425-32.109,38.153-34.227,61.391c-1.09,0.203-1.912,1.158-1.912,2.305v10.081
	c0,1.295,1.051,2.345,2.344,2.345h5.961c-2.607,8.145-4.037,16.975-4.037,26.202c0,40.787,27.873,73.851,62.258,73.851
	c5.402,0,10.643-0.816,15.639-2.351c10.426,7.313,22.584,11.515,35.572,11.515s25.146-4.201,35.572-11.515
	c4.998,1.534,10.238,2.351,15.639,2.351c34.385,0,62.26-33.063,62.26-73.851c0-9.228-1.432-18.058-4.039-26.202h5.961
	c1.293,0,2.344-1.05,2.344-2.345v-10.081C245.736,111.789,244.914,110.835,243.824,110.632z M60.02,201.754
	c-0.283,0.56-0.881,0.92-1.518,0.92c-0.215,0-0.424-0.039-0.621-0.119c-19.039-7.704-31.828-28.982-31.828-52.947
	s12.789-45.241,31.826-52.945c0.203-0.082,0.416-0.124,0.633-0.124c0.639,0,1.219,0.354,1.508,0.923
	c0.402,0.788,0.141,1.735-0.609,2.205c-15.545,9.732-25.201,28.869-25.201,49.941c0,21.073,9.656,40.21,25.203,49.943
	C60.16,200.02,60.424,200.967,60.02,201.754z M198.584,172.398l-12.684,9.278c-2.434,1.782-4.949,3.626-7.445,5.418l-10.061,7.23
	c-0.479,0.344-1.119,0.354-1.609,0.022l-11.352-7.667c-2.379-1.607-4.781-3.261-7.105-4.859c-1.041-0.717-2.082-1.433-3.123-2.147
	l-0.033-0.021l-5.01,3.491l-11.443,8.208c-0.217,0.146-0.461,0.222-0.709,0.235c-0.004,0.002-0.006,0.004-0.01,0.006
	c-0.002-0.002-0.006-0.004-0.006-0.005c-0.311,0.014-0.621-0.071-0.883-0.259l-10.232-7.46l-6.051-4.217l-0.031,0.021
	c-1.043,0.715-2.084,1.431-3.123,2.147c-2.326,1.599-4.727,3.252-7.107,4.859l-11.352,7.667c-0.488,0.331-1.131,0.321-1.607-0.022
	l-10.063-7.23c-2.492-1.792-5.012-3.636-7.445-5.418l-12.684-9.278c-0.543-0.398-0.729-1.125-0.441-1.734
	c0.287-0.608,0.965-0.93,1.619-0.766l27.016,6.826l23.051-19.67c0.463-0.394,1.123-0.447,1.643-0.134L128,167.638l17.697-10.717
	c0.52-0.313,1.18-0.26,1.643,0.134l23.053,19.67l27.016-6.826c0.652-0.164,1.332,0.157,1.617,0.766
	C199.313,171.273,199.127,172,198.584,172.398z M79.578,134.851l11.713-25.867c0.223-0.495,0.713-0.816,1.256-0.825
	c0.545-0.01,1.043,0.294,1.287,0.781l12.871,25.967c0.143,0.219,0.225,0.479,0.225,0.76c0,0.776-0.631,1.406-1.406,1.406
	c-0.002,0.001-0.008,0-0.01,0c-0.004,0-0.008,0-0.014,0l-24.654-0.234c-0.475-0.005-0.916-0.25-1.172-0.65
	C79.418,135.786,79.383,135.284,79.578,134.851z M149.07,135.666c0-0.28,0.082-0.541,0.225-0.76l12.873-25.967
	c0.242-0.487,0.742-0.791,1.285-0.781c0.545,0.009,1.033,0.33,1.258,0.825l11.711,25.867c0.195,0.434,0.16,0.936-0.096,1.337
	c-0.256,0.4-0.697,0.646-1.172,0.65l-24.654,0.234c-0.004,0-0.008,0-0.014,0c-0.002,0-0.006,0.001-0.01,0
	C149.701,137.072,149.07,136.442,149.07,135.666z M179.211,77.715c-5.4,0-10.641,0.815-15.639,2.35
	C153.146,72.752,140.988,68.551,128,68.551s-25.146,4.201-35.572,11.514c-4.996-1.534-10.236-2.35-15.639-2.35
	c-19.756,0-37.359,10.917-48.766,27.939C35.467,66.506,77.459,36.425,128,36.425c50.539,0,92.52,30.076,99.971,69.22
	C216.563,88.627,198.961,77.715,179.211,77.715z"/>
</svg>
