<?xml version="1.0" encoding="utf-8"?>
<!-- Generator: Adobe Illustrator 16.0.4, SVG Export Plug-In . SVG Version: 6.00 Build 0)  -->
<!DOCTYPE svg PUBLIC "-//W3C//DTD SVG 1.1//EN" "http://www.w3.org/Graphics/SVG/1.1/DTD/svg11.dtd">
<svg version="1.1"
	 id="Capa_1" shape-rendering="geometricPrecision" text-rendering="geometricPrecision" image-rendering="optimizeQuality"
	 xmlns="http://www.w3.org/2000/svg" xmlns:xlink="http://www.w3.org/1999/xlink" x="0px" y="0px" width="300px" height="300px"
	 viewBox="0 0 300 300" enable-background="new 0 0 300 300" xml:space="preserve">
<g>
	<path d="M246.119,151.418c1.295-7.452,2.029-15.467,2.225-24.037c1.108-35.402-7.419-63.079-25.562-83.014
		c-16.48-18.073-38.605-28.13-66.393-30.177c-27.961-2.251-52.407,6.884-73.331,27.379c-22.403,21.808-33.613,50.309-33.613,85.537
		c0,6.7,0.464,13.603,1.381,20.682c-13.886,8.196-20.826,16.21-20.826,24.042c0,2.613,0.92,5.209,2.779,7.816
		c2.962,3.546,6.572,5.31,10.831,5.31c4.257,0,8.979-1.764,14.171-5.31c0.181,0.373,0.366,0.838,0.547,1.402
		c7.402,17.51,17.879,33.082,31.398,46.676c32.584,32.236,77.874,51.711,135.834,58.42c-15.184-12.868-22.221-25.998-21.106-39.406
		c2.032-10.811,6.843-21.993,14.438-33.555c9.994-15.077,16.297-25.604,18.891-31.576c6.855,5.972,13.053,8.936,18.613,8.936
		c4.257,0,7.781-1.855,10.547-5.587c2.041-2.418,3.059-5.023,3.059-7.819C270,168.372,262.037,159.8,246.119,151.418z
		 M93.181,96.487c-4.213-4.225-6.34-9.31-6.34-15.234c0-5.927,2.127-11.021,6.34-15.209c4.214-4.238,9.29-6.365,15.239-6.365
		c6.229,0,11.469,2.127,15.685,6.365c4.232,4.188,6.34,9.282,6.34,15.209c0,5.924-2.108,11.009-6.34,15.234
		c-4.215,4.218-9.456,6.317-15.685,6.317C102.471,102.804,97.396,100.705,93.181,96.487z M142.973,169.764
		c-2.936,4.215-6.455,6.314-10.56,6.314c-4.12,0-7.641-2.1-10.562-6.314c-2.923-4.207-4.378-9.45-4.378-15.708
		c0-5.922,1.455-11.009,4.378-15.236c2.921-4.214,6.442-6.315,10.562-6.315c4.105,0,7.624,2.101,10.56,6.315
		c2.919,4.227,4.381,9.314,4.381,15.236C147.354,160.313,145.892,165.557,142.973,169.764z M200.611,106.89
		c-4.234,4.215-9.308,6.315-15.232,6.315c-5.945,0-11.025-2.1-15.238-6.315c-4.212-4.208-6.315-9.451-6.315-15.708
		c0-5.924,2.104-11.009,6.315-15.236c4.213-4.218,9.293-6.315,15.238-6.315c5.925,0,10.998,2.098,15.232,6.315
		c4.213,4.227,6.319,9.312,6.319,15.236C206.931,97.438,204.824,102.682,200.611,106.89z"/>
	<path d="M115.526,76.894c-2.282,0-4.23,0.805-5.846,2.424c-1.615,1.62-2.422,3.568-2.422,5.844c0,2.401,0.808,4.41,2.422,6.025
		c1.616,1.617,3.564,2.42,5.846,2.42c2.27,0,4.219-0.803,5.841-2.42c1.619-1.615,2.426-3.624,2.426-6.025
		c0-2.276-0.807-4.225-2.426-5.844C119.746,77.699,117.796,76.894,115.526,76.894z"/>
	<path d="M176.121,82.831c-2.279,0-4.229,0.806-5.846,2.422c-1.615,1.622-2.422,3.571-2.422,5.843c0,2.401,0.807,4.411,2.422,6.024
		c1.617,1.62,3.566,2.426,5.846,2.426c2.274,0,4.221-0.807,5.842-2.426c1.62-1.613,2.426-3.624,2.426-6.024
		c0-2.272-0.806-4.222-2.426-5.843C180.342,83.636,178.396,82.831,176.121,82.831z"/>
</g>
</svg>
