<?xml version="1.0" encoding="utf-8"?>
<!-- Generator: Adobe Illustrator 18.0.0, SVG Export Plug-In . SVG Version: 6.00 Build 0)  -->
<!DOCTYPE svg PUBLIC "-//W3C//DTD SVG 1.1//EN" "http://www.w3.org/Graphics/SVG/1.1/DTD/svg11.dtd">
<svg version="1.1" id="Capa_1" xmlns="http://www.w3.org/2000/svg" xmlns:xlink="http://www.w3.org/1999/xlink" x="0px" y="0px"
	 viewBox="0 0 200 200" enable-background="new 0 0 200 200" xml:space="preserve">
<g>
	<path d="M120.1,14.4C82.5,5.6,51.8,36.2,38.4,67.7c-15,35.2-16.8,81.3,1.3,115.6c0.9,1.7,3.2,0.2,2.5-1.5c0,0,0,0,0,0
		c0.5,0.3,1,0.3,1.4-0.2c3.9-4.9,8.1-9.5,12.2-14.2c-0.3,0.4,6.5,16.2,6.4,15.7c0.4,1.9,3.1,2,4,0.5c3.9-6.2,8.9-11.1,13.7-16.4
		c-1.5,1.7,4.6,10.3,5.8,12.9c0.8,1.8,3.1,1.2,4,0c3.2-4.3,8.7-14,11.7-9.3c2.8,4.2,5.5,8.3,7.6,12.9c0.7,1.6,3.4,1.5,4.2,0
		c2.3-4.6,5.9-8,9-12.1c4.6-6.2,11.2,10.8,13.8,15.7c1.5,2.8,5.7,0.3,4.2-2.5c-4.1-8-8.8-15.4-14.8-22.1c-1-1.1-3.2-0.9-3.8,0.5
		c-2.7,5.3-7,9.4-10.3,14.3c-2.7-4.9-6.1-9.4-8.9-14.3c-0.7-1.2-2.7-1.7-3.7-0.5c-3.3,4.1-7.1,7.8-10.5,11.8
		c-2.1-4.1-4.4-7.9-5.4-12.6c-0.5-2.2-3.1-2-4.2-0.5c-4.3,5.6-9.3,10.4-13.5,16.1c-2-5.1-5-9.8-6.1-15.4c-0.3-1.8-2.7-1.8-3.5-0.5
		c-4.2,6.4-9.4,12.1-13.8,18.4c0,0.1-0.1,0.1-0.1,0.2c-13.7-33.6-11.9-73.4,0.2-107c12-33.5,48.3-68.1,86.3-50.7
		c27.2,12.4,26.9,53.6,25.8,78.5c-1.2,28-7.3,55.3-12.9,82.6c-0.7,3.2,4.1,4.6,4.9,1.4c8.3-32.6,14-67,13.5-100.8
		C159.1,56,151.5,21.8,120.1,14.4z"/>
	<path d="M101.8,32.6c-2.7,7.2-8.6,13.8-13.5,19.5c-5.7,6.7-12.7,14.4-21,17.8c-4.6,1.8-6.7-0.8-7.6-5.1c-1.6-7,2.3-12.6,7-17.3
		c8.9-8.8,23.1-15.4,35.5-16.7c1.5-0.2,1.6-2.3,0-2.4C87.8,27.8,72,36,62,45.8c-6.8,6.7-11.6,21.6-1.9,28.2
		c8.1,5.4,20.4-7.3,25.2-12.1c7.8-7.7,16.9-17.6,20.8-28.1C107.2,31.1,102.8,29.9,101.8,32.6z"/>
	<path d="M147.6,60.5c-2.7-8.4-13.8-33.9-25.6-32.8c-1.9,0.2-2.5,2.4-1,3.5c9,6.4,14.8,14.3,19.7,24.3c3.2,6.6,5.6,14.5,4.6,21.9
		c-0.9,6.5-8.5,12.6-14.8,9.1c-8.3-4.5-9.3-21.6-10-29.5c-0.8-8.4-1.4-17.2-0.6-25.6c0.2-1.6-2.5-2-2.8-0.4
		c-2.4,12.1-4.1,66,19.1,60.9C151.5,88.6,151.5,72.8,147.6,60.5z"/>
	<path d="M133,107.9c-1.2,2.2-1.7,4.8-2.8,7.1c-1.1,2.5-2.8,4.5-4.7,6.2c-4-3-4.2-7.3-4.3-12.2c4-0.2,8.1-0.8,12.1-2
		c2.3-0.7,1.4-4.1-1-3.6c-25.9,5.4-49.7-6.6-72.7-17.3c-1.5-0.7-2.8,1.4-1.3,2.2c1.6,0.8,3.2,1.7,4.8,2.6C61,97.2,61,104,60.9,110.6
		c0,0.9,0.8,1.7,1.7,1.7c7-0.1,14.3-3.4,17.5-9.9c0.7-1.5-1.1-3.1-2.3-1.8c-4.1,4.3-7.7,7.4-13.5,8.2c-0.1-5.6-0.2-11.3,1.1-16.8
		c16.5,8.7,35.2,17.4,53.8,17.1c-0.2,6.1,0.1,11.1,5.3,15.2c0.5,0.4,1.2,0.6,1.9,0.2c5-3.1,9-9.4,9.9-15.3
		C136.6,107.4,134,106,133,107.9z"/>
	<path d="M32,80.7C16.6,78.8,10.2,57.8,23.8,49c1.7-1.1,0.2-3.8-1.6-2.8C6,55.6,12.6,83.5,32,82.9C33.4,82.9,33.3,80.9,32,80.7z"/>
	<path d="M34.2,31.5c-4.3-3.6-11,3-12.4,6.8c-0.2,0.5,0,0.9,0.4,1.2c-0.5,1.2-0.7,2.4,0.2,3.5c0.7,0.9,2.1,1.5,3,2
		c2,1.1,3.8,2.5,5.5,3.9c3.5,2.8,5.1-3.7,5.4-6C36.9,39.4,37.2,34,34.2,31.5z M33.3,41.7c-0.1,1.3-0.4,2.6-0.8,3.9
		c0,0.1-0.1,0.2-0.1,0.3c-2.2-1.8-4.8-3.2-7.3-4.4c-0.5-0.3-0.7-0.3-0.7-0.8c0-0.7,0.2-1.3,0.5-2c1.6-1.3,3-3.1,4.8-4.2
		c0.5-0.3,1.2-0.6,1.7-0.7c0.4,0,0.6,0.1,0.7,0.2C33.7,35.5,33.5,39.5,33.3,41.7z"/>
	<path d="M181.7,51.9c3.8-3,5.6-7.7,2.8-12.5c-3.2-5.3-11.8-7.6-16.8-3.7c-1,0.8-0.2,2.5,1,2.4c0.1,0,0.1,0,0.1,0
		c-3.2,2.3-5.3,6-4.9,10.1c0.6,7.1,8.7,7.8,14.1,5.7c0.1,0,0.2-0.1,0.2-0.1c3.5,7.5,5.6,14.7,4.3,23.5c-1.6,11.3-9.9,18.6-21.1,19.3
		c-1.6,0.1-1.6,2.6,0,2.5C184.4,98.8,193.6,69.3,181.7,51.9z M166.8,47.4c-0.4-3.4,1.6-7.2,4.4-9.4c3.5-0.4,6.6-0.5,9.4,2.5
		c2.9,3,1.5,6.4-1.1,8.7c-0.2-0.3-0.5-0.5-0.7-0.8c-1.2-1.2-3.1,0.3-2.3,1.8c0.1,0.2,0.2,0.5,0.3,0.7
		C172.9,52.6,167.3,52.5,166.8,47.4z"/>
</g>
</svg>
