<?xml version="1.0" encoding="iso-8859-1"?>
<!-- Generator: Adobe Illustrator 16.0.0, SVG Export Plug-In . SVG Version: 6.00 Build 0)  -->
<!DOCTYPE svg PUBLIC "-//W3C//DTD SVG 1.1//EN" "http://www.w3.org/Graphics/SVG/1.1/DTD/svg11.dtd">
<svg version="1.1" id="Layer_1" xmlns="http://www.w3.org/2000/svg" xmlns:xlink="http://www.w3.org/1999/xlink" x="0px" y="0px"
	 width="256px" height="256px" viewBox="0 0 256 256" style="enable-background:new 0 0 256 256;" xml:space="preserve">
<g>
	<path d="M74.454,109.415c0.01,0.005,0.021,0.009,0.03,0.014c-0.015-0.008-0.03-0.016-0.045-0.022
		C74.444,109.409,74.449,109.412,74.454,109.415z"/>
	<path d="M206.517,149.59c-3.897-8.215-9.495-15.812-16.742-21.369c-8.459-6.487-19.531-9.342-29.944-6.459
		c-10.642,2.944-18.454,10.958-23.319,20.598c-4.466,8.846-5.23,19.672-3.034,29.251c0.005,0.041,0.13,0.515,0.13,0.515
		c2.175,8.031,6.869,14.457,12.607,17.862c2.592,1.539,5.386,2.316,8.151,2.316c2.218,0,4.417-0.501,6.476-1.508
		c1.071-0.522,2.081-1.181,3.001-1.953c0.342-0.288,0.409-0.789,0.153-1.155c-0.254-0.366-0.748-0.478-1.136-0.259
		c-1.688,0.959-3.405,1.492-5.25,1.631c-2.282,0.168-9.234-0.935-12.301-8.478c-1.308-3.217-2.047-6.673-2.305-10.132
		c-0.717-9.605,2.248-19.438,9.177-26.286c4.322-4.271,10.459-7.062,16.583-5.622c3.837,0.903,6.746,3.317,9.438,6.044
		c-0.034-0.032-0.11-0.104-0.155-0.132c0.092,0.059,0.179,0.202,0.249,0.284c7.724,9.019,10.807,21.374,10.117,33.081
		c-0.34,5.775-1.585,11.625-3.928,16.932c-0.91,2.062-2.116,3.912-3.117,5.916c0.033-0.065,0.064-0.178,0.114-0.231
		c-0.312,0.324-0.545,0.828-0.791,1.198c-0.562,0.846-1.157,1.666-1.778,2.47c-1.511,1.95-3.165,3.778-5.013,5.415
		c-3.643,3.225-7.942,5.797-12.746,6.795c-5.259,1.089-10.702,0.031-15.346-2.611c-3.103-1.765-5.737-4.207-8.094-6.859
		c-8.498-9.615-13.337-22.045-15.291-34.611c-0.98-6.059-1.521-12.363-0.816-18.458c3.795-32.812,38.166-53.01,23.488-92.628
		l-0.063,0.069c-1.913-5.697-4.766-10.964-8.387-15.604c0.008-0.065,0.029-0.127,0.035-0.193l2.672-33.84
		c0.142-1.805-0.945-3.479-2.651-4.085c-1.707-0.604-3.606,0.013-4.632,1.503l-14.639,21.28c-6.762-3.165-14.302-4.942-22.261-4.942
		c-7.958,0-15.499,1.777-22.26,4.942L58.271,8.995c-1.026-1.49-2.925-2.107-4.632-1.503c-1.707,0.605-2.794,2.28-2.651,4.085
		l2.672,33.84c0.005,0.066,0.026,0.128,0.035,0.193c-6.957,8.916-11.756,20.142-11.113,32.311
		c2.588,49.02,31.903,115.329,72.494,155.064c6.04,5.913,14.131,10.542,22.386,13.217c10.149,3.289,20.655,3.263,30.898,0.591
		c0.016-0.001,0.097-0.021,0.291-0.072c1.362-0.413,1.055-0.332,0.55-0.186c17.155-5.407,30.934-18.905,38.019-35.218
		C215.683,191.831,215.669,168.881,206.517,149.59z M63.63,77.75c-2.827-4.108-5.654-8.217-8.48-12.325
		c-1.199-1.74,0.01-4.202,2.119-4.32c0.607-0.034,1.128,0.173,1.674,0.385c1.537,0.6,3.074,1.198,4.612,1.798
		c4.519,1.761,9.038,3.521,13.558,5.282c1.305,0.509,2.916,0.892,3.93,1.903c1.851,1.846,3.701,3.69,5.551,5.536
		c1.403,1.399,1.225,3.833-0.735,4.652c-0.7,0.292-1.513,0.213-2.255,0.213c-2.862,0-5.725,0-8.587,0c-2.479,0-4.96,0-7.44,0
		C65.464,80.874,64.675,79.27,63.63,77.75z M115.171,109.763c-2.296,1.047-4.734,1.773-7.195,2.314
		c-5.881,1.293-12.014,1.58-18.008,1.104c-5.261-0.417-10.716-1.394-15.483-3.753c1.117,0.555,3.392,1.685-0.03-0.014
		c-0.761-0.379-0.526-0.263-0.015-0.009c-3.111-1.562-3.578-5.974-0.839-8.139c2.964-2.344,6.202,0.124,9.236,0.946
		c4.127,1.117,8.465,1.498,12.729,1.47c4.176-0.028,8.426-0.445,12.448-1.608c2.062-0.596,4.2-2.121,6.403-1.81
		c2.231,0.314,3.998,2.192,4.166,4.442C118.762,107.112,117.236,108.821,115.171,109.763z M113.548,80.874c-2.229,0-4.456,0-6.684,0
		c-0.43,0-0.859,0-1.289,0c-1.662,0-2.984-1.507-2.744-3.159c0.176-1.212,1.252-2.025,2.068-2.839
		c1.11-1.107,2.221-2.215,3.33-3.322c0.658-0.655,1.355-1.559,2.242-1.903c0.467-0.182,0.932-0.363,1.397-0.545
		c5.438-2.119,10.878-4.238,16.316-6.357c0.958-0.374,1.916-0.747,2.874-1.12c0.656-0.256,1.302-0.564,2.027-0.523
		c2.186,0.122,3.284,2.63,2.078,4.382c-0.428,0.622-0.855,1.243-1.283,1.865c-2.826,4.108-5.654,8.217-8.48,12.325
		c-1.055,1.534-3.113,1.197-4.725,1.197C118.3,80.874,115.924,80.874,113.548,80.874z"/>
</g>
</svg>
