<?xml version="1.0" encoding="utf-8"?>
<!-- Generator: Adobe Illustrator 18.0.0, SVG Export Plug-In . SVG Version: 6.00 Build 0)  -->
<!DOCTYPE svg PUBLIC "-//W3C//DTD SVG 1.1//EN" "http://www.w3.org/Graphics/SVG/1.1/DTD/svg11.dtd">
<svg version="1.1" id="Capa_1" xmlns="http://www.w3.org/2000/svg" xmlns:xlink="http://www.w3.org/1999/xlink" x="0px" y="0px"
	 viewBox="0 0 200 200" enable-background="new 0 0 200 200" xml:space="preserve">
<g>
	<path d="M87.6,107.7c-0.5-0.6-1.2-1.1-1.8-1.7c-0.1-0.1-0.1-0.2-0.2-0.3c-23.7-29.3-37.9-64-60.1-94.3c-1.4-1.9-4.9-2.1-5.4,0.7
		c-3.5,17.2-7,34-6.6,51.6c-2.3-0.3-3.9,2.9-1.6,4.4c13.9,8.3,27.8,16.7,41.5,25.3c9.2,5.8,21.4,16.8,32.5,18.2
		C88.1,111.8,88.8,109,87.6,107.7z M16.4,65c0.2-0.2,0.4-0.6,0.4-1c1.2-15.1,3.7-29.6,7.5-44.1c10.8,16.2,19.5,33.7,29.1,50.6
		C57,76.9,61.4,86,66.8,94c-3.7-1.9-7.3-3.7-10.3-5.6C43.2,80.4,30.1,72.1,16.4,65z"/>
	<path d="M189.7,16.8c-0.1-2.8-3.5-4.4-5.6-2.3c-14.7,15.1-27.5,32-39.9,48.9c-8.7,11.9-26.2,30.5-27.2,45.9
		c-0.1,1.4,1.1,2.4,2.4,2.5c0.4,1.2,1.9,2.2,3.2,1.4c20-13.8,44-22.1,60.3-40.9C197.6,55.1,190.3,37.2,189.7,16.8z M171.5,74.8
		c-13,12.9-30.6,20.4-45.8,30.7c7.8-10.6,13.9-24.2,21.2-34.7c11.2-16,23.2-31.7,36.6-46.1C185.1,43.8,188.3,58.1,171.5,74.8z"/>
	<path d="M179.9,179.6c6.7-6.9,3.2-23.8,2.4-32.2c-0.8-8.5-2.1-16.7-5.1-24.5c-0.2-0.5-0.9-0.6-1.1,0c0,0,0,0,0,0
		c-0.2,0.6,0.7,1,1.1,0.4c-0.2,0.3-0.3,0.7-0.4,1c-0.5-1.2-2-2.2-3.2-1.2c-8.6,6.5-14.8,17-22,25.3c-3.8-6.2-9.4-11.1-11.9-18.1
		c-0.7-2-4.3-2.6-4.7,0c-0.9,6.4-4.6,12.1-7.4,18c-2.1-5.3-4.2-10.5-5.9-16c-0.6-2-3.5-2.1-4.1,0c-2.1,7.1-7.3,11.9-10.4,18.3
		c-3.8-5.6-8.3-10.7-11.2-16.9c-0.7-1.6-3.1-1.4-3.9,0c-2.4,4.2-6.4,8.8-7.4,13.5c0.5-2-10.4-10.7-12.4-13.5c-0.8-1.2-3-1.6-3.8,0
		c-2.9,6.1-7.7,20.4-13.6,12.2c-4.6-6.4-9.2-12.7-14.6-18.5c-1-1.1-3.1-0.6-3.4,0.9c-4.1,21.4-10.5,3.1-16.3-7.1
		c0.6-1.1,1.3-2.3,2-3.4c1-1.6-1.4-3.5-2.6-2c-13.5,17.1-17.4,42.6-9,62.8c0.3,0.8,1,1.3,1.7,1.5c0.5,0.3,1.2,0.4,1.8-0.1
		c0,0,0.1-0.1,0.1-0.1c0.4-0.2,0.7-0.5,0.9-1c3-3.3,4.1-8.8,5.7-13.5c3.6,6.5,8.6,12,11.4,19c0.8,1.9,4.2,2.6,4.6,0
		c0.9-5.8,3.3-11.1,4.9-16.6c5.4,7.1,10.9,14.1,16.3,21.2c1.3,1.7,3.9,1.6,4.6-0.6c2.2-6.8,6.3-13.9,7.3-21c0.8,2.3,2,4.4,3.5,6.4
		c3.1,5.2,6.9,10.1,10.2,15.2c1,1.6,4.1,1.7,4.5-0.6c0.9-5.7,3-10.8,4.6-16.2c3.4,4.6,7.2,8.8,10.9,13.4c1.1,1.5,4,0.7,4.3-1.1
		c0.9-5.6,3.1-10.7,4.6-16c4.4,5.8,9.6,10.8,14.2,16.7c1.1,1.4,3.7,2.1,4.7,0c2-4.2,4.3-8,6.1-12.1c2.4,4.4,4.9,8.6,6.7,13.4
		c0.7,1.9,4,3.1,5,0.7c3.7-8.5,8.1-16.2,13.2-23.8c4,6.5,7.9,13.1,11.5,19.9c1.7,3.2,6.4,0.4,4.8-2.8c-0.1-0.2-0.2-0.4-0.3-0.6
		C179.1,180.1,179.5,180,179.9,179.6z M165.2,157.1c-1.2-1.9-3.6-1.7-4.8,0c-5.1,7.2-9.5,14.5-13.3,22.4c-2.4-4.9-5.2-9.5-7.5-14.5
		c-1-2.1-4.5-1.6-5,0.7c0.6-3-5,14.4-5.7,13.4c-4.9-6.3-10.7-11-14.9-18c-1.1-1.8-4.5-1.8-4.8,0.6c-0.9,5.8-3.2,11.1-4.7,16.6
		c-3.6-4.3-7.2-8.4-10.2-13.3c-1.1-1.7-4.2-1.7-4.7,0.6c-1.1,5.6-3.1,10.7-4.6,16.1c-4.5-6.7-9-13.2-12.5-20.6
		c-0.4-0.8-1.3-1.2-2.1-1.2c-0.7,0-1.3-0.1-2-0.1c-1,0-2.3,0.8-2.4,1.8c-1,7.4-3.8,14.1-6.3,21c-5.5-7.2-11.2-14.4-16.7-21.6
		c-1.1-1.5-4.2-1.8-4.5,0.6c-0.8,5.4-2.9,10.4-4.4,15.6c-3.6-5.8-8.1-11-10.7-17.5c-0.7-1.7-3-2.4-4.1-0.5c-2,3.5-4.3,8.6-5,13
		c-4-16.7-2.5-33.2,5.1-48.5c3.8,7.4,8.2,14.4,11.9,21.9c0.8,1.7,3,0.9,3.6-0.5c-0.3,0.8,5.1-12,5.2-11.9
		c6.2,6.8,11.2,14.9,16.7,22.3c0.9,1.2,2.9,1.6,3.7,0c1.4-3,11.3-15,9.7-17.4c3.7,5.4,9.8,9.5,14.5,14c1.2,1.1,3.3,0.7,3.7-1
		c1.1-4.7,3.6-8.4,6.1-12.4c-0.7,1.1,1,3.3,2.9,6.1c2.8,4,5.7,7.7,9.4,10.8c1.3,1.1,3.3-0.3,2.4-1.8c-0.1-0.1-0.1-0.2-0.2-0.3
		c0-0.1,0.1-0.1,0.1-0.2c2.7-5.5,6.9-9.8,10-14.9c1.9,5.6,4.1,11.1,6.2,16.8c0.8,2.2,3.7,2.3,4.5,0c2-6.1,6-11.6,8.3-17.6
		c3.5,5.5,8.2,10.2,11,16.2c0.7,1.4,2.8,1.6,3.9,0.5c8-8.3,16.7-17.6,23.2-27.2c-0.9,5.4,0.9,12.6,1.4,17.9
		c0.9,10.8,1.1,21-0.5,31.7C173.1,170,169.3,163.5,165.2,157.1z"/>
</g>
</svg>
