<?xml version="1.0" encoding="utf-8"?>
<!-- Generator: Adobe Illustrator 16.0.0, SVG Export Plug-In . SVG Version: 6.00 Build 0)  -->
<!DOCTYPE svg PUBLIC "-//W3C//DTD SVG 1.1//EN" "http://www.w3.org/Graphics/SVG/1.1/DTD/svg11.dtd">
<svg version="1.1" id="Layer_2" xmlns="http://www.w3.org/2000/svg" xmlns:xlink="http://www.w3.org/1999/xlink" x="0px" y="0px"
	 width="50px" height="50px" viewBox="0 0 50 50" enable-background="new 0 0 50 50" xml:space="preserve">
<path d="M27.5,31.859c0,0.553-1.119,1-2.5,1c-1.381,0-2.5-0.447-2.5-1s1.119-1,2.5-1C26.381,30.859,27.5,31.307,27.5,31.859z
	 M48.084,23.953v11c0,0.552-0.448,1-1,1h-3.5c-0.299,0-0.56-0.139-0.742-0.346c-0.238,0.115-0.479,0.227-0.73,0.31
	c-3.259,6.256-9.813,10.295-17.08,10.295c-7.264,0-13.807-4.028-17.068-10.271c-0.278-0.088-0.545-0.203-0.807-0.33
	c-0.184,0.207-0.442,0.343-0.74,0.343h-3.5c-0.552,0-1-0.448-1-1v-11c0-0.552,0.448-1,1-1h0.126C4.514,12.146,13.796,3.788,25,3.788
	c11.205,0,20.487,8.358,21.957,19.166h0.127C47.636,22.953,48.084,23.401,48.084,23.953z M25,40.463
	c1.053,0,1.995,0.193,2.661,0.497l-0.473-2.122H22.84l-0.487,2.113C23.021,40.652,23.956,40.463,25,40.463z M42.5,29.65
	c0-1.077-0.58-1.996-1.406-2.375c-0.229-0.104-0.477-0.162-0.735-0.176c-0.069,0.116-0.137,0.234-0.212,0.351
	c-0.314,0.487-0.669,0.96-1.064,1.409c0.16-0.519,0.283-1.043,0.385-1.569c0.087-0.444,0.154-0.89,0.197-1.337h-1.031l-0.293,0.736
	l-0.729,3.77c-0.016,0.09-0.044,0.177-0.081,0.257c-0.063,0.13-0.149,0.242-0.256,0.332c-0.116,0.101-0.256,0.173-0.41,0.21
	c-0.075,0.02-0.155,0.029-0.237,0.029c-0.006,0-0.013,0-0.019,0h-7.147c-0.412,0-0.782-0.252-0.933-0.637l-1.836-4.697h-3.384
	l-1.835,4.697c-0.149,0.385-0.52,0.637-0.932,0.637h-7.166c-0.479,0-0.891-0.34-0.982-0.811l-0.875-4.523h-1.181
	c0.042,0.447,0.11,0.893,0.196,1.338c0.103,0.525,0.225,1.051,0.385,1.568c-0.396-0.449-0.75-0.922-1.065-1.409
	c-0.074-0.115-0.142-0.233-0.211-0.351c-0.26,0.012-0.508,0.07-0.735,0.176C8.08,27.654,7.5,28.573,7.5,29.65
	c0,1.416,0.998,2.563,2.242,2.563c0.311,0,0.605-0.072,0.874-0.201c0.271,0.791,0.612,1.551,1.007,2.277
	c2.227,0.786,5.471,2.344,7.012,4.993l0.667-2.894c0.003-0.011,0.008-0.02,0.01-0.029c0.221-0.892,1.019-1.521,1.939-1.521h7.541
	c0.924,0,1.724,0.635,1.94,1.527c0.003,0.014,0.009,0.025,0.013,0.037l0.635,2.854c1.565-2.666,4.855-4.221,7.076-4.996
	c0.385-0.711,0.717-1.455,0.983-2.229c0.254,0.115,0.528,0.182,0.817,0.182C41.502,32.212,42.5,31.066,42.5,29.65z M39.682,23.953
	c-0.066-1.032-0.256-2.003-0.566-2.902c-2.134,0.664-5.697,1.606-7.246,1.039c-1.074-0.396-2.473-2.243-3.447-3.709
	c0,0.978-0.155,2.031-0.739,2.599c-1.744,1.699-6.352,2.129-10.567,2.129c-2.644,0-5.129-0.169-6.664-0.3
	c-0.063,0.372-0.106,0.753-0.132,1.145L39.682,23.953L39.682,23.953z M42.561,17.973c0.637,1.4,1.064,3.235,1.332,4.98h1.025
	C43.459,13.255,35.097,5.787,25,5.787c-10.098,0-18.461,7.468-19.918,17.166h1.088c0.265-1.739,0.688-3.561,1.313-4.937
	c0.14-0.315,2.557-5.625,8.365-8.732c2.431-1.3,5.45-2.217,9.151-2.217c3.697,0,6.726,0.929,9.167,2.24
	C39.935,12.405,42.414,17.654,42.561,17.973z"/>
</svg>
