<?xml version="1.0" encoding="iso-8859-1"?>
<!-- Generator: Adobe Illustrator 17.0.0, SVG Export Plug-In . SVG Version: 6.00 Build 0)  -->
<!DOCTYPE svg PUBLIC "-//W3C//DTD SVG 1.1//EN" "http://www.w3.org/Graphics/SVG/1.1/DTD/svg11.dtd">
<svg version="1.1" id="Capa_1" xmlns="http://www.w3.org/2000/svg" xmlns:xlink="http://www.w3.org/1999/xlink" x="0px" y="0px"
	 width="64px" height="64px" viewBox="0 0 64 64" style="enable-background:new 0 0 64 64;" xml:space="preserve">
<g>
	<path d="M49.451,27.739c-0.344-0.484-0.701-0.957-1.083-1.41l0.013,0.002c-0.406-1.941-2.574-4.485-2.574-4.485
		s0.033,1.049,0.017,1.936c-0.182-0.154-0.369-0.302-0.557-0.45c-0.001-0.006-0.002-0.011-0.003-0.017
		c-0.729-4.491-4.58-7.243-4.58-7.243c0.652,0.652,0.745,3.166,0,2.142c-0.745-1.024-4.191-5.495-3.166-2.706
		c1.024,2.789-1.397,0.306-1.397,0.306s-3.166-8.869-4.191-5.889c-0.721,2.098-2.73,4.145-3.631,5.078
		c0.418-0.969,0.651-2.936,0.651-2.936s-0.559,1.676-3.446,3.632c-1.24,0.84-2.257,2.065-3.016,3.191
		c0.256-1.101,0.167-1.881-1.56,0.255c-3.086,3.818-4.034,5.396-4.179,4.284c-0.16-1.234,0.559-2.887,0.559-2.887
		c-1.582,2.152-2.719,5.239-3.286,6.998c0.009,0,0.018-0.001,0.027-0.001h0.5v0.013v0.439v24.842
		c3.912,5.369,10.23,8.872,17.381,8.872c7.235,0,13.621-3.583,17.521-9.059V27.739z"/>
	<path d="M58.373,30.776c-0.792-15.909-11.826-27.27-26.825-27.27c-15.29,0-26.456,11.805-26.857,28.2
		c1.176-1.296,2.611-2.349,4.23-3.071C10.508,16.18,19.535,7.507,31.548,7.507c11.89,0,20.85,8.5,22.57,20.753
		C55.705,28.815,57.145,29.677,58.373,30.776z"/>
	<path d="M54.253,29.377c-1.186-0.474-2.462-0.77-3.802-0.826v0.736v21.812v0.737c6.195-0.263,11.153-5.384,11.153-11.643
		c0-3.094-1.215-5.908-3.19-7.996C57.259,30.974,55.84,30.01,54.253,29.377z"/>
	<path d="M13.549,51.835v-0.507V29.057V28.55c-1.706,0.072-3.312,0.524-4.752,1.255c-1.372,0.697-2.586,1.655-3.58,2.812
		c-1.752,2.04-2.821,4.682-2.821,7.575C2.396,46.451,7.354,51.573,13.549,51.835z"/>
</g>
</svg>
