<?xml version="1.0" encoding="utf-8"?>
<!-- Generator: Adobe Illustrator 16.0.0, SVG Export Plug-In . SVG Version: 6.00 Build 0)  -->
<!DOCTYPE svg PUBLIC "-//W3C//DTD SVG 1.1//EN" "http://www.w3.org/Graphics/SVG/1.1/DTD/svg11.dtd">
<svg version="1.1" id="Layer_2" xmlns="http://www.w3.org/2000/svg" xmlns:xlink="http://www.w3.org/1999/xlink" x="0px" y="0px"
	 width="50px" height="50px" viewBox="0 0 50 50" enable-background="new 0 0 50 50" xml:space="preserve">
<g>
	<path d="M44.604,21.918C44.007,10.8,35.578,2.417,25,2.417S5.993,10.8,5.395,21.918c-0.261,4.846-2.11,19.521-2.129,19.668
		c-0.088,0.696,0.195,1.387,0.746,1.821c0.542,0.427,5.737,4.176,21.072,4.176c15.082,0,20.341-3.739,20.891-4.166
		c0.56-0.433,0.849-1.129,0.759-1.831C46.716,41.438,44.867,26.766,44.604,21.918z M35.338,18.839
		c2.348,0.305,3.954,2.663,3.601,5.119c-0.352,2.46-2.345,4.123-4.462,3.849c-6.298-0.82-12.656-0.82-18.954,0
		c-2.117,0.273-4.11-1.389-4.462-3.849c-0.353-2.457,1.254-4.814,3.601-5.119C21.533,17.943,28.467,17.943,35.338,18.839z"/>
	<circle cx="18.515" cy="23.448" r="2.171"/>
	<circle cx="31.484" cy="23.448" r="2.171"/>
</g>
</svg>
