<?xml version="1.0" encoding="utf-8"?>
<!-- Generator: Adobe Illustrator 16.0.0, SVG Export Plug-In . SVG Version: 6.00 Build 0)  -->
<!DOCTYPE svg PUBLIC "-//W3C//DTD SVG 1.1//EN" "http://www.w3.org/Graphics/SVG/1.1/DTD/svg11.dtd">
<svg version="1.1" id="Layer_1" xmlns="http://www.w3.org/2000/svg" xmlns:xlink="http://www.w3.org/1999/xlink" x="0px" y="0px"
	 width="500px" height="500px" viewBox="0 0 500 500" enable-background="new 0 0 500 500" xml:space="preserve">
<g>
	<path d="M415.614,287.127c-1.543-1.97-10.123-11.958-27.306-18.511c-7.009-2.169-23.993-4.338-41.958-7.921l13.458-20.438
		l6.422,4.214c4.255,2.792,9.968,1.606,12.76-2.647l-13.544-8.89l8.111-12.359l-20.471,4.248l-23.043-15.122
		c-2.792,4.255-1.606,9.968,2.649,12.762l5.086,3.337l-18.505,28.102c-10.653-3.461-19.838-7.793-25.165-13.387
		c-2.143-2.249-5.188-9.031-3.217-20.674c34.411-20.841,58.351-66.237,58.351-112.994c0-63.699-25.33-105.801-99.245-105.801
		s-99.245,42.102-99.245,105.801c0,46.756,23.94,92.152,58.351,112.994c1.971,11.643-1.074,18.425-3.217,20.674
		c-5.327,5.594-14.511,9.926-25.165,13.387l-18.505-28.102l5.086-3.337c4.255-2.793,5.442-8.506,2.649-12.762l-23.043,15.122
		l-20.471-4.248l8.111,12.359l-13.544,8.89c2.792,4.253,8.505,5.439,12.761,2.647l6.422-4.214l13.458,20.438
		c-17.965,3.583-34.949,5.752-41.958,7.921c-17.183,6.553-25.762,16.541-27.306,18.511c-31.599,46.91-35.18,152.161-35.208,153.207
		c0.282,14.006,4.444,18.791,5.88,19.38c70.337,31.294,153.134,39.239,193.75,39.239c0.386,0,0.8-0.006,1.192-0.007
		c0.393,0.001,0.807,0.007,1.192,0.007c40.616,0,123.413-7.945,193.75-39.239c1.436-0.589,5.598-5.374,5.88-19.38
		C450.794,439.288,447.213,334.037,415.614,287.127z M199.63,136.154c-27.123,0-38.15-17.081-38.15-38.15
		c0-21.07,17.081-38.15,38.15-38.15H300.37c21.07,0,38.15,17.081,38.15,38.15c0,21.069-11.028,38.15-38.15,38.15
		c-23.164,0-23.545-25.227-50.37-25.227S222.794,136.154,199.63,136.154z"/>
	<path d="M438.598,121.468l1.418,0.931c3.133,2.057,7.34,1.183,9.396-1.95c2.056-3.133,1.183-7.34-1.95-9.396l-24.696-16.207
		c-3.133-2.056-7.341-1.184-9.397,1.951c-2.057,3.133-1.183,7.339,1.951,9.396l1.417,0.93l-4.388,6.686l11.076-2.298l14.158,9.292
		l-34.525,7.167l-12.609,19.214l36.205-7.514L438.598,121.468z"/>
	<polygon points="382.851,206.416 395.46,187.202 359.256,194.716 346.646,213.931 	"/>
	<polygon points="417.362,153.828 381.157,161.342 368.548,180.557 404.752,173.043 	"/>
	<path d="M59.984,122.399l1.418-0.931l11.944,18.202l36.205,7.514L96.941,127.97l-34.525-7.167l14.158-9.292l11.076,2.298
		l-4.388-6.686l1.418-0.93c3.133-2.058,4.007-6.264,1.951-9.396c-2.056-3.135-6.264-4.007-9.397-1.951l-24.696,16.207
		c-3.132,2.056-4.006,6.264-1.95,9.396C52.644,123.583,56.851,124.456,59.984,122.399z"/>
	<polygon points="117.149,206.416 153.354,213.931 140.744,194.716 104.54,187.202 	"/>
	<polygon points="95.248,173.043 131.452,180.557 118.843,161.342 82.638,153.828 	"/>
</g>
</svg>
