<?xml version="1.0" encoding="utf-8"?>

<!-- The icon can be used freely in both personal and commercial projects with no attribution required, but always appreciated.
You may NOT sub-license, resell, rent, redistribute or otherwise transfer the icon without express written permission from iconmonstr.com -->

<!DOCTYPE svg PUBLIC "-//W3C//DTD SVG 1.1//EN" "http://www.w3.org/Graphics/SVG/1.1/DTD/svg11.dtd">
<svg version="1.1" xmlns="http://www.w3.org/2000/svg" xmlns:xlink="http://www.w3.org/1999/xlink" x="0px" y="0px"
	 width="512px" height="512px" viewBox="0 0 512 512" enable-background="new 0 0 512 512" xml:space="preserve">
<path id="police-icon" d="M397.183,240.232c-1.015,33.106-37.573,53.661-141.711,53.661c-104.374,0-140.86-20.65-141.716-53.89
	c25.423,0,73.798-33.608,141.716-33.608C321.639,206.396,375.867,240.232,397.183,240.232z M255.472,310.447
	c-34.741,0-63.032-2.252-85.57-6.811c1.048,9.526,7.906,57.022,40.59,57.022c29.017,0,28.203-22.591,45.85-22.591
	c17.646,0,19.713,22.591,48.065,22.591c35.23,0,41.469-52.582,42.032-58.182C323.083,307.815,293.049,310.447,255.472,310.447z
	 M363.408,297.725C362.75,335,351.331,379.59,324.985,408.224c-17.674,19.208-40.062,28.946-66.543,28.946
	c-26.552,0-48.842-9.139-66.254-27.16c-27.744-28.717-38.8-74.585-40.386-110.906c-8.827-2.711-17.026-5.955-25.021-10.785
	c-0.261,42.43,11.864,102.007,47.55,138.943C196.601,450.312,224.899,462,258.442,462c33.235,0,62.564-12.781,84.815-36.962
	c35.91-39.027,46.524-97.499,44.843-139.248C380.384,291.096,372.19,294.739,363.408,297.725z M258.311,109.178l-5.279,10.699
	l-11.808,1.716l8.544,8.328l-2.017,11.76l10.56-5.551l10.561,5.551l-2.016-11.76l8.544-8.328l-11.808-1.716L258.311,109.178z
	 M379.837,105.631c0,0-42.748-11.764-123.837-55.631c-81.089,43.867-123.837,55.631-123.837,55.631s-21.811,41.208-61.54,86.11
	l38.183,32.759c25.834-2.833,78.195-35.75,147.194-35.75s121.36,32.917,147.194,35.75l38.183-32.759
	C401.647,146.839,379.837,105.631,379.837,105.631z M272.908,160.807c-8.863,2.254-10.202,3.218-14.738,6.892
	c-4.537-3.674-5.876-4.639-14.736-6.892c-12.325-3.134-19.393-11.265-19.393-22.306c0-6.175,2.482-11.859,5.356-19.67
	c3.238-8.797,1.402-11.587-2.008-15.139l-2.902-3.02l16.622-14.065c1.646,1.683,3.961,4.771,8.2,4.771
	c4.174,0,6.999-3.002,8.901-4.666c1.717,1.551,4.521,4.666,8.818,4.666c4.184,0,6.419-2.947,8.259-4.829
	c3.645,3.228,0.32,0.38,16.564,14.124l-2.902,3.02c-3.409,3.552-5.246,6.342-2.008,15.139c2.875,7.812,5.356,13.496,5.356,19.67
	C292.299,149.542,285.231,157.673,272.908,160.807z"/>
</svg>
