<?xml version="1.0" encoding="utf-8"?>

<!-- The icon can be used freely in both personal and commercial projects with no attribution required, but always appreciated.
You may NOT sub-license, resell, rent, redistribute or otherwise transfer the icon without express written permission from iconmonstr.com -->

<!DOCTYPE svg PUBLIC "-//W3C//DTD SVG 1.1//EN" "http://www.w3.org/Graphics/SVG/1.1/DTD/svg11.dtd">
<svg version="1.1" xmlns="http://www.w3.org/2000/svg" xmlns:xlink="http://www.w3.org/1999/xlink" x="0px" y="0px"
	 width="512px" height="512px" viewBox="0 0 512 512" enable-background="new 0 0 512 512" xml:space="preserve">
<path id="police-2-icon" d="M397.183,240.232c-1.015,33.106-37.573,53.661-141.711,53.661c-104.374,0-140.86-20.65-141.716-53.89
	c25.423,0,73.798-33.608,141.716-33.608C321.639,206.396,375.867,240.232,397.183,240.232z M255.472,310.447
	c-34.741,0-63.032-2.252-85.57-6.811c1.048,9.526,7.906,57.022,40.59,57.022c29.017,0,28.203-22.591,45.85-22.591
	c17.646,0,19.713,22.591,48.065,22.591c35.23,0,41.469-52.582,42.032-58.182C323.083,307.815,293.049,310.447,255.472,310.447z
	 M363.408,297.725C362.75,335,351.331,379.59,324.985,408.224c-17.674,19.208-40.062,28.946-66.543,28.946
	c-26.552,0-48.842-9.139-66.254-27.16c-27.744-28.717-38.8-74.585-40.386-110.906c-8.827-2.711-17.026-5.955-25.021-10.785
	c-0.261,42.43,11.864,102.007,47.55,138.943C196.601,450.312,224.899,462,258.442,462c33.235,0,62.564-12.781,84.815-36.962
	c35.91-39.027,46.524-97.499,44.843-139.248C380.384,291.096,372.19,294.739,363.408,297.725z M379.837,105.631
	c0,0-42.748-11.764-123.837-55.631c-81.089,43.867-123.837,55.631-123.837,55.631s-21.812,41.208-61.54,86.11l39.797,34.073
	c7.519-0.139,22.831-6.208,28.211-8.829l-32.912-27.698c10.427-11.824,17.462-21.756,28.269-38.876
	c0.88-1.395,2.354-2.304,4.001-2.338c1.649-0.034,3.198,0.787,4.092,2.171l30.49,49.007l-20.955-64.965
	c-1.213-3.584,0.262-7.512,3.535-9.405c5.789-3.346,52.04-18.599,100.85-45.354c48.809,26.756,95.061,42.009,100.85,45.354
	c3.273,1.894,4.748,5.821,3.535,9.405l-20.955,64.965l30.49-49.007c0.894-1.384,2.442-2.205,4.091-2.171
	c1.647,0.034,3.122,0.943,4.001,2.338c10.807,17.12,17.843,27.052,28.27,38.876l-32.912,27.698c5.38,2.621,20.692,8.69,28.211,8.829
	l39.797-34.073C401.647,146.839,379.837,105.631,379.837,105.631z M286.287,142.396c-3.409-9.26-1.476-12.197,2.113-15.936
	l3.055-3.18c-17.099-14.467-13.6-11.469-17.436-14.867c-1.938,1.98-4.29,5.084-8.693,5.084c-4.524,0-7.476-3.279-9.283-4.912
	c-2.002,1.752-4.977,4.912-9.369,4.912c-4.463,0-6.899-3.25-8.632-5.021l-17.497,14.805l3.055,3.18
	c3.59,3.738,5.522,6.676,2.113,15.936c-3.025,8.221-5.638,14.205-5.638,20.703c0,11.623,7.439,20.182,20.413,23.48
	c9.326,2.373,10.736,3.387,15.512,7.254c4.775-3.867,6.185-4.881,15.514-7.254c12.972-3.299,20.411-11.857,20.411-23.48
	C291.925,156.601,289.313,150.618,286.287,142.396z M265.143,154.069l2.122,12.377l-11.116-5.843l-11.116,5.843l2.123-12.377
	l-8.993-8.768l12.429-1.807l5.558-11.262l5.559,11.262l12.43,1.807L265.143,154.069z"/>
</svg>
