<?xml version="1.0" encoding="utf-8"?>
<!-- Generator: Adobe Illustrator 16.0.0, SVG Export Plug-In . SVG Version: 6.00 Build 0)  -->
<!DOCTYPE svg PUBLIC "-//W3C//DTD SVG 1.1//EN" "http://www.w3.org/Graphics/SVG/1.1/DTD/svg11.dtd">
<svg version="1.1" id="Layer_2" xmlns="http://www.w3.org/2000/svg" xmlns:xlink="http://www.w3.org/1999/xlink" x="0px" y="0px"
	 width="50px" height="50px" viewBox="0 0 50 50" enable-background="new 0 0 50 50" xml:space="preserve">
<path d="M46.461,29.951c-0.12-0.16-0.322-0.232-0.52-0.188c-0.194,0.047-0.342,0.206-0.375,0.404
	c-0.049,0.29-0.101,0.581-0.172,0.87c-0.326,1.292-0.869,2.479-1.58,3.538c-0.021-3.539-0.043-6.764-0.043-6.809
	c0-10.222-8.438-18.537-18.811-18.537c-0.88,0-1.738,0.08-2.586,0.195L17.964,3.2c-0.233-0.33-0.64-0.484-1.038-0.397
	c-0.395,0.09-0.695,0.408-0.764,0.809l-0.77,4.494L10.676,7.3c-0.544-0.091-1.061,0.271-1.152,0.816l-0.808,4.717L4,12.029
	c-0.396-0.071-0.797,0.109-1.014,0.449c-0.215,0.342-0.205,0.778,0.025,1.108l4.727,6.751c-1.016,2.28-1.59,4.794-1.59,7.441v6.738
	c-0.692-1.043-1.222-2.214-1.541-3.481c-0.072-0.289-0.123-0.58-0.172-0.87c-0.033-0.198-0.182-0.357-0.377-0.404
	c-0.195-0.045-0.398,0.027-0.519,0.188c-1.949,2.622-2.608,5.938-1.813,9.097c1.213,4.813,5.521,8.174,10.479,8.174
	c0.889,0,1.779-0.111,2.648-0.33c1.39-0.351,2.654-0.963,3.758-1.772c1.988,0.831,4.158,1.286,6.412,1.286
	c2.24,0,4.399-0.451,6.379-1.273c1.1,0.805,2.358,1.411,3.74,1.76c0.869,0.221,1.762,0.332,2.649,0.332c0.001,0,0.001,0,0.001,0
	c4.956,0,9.266-3.361,10.477-8.175C49.07,35.89,48.41,32.573,46.461,29.951z M33.132,39.457c-0.307,0.259-0.63,0.498-0.962,0.728
	c-0.066,0.047-0.137,0.09-0.205,0.135c-0.311,0.205-0.627,0.397-0.955,0.574c-0.023,0.014-0.049,0.027-0.072,0.041
	c-0.771,0.407-1.592,0.737-2.449,0.981l0,0c-1.1,0.313-2.258,0.489-3.461,0.489c-1.219,0-2.392-0.182-3.504-0.502l0,0
	c-0.848-0.244-1.657-0.573-2.42-0.979c-0.031-0.017-0.063-0.035-0.094-0.052c-0.318-0.173-0.627-0.361-0.928-0.56
	c-0.071-0.047-0.143-0.094-0.213-0.143c-0.328-0.227-0.648-0.464-0.952-0.721l0,0c-1.692-1.428-2.993-3.295-3.722-5.42
	c-0.221,0.104-0.463,0.164-0.719,0.164c-1.021,0-1.84-0.941-1.84-2.104c0-1.16,0.817-2.102,1.838-2.104
	c0.279,0.48,0.604,0.945,0.969,1.386c-0.289-0.992-0.459-2.008-0.508-3.021c0.942-0.955,1.764-2.485,2.201-4.311
	c0.033-0.144,0.062-0.285,0.09-0.429c2.055,1.701,4.723,3.035,7.569,2.156c0.396-0.121,0.675-0.473,0.703-0.884l0.097-1.343
	c1.209,0.144,3.027,0.563,4.146,1.591c0.802,0.739,1.985,1.125,3.243,1.125c0.789,0,1.609-0.151,2.382-0.465
	c0.635-0.258,1.198-0.614,1.692-1.043c0.465,1.513,1.189,2.773,2.008,3.603c-0.049,1.014-0.219,2.028-0.508,3.021
	c0.365-0.44,0.688-0.904,0.969-1.386c1.021,0.002,1.838,0.943,1.838,2.104c0,1.161-0.819,2.104-1.84,2.104
	c-0.238,0-0.465-0.055-0.672-0.148C36.123,36.17,34.822,38.032,33.132,39.457L33.132,39.457z M27.054,34.249
	c0,0.453-0.918,0.82-2.052,0.82s-2.052-0.367-2.052-0.82c0-0.454,0.918-0.821,2.052-0.821S27.054,33.795,27.054,34.249z
	 M21.363,29.216c0,1.067-0.869,1.936-1.938,1.936s-1.938-0.867-1.938-1.936s0.869-1.938,1.938-1.938S21.363,28.147,21.363,29.216z
	 M32.514,29.216c0,1.067-0.869,1.936-1.937,1.936c-1.068,0-1.937-0.867-1.937-1.936s0.868-1.938,1.937-1.938
	C31.645,27.278,32.514,28.147,32.514,29.216z"/>
</svg>
