<?xml version="1.0" encoding="utf-8"?>

<!-- License Agreement at http://iconmonstr.com/license/ -->

<!DOCTYPE svg PUBLIC "-//W3C//DTD SVG 1.1//EN" "http://www.w3.org/Graphics/SVG/1.1/DTD/svg11.dtd">
<svg version="1.1" xmlns="http://www.w3.org/2000/svg" xmlns:xlink="http://www.w3.org/1999/xlink" x="0px" y="0px"
	 width="512px" height="512px" viewBox="0 0 512 512" enable-background="new 0 0 512 512" xml:space="preserve">
<path id="christmas-reindeer-icon" d="M107.041,123.691c-8.495-11.631,9.077-24.416,17.547-12.814
	c6.263,8.574,16.514,14.848,28.001,17.805c-11.972-18.625-19.068-38.791-26.273-61.829c-5.365-17.143,19.258-24.109,24.623-6.943
	c4.255,13.605,8.357,25.835,13.512,37.134c6.111-8.521,7.896-16.979,7.393-32.548c-0.467-14.487,21.258-14.964,21.719-0.703
	c0.699,21.74-5.021,36.635-10.65,45.215c-3.942,6.01-3.448,13.914,1.223,19.378c13.182,15.412,29.538,27.44,31.879,29.297
	c-9.765,2.337-18.738,5.59-27.627,9.598c-2.924-2.34-6.838-5.486-9.463-7.852c-4.808-4.329-12.182-5.75-18.633-6.219
	C139.336,151.683,119.715,141.046,107.041,123.691z M226.413,279.525c-2.875-12.154-13.301-20.094-23.289-17.73
	c-9.986,2.36-15.755,14.128-12.882,26.28c2.874,12.155,13.3,20.093,23.288,17.731C223.52,303.444,229.285,291.679,226.413,279.525z
	 M300.419,157.682c9.765,2.337,18.737,5.59,27.626,9.598c2.925-2.34,6.839-5.486,9.463-7.852c4.809-4.329,12.183-5.75,18.633-6.219
	c20.954-1.526,40.576-12.163,53.25-29.518c8.495-11.631-9.078-24.416-17.548-12.814c-6.263,8.574-16.513,14.848-28,17.805
	c11.972-18.625,19.067-38.791,26.273-61.829c5.365-17.143-19.258-24.109-24.624-6.943c-4.254,13.605-8.356,25.835-13.512,37.134
	c-6.11-8.521-7.896-16.979-7.393-32.548c0.468-14.487-21.257-14.964-21.718-0.703c-0.699,21.74,5.021,36.635,10.65,45.215
	c3.941,6.01,3.448,13.914-1.223,19.378C319.115,143.797,302.76,155.825,300.419,157.682z M129.796,218.609
	c4.648,13.551,24.359,20.077,33.203,14.798C156.931,223.542,143.536,216.697,129.796,218.609z M308.876,261.795
	c-9.988-2.363-20.415,5.576-23.288,17.73c-2.873,12.153,2.892,23.919,12.881,26.281c9.989,2.361,20.415-5.576,23.289-17.731
	C324.631,275.923,318.863,264.155,308.876,261.795z M445.964,187.564c-6.842,44.229-43.594,74.775-70.959,80.185
	C371.824,373.392,328.876,462,256,462c-72.875,0-115.823-88.608-119.007-194.251c-27.363-5.409-64.115-35.955-70.957-80.185
	c34.271-13.393,72.121-13.391,103.886,5.934c18.193-12.698,50.171-27.016,86.078-27.016s67.885,14.317,86.078,27.016
	C373.843,174.174,411.693,174.172,445.964,187.564z M416.286,203.781c-38.586-7.159-66.776,11.188-75.103,18.196
	c-15.898-11.098-43.415-31.63-85.184-31.63s-69.286,20.532-85.183,31.63c-8.327-7.009-36.519-25.355-75.104-18.196
	c9.244,19.628,31.026,43.132,64.562,44.243c0.719,23.858,0.559,91.793,30.798,144.608c14.496,25.318,35.513,45.502,64.927,45.502
	s50.431-20.184,64.928-45.502c30.238-52.815,30.078-120.75,30.797-144.608C385.261,246.913,407.042,223.409,416.286,203.781z
	 M349.002,233.407c8.843,5.279,28.555-1.247,33.202-14.798C368.464,216.697,355.069,223.542,349.002,233.407z M256,405.024
	c-39.469,0-64.155-50.441-23.379-50.441c7.31,0,39.449,0,46.759,0C320.155,354.583,295.468,405.024,256,405.024z M252.603,369.083
	c-2.26,0-12.195,0-14.455,0c-12.607,0-4.975,15.595,7.228,15.595S265.21,369.083,252.603,369.083z"/>
</svg>
