<?xml version="1.0" encoding="utf-8"?>

<!-- License Agreement at http://iconmonstr.com/license/ -->

<!DOCTYPE svg PUBLIC "-//W3C//DTD SVG 1.1//EN" "http://www.w3.org/Graphics/SVG/1.1/DTD/svg11.dtd">
<svg version="1.1" xmlns="http://www.w3.org/2000/svg" xmlns:xlink="http://www.w3.org/1999/xlink" x="0px" y="0px"
	 width="512px" height="512px" viewBox="0 0 512 512" enable-background="new 0 0 512 512" xml:space="preserve">
<path id="christmas-santa-claus-icon" d="M313.042,155.677H114.564c-21.879,0-39.615,14.867-39.615,39.971
	s17.736,39.972,39.614,39.972h198.479c21.88,0,39.615-14.868,39.615-39.972S334.922,155.677,313.042,155.677z M313.042,211.365
	H114.563c-20.816,0-20.822-31.436,0.001-31.436h198.478C333.861,179.93,333.864,211.365,313.042,211.365z M405.398,104.363
	c-21.063,0-38.199,17.135-38.199,38.199c0,21.062,17.136,38.199,38.199,38.199c21.062,0,38.198-17.137,38.198-38.199
	C443.597,121.498,426.461,104.363,405.398,104.363z M405.398,160.337c-9.816,0-17.775-7.958-17.775-17.774
	s7.959-17.775,17.775-17.775s17.773,7.959,17.773,17.775S415.215,160.337,405.398,160.337z M354.738,123.488
	c5.152-10.991,9.036-16.2,16.296-23.219C331.063,66.278,267.879,50,233.164,50c-30.396,0-99.995,4.584-133.648,89.509h227.036
	c-3.033-4.75-6.657-12.853-8.391-18.342C328.919,119.667,341.653,120.687,354.738,123.488z M214.659,462
	c-21.29,0-38.011-7.989-51.099-24.419c-23.168,3.982-44.307-4.227-57.123-20.142c-10.568-13.126-14.552-30.535-10.979-47.873
	c-18.001-10.213-28.072-28.318-26.974-48.577c1.091-20.115,13.491-37.597,32.431-45.809c-2.017-11.949-2.63-19.742-2.713-27.733
	c7.82,3.499,15.002,2.735,24.092,2.735c0.268,14.947,1.699,27.556,5.711,43.31c-24.155-1.991-35.51,14.32-35.607,30.496
	c-0.098,16.287,10.232,29.93,32.752,30.204c-8.581,13.993-12.195,29.616-4.143,44.001c8.448,15.088,28.219,23.603,53.932,13.842
	c6.451,18.58,21.213,27.165,39.72,27.165c18.435,0,33.244-8.514,39.72-27.165c25.683,9.747,45.482,1.248,53.932-13.848
	c8.038-14.358,4.46-29.978-4.141-43.995c22.807-0.277,32.853-14.249,32.756-30.205c-0.098-16.02-11.258-32.502-35.612-30.495
	c3.442-13.498,5.401-26.003,5.711-43.31c9.053,0,16.326,0.745,24.09-2.735c-0.079,7.955-0.687,15.747-2.711,27.733
	c18.94,8.212,31.341,25.693,32.431,45.809c1.1,20.259-8.972,38.364-26.973,48.577c3.574,17.341-0.41,34.752-10.98,47.878
	c-12.594,15.638-33.585,24.184-57.121,20.137C252.67,454.011,235.949,462,214.659,462z M256.222,258.129
	c-13.905,0-25.727,9.058-29.896,21.58c-6.521-2.688-16.377-2.688-22.897,0c-4.17-12.522-15.99-21.58-29.895-21.58
	c-17.373,0-31.506,14.135-31.506,31.506c0,17.372,14.133,31.506,31.506,31.506c14.879,0,27.375-10.371,30.656-24.265
	c7.155-2.942,14.219-2.942,21.373,0c3.282,13.894,15.777,24.265,30.658,24.265c17.373,0,31.506-14.134,31.506-31.506
	C287.729,272.264,273.595,258.129,256.222,258.129z M173.535,303.804c-7.825,0-14.17-6.344-14.17-14.169
	c0-7.824,6.345-14.168,14.17-14.168c7.824,0,14.168,6.344,14.168,14.168C187.703,297.46,181.359,303.804,173.535,303.804z
	 M256.222,303.804c-7.824,0-14.17-6.344-14.17-14.169c0-7.824,6.346-14.168,14.17-14.168c7.828,0,14.169,6.344,14.169,14.168
	C270.392,297.46,264.05,303.804,256.222,303.804z M230.464,338.876c-6.225,0-11.678,3.251-14.789,8.142
	c-3.113-4.891-8.566-8.142-14.791-8.142c-19.574,0-30.9,18.663-67.697,2.856c20.076,33.842,64.936,43.834,82.488,25.204
	c17.552,18.63,62.412,8.638,82.489-25.204C261.366,357.539,250.039,338.876,230.464,338.876z"/>
</svg>
