<?xml version="1.0" encoding="utf-8"?>
<!-- Generator: Adobe Illustrator 18.0.0, SVG Export Plug-In . SVG Version: 6.00 Build 0)  -->
<!DOCTYPE svg PUBLIC "-//W3C//DTD SVG 1.1//EN" "http://www.w3.org/Graphics/SVG/1.1/DTD/svg11.dtd">
<svg version="1.1" id="Capa_1" xmlns="http://www.w3.org/2000/svg" xmlns:xlink="http://www.w3.org/1999/xlink" x="0px" y="0px"
	 viewBox="0 0 200 200" enable-background="new 0 0 200 200" xml:space="preserve">
<g>
	<path d="M90.7,21.7C78.3,5.9,54.7,5.4,37.1,11.3C19.7,17.1,2.4,37.5,7.2,57c3.4,13.6,22.3,33.4,37.3,24.2c0.2,3.6,2.5,7.3,6.3,7.7
		c3.8,0.5,5.4-2.1,5.8-5.2c1.2,0.9,2.7,1.4,4.8,2.3c1,0.5,2.2-0.1,2.2-1.3c0.1-1.5,0.2-2.9,0.3-4.4c3,2.2,6.6,3,9.9,0
		c3.5-3.2,2.5-8.6,0.1-12.4C90.9,60.2,104.4,39.2,90.7,21.7z M71.4,65.4c-0.1,0-0.1,0.1-0.2,0.1c-1.3-0.1-2.6,1.2-1.7,2.4
		c2,2.6,3.5,5,2.7,8.4c-1.3,5.6-6.9,1.8-9.1-0.6c-1.1-1.2-2.8,0.1-2.5,1.4c0.4,1.9,0.3,3.6,0.1,5.4c-1.9-0.8-3.2-1.5-4.5-3.9
		c-0.8-1.5-3-0.4-2.7,1.1c0.5,2.4,0.6,6.6-3.1,5.9c-2.7-0.5-3.7-3.6-4.4-5.9c0.3-0.7-0.2-1.7-1.1-1.4c-18.6,6-34.7-13.4-34.5-30.1
		C10.7,31.1,26.1,18.4,41,13.5c12-4,26.2-2.9,37.6,2.2C104,27.1,91.2,57.2,71.4,65.4z"/>
	<path d="M113.5,100.6c-3.5-2.9-9.1-4.7-14.4-4.6c-0.7-3.2-1.4-6.4-2.5-9.5c4.2-0.8,8.8-0.5,12.4-0.1c1.7,0.2,2-2.6,0.4-3
		c-3.9-1-9.2-1.2-13.9-0.2c-1.2-3.2-2.5-6.3-4-9.4c3.8-1.9,8.8-1.9,13.7-1c1.6,0.3,2.3-2,0.7-2.5c-5.5-1.8-11.2-1.3-15.5,1.2
		c-1-2-2.1-3.9-3.3-5.8c-0.8-1.3-2.7-0.1-2,1.2c1.1,2.1,2.1,4.2,3,6.2c-2.6,2.3-4.4,5.7-4.7,10c-0.1,1,1.7,1.3,1.8,0.2
		c0.5-3.6,1.9-6.2,3.9-7.9c1.2,2.9,2.3,5.8,3.2,8.8c-4.5,1.8-8,5-8.3,10.4c-0.1,1.4,2,1.6,2.3,0.3c0.9-3.9,3.6-6.2,6.9-7.5
		c0.8,3,1.5,6,2.1,9c-4.3,0.9-7.9,3.2-9.5,7.6c-0.3,1,1.1,1.8,1.8,1c2.4-2.9,5.2-4.5,8.3-5.3c0.9,5.1,1.5,10.4,1.9,16
		c0.1,1.8,2.7,1.8,2.8,0c0.3-5.6-0.1-11.1-1-16.4c4.1,0,8.3,1.3,12.1,3.5C113.1,103.5,114.7,101.6,113.5,100.6z"/>
	<path d="M123.2,108c-2.1-4.8-8-4.3-11.3-1.3c-2.6,2.3-4.5,4.9-6.5,7.7c-3.4,4.8-7,11-12,4.2c-0.3-0.4-0.7-0.6-1-0.6
		c-1.3-4.4-4.1-9-9-7.7c-7.4,2-9,10.4-8.6,17c0.4,7,1.1,16,7.4,20.3c5.5,3.8,16.2-10.6,21.1-11.9c6.1-1.6,11.3,3.7,15.7-3
		C123.5,125.7,126.8,116.1,123.2,108z M119,127.5c-3.8,8.1-7.9,5.1-14.6,5.1c-4.8,0-8.7,3.6-12.1,6.4c-3.1,2.6-7.4,8.9-11.2,2.9
		c-2.1-3.4-2.7-8.3-3.1-12.1c-0.4-3.6-0.4-7.1,0.5-10.6c0.8-3.1,3.6-6.7,7.2-6.1c3.6,0.6,4.7,6.3,5.5,9c0.2,0.7,1.1,0.8,1.6,0.4
		c3.5,3.8,7.8,2.9,11.8-1.8c3-3.6,5.3-7.8,8.3-11.5c4.5-5.4,8.8-0.8,9.3,5C122.5,118.8,120.8,123.5,119,127.5z"/>
	<path d="M81.6,154.1c-1.9,4.5-4.4,8.8-7.2,12.7c-1.7,2.4-3.9,4.5-6.2,6.2c-1.8,1.3-3.8,1.8-5.4,3.4c-0.8,0.8-0.5,2.5,0.7,2.7
		c5.1,0.9,9.9-4,12.8-7.7c3.8-4.9,6-10.6,7.2-16.6C83.7,153.8,82,153,81.6,154.1z"/>
	<path d="M133.7,164.4c-2.6-2.5-5.6-4.4-8.1-7.2c-3-3.4-4.8-7.8-5.3-12.3c-0.1-0.9-1.3-0.9-1.4,0c-0.5,8.6,5.5,18.2,13.6,21.4
		C133.6,166.8,134.4,165.2,133.7,164.4z"/>
	<path d="M140.8,161.7c-0.9-0.7-2.2-0.3-2.2,0.9c-0.1,2.1,2,4.9,0.4,6.8c-1.6,2-5.5,1.4-7.6,1c-1.2-0.2-1.8,1.6-0.5,1.9
		c3.3,0.9,7.4,1.5,10.2-0.9C143.6,169.4,143.3,163.7,140.8,161.7z"/>
	<path d="M176.2,182.4c-6.2,3.9-10.9,4-17.5,0.8c-5-2.4-9.3-6-13.7-9.4c-1.2-0.9-2.6,1-1.6,2.1c7.7,7.8,25.8,22.3,35.1,8.7
		C179.4,183.3,177.6,181.5,176.2,182.4z"/>
	<path d="M65.1,182.5c-1.3-0.4-2.9-0.1-4.3,0.5c-0.8-3-1.5-6.1-2.1-9.2c-0.2-1-1.9-1-2,0c-0.6,4-0.3,8.4,0.9,12.3
		c0.4,1.3,1.7,1.7,2.9,1.2c1.9-0.8,4.5-0.7,5.5-2.8C66.3,183.7,66,182.8,65.1,182.5z"/>
	<path d="M52.9,183.3c-10.4,1.6-19.9,1.8-30.2,0.4c0.8-2.7,1.1-5.4,1.6-8.4c0.2-1.2-1.4-2-2.1-0.9c-2,3.3-2.2,6.9-4.5,10
		c-0.9,1.2,0.1,3,1.3,3.3c11.4,3,23.4,1.6,34.6-1.6C55.6,185.6,54.7,183,52.9,183.3z"/>
	<path d="M72.5,89.2c-10.7,4.4-17.3,19.4-15.4,30.5c0.3,1.5,2.7,1.5,3,0c2.4-11.4,3.6-21.1,13.3-28.9C74.1,90.2,73.3,88.9,72.5,89.2
		z"/>
	<path d="M62.3,120.7c-1.4,0.8-2.3,3.5-4.2,3.1c-2.1-0.4-3.8-2.9-5-4.4c-0.7-1-2.2,0.3-1.6,1.3c1.5,2.5,3.4,5.8,6.6,6.4
		c2.9,0.5,6.2-2.3,6.3-5.1C64.4,120.9,63.2,120.3,62.3,120.7z"/>
	<path d="M57.5,130.8c-0.5,7.2-1.8,14.6-3.5,21.6c-0.7,2.9,3.9,3.5,4,0.5c0.2-7.4,1.9-14.6,1.7-22.1
		C59.6,129.4,57.6,129.4,57.5,130.8z"/>
	<g>
		<path d="M47.7,163.8C47.6,164,47.6,164,47.7,163.8L47.7,163.8z"/>
		<path d="M48.6,156.6c-0.6,1-1.3,2-2,3c-0.4,0.5-0.7,1.1-1.1,1.6c-0.1,0.2-0.3,0.6-0.3,0.7c0,0.2-0.2,1,0,0.4
			c-0.2,0.9,0.5,2.1,1.5,2c0.6-0.1,1-0.4,1.3-0.8c-0.1,0.1-0.1,0.2-0.2,0.3c0.1-0.1,0.1-0.1,0.2-0.2c0.2-0.2,0.3-0.4,0.5-0.6
			c0.1-0.2,0.2-0.4,0.3-0.6c0.2-0.3,0.3-0.6,0.5-0.9c0.1-0.1,0.1-0.2,0.1-0.3c0,0,0,0,0,0c0.5-1.1,1.1-2.2,1.6-3.3
			C51.5,156.4,49.5,155.1,48.6,156.6z"/>
	</g>
	<path d="M54.5,163.4c-0.6-1.7-1.4-3.2-2.4-4.7c-0.5-0.8-1.8-0.1-1.3,0.8c0.7,1.2,1.3,2.5,1.8,3.8c0.4,1.3,0.1,2.7,0.5,4
		c0.3,0.9,1.7,1,1.9,0C55.5,165.9,55,164.6,54.5,163.4z"/>
	<path d="M58.7,157.9c-0.5-1.3-2.4-0.8-2,0.6c0.7,2.5,1.3,5.1,2.8,7.3c0.6,0.9,2.2,0.4,1.8-0.8C60.6,162.6,59.6,160.2,58.7,157.9z"
		/>
	<path d="M136.9,43.4c-5.4,10.6-10.3,23.9-25,21.1c-1.1-0.2-1.5,1.3-0.5,1.7c13.7,4.9,26.2-8.8,28.2-21.7
		C139.8,43,137.7,41.8,136.9,43.4z"/>
	<path d="M141.4,34.7c-4-0.9-8.1,1.8-10.9,4.4c-0.6,0.6,0.2,1.7,0.9,1.2c2.4-1.7,5-3.3,8-3.4c4-0.2,4.7,3.6,5.4,6.6
		c0.3,1.5,2.6,1.1,2.6-0.3C147.4,39.4,145.3,35.6,141.4,34.7z"/>
	<path d="M175.1,12.9c-10.7-6-30.6,6.3-32.2,17.8c-0.1,0.5,0.5,1,0.9,0.5c4.1-4.6,7.1-8.9,12.5-12.2c5.9-3.6,11.5-3.5,18-3.6
		C175.7,15.4,176.3,13.6,175.1,12.9z"/>
	<path d="M187.1,6.7c-3.3-0.9-7.6,0.7-10.6,2c-1.2,0.5-0.3,2.3,0.8,2c1.4-0.3,2.8-0.6,4.3-0.9c1.8-0.3,3.7-0.2,5.5-0.7
		C188.2,8.7,188.3,7,187.1,6.7z"/>
	<path d="M188.2,11.8c-2.3,0.5-4.4,1.5-6.7,1.7c-1.8,0.2-1.9,2.8,0,2.8c2.9,0.1,5.7-0.4,8-2.2C190.7,13.2,189.4,11.6,188.2,11.8z"/>
	<path d="M192.3,25.3c-2.7-3-6.9-4-10.9-3.7c-1.7,0.1-1.7,2.5,0,2.7c3.2,0.3,6,1.2,8.6,3.3C191.6,28.9,193.8,26.9,192.3,25.3z"/>
	<path d="M42.9,56.5c-2.6-0.7-5.2-1.4-7.8-1.9c-0.1-0.4-0.1-0.7-0.2-1.1c-0.4-2.4-1-4.8-1.8-7c-0.4-1-2.2-1-2,0.3
		c0.2,2.1,0.6,4.2,0.7,6.3c0,0.3,0,0.7,0,1c-1.4-0.2-2.8-0.3-4.2-0.3c-1.2,0-1.2,1.8,0,1.9c1.4,0,2.8,0.2,4.2,0.5
		c0,1.5,0.1,2.9,0.5,4.3c0.4,1.5,2.6,1.5,3,0c0.3-1.2,0.3-2.4,0.1-3.6c2.3,0.5,4.6,1.1,7,1.4C43.6,58.5,44.1,56.8,42.9,56.5z"/>
	<path d="M76.6,42.8c-2.6-1-5.2-2-7.8-3.1c0.2-3.5,0.4-7.1,0.1-10.6c-0.1-2-2.9-2-3.1,0c-0.3,3-0.4,6-0.7,8.9
		c-0.8-0.4-1.6-0.8-2.4-1.2c-1.5-0.8-2.6,1.3-1.3,2.2c1.1,0.7,2.3,1.4,3.4,2c-0.3,2.9-0.7,5.9,0,8.8c0.4,1.6,2.9,1.6,3.3,0
		c0.6-2.3,0.6-4.6,0.6-7c2.3,1,4.7,1.8,7.1,2.6C77.7,46,78.3,43.4,76.6,42.8z"/>
</g>
</svg>
