<?xml version="1.0" encoding="utf-8"?>

<!-- License Agreement at http://iconmonstr.com/license/ -->

<!DOCTYPE svg PUBLIC "-//W3C//DTD SVG 1.1//EN" "http://www.w3.org/Graphics/SVG/1.1/DTD/svg11.dtd">
<svg version="1.1" xmlns="http://www.w3.org/2000/svg" xmlns:xlink="http://www.w3.org/1999/xlink" x="0px" y="0px"
	 width="512px" height="512px" viewBox="0 0 512 512" enable-background="new 0 0 512 512" xml:space="preserve">
<path id="christmas-snowman-icon" d="M312.001,384.026c33.463-5.765,61.371-15.332,75.886-27.614
	c2.243,13.297-1.539,37.052-8.295,48.474c6.255,6.998,17.387,14.219,26.442,14.108c-21.294,19.359-55.234,31.177-92.666,37.406
	C307.682,437.274,305.991,404.824,312.001,384.026z M286.387,259.954c-7.587,0-13.738,8.531-13.738,19.052
	c0,10.524,6.151,19.054,13.738,19.054c7.59,0,13.74-8.529,13.74-19.054C300.127,268.485,293.977,259.954,286.387,259.954z
	 M139.344,72.725c43.137-30.963,164.033-29.628,208.23,0c-13.236,33.234-15.965,65.328-8.783,91.682
	c-50.577-23.351-144.635-23.145-194.375,0.89C151.291,135.902,151.896,109.79,139.344,72.725z M167.156,77.917
	c7.432,19.466,8.988,40.354,5.955,61.551l16.882-3.878c2.228-17.635,2.009-37.866-6.643-61.935
	C178.302,74.609,172.279,76.059,167.156,77.917z M232.174,306.479l-50.725,43.465c-7.051,6.642-2.246,17.001,8.082,13.965
	l61.375-19.808C282.12,334.043,262.331,279.006,232.174,306.479z M128.936,358.017c9.123,3.698,19.486,6.835,30.836,9.377
	c-12.691-17.016-20.213-38.104-20.213-60.914c0-56.295,45.797-102.093,102.09-102.093c56.297,0,102.095,45.798,102.095,102.093
	c0,22.328-7.212,43.002-19.419,59.825c11.281-2.479,21.497-5.406,30.229-8.69c7.072-15.59,11.012-32.902,11.012-51.135
	c0-23.145-6.352-44.802-17.396-63.337c9.187-6.987,14.604-15.463,14.604-25.44c0-70.567-240.429-70.597-240.429,0
	c0,9.526,4.93,17.682,13.359,24.48c-11.4,18.743-17.967,40.754-17.967,64.297C117.736,324.87,121.748,342.323,128.936,358.017z
	 M178.066,386.005c-21.344-3.167-41.217-8.206-57.881-15.378c-18.332-7.888-19.576,60.728,0,71.658
	c11.436,6.386,31.443,11.763,55.957,15.282C172.391,435.938,172.07,407.696,178.066,386.005z M292.81,386.842
	c-30.815,3.767-64.763,4.466-96.63,1.373c-6.605,20.818-5.67,51.24-1.256,71.593c30.844,2.977,66.453,3.14,100.458-0.861
	C290.049,439.018,288.231,409.782,292.81,386.842z M212.467,279.006c0-10.521-6.15-19.052-13.738-19.052
	s-13.738,8.531-13.738,19.052c0,10.524,6.15,19.054,13.738,19.054S212.467,289.53,212.467,279.006z"/>
</svg>
