<?xml version="1.0" encoding="utf-8"?>
<!-- Generator: Adobe Illustrator 18.0.0, SVG Export Plug-In . SVG Version: 6.00 Build 0)  -->
<!DOCTYPE svg PUBLIC "-//W3C//DTD SVG 1.1//EN" "http://www.w3.org/Graphics/SVG/1.1/DTD/svg11.dtd">
<svg version="1.1" id="Layer_1" xmlns="http://www.w3.org/2000/svg" xmlns:xlink="http://www.w3.org/1999/xlink" x="0px" y="0px"
	 viewBox="0 0 256 256" enable-background="new 0 0 256 256" xml:space="preserve">
<g>
	<path d="M229.8,175.3c-0.6-0.9-1.7-1.6-2.8-1.7c0,0-25.7,7.3-57.7-2.9l-0.7-0.2l1.6-70.9c0-1.1-0.4-2.1-1.2-2.8l-35.4-33.6
		l2.5-44.2c0.1-1.8-1.1-3.4-2.8-3.9c-1.7-0.5-3.6,0.3-4.4,2l-25.2,49.9c-0.5,1-0.5,2.2-0.1,3.2l15.9,37.5l-30.6,66.1
		c-5.6,5.9-44.4,3.3-60.2,6.4c-1.1,0.2-2.1,0.9-2.6,2c-0.5,1-0.6,2.2-0.1,3.3c1.9,4.3,4.6,8.1,7.1,11.3c3,3.9,6.5,7.8,10.6,11.6
		c7.7,7.2,16.6,13.4,26.4,18.4c12.8,6.5,27,10.9,42.3,13.1l2.7,0.4c0.1,0,0.1,0,0.2,0l2.8,0.2c4.2,0.3,8.2,0.5,12.1,0.5
		c3.6,0,7.2-0.1,10.6-0.4c7-0.6,14.1-1.9,22.6-4c0.1,0,0.1,0,0.1,0c3.4-1,6.8-2.1,10.5-3.4c0,0,0.1,0,0.1-0.1c3.9-1.6,7-3,9.8-4.3
		c0,0,0.1,0,0.1-0.1c5.7-3,13.1-7.1,19.6-12.6c2.9-2.4,5.7-4.9,8.3-7.6l1-1c2.2-2.3,4.5-4.8,6.4-7.5c5.6-7.8,9.2-14.6,11.2-21.4
		C230.6,177.4,230.4,176.3,229.8,175.3z M147.2,160.7l-3.5,27.3c-0.3,2.2-2.3,3.7-4.4,3.4l-22.8-2.9c-2.2-0.3-3.7-2.3-3.4-4.4
		l3.5-27.3c0.3-2.2,2.3-3.7,4.4-3.4l22.8,2.9C145.9,156.6,147.4,158.5,147.2,160.7z"/>
	<path d="M123.9,161.7l14.9,1.9l-2.5,19.4l-14.9-1.9L123.9,161.7z"/>
</g>
</svg>
