<?xml version="1.0" encoding="iso-8859-1"?>
<!-- Generator: Adobe Illustrator 16.0.0, SVG Export Plug-In . SVG Version: 6.00 Build 0)  -->
<!DOCTYPE svg PUBLIC "-//W3C//DTD SVG 1.1//EN" "http://www.w3.org/Graphics/SVG/1.1/DTD/svg11.dtd">
<svg version="1.1" id="Layer_1" xmlns="http://www.w3.org/2000/svg" xmlns:xlink="http://www.w3.org/1999/xlink" x="0px" y="0px"
	 width="27.162px" height="31.458px" viewBox="0 0 27.162 31.458" style="enable-background:new 0 0 27.162 31.458;"
	 xml:space="preserve">
<g>
	<path d="M14.12,12.571c-1.943-2.914-0.777-11.27-2.526-11.774C10.04,0.33,5.22,3.517,2.85,7.753
		c-2.371,4.236-5.285,10.569,0.622,14.573c3.225,2.487-0.932,3.652-1.671,1.671c-0.069,4.031,3.89,4.134,4.469,1.282
		c0.403-1.985-2.01-6.15-2.759-8.161C1.684,12.222,7.086,5.654,7.086,5.654S2.267,13.582,4.21,17.43
		c6.646,9.793,2.222,9.559,0.505,10.726c6.49,0.311,8.721-5.413,9.094-6.18c0.854-2.292,0.33-6.373-1.788-8.315
		c-0.505-0.447-0.971,0.097-2.73,0c-1.759-0.098-0.806-1.749-0.806-1.749s-0.607-0.515-0.622-0.738s0.543-0.389,0.543-0.389
		s-0.544-0.292-0.583-0.544C7.785,9.987,8.407,9.385,8.407,9.385S7.586,9.006,7.571,8.627S8.467,7.623,9.339,5.81
		C9.999,4.44,9.961,2.157,11.01,1.632c0.622,1.069-1.942,9.23,2.254,11.834c0.777,0.427,5.752,4.313,1.671,9.326
		C19.444,19.645,15.342,14.365,14.12,12.571z"/>
	<path d="M17.423,0.252c1.943,2.294-0.039,10.96,4.547,13.835c6.217,4.431,1.835,10.403,0.933,12.009
		c1.554-4.508,1.438-6.84,0.699-8.666s-5.402-6.684-6.14-9.133c-0.738-2.449-0.972-9.209-4.549-7.978
		c3.306,4.17,1.304,7.994,5.812,13.729c4.508,5.734,3.594,13.796-0.174,15.66c5.887-7.791,0.699-13.873-0.816-16.283
		c-0.802-1.275-2.487-2.331-2.643-5.284c-0.155-2.954-2.208-8.065-3.031-7.772c2.137,4.236-0.078,10.182,4.702,15.895
		c3.264,3.575,4.703,11.348-0.815,15.194c5.791-0.233,9.132-6.411,10.531-10.415c1.865-5.557-3.459-10.336-4.469-12.28
		C20.999,6.819,20.454,0.292,17.423,0.252z"/>
	<path d="M24.884,6.528c-1.865-2.973-4.452-4.716-5.419-5.45c2.65,4.576,2.475,6.616,3.437,8.016
		c0.962,1.398,2.652,1.72,4.255,6.721C27.215,15.104,26.749,9.502,24.884,6.528z"/>
	<path d="M17,3.556c0.131,0.727,0.772,4.488,1.268,5.188c-0.32-4.605,0.118-4.343-0.262-6.063S16.956,0.029,14.741,0
		C16.956,1.865,16.869,2.829,17,3.556z"/>
</g>
<g>
</g>
<g>
</g>
<g>
</g>
<g>
</g>
<g>
</g>
<g>
</g>
<g>
</g>
<g>
</g>
<g>
</g>
<g>
</g>
<g>
</g>
<g>
</g>
<g>
</g>
<g>
</g>
<g>
</g>
</svg>
