<?xml version="1.0" encoding="utf-8"?>
<!-- Generator: Adobe Illustrator 17.0.2, SVG Export Plug-In . SVG Version: 6.00 Build 0)  -->
<!DOCTYPE svg PUBLIC "-//W3C//DTD SVG 1.0//EN" "http://www.w3.org/TR/2001/REC-SVG-20010904/DTD/svg10.dtd">
<svg version="1.0" id="Layer_1" xmlns="http://www.w3.org/2000/svg" xmlns:xlink="http://www.w3.org/1999/xlink" x="0px" y="0px"
	 width="26px" height="26px" viewBox="0 0 26 26" style="enable-background:new 0 0 26 26;" xml:space="preserve">
<path d="M21.87,11.012c0.02-0.266,0.039-0.532,0.055-0.799c0.027-0.431,0.333-0.808,0.321-1.241c-0.008-0.303-0.334-0.6-0.35-0.879
	c-0.026-0.478,0.383-0.528,0.373-0.975c-0.013-0.525-0.431-1.169-0.715-1.585c-0.16-0.236-0.746-0.708-0.796-1.014
	c-0.037-0.228,0.077-0.23,0.126-0.421c0.07-0.281,0.233-0.21,0.106-0.516c-0.035-0.083-0.351-0.294-0.424-0.347
	c-1.153-0.831-2.104-1.802-3.433-2.38c-1.286-0.56-2.7-0.79-4.098-0.79c-2.448,0-4.833,0.939-7.019,1.972
	c-0.341,0.161-0.728,0.255-0.98,0.568C4.573,3.18,5.208,3.059,5.372,3.516c0.205,0.571-0.955,1.623-1.257,2.113
	c-0.24,0.389-0.509,0.758-0.5,1.229C3.624,7.271,3.891,7.57,3.882,7.945C3.874,8.37,3.577,8.786,3.551,9.201
	c-0.027,0.435,0.375,0.816,0.5,1.217c0.053,0.169,0.089,0.346,0.118,0.525C3.5,11.571,3.1,12.573,3.1,13.726
	c0,1.521,0.987,3.067,2.135,3.571C6.53,22.695,11.237,23.9,13,23.9c1.178,0,3.678-0.551,5.595-2.546
	c0.012,0.756-0.196,1.703-0.342,2.105c-0.057,0.158-0.118,0.315-0.176,0.474c-0.094,0.258-0.108,0.484-0.109,0.766
	c0,0.408,0.232,0.956,0.61,1.141c0.339,0.166,0.61,0.234,1.194-0.053c0.304-0.15,0.43-0.678,0.46-0.994
	c0.028-0.304-0.026-0.602-0.149-0.876c-0.141-0.313-0.336-0.595-0.48-0.9c-0.133-0.282-0.202-0.589-0.232-0.898
	c-0.021-0.215-0.066-1.216-0.033-1.664c0.601-0.84,1.103-1.864,1.416-3.126c1.268-0.481,2.146-2.117,2.146-3.605
	C22.9,12.651,22.506,11.657,21.87,11.012z M20,15.67c-0.369,0-0.681,0.23-0.819,0.559c-0.156,0.129-0.321,0.244-0.497,0.256
	c-0.439,0.029-1.082-0.329-1.491-0.102c-0.556,0.309-0.232,1.723-0.543,2.275c-0.341,0.606-0.88,0.631-1.363,0.793h0
	c-0.21,0.07-0.409,0.166-0.577,0.347c-0.308,0.33-0.099,0.817-0.272,1.202c-0.158,0.351-0.485,0.55-0.83,0.689
	c-0.522,0.212-1.164,0.286-1.762,0.236c-1.71-0.445-4.283-1.869-4.961-5.522c-0.079-0.427-0.432-0.734-0.866-0.734
	C5.74,15.617,4.9,14.762,4.9,13.726c0-0.833,0.321-1.382,0.634-1.57c0.474-0.175,0.932-0.4,1.028-0.527
	c0.391-0.518,0.317-1.272,0.291-1.879C6.809,8.761,6.741,7.782,6.881,6.797C6.945,6.345,6.94,5.682,7.088,5.264
	c0.247-0.7,0.701-0.356,1.199-0.313c0.591,0.051,0.488-0.47,0.965-0.554c0.854-0.151,1.18,0.963,1.332,1.537
	c0.066,0.25,0.135,0.863,0.404,1.03c0.408,0.253,0.686-0.156,0.782-0.503c0.184-0.663-0.273-1.824,0.257-2.355
	c1.587-1.587,1.65,3.167,2.447,3.166c0.431-0.002,0.527-0.592,0.611-0.873c0.208-0.699,0.155-1.448,0.527-2.102
	c0.675-1.184,2.213-1.039,3.008-0.068c1.115,1.363,0.611,2.98,0.492,4.588c-0.088,1.188,0.102,2.335,0.901,2.973
	c0.088,0.131,0.198,0.248,0.352,0.32c0.356,0.167,0.734,0.789,0.734,1.615C21.1,14.789,20.372,15.67,20,15.67z M14,17
	c-0.281,0-0.604-0.656-0.953-0.656S12.375,17,12,17s0.434-2,1-2S14.281,17,14,17z M16.037,11.296C14.26,11.814,14,12.757,14,12.757
	c0,1.085,0.918,2.206,2.004,2.206C18,14.963,19,13.085,19,12C19,12,17.814,10.778,16.037,11.296z M17.172,13.5
	c0,0.371-0.301,0.672-0.672,0.672c-0.371,0-0.672-0.3-0.672-0.672s0.301-0.672,0.672-0.672C16.871,12.828,17.172,13.129,17.172,13.5
	z M7,12c0,1.085,1,2.963,3.035,2.963c0.874,0,1.965-1.121,1.965-2.206L7,12z M9.5,14.172c-0.372,0-0.672-0.3-0.672-0.672
	s0.301-0.672,0.672-0.672c0.371,0,0.672,0.301,0.672,0.672C10.172,13.871,9.872,14.172,9.5,14.172z"/>
</svg>
