<svg xmlns="http://www.w3.org/2000/svg" viewBox="0 0 150 150" enable-background="new 0 0 150 150"><path d="M20.288 60.16c0 30.557 38.84 85.007 55.327 85.007 16.488 0 55.327-54.45 55.327-85.006S106.172 4.834 75.616 4.834 20.288 29.603 20.288 60.16zm69.73-2.483c8.497-8.496 19.237-11.53 23.99-6.777 4.753 4.753 1.72 15.493-6.777 23.99s-19.235 11.53-23.988 6.776c-4.753-4.753-1.72-15.493 6.777-23.99zM78.555 91.293c1.07 0 1.94 1.805 1.94 4.033 0 2.227-.87 4.033-1.94 4.033s-1.94-1.806-1.94-4.034c.002-2.228.87-4.033 1.94-4.033zm-7.108 0c1.07 0 1.94 1.805 1.94 4.033 0 2.227-.87 4.033-1.94 4.033s-1.94-1.806-1.94-4.034c0-2.228.87-4.033 1.94-4.033zM59.98 57.677c8.497 8.496 11.53 19.236 6.778 23.99-4.753 4.752-15.493 1.718-23.99-6.778S31.24 55.652 35.993 50.9c4.753-4.753 15.493-1.72 23.99 6.777z"/></svg>