<svg xmlns="http://www.w3.org/2000/svg" viewBox="0 0 612 792" enable-background="new 0 0 612 792"><path d="M72.1 173.8c-30.1 0-54.5 24.5-54.5 54.5s24.5 54.5 54.5 54.5c20.9 0 39.7-11.8 48.8-30.3 23.3 4.2 33.8 25.2 38.2 39-16.5 26.8-25.2 57-25.2 87.5v206.9l.1.6s.8 3.1.8 4.4c0 25.5 20.7 44 49.2 44 13.3 0 25.7-5.8 35-16 9.2 10.3 22.4 16.3 36.5 16.3 15.7 0 35.5-2 44.7-16.5 8.5 14.1 26.8 16.3 43 16.3 15.4 0 29.7-7.4 38.9-19.6 9.1 11.8 23.2 18.8 38.2 18.8 25.9 0 40.1-15.6 40.1-43.8 0-1.8-.8-4.2-1.5-5.9V379.1c0-41.1-9-73.5-27.6-99 8.3-15.7 25.4-24.7 47.5-24.8 9.6 16.6 28.8 27.6 48.6 27.6 30.4 0 55.2-24.5 55.2-54.5s-24.2-54.5-53.9-54.5c-23.4 0-44.1 15-51.6 36.9-30 1.2-55.4 14.1-72.2 36.9-29.3-23-65.8-35.7-103.2-35.7-40.8 0-79.8 14.8-110.5 41.9-15.2-25.6-39.8-42-68.6-45.4-8-20.9-28-34.7-50.5-34.7zm279.8 337h-91.7c-6.4 0-11.5-5.2-11.5-11.5v-5.6c0-6.4 5.2-11.5 11.5-11.5h91.7c6.4 0 11.5 5.2 11.5 11.5v5.6c0 6.3-5.2 11.5-11.5 11.5zm25.2-66.7c-25.8 0-46.7-20.9-46.7-46.7 0-25.8 20.9-46.7 46.7-46.7s46.7 20.9 46.7 46.7c-.1 25.8-21 46.7-46.7 46.7zm-79.1-88c-25.8 0-46.7-20.9-46.7-46.7s20.9-46.7 46.7-46.7 46.7 20.9 46.7 46.7c0 25.8-20.9 46.7-46.7 46.7zm-70.2-5.3c25.8 0 46.7 20.9 46.7 46.7s-20.9 46.7-46.7 46.7c-25.8 0-46.7-20.9-46.7-46.7s20.9-46.7 46.7-46.7z"/><circle cx="298" cy="308.9" r="28"/><circle cx="227.8" cy="396.9" r="28"/><circle cx="377.1" cy="396.9" r="28"/></svg>
