<svg xmlns="http://www.w3.org/2000/svg" width="100" height="100" viewBox="0 0 100 100"><path d="M34.158 59.678c0 9.323 5.51 15.348 14.04 15.348s14.038-6.024 14.038-15.348c0-.553-.448-1-1-1H35.158c-.552 0-1 .447-1 1zm26.056 1c-.41 9.08-6.4 12.348-12.017 12.348S36.59 69.756 36.18 60.678h24.034zM48.197 54.61c4.896 0 8.88-3.984 8.88-8.88s-3.984-8.88-8.88-8.88-8.88 3.984-8.88 8.88 3.984 8.88 8.88 8.88zm0-15.758c3.793 0 6.88 3.086 6.88 6.88s-3.087 6.878-6.88 6.878-6.88-3.086-6.88-6.88 3.087-6.878 6.88-6.878zM23.772 73.66v-8.426c0-1.775.47-3.044 1.398-3.77 1.4-1.097 3.532-.776 4.1-.666 1.37 7.21 5.097 13.212 10.048 16.533v9.597c0 .553.448 1 1 1s1-.447 1-1v-8.433c2.14 1.058 4.458 1.64 6.88 1.64s4.737-.582 6.878-1.64v8.433c0 .553.448 1 1 1s1-.447 1-1V77.33c4.947-3.317 8.673-9.312 10.044-16.514.275.028.587.05.932.05 1.195 0 2.72-.24 3.968-1.21 1.445-1.124 2.177-2.926 2.177-5.355v-8.424c0-.553-.448-1-1-1s-1 .447-1 1V54.3c0 1.776-.47 3.045-1.398 3.77-1.033.81-2.46.847-3.368.768.17-1.354.265-2.744.265-4.16 0-1.562-.12-3.134-.34-4.687 1.655-.747 2.754-2.385 2.754-4.26 0-2.828-2.566-5.09-5.42-4.623-1.396-2.888-3.235-5.4-5.393-7.354 1.31-1.41 3.447-4.844 4.046-12.624.023-.297-.087-.588-.3-.795s-.508-.31-.8-.277c-.274.028-6.482.81-8.995 10.042-2.907-1.018-5.958-1.142-8.947-.348-2.228-5.537-6.315-6.05-6.497-6.07-.3-.03-.59.07-.803.277-.213.206-.324.497-.3.794.248 3.23.866 5.854 1.84 7.815-2.79 2.076-5.13 5.004-6.84 8.555-.3-.06-.605-.092-.916-.092-2.59 0-4.697 2.106-4.697 4.696 0 1.943 1.193 3.634 2.938 4.337-.214 1.527-.33 3.073-.33 4.61 0 1.378.087 2.73.25 4.05-1.215-.135-3.347-.13-4.998 1.152-1.445 1.122-2.177 2.924-2.177 5.353v8.425c0 .553.448 1 1 1s1.002-.446 1.002-1zm7.738-26.73c0-.138.112-.25.25-.25s.25.112.25.25c0 .275-.5.275-.5 0zm35.366-1.914c0 .275-.5.275-.5 0 0-.138.112-.25.25-.25s.25.112.25.25zm-1.32-1.967c-.7.38-1.18 1.114-1.18 1.966 0 1.24 1.01 2.25 2.25 2.25.445 0 .857-.134 1.207-.357-.346.71-.993 1.253-1.81 1.44-.002 0-.002.002-.003.002-.22.05-.42.076-.605.076-1.487 0-2.697-1.21-2.697-2.697 0-1.114.71-2.127 1.77-2.518.325-.12.628-.178.926-.178.05 0 .094.012.143.015zm-25.16-9.36c.05-.035.083-.086.125-.128.048-.046.102-.085.14-.14.037-.055.055-.117.08-.178.025-.058.057-.11.07-.17.015-.064.008-.128.01-.192s.01-.127 0-.19c-.01-.064-.043-.123-.067-.186-.02-.056-.028-.114-.06-.167-.64-1.053-1.44-2.956-1.848-6.225 1.156.6 2.838 1.988 3.894 5.162.024.076.072.134.112.198.03.048.047.105.084.146.046.054.107.085.162.126.23.174.524.246.82.175.03-.005.057 0 .085-.01 3.19-1.056 6.46-.89 9.532.436.03.013.06.01.09.02s.056.03.09.04c.036.007.072-.003.11 0 .035.004.07.022.105.022.045 0 .088-.014.132-.02.026-.003.05-.005.077-.01.228-.05.435-.177.58-.37.02-.024.033-.052.05-.078.026-.042.058-.08.078-.126.013-.03.01-.063.02-.094.01-.03.03-.054.038-.086 1.405-6.32 4.552-8.498 6.306-9.234-.943 8.515-3.905 10.458-3.92 10.468-.108.062-.204.143-.283.24l.002.002c-.006.007-.014.01-.02.016-.345.43-.276 1.06.155 1.405 2.28 1.832 4.226 4.347 5.676 7.3-1.288.86-2.108 2.31-2.108 3.89 0 2.577 2.088 4.673 4.662 4.692.195 1.413.318 2.837.318 4.254 0 12.935-7.85 23.458-17.5 23.458s-17.5-10.523-17.5-23.458c0-1.425.123-2.855.32-4.273 2.48-.124 4.465-2.163 4.465-4.674 0-1.532-.747-2.928-1.953-3.798 1.707-3.513 4.063-6.358 6.87-8.243zm-9.61 9.344c.366 0 .72.072 1.053.214.918.392 1.53 1.25 1.624 2.23-.413-.485-1.02-.8-1.704-.8-1.24 0-2.25 1.01-2.25 2.25 0 .514.18.98.468 1.36-1.11-.35-1.89-1.37-1.89-2.56 0-1.484 1.21-2.694 2.698-2.694zM48.197 51.678c3.28 0 5.947-2.668 5.947-5.947 0-3.277-2.667-5.945-5.947-5.945s-5.947 2.668-5.947 5.946c0 3.28 2.668 5.948 5.947 5.948zm0-9.894c2.176 0 3.947 1.77 3.947 3.946 0 2.177-1.77 3.947-3.947 3.947s-3.947-1.77-3.947-3.947c0-2.175 1.77-3.946 3.947-3.946z"/></svg>
