<svg xmlns="http://www.w3.org/2000/svg" width="50" height="50" viewBox="0 0 50 50"><path d="M36.13 19.963c-.294-.622-1.036-.888-1.66-.6-.014.005-.653.29-1.97.594v-5.915c0-1.65-1.35-3-3-3h-9c-1.65 0-3 1.35-3 3v5.915c-1.296-.3-1.935-.58-1.966-.595-.623-.292-1.363-.028-1.66.592-.3.623-.035 1.37.588 1.667.135.065 3.375 1.574 10.54 1.574s10.403-1.51 10.538-1.573c.62-.295.88-1.035.59-1.657zm-5.57.257c-1.595.347-3.466.523-5.56.523s-3.967-.176-5.563-.523c-.54-.117-.882-.65-.765-1.19.118-.54.646-.882 1.19-.764 1 .218 2.704.477 5.136.477s4.135-.26 5.136-.477c.544-.12 1.072.225 1.19.765.118.54-.224 1.073-.763 1.19zM19.845 38.958L25 36.38l-5.155-2.576zM30.153 38.958v-5.154L25 36.38zM30.856 31.706c-1.33-.808-3.585-3.448-5.264-3.448-.324 0-.497.165-.594.428-.097-.264-.27-.428-.594-.428-1.68 0-3.935 2.64-5.264 3.448-.563.342-1.196-.063-1.056-.82-.956 1.434.607 2.564 2.14 2.17.097-.024 4.263-1.457 4.773-2.535.51 1.08 4.677 2.512 4.774 2.537 1.532.393 3.096-.737 2.14-2.17.143.757-.49 1.16-1.054.82z"/></svg>
