<svg xmlns="http://www.w3.org/2000/svg" width="500" height="500" viewBox="0 0 500 500"><path d="M381.91 227.55l-5.653 3.14-11.556 6.416c.565-4.337.866-8.748.866-13.227 0-.722-.014-1.44-.03-2.155l40.357-26.896 88.412 29.894-86.07-48.316-3.292-1.85-4.777 2.227-38.798 18.07c-4.784-16.18-13.47-30.833-25.047-43.022l67.798-45.185 90.02 68.683-83.674-86.694-3.98-4.124-6.42 2.99-91.814 42.766c-17.104-9.38-37.006-14.762-58.252-14.762s-41.148 5.382-58.252 14.762l-91.81-42.766-6.42-2.99-3.98 4.123L5.86 175.33l90.02-68.683 67.798 45.185c-11.577 12.19-20.263 26.845-25.047 43.024l-38.797-18.072-4.776-2.227-3.293 1.85-86.07 48.316 88.412-29.895 40.357 26.896c-.017.717-.03 1.434-.03 2.154 0 4.48.3 8.89.864 13.227l-11.555-6.415-5.654-3.14-3.824 3.362-71.05 62.467 75.338-45.522 25.97 20.345c7.647 15.98 19.3 29.903 33.765 40.65l-8.68.026-7.302.02-1.874 4.82-39.588 101.77 51.438-87.474 26.616 8.522c11.853 14.236 30.33 23.397 51.103 23.397 20.772 0 39.25-9.16 51.103-23.397l26.615-8.522 51.438 87.473-39.59-101.77-1.873-4.82-7.3-.02-8.682-.026c14.466-10.748 26.118-24.673 33.767-40.65l25.97-20.346 75.337 45.52-71.05-62.466-3.823-3.36zM250 333.638c-20.63 0-37.355-16.876-37.355-37.695S229.37 258.246 250 258.246s37.355 16.876 37.355 37.695S270.63 333.638 250 333.638zM254.673 270.03c-3.8 3.832-1.827 12.037 4.402 18.324 6.23 6.287 14.36 8.276 18.16 4.443 3.798-3.834 1.827-12.04-4.402-18.326-6.23-6.285-14.36-8.275-18.16-4.44z"/></svg>
