<svg xmlns="http://www.w3.org/2000/svg" width="126" height="126" viewBox="0 0 126 126"><g fill="#010101"><path d="M61.407 54.107l12.767 5.922c9.728 1.227 19.543-3.855 23.887-13.223 5.38-11.594.34-25.354-11.255-30.73-11.594-5.38-25.354-.34-30.73 11.255-4.346 9.368-1.887 20.143 5.332 26.775zM87.77 34.644l-.688-3.267 2.83-.596.688 3.267 3.424-.72.597 2.83-3.424.72.688 3.266-2.83.596-.688-3.267-3.108.655-.596-2.83 3.108-.654zM68.604 21.42l2.83-.597.69 3.266 3.423-.722.596 2.83-3.424.722.685 3.267-2.83.596-.687-3.266-3.108.654-.597-2.83 3.11-.654-.69-3.267zm-5.96 22.79c.24-.06 2.42-.594 5.1-.594 3.11 0 5.645.695 7.538 2.066 2.196 1.587 3.414 3.998 3.627 7.164l.046.722-2.887.192-.048-.72c-.15-2.266-.97-3.952-2.433-5.013-1.383-1.003-3.344-1.512-5.828-1.512-2.417 0-4.382.492-4.4.498l-.7.177-.72-2.8.702-.18zM82.095 92.625l4 19.453h14.12c0-23.5-11.607-43.272-27.392-49.177H53.178c-15.785 5.906-27.394 25.68-27.394 49.178h11.55l4-19.453v19.453h40.76V92.625zM53.92 50.875l-12.116-6.667 10.873 8.547zM53.863 57.862l-1.13-1.95-5.182 4.298zM91.97 66.406c.182-.03.35-.075.505-.13h.002c.723-.252 1.225-.757 1.446-1.458.198-.633.158-1.39-.12-2.186-.574-1.64-2.202-2.263-4.147-1.584-1.483.52-4.597.44-4.627.44l-.935-.025.646.673c.19.194 4.57 4.723 7.23 4.27zM83.583 64.146l-.825-.438.28.89c.105.342 1.085 3.35 2.494 3.773.337.103.65.103.94.002.55-.194.923-.734 1.018-1.484.067-.527-.088-.99-.445-1.34-.31-.3-.748-.494-1.275-.56-.643-.08-1.797-.635-2.187-.842zm3.146 2.647c-.085.664-.442 1.008-.976.845-.597-.18-1.242-1.353-1.67-2.403.5.22 1.118.456 1.59.515.353.044.65.168.835.348.184.18.257.407.22.695z"/></g></svg>
