<svg xmlns="http://www.w3.org/2000/svg" width="64" height="64" viewBox="0 0 64 64"><path d="M62.09 54.038c-.777-.52-.752-1.5-.757-2.37 0-.035-.008-.064-.01-.097.11-7.708 1.326-17.705-2.167-25.523.003-.016.01-.03.01-.047.356-2.722.795-5.428 1-8.167.087-1.142.1-3.316-1.166-3.93-1.654-.802-3.21-.248-4.867.32-2.424.834-5.154.92-7.74 1.05C42.803 14.147 38.4 13.5 32.96 13.5c-5.288 0-9.608.595-13.148 1.647-1.453-.46-3.003-.626-4.388-1.276-1.63-.764-3.173-1.67-4.858-2.317-.63-.242-1.368.157-1.694.69-.91 1.48-.712 3.386-.603 5.045.12 1.825.113 3.637.225 5.45C2.81 30.79 4.433 42.52 4.593 51.343c-.052.148-.09.308-.092.49-.01.5-.108.977-.3 1.614-.094.31-.196.537-.363.827-.03.05-.047.083-.058.107l-.01.006c-1.89.418-1.088 3.31.798 2.893 1.89-.42 2.692-2.84 2.887-4.697h3.487c-.072 1.38-.893 2.816-1.385 4.018-.31.76.33 1.65 1.048 1.846.86.237 1.536-.292 1.845-1.048.652-1.593 1.37-3.146 1.46-4.815h4.204c-.022.466-.045.93-.052 1.397-.015.995-.07 2.332.714 3.08 1.314 1.256 3.27-.54 2.335-1.873-.002-.082-.036-.357-.035-.343-.025-.442-.013-.886-.003-1.328.007-.31.024-.622.04-.934h4.818c0 .02.002.033.003.055.04.588.005 1.184-.01 1.773-.024 1.104.014 2.154.452 3.18.32.752 1.414.91 2.052.537.77-.45.86-1.3.538-2.052-.295-.69-.01-2.314-.024-3.203 0-.093-.006-.192-.01-.29h10.698c-.012 1.792.165 3.515 1.482 4.977 1.297 1.44 3.412-.69 2.12-2.122-.65-.724-.73-1.793-.686-2.856h4.06c.23 1.31.57 2.584 1.105 3.84.32.753 1.413.912 2.05.538.772-.45.86-1.3.54-2.052-.318-.743-.53-1.53-.686-2.326h2.968c.52 2.13 1.708 4.037 1.922 6.25.184 1.908 3.186 1.926 3 0-.213-2.204-1.394-4.154-1.916-6.25h2.796c.148 1.634.713 3.05 2.196 4.045.68.456 1.658.134 2.052-.538.43-.738.136-1.598-.542-2.052zm-49.257-12.87c-2.58 0-2.58-4 0-4s2.58 4 0 4zm-1.483-21.57c-.006-.477-.012-.954-.026-1.432-.025-.886-.278-2.088-.207-3.132 1.163.554 2.292 1.193 3.455 1.738.2.094.41.156.617.23-1.462.765-2.737 1.634-3.84 2.595zm24.1 25.61c-.28 2.91-1.72 5.125-3.45 5.125-1.933 0-3.5-2.76-3.5-6.167h7c0 .356-.017.704-.05 1.042zM54.833 43.5c-2.58 0-2.58-4 0-4s2.58 4 0 4zm2.34-26.212c.003.785-.086 1.564-.162 2.344-.076.792-.177 1.582-.285 2.37-1.282-1.624-2.892-3.077-4.9-4.306 1.516-.24 3.018-.566 4.512-1.05 1.29-.414.835-.247.837.642z"/></svg>