<svg xmlns="http://www.w3.org/2000/svg" width="50" height="50" viewBox="0 0 50 50"><ellipse cx="24.99" cy="32.042" rx="2.5" ry="1"/><path d="M17.017 30.102c.6.188 1.138.28 1.6.28 1.314 0 1.69-.75 1.79-1.075.163-.524.016-1.064-.416-1.522-.402-.43-1.05-.783-1.923-1.056-.503-.156-1.103-.235-1.782-.235-1.303 0-2.47.288-2.52.3-.17.042-.305.17-.356.336-.052.167-.014.35.102.48.068.078 1.723 1.938 3.505 2.492zM31.362 30.31c.462 0 1-.094 1.6-.28 1.782-.554 3.44-2.413 3.51-2.49.113-.132.152-.314.102-.48s-.187-.294-.356-.336c-.05-.013-1.217-.3-2.52-.3-.68 0-1.28.08-1.782.235-.874.27-1.52.626-1.924 1.054-.43.458-.58.998-.416 1.522.098.322.473 1.075 1.786 1.075zM48.838 19.87L26.524 2.515c-.902-.702-2.167-.702-3.07 0l-22.5 17.5C.113 20.67-.22 21.79.125 22.8c.348 1.01 1.298 1.688 2.366 1.688h3.14c-1.307 1.203-2.14 2.963-2.14 4.93 0 2.97 1.885 5.483 4.463 6.29 1.88 3.598 4.852 6.453 8.42 8.232v2.07c0 1.105.896 2 2 2s2-.895 2-2v-.603c1.498.368 3.054.573 4.648.573 1.573 0 3.106-.2 4.586-.56v.59c0 1.105.896 2 2 2s2-.895 2-2v-2.04c3.603-1.782 6.604-4.657 8.495-8.285 2.54-.833 4.39-3.327 4.39-6.267 0-1.966-.833-3.727-2.14-4.93h3.16c1.382 0 2.5-1.12 2.5-2.5 0-.893-.468-1.676-1.172-2.118zm-8.598 6.984h.006c1.245 0 2.243 1.146 2.243 2.562s-1 2.563-2.244 2.563c-.29 0-.563-.067-.816-.183-1.068 3.1-3.14 5.735-5.823 7.552v-3.402c0-1.104-.896-2-2-2h-3.144c-1.104 0-2 .896-2 2s.896 2 2 2h1.144v3.33c-1.447.45-2.985.7-4.585.7-1.623 0-3.183-.254-4.648-.718v-3.313h1.143c1.104 0 2-.896 2-2s-.896-2-2-2h-3.143c-1.104 0-2 .896-2 2v3.36c-2.66-1.82-4.71-4.448-5.767-7.53-.27.13-.564.2-.874.2-1.245 0-2.243-1.146-2.243-2.563s.998-2.563 2.243-2.563c.023 0 .045.008.07.01.004-.686.062-1.512.16-2.376h30.12c.095.864.152 1.688.157 2.37z"/></svg>
