<svg xmlns="http://www.w3.org/2000/svg" width="1000" height="1000" viewBox="0 0 1000 1000"><path d="M208.4 829.9c86.6 55.6 186 84.7 288.6 85.3 102.6-.6 202-29.7 288.6-85.3 76.5-49.6 140.1-117.6 183.5-197.8 7-13 5.4-29-4.1-40.3l-.2-.2c-42.2-49.1-97.9-85.7-156.8-111.9-4.7-2.1-57.1-22.2-57-22.4 5.8-20.4 11.1-40.9 12.6-62 .4-5.3 5.4-9 10.5-7.8 14.4 3.5 31 1.4 44.6-1.9 24.4-6 48-22.8 57.5-46.6 4.5-11.2 3.2-22.2 3.3-34 0 0 22.4-8 24.6-9.1 29.8-15.4 45.7-48.7 36.2-81.8-4.8-16.9-16.3-31.6-31.1-41-14.2-9-27.8-10.4-42.7-11.1-8-.4-14.6-6.3-16.2-14.2-8.7-45.4-65.9-69.8-108.6-61.2-34.1 6.9-61.2 32-67.9 64.9-1.5 7.2-10 10.5-15.9 6-7.5-5.6-15-11.3-23.1-16.1-13.6-8.1-28-14.9-42.9-20.4-30.2-11.2-62.5-17-94.7-17h-.4c-32.3 0-64.5 5.7-94.7 17-14.9 5.5-29.2 12.3-42.9 20.4-8.2 4.8-15.6 10.5-23.1 16.1-5.9 4.4-14.4 1.2-15.9-6-6.8-32.9-33.8-58-67.9-64.9-42.7-8.6-99.8 15.8-108.6 61-1.6 8.1-8.8 13.8-17.1 13.7-7-.1-13.9.1-21.3 2.3-27.2 8.1-49.8 31.5-53.9 59.9-4.3 30.3 11.9 58.6 38.5 72.3 2.1 1.1 24.6 9.1 24.6 9.1.1 11.8-1.2 22.8 3.3 34 9.5 23.8 33.1 40.7 57.5 46.6 13.6 3.3 30.2 5.4 44.6 1.9 5.2-1.2 10.2 2.5 10.5 7.8 1.5 21.1 6.7 41.6 12.6 62 0 .2-52.3 20.3-57 22.4-58.8 26.1-114.6 62.8-156.8 111.9 0 .1-.1.1-.2.2C19.5 603 17.9 619 24.9 632 68.3 712.4 132 780.3 208.4 829.9zM585 213.8c18.9 0 34.2 15.3 34.2 34.2s-15.3 34.2-34.2 34.2-34.2-15.3-34.2-34.2 15.3-34.2 34.2-34.2zM497 285c40.5 0 73.2 32.8 73.2 73.2 0 40.5-32.8 73.2-73.2 73.2s-73.2-32.8-73.2-73.2c0-40.4 32.7-73.2 73.2-73.2zm-88-71.2c18.9 0 34.2 15.3 34.2 34.2s-15.3 34.2-34.2 34.2-34.2-15.3-34.2-34.2 15.3-34.2 34.2-34.2zm-65.5 140.6c16.4-2.7 31.8 8.5 34.4 24.8 4.5 27.9 18.9 53.5 40.5 72.1 21.8 18.8 49.7 29.1 78.6 29.1 28.8 0 56.7-10.3 78.5-29 21.6-18.5 36-44.1 40.6-72 2.7-16.4 18.1-27.4 34.5-24.8 16.4 2.7 27.4 18.1 24.8 34.5-6.8 41.8-28.4 80.1-60.7 107.8-32.7 28-74.4 43.5-117.6 43.5-43.2 0-85-15.5-117.7-43.6-32.3-27.8-53.9-66.1-60.7-108-2.7-16.4 8.4-31.8 24.8-34.4z"/></svg>
