<svg xmlns="http://www.w3.org/2000/svg" width="126" height="126" viewBox="0 0 126 126"><path d="M116.527 16.03h-46.19c-1.65-.526-3.407-.814-5.23-.814-1.827 0-3.583.288-5.235.813H12.244v1.092h45.004c-5.572 2.86-9.393 8.65-9.393 15.345 0 1.223.14 2.412.383 3.563H12.244v1.093h36.25c1.754 6.263 6.955 11.083 13.432 12.29-5.06.993-9.29 3.33-12.004 6.617H12.244v1.093h36.848c-.605.89-1.107 1.842-1.494 2.847l-.318.832h-9.885v5.01h-.008c-1.736.587-4.46 2.003-6.75 4.434-.08-.016-.158-.037-.244-.037-.697 0-1.09.373-1.324.774h-.028l-.033-.68h-.673c.025.348.035.705.035 1.14v1.875c-.463.828-.857 1.733-1.168 2.71h-14.96v1.094h14.654c-.54 2.307-.598 4.997.11 8.11.253 1.123.71 3.356 2.474 4.738-.174.136-.313.3-.414.473h-.027l-.032-.68h-.672c.025.348.035.705.035 1.14v3.077h.75v-2.545c0-.13.017-.262.062-.375.11-.344.406-.672.81-.738.26.156.542.298.85.416.106.195.17.433.17.715v2.527h.75v-2.605c0-.13.024-.258.056-.36.492.097 1.03.153 1.63.145h.15c.024.135.046.27.046.433v2.388h.748V91.5c0-.124-.014-.23-.023-.337 1.048 0 2.06.012 3.026 0v4.87h-25.15v1.092h25.15v9.715h9.926v3.015c0 2.258.336 4.305.91 6.178H12.244v1.093h104.283v-1.093H86.79c.573-1.872.91-3.92.91-6.178v-3.015h12.956v-9.715h15.87v-1.093h-15.87V91.16c1.38.03 2.814-.016 4.377.003 3.84.048 5.643-2.41 6.44-5.928.708-3.113.65-5.804.11-8.11h4.943v-1.093h-5.248c-1.945-6.123-7.363-9.266-10.184-10.218-.164-.056-.307-.087-.44-.108v-4.902H87.743l-.318-.832c-.387-1.007-.9-1.954-1.51-2.847h30.613v-1.093h-31.43c-3.243-3.93-8.655-6.5-15.054-7.037 5.646-1.685 10.072-6.186 11.666-11.87h34.817v-1.093H81.975c.242-1.15.383-2.34.383-3.563 0-6.695-3.82-12.486-9.395-15.346h43.564V16.03zM29.12 72.12v-.146c0-.13.017-.26.062-.374.12-.375.457-.745.92-.76-.342.4-.67.828-.98 1.28zm67.497-7.28v9.916c-2.3.322-4.428 1.568-5.736 3.804-2.132 3.645-1.01 9.035 2.897 11.05.97.5 1.908.836 2.84 1.068v12.12H41.432V90.77c1.074-.232 2.152-.582 3.27-1.158 3.91-2.015 5.034-7.405 2.9-11.05-1.323-2.256-3.474-3.505-5.8-3.813-.096-.41-.217-.816-.37-1.21V64.84h55.185zM9.62 10.22l-.147-.584 1.236-.663h.653v5.664h-.742v-4.95h-.015l-.984.533zm3.74 2.98c0 .827.714 1.533 1.9 1.533 1.08 0 1.925-.662 1.925-1.646 0-.688-.436-1.185-1.14-1.464v-.026c.696-.332.93-.845.93-1.325 0-.706-.548-1.394-1.645-1.394-.994 0-1.752.61-1.752 1.508 0 .487.27.975.896 1.272l.01.026c-.697.295-1.125.8-1.125 1.515zm.94-2.867c0-.488.35-.906.987-.906.688 0 .957.47.957.923 0 .514-.375.862-.86 1.028-.655-.174-1.083-.48-1.083-1.045zm.864 1.594c.766.218 1.246.55 1.246 1.237 0 .584-.443 1.01-1.133 1.01-.723 0-1.158-.504-1.133-1.08 0-.54.358-.975 1.02-1.167zm4.533 2.806c1.254 0 1.97-1.063 1.97-2.988 0-1.804-.68-2.867-1.874-2.867-1.15 0-1.97 1.046-1.97 2.945.02 1.873.767 2.91 1.874 2.91zm.05-5.263c.794 0 1.15.916 1.15 2.31 0 1.446-.374 2.36-1.157 2.36-.697 0-1.15-.835-1.15-2.308 0-1.542.488-2.362 1.158-2.362zm4.413 3.102c0-1.298.89-2.24 2.266-2.24.453 0 .854.114 1.063.22l-.175.59c-.182-.103-.47-.2-.89-.2-.966 0-1.49.716-1.49 1.595 0 .976.63 1.577 1.466 1.577.437 0 .724-.113.94-.21l.133.576c-.2.104-.646.244-1.213.244-1.272 0-2.1-.862-2.1-2.152zm4.21-1.01c0-.436-.01-.793-.034-1.14h.672l.033.68h.028c.234-.402.627-.776 1.324-.776.574 0 1.01.348 1.193.845h.018c.13-.234.295-.417.47-.548.253-.192.532-.296.933-.296.56 0 1.385.366 1.385 1.83v2.483h-.747v-2.39c0-.81-.297-1.298-.916-1.298-.436 0-.775.322-.906.697-.032.104-.06.243-.06.383v2.605h-.748V12.11c0-.67-.297-1.16-.88-1.16-.48 0-.83.384-.95.768-.045.113-.06.244-.06.375v2.544h-.75v-3.075zM9.62 30.182l-.147-.585 1.236-.662h.653v5.663h-.742v-4.95h-.015l-.984.533zm6.685-.594v-.018h-2.77v-.636h3.572v.505l-2.467 5.157h-.793l2.458-5.01zm5.36 2.117c0-1.803-.68-2.867-1.872-2.867-1.15 0-1.97 1.046-1.97 2.945.02 1.874.767 2.91 1.874 2.91 1.254 0 1.97-1.062 1.97-2.988zm-3.075.087c0-1.542.488-2.36 1.158-2.36.793 0 1.15.914 1.15 2.308 0 1.446-.375 2.36-1.158 2.36-.697 0-1.15-.835-1.15-2.308zm6.346.706c0 .976.63 1.577 1.465 1.577.437 0 .724-.113.94-.21l.133.576c-.2.105-.646.245-1.213.245-1.27 0-2.1-.863-2.1-2.152 0-1.298.89-2.24 2.266-2.24.453 0 .854.114 1.063.22l-.175.592c-.182-.104-.47-.2-.89-.2-.966-.002-1.49.713-1.49 1.593zm8.707 2.1V32.21c0-.81-.297-1.298-.916-1.298-.436 0-.775.323-.906.697-.032.103-.06.243-.06.382v2.605h-.748V32.07c0-.67-.297-1.158-.88-1.158-.48 0-.83.384-.95.767-.045.112-.06.243-.06.374v2.544h-.75v-3.076c0-.436-.01-.793-.036-1.14h.672l.033.68h.028c.234-.402.627-.776 1.324-.776.574 0 1.01.348 1.193.845h.018c.13-.234.295-.417.47-.547.253-.192.532-.296.933-.296.56 0 1.385.366 1.385 1.83V34.6h-.747zM9.62 50.14l-.147-.583 1.236-.662h.653v5.663h-.742v-4.95h-.015l-.984.533zm6.468-.67c.217-.035.418-.043.574-.035v-.627c-.14 0-.33.008-.557.043-.715.088-1.342.376-1.813.837-.557.558-.96 1.438-.96 2.553 0 1.472.794 2.413 2.005 2.413 1.176 0 1.883-.958 1.883-1.995 0-1.106-.707-1.83-1.71-1.83-.626 0-1.097.296-1.366.653h-.025c.13-.93.765-1.81 1.968-2.01zM14.18 52.1c.21-.408.635-.696 1.098-.696.705 0 1.168.488 1.168 1.298s-.445 1.36-1.107 1.36c-.802 0-1.23-.69-1.247-1.622 0-.138.034-.252.087-.34zm7.486-.434c0-1.803-.68-2.866-1.873-2.866-1.15 0-1.97 1.045-1.97 2.945.02 1.873.767 2.91 1.874 2.91 1.254 0 1.97-1.064 1.97-2.99zm-3.076.087c0-1.542.488-2.36 1.158-2.36.793 0 1.15.914 1.15 2.308 0 1.447-.375 2.362-1.158 2.362-.697 0-1.15-.837-1.15-2.31zm6.346.705c0 .976.63 1.577 1.465 1.577.437 0 .724-.113.94-.21l.133.576c-.2.106-.646.245-1.213.245-1.27 0-2.1-.863-2.1-2.152 0-1.298.89-2.24 2.266-2.24.453 0 .854.114 1.063.22l-.175.59c-.182-.103-.47-.2-.89-.2-.966 0-1.49.716-1.49 1.595zm8.707 2.1V52.17c0-.81-.297-1.297-.916-1.297-.436 0-.775.322-.906.697-.032.104-.06.244-.06.383v2.605h-.748v-2.526c0-.67-.297-1.16-.88-1.16-.48 0-.83.384-.95.768-.045.113-.06.244-.06.375v2.544h-.75v-3.077c0-.436-.01-.792-.036-1.14h.672l.033.68h.028c.234-.402.627-.776 1.324-.776.574 0 1.01.35 1.193.845h.018c.13-.235.295-.418.47-.55.253-.19.532-.295.933-.295.56 0 1.385.366 1.385 1.83v2.483h-.747zM9.62 70.102l-.147-.584 1.236-.662h.653v5.664h-.742v-4.95h-.015l-.984.532zm6.528 2.666c-.008-.73-.496-1.254-1.63-1.254-.32 0-.575.035-.782.06l.365-2.718h2.71v.646h-2.16l-.22 1.454c.132-.017.255-.034.464-.034.436 0 .87.097 1.22.305.444.253.81.74.81 1.455 0 1.106-.88 1.935-2.11 1.935-.616 0-1.14-.174-1.41-.35l.192-.583c.236.14.697.313 1.21.313.723 0 1.342-.472 1.342-1.23zm5.518-1.14c0-1.805-.68-2.868-1.873-2.868-1.15 0-1.97 1.046-1.97 2.945.02 1.873.767 2.91 1.874 2.91 1.254 0 1.97-1.062 1.97-2.988zm-3.076.086c0-1.542.488-2.36 1.158-2.36.793 0 1.15.914 1.15 2.31 0 1.444-.375 2.36-1.158 2.36-.697-.002-1.15-.838-1.15-2.31zm6.346.706c0 .975.63 1.576 1.465 1.576.437 0 .724-.113.94-.21l.133.576c-.2.104-.646.244-1.213.244-1.27 0-2.1-.862-2.1-2.15 0-1.3.89-2.24 2.266-2.24.453 0 .854.112 1.063.218l-.175.592c-.182-.104-.47-.2-.89-.2-.966 0-1.49.713-1.49 1.594zm-14.33 16.61l-.985.532-.147-.584 1.236-.662h.653v5.664h-.742v-4.95h-.015zm5.09-.714l-2.528 3.616v.505H15.8v1.543h.724v-1.543h.793v-.602h-.793v-3.52h-.83zm.105 1.63v1.89h-1.856v-.017l1.387-1.927c.157-.26.298-.505.472-.837h.025c-.018.298-.026.593-.026.89zm5.866 1.142c0-1.805-.68-2.867-1.873-2.867-1.15 0-1.97 1.047-1.97 2.946.02 1.873.767 2.91 1.874 2.91 1.254 0 1.97-1.063 1.97-2.988zm-3.076.086c0-1.54.488-2.36 1.158-2.36.793 0 1.15.915 1.15 2.31 0 1.445-.375 2.36-1.158 2.36-.697 0-1.15-.838-1.15-2.31zm6.346.706c0 .976.63 1.577 1.465 1.577.437 0 .724-.113.94-.21l.133.575c-.2.105-.646.244-1.213.244-1.27 0-2.1-.86-2.1-2.15 0-1.3.89-2.24 2.266-2.24.453 0 .854.113 1.063.218l-.175.593c-.182-.104-.47-.2-.89-.2-.966-.002-1.49.713-1.49 1.593zM11.56 107.936h.644v5.592h-.732v-4.886h-.016l-.973.524-.146-.576 1.222-.654zm5.368 3.992c-.008-.783-.713-1.12-1.443-1.12h-.422v-.566h.422c.55 0 1.246-.283 1.246-.946 0-.447-.282-.843-.98-.843-.446 0-.876.198-1.116.37l-.2-.55c.294-.216.862-.43 1.464-.43 1.102 0 1.602.653 1.602 1.332 0 .577-.344 1.066-1.033 1.316v.018c.69.14 1.246.654 1.246 1.438 0 .895-.695 1.678-2.037 1.678-.63 0-1.18-.2-1.455-.38l.208-.584c.215.138.715.353 1.238.353.97 0 1.272-.62 1.262-1.085zm5.45-1.256c0-1.78-.673-2.83-1.85-2.83-1.136 0-1.946 1.03-1.946 2.906.02 1.852.758 2.875 1.852 2.875 1.238 0 1.943-1.05 1.943-2.95zm-3.038.086c0-1.523.482-2.33 1.145-2.33.783 0 1.135.902 1.135 2.28 0 1.427-.37 2.33-1.143 2.33-.69 0-1.137-.827-1.137-2.28zm6.267.697c0 .963.62 1.557 1.445 1.557.43 0 .713-.11.928-.207l.13.568c-.198.104-.636.24-1.196.24-1.256 0-2.074-.852-2.074-2.125 0-1.28.88-2.21 2.238-2.21.447 0 .844.11 1.05.215l-.173.585c-.182-.104-.465-.197-.877-.197-.953 0-1.47.706-1.47 1.575zm8.596 2.072v-2.356c0-.8-.293-1.28-.904-1.28-.43 0-.765.317-.894.687-.035.103-.063.24-.063.38v2.57h-.738v-2.494c0-.662-.293-1.145-.87-1.145-.472 0-.815.38-.937.758-.043.11-.06.24-.06.37v2.51h-.74v-3.035c0-.43-.01-.78-.036-1.126h.664l.033.67h.026c.232-.395.62-.765 1.307-.765.568 0 .996.343 1.178.833h.02c.128-.232.292-.412.464-.54.25-.19.525-.294.922-.294.55 0 1.367.36 1.367 1.806v2.45h-.74zm25.393-31.243c1.69-.13 2.838-.525 3.508-1.24.484-.55.787-1.252.717-2.144-.114-1.537-1.33-2.264-2.333-2.434l-.002-.03c1.06-.483 1.654-1.41 1.578-2.41-.063-.813-.434-1.404-1.002-1.763-.685-.473-1.562-.64-2.9-.535-.937.07-1.85.234-2.427.4l.78 10.19c.45.03 1.16.037 2.083-.034zm2.81-3.29c.115 1.506-1.12 2.11-2.506 2.217-.475.036-.86.05-1.125.024l-.303-3.95 1.105-.085c1.462-.112 2.722.38 2.83 1.793zm-3.092-6.242c1.354-.104 2.313.303 2.406 1.517.076.998-.697 1.8-2.11 1.908l-1.216.092-.254-3.335c.212-.064.56-.136 1.174-.183zm5.756 7.043c.08 1.075.932 2.078 2.438 1.962 1.06-.08 1.818-.665 2.19-1.28l.046-.004.18.93 1.23-.094c-.132-.5-.21-1.13-.26-1.774l-.214-2.783c-.113-1.49-.785-3-3.06-2.826-.94.072-1.81.4-2.394.848l.375.867c.5-.377 1.204-.647 1.896-.7 1.52-.116 1.775.978 1.822 1.592l.012.153c-2.877.204-4.398 1.31-4.26 3.108zm4.362-2.174l.1 1.292c.01.14-.008.295-.043.436-.17.646-.735 1.31-1.704 1.384-.693.053-1.31-.318-1.375-1.194-.11-1.444 1.543-1.835 3.022-1.917zm6.44 3.497c1.214-.093 2.073-.793 2.425-1.653l.03-.003.16 1.287 1.214-.093c-.083-.504-.157-1.256-.206-1.916l-.688-8.99-1.354.103.34 4.442-.03.002c-.384-.573-1.194-1.052-2.33-.966-1.814.14-3.237 1.777-3.03 4.252.174 2.258 1.672 3.675 3.47 3.537zm-.1-6.748c1.017-.08 1.808.57 2.073 1.417.06.166.092.395.105.564l.098 1.292c.016.215.016.4-.016.588-.168 1.033-.95 1.696-1.86 1.766-1.46.112-2.292-1.076-2.407-2.582-.124-1.645.61-2.937 2.008-3.045zM60.577 84.38c-.938.072-1.852.235-2.428.403l.78 10.19c.45.026 1.16.034 2.083-.036 1.692-.13 2.837-.526 3.51-1.242.483-.547.784-1.25.716-2.143-.117-1.537-1.332-2.263-2.334-2.434l-.002-.03c1.06-.482 1.654-1.41 1.578-2.408-.063-.814-.434-1.404-1.002-1.764-.685-.473-1.562-.638-2.9-.535zm3.246 7.266c.113 1.506-1.123 2.11-2.506 2.216-.475.036-.86.052-1.127.024l-.302-3.95 1.105-.084c1.462-.112 2.722.38 2.83 1.794zm-2.797-2.816l-1.215.092-.254-3.334c.21-.063.56-.137 1.174-.184 1.354-.104 2.313.303 2.404 1.518.08.998-.695 1.8-2.11 1.908zm8.825-2.312c-2.06.156-3.576 1.74-3.387 4.23.182 2.352 1.846 3.71 3.857 3.555 1.8-.138 3.613-1.482 3.404-4.233-.175-2.275-1.738-3.716-3.874-3.552zm.455 6.765c-1.322.102-2.352-1.057-2.477-2.686-.11-1.414.47-2.942 2.068-3.064s2.35 1.428 2.447 2.688c.128 1.676-.747 2.965-2.038 3.063zm9.322-7.344l1.428-.11-1.623 5.457c-.77 2.625-1.332 3.982-2.193 4.852-.618.634-1.26.915-1.595 1.003l-.424-1.11c.33-.135.76-.384 1.132-.753.348-.32.77-.878 1.023-1.594.05-.143.09-.254.082-.33-.006-.077-.045-.182-.12-.347l-3.272-6.646 1.475-.112 1.965 4.27c.207.48.436 1.05.592 1.486l.033-.003c.102-.456.213-1.036.355-1.59l1.142-4.476z"/></svg>
