<svg shape-rendering="geometricPrecision" text-rendering="geometricPrecision" image-rendering="optimizeQuality" xmlns="http://www.w3.org/2000/svg" width="300" height="300" viewBox="0 0 300 300"><path d="M191.14 36.696c-1.835.494-4.036.046-5.286 1.053-2.58 2.085-3.512 11.198-4.574 15.148-1.09 3.914-2.197 7.824-3.29 11.73-.554 4.422-1.098 8.84-1.642 13.27-2.39 7.315-4.77 14.63-7.16 21.96-.08.025-.16.065-.246.105-1.164-.222-2.344-.47-3.518-.705-1.717-1.446-3.44-2.897-5.158-4.332-.09-2.167-.962-4.067-.58-6.585.182-2.972.374-5.944.58-8.916-.508-1.603-1.018-3.205-1.53-4.8-.273-2.98-.54-5.956-.823-8.94-.225-4.262-.467-8.53-.7-12.786-.72-4.545-.392-11.497-5.98-10.458-.865.17-1.727.322-2.588.474-6.167 3.5-4.6 13.265-4.227 21.255.13 3.046-1.606 6.85-.937 10.916.464 2.893.938 5.784 1.41 8.68-.433 1.638-.87 3.28-1.293 4.933l-.47 5.515c-.084 3.174-.155 6.333-.24 9.507-1.407 6.983-3.79 14.434-10.207 16.44-1.14-.05-2.283-.09-3.402-.122-6.116-.08-6.997-1.96-9.51-5.4-1.78-2.423-3.512-4.872-5.29-7.387-.73-1.017-1.482-2.04-2.223-3.058-.94-2.54-.52-5.224-1.52-7.512-1.416-3.225-3.89-6.423-5.996-9.038-2.293-2.846-6.787-8.87-12.56-6.458-1.713.71-2.292 2.242-3.517 3.396 2.11 4.575 4.474 9.552 5.864 14.79.832 3.165.176 7.22 1.174 9.98 2.147 5.885 5.412 11.825 7.164 17.956.39 3.495.782 6.98 1.165 10.457.94 2.268 3.313 3.447 4.71 5.286.815 1.214 1.636 2.423 2.463 3.642 2.887 4.418 4.6 9.612 7.27 14.082 2.62 4.378 6.322 8.58 8.333 13.37 1.32 3.123 1.803 6.54 2.83 9.986 1.558 6.055 3.114 12.126 4.69 18.2l2.082 15.95-15.47 1.87-16.602 7.466c-13.834-9.85-25.845-4.544-36.923 8.298-7.274-8.072-21.896-5.623-25.305 7.053-18.38-.972-26.01 12.017-17.84 20.335L279 259.985c-13.174-20.884-26.51-33.907-40.242-26.556-.143-9.257-7.738-14.542-24.48-14.94-8.176-9.436-18.367-12.413-31.527-5.81l-1.616.198-.096-5.038c-.832-5.37-.453-13.386.354-18.43V181.2c.458-2.423.568-4.996 1.174-7.752.407-1.875 2.297-3.674 3.29-5.16 2.074-3.4 4.15-6.81 6.21-10.222 4.3-7.285 8.51-14.252 12.928-21.246 1.557-2.53 3.12-5.078 4.696-7.622 2.55-3.42 6.646-5.593 9.144-8.928 3.834-5.057 7.613-9.945 10.928-15.486 1.063-1.8 1.335-4.125 2.11-6.222 2.147-4.856 4.298-9.713 6.454-14.575.796-2.044 1.738-5.566.357-7.84-2.81-4.63-8.283.36-9.98 2.57-1.445 2.237-2.896 4.464-4.342 6.686-.624 1.573-1.26 3.14-1.874 4.696-1.612 1.925-3.214 3.83-4.816 5.76-1.062 1.954-2.126 3.91-3.178 5.868-.893.746-1.8 1.492-2.695 2.222-2.707 2.152-5.396 4.403-7.28 7.4h-2.228l.235-.235c1.487-1.793 2.963-3.6 4.455-5.385 2.07-3.375 4.16-6.756 6.227-10.096.735-3.25 1.49-6.505 2.22-9.754 1.69-6.378 3.377-12.75 5.06-19.124 1.622-5.506 6.565-14.968-1.058-17.492-2.3-.766-5.155-.15-6.344 1.174-1.678 4.227-3.355 8.444-5.048 12.67-.122 1.573-.237 3.14-.343 4.696-1.566 2.933-3.144 5.875-4.705 8.802-.73 2.317-1.48 4.62-2.222 6.922-.278 1.375-.55 2.755-.822 4.12-1.173 1.1-2.353 2.193-3.52 3.276-1.07 1.42-2.118 2.827-3.18 4.24-2.323 3.292-2.958 8.27-8.565 6.324v-.11c1.09-4.474 3.084-8.74 4.802-12.675.682-1.22 1.342-2.42 2-3.644.05-3.75.086-7.518.117-11.26.79-5.773 1.575-11.51 2.352-17.266.726-3.652 2.82-14.675 1.173-17.366-.798-1.33-2.717-1.586-3.986-2.468zM199.975 197.604c2.05 0 3.708 1.657 3.708 3.708s-1.657 3.707-3.708 3.707c-2.05 0-3.707-1.657-3.707-3.708s1.657-3.708 3.707-3.708z"/><circle cx="190.308" cy="185.981" r="6"/><path d="M101.997 203.635c2.398 0 4.337 1.94 4.337 4.338 0 2.397-1.94 4.338-4.337 4.338-2.398 0-4.338-1.94-4.338-4.337 0-2.4 1.938-4.338 4.337-4.338z"/><circle cx="108.662" cy="190.314" r="6.666"/><circle cx="96.667" cy="177.649" r="6.665"/></svg>
