<svg xmlns="http://www.w3.org/2000/svg" width="627.087" height="753.163"><defs><clipPath id="a"><path d="M0 0h2090v2510.55H0V0z"/></clipPath></defs><g><g><g><g clip-path="url(#a)" transform="matrix(.3 0 0 -.3 0 753.163)"><path d="M1067.27 1688.54c6.52 18.57 24.95-30.17 26.79-17.84 2.05 13.75 4.34 87.62-2.9 89.07-6.75 1.35-9.35-25.23-18.99-33.63-.7-.6-1.54-1.11-2.15-1.85-16.08-19.56-9.27-54.31-2.75-35.75m48.68 61.82c15.05-1.45 44.01 33.19 52.7 31.08 8.69-2.12-.7 31.67-2.88 41.08-2.17 9.41-46.77-3.36-49.82-20.75-2.89-16.43-15.06-49.96 0-51.41m80.23-716.47c-32.1 26.61-28.86 0-28.86 0 86.79-139.05 133.14-455.753 121.55-529.144 30.9 88.832-25.38 473.328-92.69 529.144m-148.7-350.51c.59 32.015-113.875 147.765-168.488 184.93-14.6 9.936-17.226.94-17.226.94 51.68-81.137 127.847-102.94 185.714-185.87m540.72 58.897c117.8-130.347 11.6-339.882-159.82-339.882 238.51 74.832 155.96 241.398 25.2 336.988C1322.82 834.98 1358.39-28.254 1042.52.71c207.97 44.282 236.69 378.513 162.02 575.9-41.16 108.835-157.91 76.835-131.96 36.28 25.95-40.554 5.79-169.945-58.42-206.632 42.01 195.047-228.363 303.19-203.258 378.508 25.106 75.316-148.703 74.44-108.144 136.148 40.555 61.707 325.402-98.488 387.202-54.074 61.8 44.422-125.468 358.89-89.8 342.79 74.34-33.56 115.79 28.4 115.79 28.4s25.83-7.35 115.71-58.34c2.78-118.06 196.72-255.975 315.98-252.8-1.95-21.386-105.01-23.51 40.56-184.613M186.738 1873.95l28.883-17.86s149.18 280.98 569.212 458.17c-404.672-143.86-598.094-432.58-598.094-432.58v-7.73zm-45.363-4.68S526.367 2474.21 1517 2510.55c-92.95-80.42-794.418-33.38-1274.348-695.94-89.96 36.6-101.277 54.66-101.277 54.66M78.29 1593.63c0 .58-10.763 66.66 8.16 135.24l-61.38-111.01s53.22-24.81 53.22-24.23m59.202 122.63c-16.52-37.17-32.715-149.94-31.058-153.19 1.652-3.25-38.707-11.94-106.434 42.57 6.074 12.16 71.895 136.16 80.93 156.59.793 1.79 19.195-5.21 19.195-5.21l37.367-40.76zm158.754 65l-202.773 92.69-44.418-61.8 191.187-150.63 44.418 90.78 11.586 28.96zm1044.994-501.63c-77.51 37.69-156.69 175.98-184.68 228.6-6.81 12.78-10.6 20.53-10.6 20.53s-5.79 21.72-7.1 0c1.98-6.37 5.09-14.82 9.18-24.75 29.08-70.62 108.35-216.33 193.2-224.38m-368.67 209.5c10.688 26.6-79.984 139.96-96.496 344.26 0 0-5.94-4.13-5.808-11.88.816-47.15 12.812-220.32 76.507-305.46 7.8-10.42 16.375-19.53 25.797-26.92zm-87.32-48.73l24.078 7.02h.02l-.012.01-273.207 134.92v-13.74l249.12-128.21zm-179.598-11.58c-28.968 5.79-36.69 0-36.69 0-5.79 0-107.185-173.81-92.696-234.64 28.968 82.56 56.968 179.59 129.386 234.64m72.664 203.5c14.48-16.66 64.454-95.6 73.864-128.19l27.52-11.58s-47.966 82.1-93.84 134.68c-1.743 2.01-4.66 5.09-7.544 5.09m184.336 402.29l27.926-132.66 12.472 14.49-35.722 128.42-4.676-10.25zm43.968-202.22c25.32-3.19 56.38-11.3 62.09-23.62 9.42-20.27-28.23-42.08-23.88-52.95 2.36-5.9-25.69 10.11-50.846 18.05-3.8-20.82-6.773-43.27-7-65.47 20.066-3.78 47.996 3.73 62.906 14.44-2.34-12-12.46-35.35-27.27-51.91 2.17-14.82 9.11-24.24 6.45-47.35 8.13 2.96 24.16 9.56 27.45 16.71 4.47 9.64 30.54-.03 32.47-4.84 1.94-4.83 8.8-26.07 8.8-26.07l10.78 4.61-5.13 24.19s8.18 2.1 16.17 2.36c-.06.64-.15 1.28-.2 1.91-1.14 12.45 2.48 18.42 9.86 24.41 6.21 19.45 15.23 35.21 29.21 47.52-5 .8-9.88 1.87-12.52 4.84-8.26 9.3 26.31 28.24 36.46 44.9 7.73 12.71-1.13 51.06-10.25 78.56-32.06 19.15-65.82 41.77-57.43 90.2-30.81-26.07-96.48-32.83-104.2-81.11-.86-5.41-2.26-11.98-3.92-19.38m15.02 267.75l74.46-131.08h23.1l-88.14 131.08h-9.42zm90.61-552.52c.13 1.39.27 2.82.4 4.31 1.28 14.4 2.44 27.92 3.71 40.62-8.59.19-16.3-.26-18.57-2.23-5.9-5.07-24.24 23.67-24.24 23.67l-17.03-23.67s-2.22-2.53-5.51-6.11l18.02-33.43c4.8-6.31 9.05-12.07 12.83-17.07l30.39 13.91zm167.93-55.07c36.69-17.39 89.52-124.56 102.22-192.64 4.27-2.85 7.85 0 7.85 0s-22.2 136.63-88.82 196.49c-49.5 22.22-21.25-3.85-21.25-3.85m810.13-709.714L1989.89 678.55l-43.46-173.804-7.23 225.95 66.62 30.417 55.66 21.676-70.14-.126s-230.08 110.176-384.43 197.914c-1.22-5.398-3.13-10.73-5.89-16.023-23.52-45.055-172.7 10.633-227.49 52.145-54.79 41.5-131.31 115.37-122.32 143.2 11.06 34.24 45.53 3.58 71.69-21.48-25.65-41.49 4.55-51.34 22.16-60.63 17.6-9.29 18.6-19.67 20.8-32.08 4.04-22.73 29.84 14.97 42.05 5.59 12.21-9.38 8.63-21.86 18.94-23 22.88-2.51 13.71-16.95 33.03-17.53 19.31-.58 17.62 44.7 77.01 64.33 23.57 7.78-2.81 36.36-14.16 37.79-11.37 1.43 6.98 42.3-17.06 43.06-46.01 1.44 19.54 49.41-56.75 44.03-10.87-.78-2.52 32.83-34.34 18.37-31.83-14.47-35.31-17.17-61.26 1.9-7.17 5.27-12.96 10.54-16.98 15.55-72.11 9.64-198.47 89.96-224.91 107.2 4.71-14.13 5.37-24 3.64-28.61-.02-.05-.05-.11-.07-.16 73.99-39.3 173.47-85.74 244.84-124.4.07-1.65-17.7-6.29-18.6-7.96-4.93-9.05-11.61-15.82-22.71-24.19l-213.68 108.31c-3.1-18.88-5.37-35.6-5.37-35.6s-18.69-16.41-15.8 6.76c2.9 23.17 25.05 65.16 13.61 80.86-18.64 25.56-4.34 28.17-15.06 41.76-17.76 22.53-18.75-5.36-39.59 35.73-11.04 21.8-33.31-10.13-31.38 4.35 1.93 14.48 0 38.63-19.787 48.76-19.797 10.14-70.977 2.41-70.977 2.41l11.11-23.65s30.414 6.27 36.687-4.35c6.277-10.62-5.793-37.65-14-59.87-8.207-22.2-2.52-47.75-43.07-50.17-40.555-2.41-39.97 50.66-79.078 76.25-3.125-.69-4.086-3.83-4.57-6.47-3.845-20.99 14.12-51.09 17.124-64.38 3.378-14.97 1.542-20.7 3.964-53.54 2.406-32.83 22.59-10.31 56.87-41.7 34.27-31.37 13.032 7 80.618 3.63-21.238-42 40.078-109.84 82.558-244.055 42.49-134.22-127.452-75.32-191.187 4.832-63.722 80.143-96.07 261.253-50.69 340.433-12.724 4.85-15.11 31.63-17.075 55.32-12.856-4.67-24.145-7.25-32.168-6.99-37.27 1.19-13.035-31.5-73.652-75.13-60.618-43.64-108.84-198.25-79.875-264.87 1.394 18.12 7.05 184.07 68.726 227.41 2.374 1.67 12.862 4.77 14.733-.43-16.906-77.22-33.55-192.67-16.832-231.82 4.544-10.64 9.65-5.67 14.962-.59-2.894 33.31 18.176 198.54 23.973 230.67 5.793 32.13 37.824 99.2 76.695 24.6-79.425-91.97 16.168-275.43 58.176-321.783 10.438-22.765 6.797-33.074-22.69-23.176-119.25 40.072-149.673 6.763-236.572 6.626-86.906-.132-65.18 127.594-55.043 272.434 6.994 99.82 21.544 208.61 46.982 303.07l-322.168 163.31 17.375 52.14c52.706-21.21 170.565-80.09 322.038-158.85 7.336 21.37 15.355 41.62 24.13 60.37 52.163 111.48 153.526-11.6 191.186 34.75 1.46 2.34 3.23 3.7 5.246 4.26 17.528 84.29-12.492 134.78-12.492 134.78s31.31 54.06 34.762 86.91c2.898 27.52 22.45 103.56 57.94 121.66 35.486 18.11 15.2 67.59 23.17 90.77 7.968 23.17 110.08 20.76 144.12-20.52 34.03-41.28 68.79-135.42 114.41-158.6 45.63-23.17 63.01-186.84 142.19-236.09-45.38-54.07-118.77-19.31-118.77-46.34 0-27.04-77.95-17.32-56.23-73.39 21.72-56.07 245.73-44.66 268.18-119.25 22.45-74.59-31.87-126 0-165.11 31.87-39.11 74.37-81.69 73.4-104.57v-.01c21.54-18.01 39.46-37.98 48.89-58.5 13.02-28.33 26.35-52.8 36.52-74.76 283.36-154.417 499.24-273.444 499.24-273.444m-644.32 281.774c7.34.59 53.68 27.29 56.27 42.01-5.74.71-55.27-36.33-59.88-40.3l3.61-1.71zm-98.86 72.72c12 .98 74.92 36.31 76.42 48.09-9.38 1.17-74.79-38.81-82.31-45.29l5.89-2.8zm39.11-36.53c11.99.99 74.91 39.11 76.42 50.89-9.39 1.17-74.8-41.6-82.31-48.09l5.89-2.8zm-331.29 245.46c-7.47-5.8-25.67-80.26-26.43-90.16l14-2.54c7.82 9.15 19.68 83.29 12.43 92.7m-62.032-66.63l-6.766 6.52c.762 9.9 18.968 84.37 26.438 90.16 7.24-9.42-11.86-87.52-19.672-96.68" fill="#100f0d"/></g></g></g></g></svg>
