<svg xmlns="http://www.w3.org/2000/svg" xmlns:xlink="http://www.w3.org/1999/xlink" version="1" width="559.393" height="593.886"><defs><linearGradient id="b"><stop offset="0" stop-color="#fff"/><stop offset="1" stop-color="#959595"/></linearGradient><linearGradient id="a"><stop offset="0"/><stop offset="1" stop-color="#3e3e3e"/></linearGradient><linearGradient x1="113.115" y1="753.277" x2="113.115" y2="178.308" id="e" xlink:href="#a" gradientUnits="userSpaceOnUse"/><linearGradient x1="501.19" y1="313.885" x2="643.416" y2="431.432" id="d" xlink:href="#b" gradientUnits="userSpaceOnUse"/><filter id="c"><feGaussianBlur stdDeviation="3.948"/></filter></defs><g><path d="M272.006 182.834s8.97-4.186 19.733-4.186 37.372 3.29 49.93 44.848c12.557 41.56 13.155 113.317 13.155 113.317s59.2.598 130.957-3.29c0 0 24.816 14.95 26.61 83.717 1.225 46.972-3.29 53.22-19.434 65.18 0 0-66.675-65.778-136.04-56.808 0 0 7.475 139.627 79.232 303.472 0 0-75.93 34.45-138.933 34.45-63.002 0-126.215-26.638-138.9-34.038 0 0 34.038-15.01 48.414-77.167 14.377-62.157 17.76-101.058 17.76-101.058s-35.518-5.496-62.58-22.41c-27.06-16.913-49.47-38.9-49.47-38.9s67.23-68.5 76.955-79.07c9.725-10.57 31.5-31.924 53.065-67.02 0 0-18.393-22.62-18.393-47.567s20.296-61.734 23.68-68.5c3.38-6.764 18.603-40.59 24.26-44.97z" opacity=".791" fill-rule="evenodd" stroke="#000" filter="url(#c)" transform="translate(-103.94 -170.148)"/><path d="M493.656 280.27s10.994-.21 21.988 3.383c10.993 3.595 45.03 14.588 57.928 23.68 12.896 9.09 19.027 22.62 19.027 22.62l23.678 40.17 22.62 48.837 13.955 41.437.21 5.497s-10.57-19.662-13.53-24.313c-2.96-4.65-36.152-62.366-49.47-75.686-13.32-13.32-17.97-21.353-17.97-21.353s-33.194-18.815-42.073-18.815c-8.88 0-39.323-.21-39.323-.21l2.96-45.244z" color="#000" fill="url(#d)" fill-rule="evenodd" stroke="#4549ff" overflow="visible" enable-background="accumulate" transform="translate(-103.94 -170.148)"/><path d="M387.59 107.133l-.124 2-2.312 46.97-.125 2.56 2.468-.686s38.885-10.84 76.156 16.875c18.68 13.89 40.343 45.902 57.062 74.344 16.72 28.44 28.625 53.344 28.625 53.344l10.052 21.41-6.582-22.723c-18.436-65.504-45.487-118.54-66.406-148.313-12.848-18.285-37.07-29.485-58.032-36.312-20.962-6.827-38.812-9.22-38.812-9.22l-1.97-.25zm3.5 4.282c2.715.39 17.327 2.565 36.126 8.687 20.615 6.714 44.17 17.877 56.156 34.938 18.414 26.206 46.748 79.617 63.366 136.132-4.992-9.545-15.113-30.717-22.834-43.85-16.807-28.593-38.286-60.756-58.032-75.44-35.213-26.183-70.637-19.387-76.906-17.936l2.125-42.53z" color="#000" fill-rule="evenodd" stroke-width="3.7" overflow="visible" enable-background="accumulate"/><path d="M160.066 4.686S169.036.5 179.8.5s37.372 3.29 49.93 44.848c12.557 41.56 13.155 113.317 13.155 113.317s59.2.598 130.957-3.29c0 0 24.816 14.95 26.61 83.717 1.225 46.972-3.29 53.22-19.434 65.18 0 0-66.675-65.778-136.04-56.808 0 0 7.475 139.627 79.232 303.472 0 0-75.93 34.45-138.933 34.45-63.002 0-126.215-26.638-138.9-34.038 0 0 34.038-15.01 48.414-77.167 14.377-62.155 17.76-101.056 17.76-101.056s-35.518-5.496-62.58-22.41C22.91 333.8.5 311.814.5 311.814s67.23-68.5 76.955-79.07c9.725-10.57 31.5-31.924 53.065-67.02 0 0-18.393-22.62-18.393-47.567s20.296-61.734 23.68-68.5c3.38-6.764 18.603-40.59 24.26-44.97z" fill-rule="evenodd" stroke="#000"/><path d="M265.96 184.605l1.798 6.025s-5.397 7.824-8.386 15c-2.99 7.175-10.764 24.816-13.156 30.048-2.392 5.232-6.727 18.537-8.97 23.92-2.242 5.38-4.036 15.845-4.036 20.33 0 4.485.897 12.707 5.232 20.032 4.336 7.326 17.49 22.873 23.92 27.208 6.428 4.336 4.368 3.36 6.876 4.336 2.69 1.046 6.578 2.54 6.578 2.54s.15-2.99 1.644-4.334c0 0 1.944-2.093 2.69-3.44.75-1.344 7.326-12.407 8.672-14.05 1.345-1.646 2.84-4.337 3.14-6.28.298-1.943 1.943-5.083 2.69-6.13.748-1.046 2.84-6.577 2.99-9.268.15-2.69 1.046-13.604-1.644-26.46-2.69-12.857-20.48-74.448-21.08-76.242-.597-1.794-2.092-5.382.45-6.877 2.54-1.495 8.67-3.588 17.49-.747 8.82 2.84 27.657 14.052 35.88 45.446 8.22 31.394 12.108 54.416 13.902 108.83 0 0 32.59 4.187 60.096 4.187 27.507 0 77.14-7.774 77.14-7.774s-14.95 16.145-14.95 42.755c0 26.61 17.94 93.883 17.94 93.883s-42.458-57.406-110.328-57.406c0 0-20.032-.598-28.104 3.588 0 0-3.29 62.488 10.464 113.914 13.753 51.425 69.066 193.444 69.066 193.444s-80.427 31.693-127.07 31.693c-46.642 0-83.118-6.28-140.823-30.497 0 0 29.9-21.527 44.85-63.983 14.95-42.456 21.067-56.25 25.718-131.092 4.65-74.842 5.074-103.594 5.074-103.594l-14.376 83.3s-24.49-22.026-51.996-27.11c-27.507-5.082-51.725-1.195-51.725-1.195s58.602-48.137 77.737-71.16c19.135-23.02 49.333-70.26 49.333-70.26S226.93 300.11 226.93 278.88c0-21.228 27.21-75.943 39.03-94.277z" color="#000" fill="url(#e)" fill-rule="evenodd" stroke="#000" overflow="visible" enable-background="accumulate" transform="translate(-103.94 -170.148)"/><path d="M177.407 62.092s-3.327 2.84-6.688 4.738c-2.723 1.538-5.524 1.898-4.824 4.082.823 2.566 2.824 1.884 4.335.747 3.344-2.514 7.177-9.568 7.177-9.568z" color="#000" fill="#c60000" fill-rule="evenodd" stroke="#c60000" overflow="visible" enable-background="accumulate"/><path d="M146.597 61.972s3.384 2.77 6.783 4.6c2.753 1.483 5.56 1.787 4.905 3.984-.77 2.583-2.785 1.94-4.32.836-3.393-2.445-7.368-9.42-7.368-9.42z" color="#000" fill="#c60000" fill-rule="evenodd" stroke="#c60000" overflow="visible" enable-background="accumulate"/><path d="M373.016 103.02s2.522 24.235 5.175 54.52c.496 5.644 2.26 10.95 2.718 16.727 1.62 20.475 1.215 41.362 1.605 55.258 1.278 45.74-1.305 86.417-8.032 113.476-5.304 21.34-9.267 55.293-9.267 65.458 0 10.166-1.238 27.368-5.424 47.4S336.97 558.43 336.97 558.43s1.335 5.178 6.973 7.157c5.686 1.995 16.187-4.923 16.743-7.176.58-2.34 9.568-63.086 10.166-74.447.598-11.362 8.97-70.56 9.568-77.14.598-6.577 9.866-87.004 9.866-113.016s3.29-66.076 2.093-121.987c0 0 0-5.98-2.692-9.717-2.69-3.737-2.242-9.568-2.242-13.604 0-4.037 1.943-45 2.84-47.988.897-2.99-17.12 3.107-17.27 2.51z" color="#000" fill="#ff9c00" fill-rule="evenodd" stroke="#000" stroke-width="3.7" overflow="visible" enable-background="accumulate"/><path d="M338.627 557.6l5.913-9.588 1.6 11.987s4.793-5.755 9.588-26.693c0 0-3.995 23.495-4.635 25.253-.64 1.758 8.31-2.717 12.627-24.773 4.315-22.057-2.717 24.454-2.717 24.454l-11.028 6.074-7.033.8-6.233-6.394 1.917-1.12z" color="#000" fill-rule="evenodd" stroke="#000" stroke-width=".3" overflow="visible" enable-background="accumulate"/><path d="M432.497 258.41a6.953 3.436 0 1 1-13.905 0 6.953 3.436 0 1 1 13.905 0z" transform="matrix(1.276 0 0 .955 -161.801 -146.922)" fill="#503100" stroke="#000" stroke-width="3"/><path d="M374.428 103.687s3.197 2.078 3.357 5.114c.16 3.038 3.196 6.075 3.037 8.313-.16 2.237.48 8.15.48 8.15s-.16-18.22 1.437-19.34c1.598-1.117 1.598 2.878 1.917 4.956.32 2.077.32 3.835.32 3.835s3.197-4.155 3.836-6.713c.64-2.557.8-6.233.8-6.233l-14.545.16-.64 1.757z" color="#000" fill-rule="evenodd" stroke="#000" stroke-width=".3" overflow="visible" enable-background="accumulate"/><path d="M387.933 151.47c.78.075 6.59.758 7.833.136 1.828-.914 2.696-2.096 3.99-2.743 1.29-.645 3.522-.467 4.488.5 1.35 1.348 1.26 1.495 3.242 1.495.508 0 3.235-2.116 3.99-2.494.887-.444 3.447 0 4.488 0 1.722 0 2.54 1.045 3.74 2.245 1.32 1.32 3.186 1.87 4.738 2.492 1.375.55 4.083.526 5.486 0 1.994-.748 3.6-.61 5.236 0 2.01.748 2.34.594 3.74 1.995.92.92 2.246 1.747 2.993 2.494.79.792 2.342 1.497 3.865 1.497 1.35 0 2.905.705 3.99 1.246 1.574.788 2.867.873 4.363 1.62 1.565.784 2.307 2.37 2.992 3.742.518 1.035 3.143 1.546 4.24 2.368.63.474 3.162.355 3.74.5 1.152.287 2.288.645 3.49 1.246 1.518.758 2.087 2.98 2.993 4.487.993 1.656 2.022 3.387 3.49 4.49 1.153.863 1.007 2.152 2.37 2.492 1.35.337 2.466.928 3.74 1.246 1.126.282 2.732 1.987 3.74 2.743 1.272.953 2.14 4.072 2.494 5.485.48 1.916 1.292 3.73 1.995 5.486.64 1.602 3.22 2.35 4.362 3.49 1.093 1.094 1.578 1.975 2.868 2.62 1.062.53 2.2 2.02 2.743 2.743.708.945.725 2.902.997 3.99.406 1.62 1.685 3.16 2.494 4.238 1.076 1.437 1.855 2.604 2.992 3.742.56.56 2.332 1.166 2.992 1.496.93.465 1.315 2.88 1.746 3.74.433.866.816 2.766.997 3.49.376 1.5 1.928 2.234 2.37 3.118.552 1.104 1.47 1.97 2.244 2.743.91.907 1.64 2.284 2.244 3.49.73 1.456.937 2.188 1.247 3.74.234 1.17.927 2.104 1.496 3.242.556 1.11 1.53 2.048 2.245 3.24.757 1.262 1.152 1.87 1.995 2.994.8 1.067 1.163 2.326 1.746 3.49.574 1.15.796 2.59 1.246 3.49.075.15-.124 1.83-.124 1.996l-.125-.124s-15.71-27.68-38.4-58.723c-22.692-31.045-48.75-38.152-64.583-42.64-15.834-4.488-33.04-.997-33.04-.997l-4.217-3.377z" fill-rule="evenodd" stroke="#000" stroke-width=".2"/><path d="M374.812 116.465c-.088-1.316-.755-2.66-1.586-3.7-.696-.87-1.43-1.325-2.22-2.114-.755-.754-1.057-2-1.057-3.064v-.423c0-2.677 2.607 2.362 2.96 3.066.272.545.596 1.006.95 1.478" fill-rule="evenodd" stroke="#000"/></g></svg>
