<svg xmlns="http://www.w3.org/2000/svg" width="24.016" height="23.95" viewBox="0 0 24.016 23.95"><path d="M22.017 5.07c.986 1.64 1.56 3.655 1.56 6.02 0 7.09-5.07 12.86-11.303 12.86C6.04 23.95.97 18.18.97 11.09c0-2.135.47-3.98 1.28-5.53L0 1.053 7.217 4.63l-.026.167c-.456 2.93-3.395 3.422-3.425 3.426l-.17.026-.245-.493c-.33 1.01-.513 2.12-.513 3.333 0 6.064 4.23 10.996 9.435 10.996 5.204 0 9.438-4.932 9.438-10.996 0-1.46-.257-2.782-.73-3.946l1.037-2.075zm-9.744-3.206c2.502 0 4.616.69 6.205 1.932l-1.68.833.024.167c.457 2.93 3.4 3.422 3.428 3.426l.168.026 3.598-7.196-3.737 1.85C18.23 1.008 15.4 0 12.272 0 9.06 0 6.16 1.073 4.103 3.074l1.78.883c1.61-1.34 3.787-2.093 6.39-2.093zm-5.19 12.24c0 .815.66 1.477 1.474 1.477.815 0 1.475-.66 1.475-1.475 0-.253-.07-.484-.18-.692l-2.066-.56c-.42.26-.703.722-.703 1.252zm8.747 4.98H8.717v.695h7.113v-.697zm-4.935-5.388L6 11.044v1.325l1.786.484 2.066.558 1.043.284zm7.687-2.652l-4.894 2.652 1.172-.32c-.124.22-.198.463-.198.73 0 .813.658 1.475 1.475 1.475.812 0 1.473-.66 1.473-1.475 0-.545-.3-1.017-.74-1.272l1.712-.464v-1.326z"/></svg>
