<svg xmlns="http://www.w3.org/2000/svg" viewBox="0 0 200 200" enable-background="new 0 0 200 200"><path d="M89.3 88c-30.9-5.7-58.5-17.4-76.6-44.5-.5-.7-1.4-.4-1.6.2-.2 0-.4.1-.6.4C3.1 55.8-1.7 75.3 9 86.8c5.3 5.7 11.1 7.8 18.8 8.5 19.4 1.7 39.6-1.2 59.1-1.4 1.4 0 2.1-1.1 2.1-2.1 2 .2 2.5-3.4.3-3.8zm-61.6 3C3 90.5 5.1 61.6 11.9 45.6c12.7 24.7 38 38.9 64.7 44.4-16.3.4-32.6 1.3-48.9 1zM181.7 38.3c-1.8-1.3-3.9 1.5-2.5 3-2.2 35.3-38.9 43-67.3 49.8h-.1c-1.7.2-1.8 2.8 0 2.8 16.6-.4 33.1 1.7 49.7 1.6 9.3-.1 21.9-.6 28-8.8 10.8-14.5 6.3-37.9-7.8-48.4zm-3.6 50.8c-15.1 5.7-33.4 2.6-50.5 1.8 26-4.4 51.8-17.6 55.5-45.3 10.1 12.9 13.1 36.7-5 43.5zM176.9 128.3c-7.6-2.2-17.3-.7-25.3-1-13.1-.5-26.3-.7-39.4-.3-29.2.9-58.4 3.2-87.7 3.8-1.2 0-1.4 1.4-.7 2-.1 5.4 1.2 11.1 2.8 16.2 1.1 3.5 3.2 9.9 7.8 9.9s6.4-5.5 7.9-9.1c1.3-3.1 2.5-6.4 3.6-9.6.3-.9.7-1.8 1-2.8.9 8 2.7 20.8 10.9 20.7 4.4 0 7.1-5.7 8.8-9 2-3.9 3.7-8.1 5-12.3.9 7.9 3.7 16 8.4 22.3.6.8 1.6 1.2 2.5.6 7.2-4.9 9.7-13.8 12.2-22 1.1 3.6 2.2 7.3 3.7 10.8 1.8 4.3 4.5 10.1 9.6 11.1s7.3-4.4 8.7-8.2c1.4-3.6 2.3-7.4 3.1-11.2 2.3 7.8 6.7 17.9 8 19.6.7.9 1.7 1.3 2.7.7 4.7-2.7 7.3-7.2 9.6-12 1.8-3.8 3.7-7.8 5.3-11.8 1.8 4.8 3.6 9.5 6 14.1 1.8 3.3 5 9.8 9.4 10.2 3.7.4 7.7-6.5 9.3-9.1 3.4-5.4 4.8-12.1 6.5-18.3.6-.1 1.1-.5 1.3-1.2l.4-1.6c.2-1.1-.4-2.2-1.4-2.5zM41.1 142.1c-1.5 4.2-2.8 9.3-5.8 12.7-2.5 2.9-6.8-8.5-7.1-9.5-1.3-4-1.9-8.2-2.9-12.2 2.9.1 9.9.1 19.2-.1-1.8 2.6-2.5 6.3-3.4 9.1zm24.6.2c-1.3 3.4-3.7 10.8-7.6 12.2-6.3 2.3-8.8-17.8-9.7-21.5 6.1-.1 13-.2 20.4-.3-.9 3.2-1.9 6.4-3.1 9.6zm26.5-9.6c-2.4 7.6-4.1 17.3-10.3 22.8-4.8-6.7-7.2-14.5-8.5-22.6 0-.2-.1-.2-.2-.4 6.2-.1 12.7-.2 19.3-.3-.2.2-.3.3-.3.5zm15.3 22.7c-4.2-2.1-6.4-9-8-13-1.3-3.1-2.3-6.3-3.5-9.5 0-.3-.1-.5-.2-.7 7.3-.1 14.7-.2 21.8-.3-1.2 5-4.5 26.3-10.1 23.5zm22.5.6c-3.2-4.6-5.1-10.6-6.9-15.7-.2-.7-.9-4.2-1.8-6.7l.3-1.2c.1-.2 0-.4 0-.6 7.7-.1 15-.2 21.6-.3-5.9 7.2-5.6 18.5-13.2 24.5zm38.7-12c-.4 1-6.7 13.8-8.4 12.2-6.6-6.3-9.5-15.7-13.4-23.9.1-.3.1-.6 0-.9 12.5-.1 22-.1 25.7.1-1.2 4.3-2.4 8.5-3.9 12.5z"/></svg>
