<svg xmlns="http://www.w3.org/2000/svg" width="112.467" height="110.167" viewBox="0 0 112.467 110.167"><path d="M56 7.5c7.73 0 14 6.268 14 14s-6.27 14-14 14-14-6.268-14-14 6.27-14 14-14zM31.733 30.834H35c1.4 0 2.333-.933 2.333-2.333V16.835h-1.1C38.6 7.728 46.553 1 56 1s17.4 6.727 19.767 15.833h-1.1V28.5c0 1.4.934 2.333 2.333 2.333h3.267c1.866 0 3.733-1.867 3.733-3.733v-6.533c0-1.867-1.867-3.733-3.733-3.733h-3.443C74.434 7.166 66.004 0 56 0 45.998 0 37.567 7.165 35.18 16.833h-3.446C29.867 16.833 28 18.7 28 20.566V27.1c0 1.867 1.867 3.734 3.733 3.734zm-4.2 51.333C29.4 78.9 33.6 70.967 37.8 63.967V87.3l5.6 3.734c0 .467 0 .467.468.467h24.266c.468 0 .468 0 .935-.466l5.6-3.734V63.968c3.733 7 8.4 14.934 10.267 18.2H99.4L80.268 47.633c-3.733-5.6-8.4-7.467-24.267-7.467s-20.533 1.867-23.8 7.467L13.067 82.167h14.465zm80.734 5.133H86.334c-1.4 0-2.8 0-3.733.934l-10.73 7c-1.4.47-2.335.936-3.735.936H43.868c-1.4 0-2.333-.467-3.268-1.4l-10.732-7c-.934-.467-2.333-.934-3.733-.934H4.2c-2.333 0-4.2 1.867-4.2 4.2v19.132h112.467V91.5c0-2.333-1.866-4.2-4.2-4.2z"/></svg>
