<svg version="1" xmlns="http://www.w3.org/2000/svg" width="26" height="26" viewBox="0 0 26 26"><path d="M12 15.9c-.6-.3-3-1.3-4.2-2 0 0 0 2.1 1 2.7 1.2.7 3.1 0 3.2-.7zM17.2 16.6c1-.6 1-2.7 1-2.7-1.2.7-3.6 1.7-4.2 2 .1.7 2 1.4 3.2.7zM13 19.6c-1.6 0-2.3-1.2-3 .2-.4.8 1 2.7 3 2.7s3.4-2 3-2.7c-.8-1.5-1.4-.2-3-.2zm1.5.9s-.4-.1-.5-.3c-.1.2-.4.5-.5.5-.1 0-.5-.4-.6-.5-.1.2-.4.5-.5.5-.1 0-.4-.4-.4-.6-.2.2-.5.4-.6.4s-.5-.8-.5-.9c.5.1 1 .5 2 .5s1.7-.3 2-.5c0 .5-.4.9-.4.9zM13 8.8c4 0 6.3-1 7.2-1.5-.2-.5-.2-.9-.3-1.6C19 2 17.9.1 16 .1c-1 0-2.2 1.6-3 1.6-.7 0-2-1.6-3-1.6-1.9 0-3 2-3.9 5.6 0 .3 0 1.4-.1 1.7 1 .5 3.2 1.4 7 1.4zM24.9 10.2c0-.5-2.8.1-4.2-1.7-1.1.6-3.5 1.6-7.7 1.6-4.1 0-6.5-1-7.6-1.6C4 9.8 1.1 9.7 1.1 10.2c0 .285 1.09 1.13 2.983 1.943l.008.067c-.548.613-.89 1.526-.89 2.59 0 1.613 1.236 2.98 2.356 3.437C6.183 22.694 11.35 25.8 13 25.8c1.657 0 6.713-3.017 7.43-7.536 1.25-.46 2.37-1.997 2.37-3.464 0-1.02-.35-1.928-.894-2.552.01-.037.018-.074.026-.11 1.883-.81 2.968-1.654 2.968-1.938zm-5.2 6.6c-.42 0-.77.325-.798.745-.265 3.9-4.996 6.655-5.902 6.655-.93 0-5.724-2.75-5.9-6.637-.02-.415-.384-.747-.8-.763-.367-.016-1.5-.935-1.5-2 0-.874.342-1.507.728-1.718C6.2 13.352 6.6 14 6.6 14l.134-.938c1.77.486 3.884.838 6.266.838 2.386 0 4.504-.353 6.275-.84l.125.84s.33-.572.892-.88c.438.092.908.832.908 1.78 0 1.033-1.03 2-1.5 2z"/></svg>