<svg xmlns="http://www.w3.org/2000/svg" width="512" height="512" viewBox="0 0 512 512"><path d="M373.88 412.057c15.286 22.55 1.626 42.234-11.987 47.447-19.107 7.316-38.573-2.203-55.872-18.78 1.693-2.48 2.432-4.964 2.997-6.88 1.375-4.662 3.088-5.288 7.327-4.555 11.57 2.01 19.838-3.203 23.134-14.378 1.442-4.886 3.352-5.244 7.327-4.555 9.958 1.73 16.967-2.346 20.55-8.135 2.083 3.21 4.25 6.48 6.524 9.835zm16.767-166.49c-44.487 16.727-97.1 34.296-32.49 141.954-.784 1.644-1.248 3.204-1.632 4.502-1.438 4.873-3.344 5.25-7.327 4.557-11.785-2.04-19.9 3.42-23.133 14.376-1.38 4.672-3.1 5.29-7.33 4.557-11.278-1.957-19.782 3.03-23.078 14.192-17.202-20.118-31.413-45.864-39.657-65.76-8.244 19.896-22.455 45.642-39.657 65.76-3.296-11.16-11.8-16.15-23.078-14.192-4.23.732-5.95.115-7.33-4.557-3.23-10.955-11.348-16.415-23.133-14.377-3.983.69-5.89.315-7.327-4.558-.384-1.298-.848-2.858-1.632-4.5 64.61-107.66 11.997-125.23-32.49-141.954 6.255-4.317 10.04-12.642 6.225-23.116-1.41-3.875-1.286-5.776 3.19-8.016 10.324-5.167 14.122-14.18 10.07-25.305-.018-.05-.03-.09-.05-.14 6.517.668 13.315 1.154 20.307 1.154 31.87 0 43.102-11.573 43.102-11.573-14.127-13.595-22.93-32.682-22.93-53.837C181.266 83.46 214.726 50 256 50s74.734 33.46 74.734 74.734c0 21.155-8.804 40.242-22.93 53.838 0 0 11.23 11.573 43.1 11.573 6.992 0 13.79-.486 20.308-1.154-.02.05-.032.09-.05.142-4.052 11.125-.254 20.138 10.07 25.305 4.477 2.24 4.602 4.14 3.19 8.016-3.814 10.474-.03 18.798 6.225 23.115zm-170.704-136.08c0 6.896 5.59 12.486 12.488 12.486 6.896 0 12.484-5.59 12.484-12.485 0-6.896-5.59-12.485-12.483-12.485-6.897 0-12.487 5.59-12.487 12.485zM268.5 279.21c0-6.896-5.59-12.486-12.486-12.486h-.028c-6.896 0-12.485 5.59-12.485 12.486 0 6.896 5.59 12.485 12.486 12.485h.024c6.9 0 12.49-5.59 12.49-12.485zm0-48.944c0-6.896-5.59-12.485-12.486-12.485l-.014.002h-.014c-6.896 0-12.485 5.588-12.485 12.484s5.59 12.486 12.486 12.486h.024c6.9 0 12.49-5.59 12.49-12.486zm20.1-90.423c-2.773-2.688-7.2-2.618-9.89.154-6.025 6.217-13.24 9.112-22.71 9.112s-16.685-2.897-22.71-9.113c-2.69-2.772-7.116-2.842-9.89-.154-2.77 2.688-2.84 7.115-.153 9.888 8.596 8.867 19.615 13.363 32.753 13.363s24.157-4.496 32.753-13.362c2.686-2.772 2.618-7.2-.154-9.887zm3.457-30.355c0-6.896-5.59-12.485-12.488-12.485-6.896 0-12.484 5.59-12.484 12.485s5.59 12.485 12.483 12.485c6.897 0 12.487-5.59 12.487-12.485zm110.78 75.85c-5.188.377-10.858 1.108-16.895 1.89-.2 2.716-1.006 4.945-1.642 6.69-1.468 4.032-1.165 5.834 3.19 8.014 10.3 5.155 14.13 14.16 10.072 25.305-1.46 4.007-1.184 5.828 3.19 8.018 1.71.856 3.905 1.96 5.973 3.898 4.886-2.163 9.428-4.474 13.4-7.094 22.66-14.945 12.177-48.87-17.288-46.723zM124.51 201.93c4.354-2.18 4.657-3.98 3.19-8.015-.637-1.744-1.44-3.974-1.643-6.69-6.036-.78-11.706-1.512-16.895-1.89-29.465-2.147-39.95 31.778-17.29 46.722 3.973 2.62 8.515 4.93 13.4 7.093 2.067-1.94 4.262-3.042 5.972-3.898 4.375-2.19 4.65-4.01 3.19-8.018-4.056-11.146-.224-20.15 10.075-25.305zm71.146 227.357c-11.57 2.01-19.838-3.203-23.134-14.378-1.442-4.886-3.352-5.244-7.327-4.555-9.958 1.73-16.967-2.346-20.55-8.135-2.083 3.208-4.25 6.48-6.524 9.834-15.286 22.55-1.626 42.234 11.987 47.447 19.107 7.316 38.573-2.203 55.872-18.78-1.693-2.48-2.432-4.964-2.997-6.88-1.375-4.66-3.087-5.287-7.327-4.554z"/></svg>
