<svg version="1" xmlns="http://www.w3.org/2000/svg" width="26" height="26" viewBox="0 0 26 26"><path d="M25.6 4c.6-.6.4-2.8-.5-2.8-3.085-.096-4.96 2.04-6.795 4.254-1.093-.246-2.03-.254-2.105-.254-.177 0-.344.033-.515.05C14.842 4.2 13 3.6 13 3.6s-1.842.598-2.685 1.65c-.172-.017-.338-.05-.515-.05-.48 0-1.255.088-2.076.288C5.88 3.26 4 1.103.9 1.2 0 1.2-.2 3.4.4 4c.1.1-1.1 3.9.8 5-.8 1.5.4 3.8 1.5 3.9-.93 1.086-.294 2.83.97 3.558 1.353 4.51 5.422 8.39 9.136 9.318.064.016.13.024.194.024.065 0 .13-.008.194-.023 3.74-.935 7.825-4.736 9.155-9.33 1.25-.735 1.876-2.466.95-3.547 1.1-.1 2.3-2.4 1.5-3.9 1.9-1.1.7-4.9.8-5zM13 24.172C9.164 23.09 4.8 18.232 4.8 13.4c0-.747.882-1.415 1.525-1.903.187-.142.357-.27.496-.39.176-.15.278-.37.28-.6.002-.232-.096-.452-.27-.606-.563-.5-.76-1.346-.685-2.01.85-.725 2.75-1.09 3.655-1.09 1.407 0 2.716.937 2.727.945.28.205.664.206.945 0 .012-.008 1.32-.945 2.728-.945 1.086 0 2.868.334 3.652 1.072.082.666-.114 1.523-.684 2.03-.173.153-.27.374-.27.605s.105.45.28.6c.138.12.31.248.495.39.644.488 1.525 1.156 1.525 1.903.002 5.307-4.71 9.78-8.198 10.772zM16.1 11.4c-1.6.9-2.5 1.9-2.5 1.9s1.8 2.4 3.4 1.4c2.3-1.5 1.8-4.1 1.8-4.1s-1.1 0-2.7.8zm.2 3c-.1-.3-.4-2-.4-2.5 0-.1.6-.5.7-.5.5 1.3-.3 3-.3 3zM9 14.7c1.6 1 3.4-1.4 3.4-1.4s-.9-1-2.5-1.9c-1.6-.8-2.7-.8-2.7-.8s-.5 2.6 1.8 4.1zm.3-3.3c.1.1.7.5.7.6 0 .5-.3 2.2-.4 2.5.1-.1-.7-1.8-.3-3.1zM7.6 17s3.4 6 5.4 6 5.4-6 5.4-6-1.5 1-5.4 1-5.4-1-5.4-1zm8.5 1.7l-.7 1.5-.7-1-.7 1.4-1-1.4-1 1.4-.7-1.4-.5 1-1-1.5s1.2.5 3.2.5 3.1-.5 3.1-.5zM14.5 16.5c.5-.1.6-.7.3-.9-.2-.2-.5-.1-.8.1l-.4.6c-.1.3-.1.9 0 .9.2 0 .2-.3.9-.7zM12 15.7c-.3-.2-.6-.3-.8-.1-.3.2-.2.8.3.9.7.4.7.7.9.7.1 0 .1-.6 0-.9l-.4-.6z"/></svg>
