<svg xmlns="http://www.w3.org/2000/svg" viewBox="0 0 200 200" enable-background="new 0 0 200 200"><path d="M190.4 29.1c-15.5-27.7-62.2-14.7-87.6-15.4-22.6-.6-107.3-17-95.1 29.6-.9 37.3-9.8 78-2.2 114.5 5.1 24.8 30.3 30.7 51.9 32.8 21.4 2.1 43.2.4 64.6-1.3 15-1.2 37.2.6 51-7.1 28.3-15.7 20.6-53.2 20.1-80.2-.5-22.8 9.3-51.4-2.7-72.9zm-87.7-8.7C128.6 23 177.6 6.2 187.1 40c1.1 4.1 1.8 8.3 2.1 12.6-.6.1-1.2.5-1.6 1.2-5.3 9.4-5.8-1.4-8.6-6.5-.8-1.5-3.6-1.8-4.3 0-2.8 6.5-2.5 4.9-2.7 12-.7 17.9-9.8-7.4-11.2-14.1-.5-2.3-3.3-2.1-4.5-.6-2.8 4.6-6.7 8.2-11.5 10.8-.9-3.9-2.8-7.2-4.5-10.7-.9-1.7-3.2-1.4-4.1 0-2.9 4.1-3.9 4.9-3.9 10.2 0 15.6-11.4-1.8-13.8-7.8-.8-2-4.1-2.6-4.6 0-5.4 24.9-9.2 1.5-11.1-3.7-.7-1.8-3.1-2.4-4.2-.5-2.6 4.4-5.3 8.2-5.8 13.5-1.5 16.2-11.4.8-14.4-6-.7-1.6-3.5-1.2-3.8.5-4.8 8.4-7.8 8.1-8.9-.9-.7-1.7-3.7-2.3-4 0-1.3 8.7-1.3 5.3-.1 14.1 0 .2.1.4.1.6-10.6.2-16.9-6.5-19-20.2-.5-2.2-3.4-1.8-4 0-1.7 4.6-11.2 32-9.6 15.2.6-6.3-1.5-12-4-17.6-.9-1.9-3.5-1.1-4.1.5-1.7 4.9-4.3 11-4.8 16.3-.8 8.2-3-4.4-4.1-14.1.4-.4.7-.9.6-1.6-4.8-39 67.1-25.2 90-22.8zm49.4 159.9c-31.3 3.6-63.2 6.1-94.7 4.2-31.6-2-47.1-16.8-47.8-48.3-.6-25.3 2.2-50.2 2-75.3 1.1 2.4 2.5 4.8 4.1 7.3 1.2 1.9 3.8 1 4.1-1.1 3.7-35.7 4.8-4.1 3.1 3.1-.5 2.3 2 3.4 3.6 2.1 4.7-3.7 15.8-16.4 13.7-20.1 6 10.9 14 16.7 25.6 20.6 1.4.5 3.2-1.1 2.6-2.6-7.3-17.9-5-14.8-1.2-5.3.6 1.5 2.2 2 3.4.9 6.4-5.4 4.7-11.8 8.1-4.6 3.3 7 8.3 10.4 15.7 11.7 1.3.2 2.9-.6 2.8-2.1-1.6-6.8-.4-13.3 3.6-19.4 1.4 4.7 2.4 9.6 3 14.5.3 1.8 2.8 2.2 3.9 1 6.4-6.4 4.5-4 9.1-11.5l1.5 3c3.9 7.6 11.2 9.3 19 9.2 1.5 0 2.9-1.5 2.3-3-1.5-4.2-.7-13.6 1.8-2.4.3 1.5 2.3 2.3 3.5 1.4 4.1-2.7 6.2-3.9 9.3-8 5.8-7.7 3-2.7 5.8 4.7 2.9 7.6 8.7 11.1 16.2 12.9 1.8.4 3.5-1.2 3-3-.5-1.9-1.9-18.3.8-5.1.4 1.9 2.8 2.2 4.1 1.1 3.9-3.5 4.3-3.6 5.4-5.6.1 13.9-2.4 28.4-3.1 41.6-1.8 31.6 11.8 72.7-34.3 78.1zM168.3 98.3c0-.2 0-.5-.1-.7-.1-.3-.1-.5-.1-.8-.3-1.1-1.2-1.6-2.1-1.7-10.9-8.3-33.7-4.2-45.7-3.7-30.6 1.4-62.1 5.3-92.6 1.9-1.2-.1-1.9.8-2.1 1.8-1.1-.4-2.5.3-3 1.2-6 10.9 6.7 26.8 13.9 33.9 9.1 8.9 22.4 12.3 31.7 4.8 12.6-6.3 21.2-24.2 26-35.8.1-.1 0-.3.1-.4 1.4-.1 2.7-.2 4.1-.3 1.1 7.8 6.7 16.4 10.5 22.8 4.8 8.1 12.2 12.7 21.4 14.1 17 2.6 34.5-13.3 37.4-29.6.7-2.5 1-5 .6-7.5zM54.1 124.4c-11.9 0-26.1-13.9-24.7-26.2 6.4 1.3 12.9 2 19.4 2.3-1.2 4.3 1 9.5 5.7 10.2 5.6.9 9.7-3.8 10.8-8.9.1-.4.1-.8 0-1.2 7.1-.2 14.3-.7 21.5-1.3-7.2 13.5-15.8 25.1-32.7 25.1zm84.1-2.7c-17.6 6.2-26.5-10-31.1-24 6.9-.5 13.8-.9 20.7-.9-1 2.6-1.3 5.9.4 8.1 1.9 2.5 4.8 2.9 7.8 2.4 2.9-.5 5.7-2.5 7.8-4.6 1.2-1.2 2.4-3.1 3-5.1 5.2.5 10.4 1.3 15.5 2.6-4.6 10.6-12.6 17.4-24.1 21.5zM155.7 152.9l.3-1.2c.3-1.6-.7-2.8-2.3-3-23.4-2.4-48.1-.6-71.6.6-9.5.5-19 .8-28.5 1.1-2.3.1-8.4 1.3-12.2 1.3-.5-.4-1.3-.5-1.8-.2-.2-.1-.5-.1-.6-.2-.8-.4-1.4.5-.9 1.1.2.3.5.5.7.7-1.5 11.7 9.2 14.3 14.9 7.4 4 7.2 13.3 6.8 18.2-.6 4.1 5 10.7 4.5 14.9-.6 1.6 2.6 4.2 4.5 7.7 4.9 3.7.4 7.9-2.2 9.9-5.7.4 2.9 2.5 5.2 6.4 5.4 2.8.1 5.4-1.2 7.5-2.9.6-.5 1.2-1.1 1.8-1.9 1.6 3.2 4.3 5.7 8 6.5 4.5 1 7.2-1.6 8.7-5 2.6 3.4 6.5 5.5 11.2 4.6 5.8-1.1 10.1-6.9 7.7-12.3zm-113.3 1.9c2.4.8 5.4 1.1 8.6 1.1-2.6 4.7-7.6 4.7-8.6-1.1zm14.7 1c4.5-.3 8.8-.8 12.1-1.1-2.6 6.9-10.4 8.9-12.1 1.1zm17.3-1.4c3.5-.1 6.9-.3 10.4-.5-2.2 3.6-7 9.8-10.4.5zm20.8 5.3c-3 .2-5-1.7-6.2-4.2.2-.5.4-.9.6-1.4.1-.2.1-.4.1-.5 4-.2 8.1-.3 12.1-.4-1.6 3-2.4 6.3-6.6 6.5zm21.2-3c-1.2 1.3-2.7 2.2-4.4 2.7-4.3 1.2-4.4-3.3-3.9-6.3 2.8-.1 6.4-.3 10.5-.4-.8 1.3-1.2 2.9-2.2 4zm10.6 4c-2.3-1.1-3.8-3-4.8-5.3.3-1 .4-2 .2-2.9 4.1-.1 8.3-.3 12.3-.3-.4.4-.6.8-.6 1.4-.2 4.2-1.9 9.4-7.1 7.1zm19.6.4c-4.8.4-7.4-3.9-8.2-8-.1-.4-.2-.6-.4-.9 7.6-.1 13.6.2 13.9 1l.1.1c-.2 4-.2 7.4-5.4 7.8z"/></svg>
