<svg xmlns="http://www.w3.org/2000/svg" viewBox="0 0 200 200" enable-background="new 0 0 200 200"><path d="M87.6 107.7c-.5-.6-1.2-1.1-1.8-1.7-.1-.1-.1-.2-.2-.3-23.7-29.3-37.9-64-60.1-94.3-1.4-1.9-4.9-2.1-5.4.7-3.5 17.2-7 34-6.6 51.6-2.3-.3-3.9 2.9-1.6 4.4 13.9 8.3 27.8 16.7 41.5 25.3 9.2 5.8 21.4 16.8 32.5 18.2 2.2.2 2.9-2.6 1.7-3.9zM16.4 65c.2-.2.4-.6.4-1 1.2-15.1 3.7-29.6 7.5-44.1 10.8 16.2 19.5 33.7 29.1 50.6C57 76.9 61.4 86 66.8 94c-3.7-1.9-7.3-3.7-10.3-5.6-13.3-8-26.4-16.3-40.1-23.4zM189.7 16.8c-.1-2.8-3.5-4.4-5.6-2.3-14.7 15.1-27.5 32-39.9 48.9-8.7 11.9-26.2 30.5-27.2 45.9-.1 1.4 1.1 2.4 2.4 2.5.4 1.2 1.9 2.2 3.2 1.4 20-13.8 44-22.1 60.3-40.9 14.7-17.2 7.4-35.1 6.8-55.5zm-18.2 58c-13 12.9-30.6 20.4-45.8 30.7 7.8-10.6 13.9-24.2 21.2-34.7 11.2-16 23.2-31.7 36.6-46.1 1.6 19.1 4.8 33.4-12 50.1zM179.9 179.6c6.7-6.9 3.2-23.8 2.4-32.2-.8-8.5-2.1-16.7-5.1-24.5-.2-.5-.9-.6-1.1 0-.2.6.7 1 1.1.4-.2.3-.3.7-.4 1-.5-1.2-2-2.2-3.2-1.2-8.6 6.5-14.8 17-22 25.3-3.8-6.2-9.4-11.1-11.9-18.1-.7-2-4.3-2.6-4.7 0-.9 6.4-4.6 12.1-7.4 18-2.1-5.3-4.2-10.5-5.9-16-.6-2-3.5-2.1-4.1 0-2.1 7.1-7.3 11.9-10.4 18.3-3.8-5.6-8.3-10.7-11.2-16.9-.7-1.6-3.1-1.4-3.9 0-2.4 4.2-6.4 8.8-7.4 13.5.5-2-10.4-10.7-12.4-13.5-.8-1.2-3-1.6-3.8 0-2.9 6.1-7.7 20.4-13.6 12.2-4.6-6.4-9.2-12.7-14.6-18.5-1-1.1-3.1-.6-3.4.9-4.1 21.4-10.5 3.1-16.3-7.1.6-1.1 1.3-2.3 2-3.4 1-1.6-1.4-3.5-2.6-2-13.5 17.1-17.4 42.6-9 62.8.3.8 1 1.3 1.7 1.5.5.3 1.2.4 1.8-.1l.1-.1c.4-.2.7-.5.9-1 3-3.3 4.1-8.8 5.7-13.5 3.6 6.5 8.6 12 11.4 19 .8 1.9 4.2 2.6 4.6 0 .9-5.8 3.3-11.1 4.9-16.6 5.4 7.1 10.9 14.1 16.3 21.2 1.3 1.7 3.9 1.6 4.6-.6 2.2-6.8 6.3-13.9 7.3-21 .8 2.3 2 4.4 3.5 6.4 3.1 5.2 6.9 10.1 10.2 15.2 1 1.6 4.1 1.7 4.5-.6.9-5.7 3-10.8 4.6-16.2 3.4 4.6 7.2 8.8 10.9 13.4 1.1 1.5 4 .7 4.3-1.1.9-5.6 3.1-10.7 4.6-16 4.4 5.8 9.6 10.8 14.2 16.7 1.1 1.4 3.7 2.1 4.7 0 2-4.2 4.3-8 6.1-12.1 2.4 4.4 4.9 8.6 6.7 13.4.7 1.9 4 3.1 5 .7 3.7-8.5 8.1-16.2 13.2-23.8 4 6.5 7.9 13.1 11.5 19.9 1.7 3.2 6.4.4 4.8-2.8l-.3-.6c.3.2.7.1 1.1-.3zm-14.7-22.5c-1.2-1.9-3.6-1.7-4.8 0-5.1 7.2-9.5 14.5-13.3 22.4-2.4-4.9-5.2-9.5-7.5-14.5-1-2.1-4.5-1.6-5 .7.6-3-5 14.4-5.7 13.4-4.9-6.3-10.7-11-14.9-18-1.1-1.8-4.5-1.8-4.8.6-.9 5.8-3.2 11.1-4.7 16.6-3.6-4.3-7.2-8.4-10.2-13.3-1.1-1.7-4.2-1.7-4.7.6-1.1 5.6-3.1 10.7-4.6 16.1-4.5-6.7-9-13.2-12.5-20.6-.4-.8-1.3-1.2-2.1-1.2-.7 0-1.3-.1-2-.1-1 0-2.3.8-2.4 1.8-1 7.4-3.8 14.1-6.3 21-5.5-7.2-11.2-14.4-16.7-21.6-1.1-1.5-4.2-1.8-4.5.6-.8 5.4-2.9 10.4-4.4 15.6-3.6-5.8-8.1-11-10.7-17.5-.7-1.7-3-2.4-4.1-.5-2 3.5-4.3 8.6-5 13-4-16.7-2.5-33.2 5.1-48.5 3.8 7.4 8.2 14.4 11.9 21.9.8 1.7 3 .9 3.6-.5-.3.8 5.1-12 5.2-11.9 6.2 6.8 11.2 14.9 16.7 22.3.9 1.2 2.9 1.6 3.7 0 1.4-3 11.3-15 9.7-17.4 3.7 5.4 9.8 9.5 14.5 14 1.2 1.1 3.3.7 3.7-1 1.1-4.7 3.6-8.4 6.1-12.4-.7 1.1 1 3.3 2.9 6.1 2.8 4 5.7 7.7 9.4 10.8 1.3 1.1 3.3-.3 2.4-1.8-.1-.1-.1-.2-.2-.3 0-.1.1-.1.1-.2 2.7-5.5 6.9-9.8 10-14.9 1.9 5.6 4.1 11.1 6.2 16.8.8 2.2 3.7 2.3 4.5 0 2-6.1 6-11.6 8.3-17.6 3.5 5.5 8.2 10.2 11 16.2.7 1.4 2.8 1.6 3.9.5 8-8.3 16.7-17.6 23.2-27.2-.9 5.4.9 12.6 1.4 17.9.9 10.8 1.1 21-.5 31.7-4-6.7-7.8-13.2-11.9-19.6z"/></svg>
