<svg xmlns="http://www.w3.org/2000/svg" width="256" height="256" viewBox="0 0 256 256"><path d="M74.454 109.415l.03.014c-.015-.01-.03-.017-.045-.023l.014.008zM206.517 149.59c-3.897-8.215-9.495-15.812-16.742-21.37-8.46-6.486-19.53-9.34-29.944-6.458-10.64 2.944-18.453 10.958-23.318 20.598-4.466 8.846-5.23 19.672-3.034 29.25.005.042.13.516.13.516 2.175 8.03 6.87 14.457 12.607 17.862 2.592 1.54 5.386 2.316 8.15 2.316 2.22 0 4.418-.5 6.477-1.508 1.07-.522 2.08-1.18 3-1.953.343-.288.41-.79.154-1.155-.254-.366-.748-.478-1.136-.26-1.688.96-3.405 1.493-5.25 1.632-2.282.168-9.234-.935-12.3-8.478-1.31-3.217-2.048-6.673-2.306-10.132-.717-9.605 2.248-19.438 9.177-26.286 4.323-4.27 10.46-7.062 16.584-5.622 3.837.903 6.746 3.317 9.438 6.044-.034-.032-.11-.104-.155-.132.092.06.18.202.25.284 7.723 9.02 10.806 21.374 10.116 33.08-.34 5.776-1.585 11.626-3.928 16.933-.91 2.063-2.116 3.913-3.117 5.917.033-.065.064-.178.114-.23-.312.323-.545.827-.79 1.197-.563.846-1.158 1.666-1.78 2.47-1.51 1.95-3.164 3.778-5.012 5.415-3.643 3.224-7.942 5.796-12.746 6.794-5.26 1.09-10.702.03-15.346-2.61-3.103-1.766-5.737-4.208-8.094-6.86-8.498-9.615-13.337-22.045-15.29-34.61-.98-6.06-1.522-12.364-.817-18.46 3.795-32.81 38.166-53.01 23.488-92.627l-.063.07c-1.913-5.698-4.766-10.965-8.387-15.605.008-.065.03-.127.035-.193l2.672-33.84c.142-1.806-.945-3.48-2.65-4.086-1.708-.604-3.607.013-4.633 1.503l-14.64 21.28c-6.762-3.165-14.302-4.942-22.26-4.942-7.96 0-15.5 1.777-22.26 4.942L58.27 8.995c-1.025-1.49-2.924-2.107-4.63-1.503-1.708.605-2.795 2.28-2.652 4.085l2.672 33.84c.005.066.026.128.035.193-6.957 8.916-11.756 20.142-11.113 32.31 2.588 49.02 31.903 115.33 72.494 155.065 6.04 5.913 14.13 10.542 22.386 13.217 10.15 3.29 20.655 3.263 30.898.59.016 0 .097-.02.29-.07 1.363-.414 1.056-.333.55-.187 17.156-5.407 30.935-18.905 38.02-35.218 8.463-19.486 8.45-42.436-.703-61.727zM63.63 77.75l-8.48-12.325c-1.2-1.74.01-4.202 2.12-4.32.606-.034 1.127.173 1.673.385l4.612 1.798c4.52 1.76 9.038 3.52 13.558 5.282 1.305.51 2.916.892 3.93 1.903l5.55 5.536c1.404 1.398 1.226 3.832-.734 4.65-.7.293-1.514.214-2.256.214H67.577c-2.113 0-2.902-1.604-3.947-3.124zm51.54 32.013c-2.295 1.047-4.733 1.773-7.194 2.314-5.88 1.293-12.014 1.58-18.008 1.104-5.26-.416-10.716-1.393-15.483-3.752 1.117.555 3.392 1.685-.03-.014-.76-.38-.526-.263-.015-.01-3.11-1.56-3.578-5.973-.84-8.138 2.965-2.344 6.203.124 9.237.946 4.127 1.117 8.465 1.498 12.73 1.47 4.175-.028 8.425-.445 12.447-1.608 2.062-.596 4.2-2.12 6.403-1.81 2.23.314 3.998 2.192 4.166 4.442.18 2.406-1.347 4.115-3.412 5.057zm-1.622-28.89h-7.974c-1.66 0-2.983-1.506-2.743-3.158.177-1.212 1.253-2.025 2.07-2.84l3.33-3.32c.657-.656 1.354-1.56 2.24-1.904.468-.18.933-.362 1.398-.544 5.438-2.12 10.878-4.238 16.316-6.357.958-.375 1.916-.748 2.874-1.12.656-.257 1.302-.565 2.027-.524 2.186.122 3.284 2.63 2.078 4.382l-1.283 1.865-8.48 12.325c-1.055 1.534-3.113 1.197-4.725 1.197h-7.127z"/></svg>
