<svg xmlns="http://www.w3.org/2000/svg" width="256" height="256" viewBox="0 0 256 256"><path d="M246.617 221.667l-17.283-20.516c-2.64-3.393-1.14-5.57-.89-6.16 1.94-4.595 4.714-9.17 7.65-14.017 4-6.597 8.132-13.418 10.43-20.85.437-1.424.175-2.97-.71-4.168-.883-1.198-2.283-1.905-3.773-1.905H229.85c2.168-7.532 3.193-16.765 1.77-27.854-1.158-9.03-4.963-17.578-11.31-25.405-1.44-1.778-1.626-2.995-.763-5.007 3.727-8.677-.143-20.36-8.453-25.512-.07-.042-.143-.092-.215-.14-.375-.254-.887-.602-1.55-.602-.325 0-.636.083-.933.246-1.35.748-1.047 2.094-.918 2.67.025.112.053.224.064.328.555 4.815-.557 8.395-3.492 11.267-.662.647-1.076.89-1.52.89-.33 0-.735-.125-1.243-.382-8.63-4.37-17.414-6.666-26.135-6.892 0-.01-.75-.01-.75 0-8.72.226-17.506 2.52-26.135 6.892-.508.257-.912.38-1.244.38-.444 0-.856-.24-1.52-.89-2.937-2.87-4.048-6.45-3.49-11.266.01-.104.038-.216.063-.33.13-.574.432-1.92-.918-2.668-.297-.163-.61-.246-.934-.246-.66 0-1.173.348-1.55.602-.07.048-.145.098-.215.14-8.31 5.153-12.18 16.836-8.45 25.513.862 2.012.677 3.23-.765 5.008-6.346 7.828-10.15 16.376-11.31 25.406-1.425 11.09-.397 20.32 1.77 27.854h-12.194c-1.488 0-2.89.707-3.77 1.905-.886 1.197-1.147 2.744-.71 4.167 2.295 7.433 6.43 14.254 10.428 20.85 2.938 4.847 5.71 9.423 7.652 14.02.248.588 1.748 2.766-.89 6.16l-2.325 2.757-14.294-36.214-22.176-56.18c17.77-11.625 24.096-37.93 14.662-62.08l-.678-1.732 2.902-1.134c.648-.254 1.123-.822 1.256-1.507.135-.683-.09-1.39-.598-1.87l-16.82-15.967c-.572-.544-1.408-.708-2.145-.42-.735.288-1.24.975-1.292 1.763L77.16 51.71c-.044.697.27 1.368.833 1.78.56.413 1.297.508 1.945.253l2.9-1.132.674 1.733c6.33 16.2 2.955 33.475-7.938 42.23L56.444 47.59l2.243-.874c.65-.254 1.123-.82 1.258-1.506.135-.684-.09-1.39-.598-1.87l-16.82-15.97c-.572-.543-1.408-.708-2.145-.418-.738.287-1.24.973-1.293 1.762l-1.544 23.143c-.047.695.264 1.366.828 1.778.56.413 1.297.508 1.945.254l2.243-.876L61.69 101.99c-1.602.104-3.234.056-4.87-.145h-.003c-12.514-1.533-24.125-11.55-29.582-25.517l-.678-1.733 2.902-1.133c.647-.253 1.12-.823 1.257-1.506.133-.683-.092-1.39-.596-1.87L13.3 54.12c-.573-.543-1.407-.71-2.144-.42-.736.286-1.24.973-1.29 1.762L8.32 78.602c-.047.696.266 1.366.828 1.78.563.41 1.295.507 1.945.255l2.9-1.135.678 1.734c7.67 19.632 24.16 33.73 42.01 35.917 3.677.45 7.32.378 10.858-.212l39.443 99.92-4.048 4.808c-1.152 1.4-1.395 3.34-.62 4.98s2.427 2.687 4.24 2.687h136.442c1.814 0 3.465-1.047 4.24-2.687.776-1.64.536-3.58-.617-4.98z"/></svg>