<svg text-rendering="geometricPrecision" image-rendering="optimizeQuality" shape-rendering="geometricPrecision" xmlns="http://www.w3.org/2000/svg" width="300" height="300" viewBox="0 0 300 300"><path d="M213.8 111.047c-23.46 23.866-33.7 42.283-34.16 31l-.313-12.97c12.903-8.666 14.346-14.687 3.948-32.26-2.322-130.582-90.13-81.874-63.883-49.18 1.266-26.207 35.583-5.484 26.41 10.433-10.488 15.448-18.234 29.888-25.01 48.552-2.543 3.706-3.813 7.046-.13 11.656.387 5.302 2.728 8.14 6.48 9.222.757 7.498-1.587 10.004-10.122 2.528-3.962-30.602-11.583-43.692-32.423-29.573L65.62 120.067c8.85 8.145 8.347 22.85 6.167 38.744.562 6.595 4.815 5.318 11.705-1.58 1.584 13.81 4 24.25 7.272 31.315 4.285 10.6 8.374 14.123 8.542 6.64l-.95-35.425c1.75-9.878 5.112-5.3 9.806 11.388 2.958 18.9 4.533 35.18 2.843 45.228-1.1 9.367 1.63 11.292 8.542 5.06-2.325 10.454-2.2 17.696 2.215 19.296 3.69 14.67 7.16 16.22 10.435 7.275l4.43 26.567c1.273 15.212 9.487 21.685 12.336 2.845l6.324-33.843c6.047 22.654 11.46 25.105 15.816-5.38l3.795-30.678c9.36 12.348 14.047 9.478 13.28-11.07l2.216-20.56c1.075-8.476 5.84-10.078 12.97-6.956 8.728 14.895 13.1 14.417 15.5 6.957.44 22.907 11.05 28.17 10.757 15.497l4.743-69.27c.38-18.28-5.105-24.546-20.562-11.07zm-64.108-13.372c-3.183 8.388-.923 14.96 4.743 20.403-11.667 2.235-23.61-18.744-4.743-20.403zm-2.827 55.655c1.14-28.087 17.543-24.223 18.49-18.688l.174 8.248c-7.175-5.547-13.187-2.575-18.665 10.44zm13.21-35.202c7.03-3.508 11.15-9.104 10.61-18.06 17.516 7.21-.142 23.673-10.61 18.06z"/></svg>
