<svg shape-rendering="geometricPrecision" text-rendering="geometricPrecision" image-rendering="optimizeQuality" xmlns="http://www.w3.org/2000/svg" width="300" height="300" viewBox="0 0 300 300"><path d="M246.12 151.418c1.294-7.452 2.028-15.467 2.224-24.037 1.108-35.4-7.42-63.078-25.562-83.013-16.48-18.073-38.605-28.13-66.393-30.177-27.962-2.25-52.408 6.884-73.332 27.38-22.403 21.807-33.613 50.308-33.613 85.536 0 6.7.464 13.603 1.38 20.682C36.94 155.984 30 163.998 30 171.83c0 2.613.92 5.21 2.78 7.816 2.96 3.546 6.57 5.31 10.83 5.31 4.257 0 8.98-1.764 14.17-5.31.182.373.367.838.548 1.402 7.402 17.51 17.88 33.082 31.398 46.676 32.584 32.236 77.874 51.71 135.834 58.42-15.184-12.868-22.22-25.998-21.106-39.406 2.032-10.81 6.843-21.993 14.438-33.555 9.994-15.077 16.297-25.604 18.89-31.576 6.856 5.972 13.054 8.936 18.614 8.936 4.257 0 7.78-1.855 10.547-5.587 2.04-2.418 3.06-5.023 3.06-7.82-.003-8.764-7.966-17.336-23.884-25.718zM93.18 96.488c-4.212-4.226-6.34-9.31-6.34-15.235 0-5.927 2.128-11.02 6.34-15.21 4.215-4.237 9.29-6.364 15.24-6.364 6.23 0 11.47 2.126 15.685 6.364 4.232 4.188 6.34 9.282 6.34 15.21 0 5.923-2.108 11.008-6.34 15.233-4.215 4.218-9.456 6.317-15.685 6.317-5.95 0-11.024-2.1-15.24-6.317zm49.793 73.276c-2.936 4.215-6.455 6.314-10.56 6.314-4.12 0-7.64-2.1-10.562-6.314-2.922-4.207-4.377-9.45-4.377-15.708 0-5.922 1.455-11.01 4.378-15.236 2.922-4.214 6.443-6.315 10.563-6.315 4.105 0 7.624 2.1 10.56 6.315 2.92 4.227 4.38 9.314 4.38 15.236 0 6.257-1.46 11.5-4.38 15.708zm57.638-62.874c-4.233 4.215-9.307 6.315-15.23 6.315-5.946 0-11.026-2.1-15.24-6.315-4.21-4.208-6.314-9.45-6.314-15.708 0-5.924 2.104-11.01 6.315-15.236 4.214-4.218 9.294-6.315 15.24-6.315 5.924 0 10.997 2.1 15.23 6.316 4.214 4.227 6.32 9.312 6.32 15.236 0 6.256-2.106 11.5-6.32 15.708zM115.526 76.894c-2.282 0-4.23.805-5.846 2.424-1.615 1.62-2.422 3.568-2.422 5.844 0 2.4.808 4.41 2.422 6.025 1.616 1.617 3.564 2.42 5.846 2.42 2.27 0 4.22-.803 5.84-2.42 1.62-1.615 2.427-3.624 2.427-6.025 0-2.276-.807-4.225-2.426-5.844-1.62-1.62-3.57-2.424-5.84-2.424zM176.12 82.83c-2.278 0-4.228.807-5.845 2.423-1.615 1.622-2.422 3.57-2.422 5.843 0 2.4.807 4.41 2.422 6.024 1.617 1.62 3.566 2.426 5.846 2.426 2.275 0 4.222-.807 5.843-2.426 1.62-1.613 2.426-3.624 2.426-6.024 0-2.272-.807-4.222-2.427-5.843-1.62-1.617-3.567-2.422-5.842-2.422z"/></svg>
