<svg xmlns="http://www.w3.org/2000/svg" width="256" height="256" viewBox="0 0 256 256"><path d="M243.824 110.632c-2.117-23.237-14.21-44.966-34.227-61.39C187.734 31.3 158.757 21.42 128 21.42c-30.757 0-59.735 9.88-81.6 27.82-20.015 16.424-32.108 38.152-34.226 61.39-1.09.203-1.912 1.158-1.912 2.305v10.08c0 1.296 1.05 2.346 2.344 2.346h5.96c-2.606 8.145-4.036 16.975-4.036 26.202 0 40.787 27.873 73.85 62.258 73.85 5.402 0 10.643-.815 15.64-2.35 10.425 7.313 22.583 11.515 35.57 11.515s25.147-4.2 35.573-11.515c5 1.534 10.24 2.35 15.64 2.35 34.385 0 62.26-33.062 62.26-73.85 0-9.228-1.432-18.058-4.04-26.202h5.962c1.293 0 2.344-1.05 2.344-2.345v-10.08c0-1.15-.822-2.103-1.912-2.306zM60.02 201.754c-.283.56-.88.92-1.518.92-.215 0-.424-.04-.62-.12-19.04-7.703-31.83-28.98-31.83-52.946s12.79-45.24 31.827-52.945c.202-.082.415-.124.632-.124.64 0 1.22.353 1.508.922.402.788.14 1.735-.61 2.205-15.544 9.732-25.2 28.87-25.2 49.94 0 21.074 9.656 40.21 25.203 49.944.747.47 1.01 1.417.607 2.204zm138.564-29.356l-12.684 9.278c-2.434 1.782-4.95 3.626-7.445 5.418l-10.06 7.23c-.48.344-1.12.354-1.61.022l-11.352-7.667c-2.38-1.608-4.78-3.262-7.105-4.86-1.04-.717-2.082-1.433-3.123-2.147l-.033-.02-5.01 3.49-11.443 8.208c-.218.147-.462.223-.71.236l-.01.006-.006-.005c-.31.014-.62-.07-.883-.26l-10.23-7.46-6.052-4.216-.03.022c-1.044.715-2.085 1.43-3.124 2.147-2.326 1.598-4.727 3.25-7.107 4.858l-11.352 7.667c-.488.33-1.13.32-1.607-.022l-10.063-7.23c-2.492-1.792-5.012-3.636-7.445-5.418l-12.684-9.278c-.543-.398-.73-1.125-.44-1.734.286-.608.964-.93 1.618-.766l27.016 6.826 23.05-19.67c.464-.394 1.124-.447 1.644-.134L128 167.637l17.697-10.717c.52-.312 1.18-.26 1.643.135l23.053 19.67 27.016-6.826c.65-.165 1.33.156 1.616.765.287.608.1 1.335-.442 1.733zM79.578 134.85l11.713-25.866c.224-.495.714-.816 1.257-.825.545-.01 1.043.293 1.287.78l12.87 25.967c.144.22.226.48.226.76 0 .776-.63 1.406-1.406 1.406h-.024l-24.654-.234c-.475-.006-.916-.25-1.172-.65-.256-.404-.29-.906-.096-1.34zm69.492.816c0-.28.082-.54.225-.76l12.873-25.967c.242-.488.742-.792 1.285-.782.545.01 1.033.33 1.258.825l11.712 25.867c.195.434.16.936-.096 1.337-.256.4-.697.646-1.172.65l-24.654.234h-.014c-.002 0-.006.002-.01 0-.775.002-1.406-.628-1.406-1.404zm30.14-57.95c-5.4 0-10.64.814-15.638 2.35C153.146 72.75 140.988 68.55 128 68.55s-25.146 4.202-35.572 11.515c-4.996-1.534-10.236-2.35-15.64-2.35-19.755 0-37.358 10.917-48.765 27.94 7.444-39.15 49.436-69.23 99.977-69.23 50.54 0 92.52 30.076 99.97 69.22-11.407-17.018-29.01-27.93-48.76-27.93z"/></svg>