<svg xmlns="http://www.w3.org/2000/svg" width="50" height="50" viewBox="0 0 50 50"><path d="M27.5 31.86c0 .552-1.12 1-2.5 1s-2.5-.448-2.5-1 1.12-1 2.5-1 2.5.447 2.5 1zm20.584-7.907v11c0 .552-.448 1-1 1h-3.5c-.3 0-.56-.14-.742-.346-.238.115-.48.227-.73.31-3.26 6.256-9.813 10.295-17.08 10.295-7.264 0-13.807-4.028-17.068-10.27-.278-.09-.545-.204-.807-.33-.184.206-.442.342-.74.342h-3.5c-.552 0-1-.448-1-1v-11c0-.552.448-1 1-1h.126C4.513 12.146 13.796 3.788 25 3.788c11.205 0 20.487 8.358 21.957 19.166h.127c.552 0 1 .447 1 1zM25 40.463c1.053 0 1.995.193 2.66.497l-.472-2.122H22.84l-.487 2.113c.668-.298 1.603-.487 2.647-.487zM42.5 29.65c0-1.077-.58-1.996-1.406-2.375-.23-.104-.477-.162-.735-.176-.07.115-.138.233-.213.35-.314.487-.67.96-1.064 1.41.16-.52.283-1.044.385-1.57.087-.444.154-.89.197-1.337h-1.03l-.294.736-.728 3.77c-.016.09-.044.176-.08.256-.064.13-.15.242-.257.332-.116.1-.256.173-.41.21-.075.02-.155.03-.237.03H29.462c-.412 0-.782-.253-.933-.638l-1.837-4.697H23.31l-1.836 4.697c-.15.385-.52.637-.932.637h-7.166c-.48 0-.89-.34-.982-.81l-.875-4.524h-1.182c.042.447.11.893.196 1.338.103.526.225 1.052.385 1.57-.397-.45-.75-.923-1.066-1.41-.074-.115-.142-.233-.21-.35-.26.01-.51.07-.736.175-.828.38-1.408 1.298-1.408 2.375 0 1.416.998 2.563 2.242 2.563.31 0 .605-.072.874-.2.27.79.612 1.55 1.007 2.276 2.227.785 5.47 2.343 7.012 4.992l.667-2.894c.003-.01.008-.02.01-.03.22-.89 1.02-1.52 1.94-1.52h7.54c.924 0 1.724.635 1.94 1.527.003.014.01.025.013.037l.635 2.854c1.565-2.666 4.855-4.22 7.076-4.996.385-.71.717-1.455.983-2.23.253.116.527.183.816.183 1.246 0 2.244-1.147 2.244-2.563zm-2.818-5.697c-.066-1.032-.256-2.003-.566-2.902-2.134.665-5.697 1.607-7.246 1.04-1.074-.396-2.473-2.243-3.447-3.71 0 .98-.155 2.032-.74 2.6-1.743 1.7-6.35 2.13-10.566 2.13-2.644 0-5.13-.17-6.664-.3-.063.37-.106.752-.132 1.144h29.362zm2.88-5.98c.636 1.4 1.063 3.235 1.33 4.98h1.026C43.458 13.255 35.098 5.787 25 5.787c-10.098 0-18.46 7.468-19.918 17.166H6.17c.265-1.74.688-3.56 1.313-4.937.14-.315 2.557-5.625 8.365-8.732 2.43-1.3 5.45-2.217 9.15-2.217 3.698 0 6.727.93 9.168 2.24 5.77 3.098 8.248 8.347 8.395 8.666z"/></svg>
