<svg xmlns="http://www.w3.org/2000/svg" width="26.275" height="27.207" viewBox="0 0 26.275 27.207"><path d="M10.86 18.617c0-.778-.632-1.41-1.41-1.41-.778 0-1.41.632-1.41 1.41s.632 1.41 1.41 1.41c.778 0 1.41-.63 1.41-1.41zm-1.12.9c-.4 0-.723-.325-.723-.726 0-.397.324-.722.723-.722s.722.324.722.723c0 .4-.323.726-.722.726zm5.546-.9c0 .778.63 1.41 1.408 1.41.78 0 1.41-.632 1.41-1.41s-.63-1.41-1.41-1.41c-.778 0-1.408.632-1.408 1.41zm1.12-.55c.4 0 .723.325.723.724-.002.4-.325.726-.724.726s-.723-.324-.723-.725c0-.397.324-.722.723-.722zm-6.45 4.122h6.092s-2.95 3.238-6.09 0zM25.14 11.224l.002-.03c.014-.186.026-.373.026-.562 0-3.574-1.303-5.104-3.765-7.343C19.063 1.166 16.66 0 13.14 0 9.622 0 7.218 1.166 4.88 3.29 2.416 5.526 1.11 7.06 1.11 10.633c0 .138.01.276.015.415l.006.177C.503 11.26 0 11.75 0 12.36v7.61c0 .636.532 1.15 1.193 1.15H1.6c.236.235.558.37.896.37h1.22c.053 0 .107-.007.16-.015 1.917 3.44 5.29 5.73 9.126 5.73 3.857 0 7.248-2.313 9.16-5.783.126.04.26.067.4.067h1.22c.34 0 .658-.133.888-.37h.413c.66 0 1.192-.516 1.192-1.15v-7.612c0-.61-.505-1.102-1.135-1.133zm-3.837 8.548c-1.55 3.423-4.684 5.765-8.3 5.765-3.42 0-6.408-2.093-8.033-5.214 0-.014.003-.026.003-.04v-5.372H6.89l4.23-3.145-1.693 3.174s7.212 1.5 11.876.3v4.533zm1.827-8.93c-1.532-4.218-5.493-6.53-10.128-6.53-4.614 0-8.562 2.295-10.105 6.48.096-5.66 3.78-9.143 10.493-9.143 6.027 0 9.9 3.484 9.993 9.192h-.253z"/></svg>
