<svg xmlns="http://www.w3.org/2000/svg" width="64" height="64" viewBox="0 0 64 64"><path d="M49.45 27.74c-.343-.485-.7-.958-1.082-1.41h.013c-.405-1.94-2.573-4.484-2.573-4.484s.033 1.05.017 1.936c-.182-.154-.37-.302-.557-.45 0-.006-.002-.01-.003-.017-.73-4.49-4.58-7.243-4.58-7.243.652.652.745 3.166 0 2.142s-4.19-5.495-3.166-2.706c1.024 2.79-1.397.306-1.397.306s-3.165-8.87-4.19-5.89c-.72 2.1-2.73 4.146-3.63 5.08.417-.97.65-2.937.65-2.937s-.56 1.676-3.446 3.632c-1.24.84-2.257 2.064-3.016 3.19.256-1.1.167-1.88-1.56.255-3.086 3.818-4.034 5.396-4.18 4.284-.16-1.235.56-2.888.56-2.888-1.582 2.152-2.72 5.24-3.286 6.998h.527V52.83c3.91 5.37 10.23 8.873 17.38 8.873 7.235 0 13.62-3.583 17.52-9.06V27.74zM58.373 30.776c-.792-15.91-11.826-27.27-26.825-27.27-15.29 0-26.456 11.805-26.857 28.2 1.177-1.296 2.612-2.35 4.23-3.07C10.51 16.18 19.536 7.505 31.55 7.505c11.89 0 20.85 8.5 22.57 20.754 1.587.555 3.027 1.417 4.255 2.516zM54.253 29.377c-1.186-.474-2.462-.77-3.802-.826v23.285c6.196-.263 11.154-5.384 11.154-11.643 0-3.094-1.215-5.908-3.19-7.996-1.155-1.223-2.574-2.187-4.16-2.82zM13.55 51.835V28.55c-1.707.072-3.313.524-4.753 1.255-1.372.697-2.586 1.655-3.58 2.812-1.752 2.04-2.82 4.682-2.82 7.575 0 6.26 4.957 11.38 11.152 11.643z"/></svg>
