<svg xmlns="http://www.w3.org/2000/svg" width="500" height="500" viewBox="0 0 500 500"><path d="M415.614 287.127c-1.543-1.97-10.123-11.958-27.306-18.51-7.01-2.17-23.993-4.34-41.958-7.922l13.458-20.438 6.422 4.214c4.255 2.793 9.968 1.607 12.76-2.646l-13.544-8.89 8.11-12.36-20.47 4.25-23.043-15.123c-2.792 4.256-1.606 9.97 2.65 12.763l5.085 3.337-18.505 28.102c-10.653-3.46-19.838-7.793-25.165-13.387-2.143-2.25-5.188-9.03-3.217-20.674 34.412-20.84 58.352-66.236 58.352-112.993 0-63.7-25.33-105.8-99.245-105.8s-99.245 42.1-99.245 105.8c0 46.756 23.94 92.152 58.35 112.994 1.972 11.644-1.073 18.426-3.216 20.675-5.327 5.594-14.51 9.926-25.165 13.387L162.217 225.8l5.086-3.337c4.255-2.793 5.442-8.506 2.65-12.762l-23.044 15.123-20.47-4.248 8.11 12.36-13.544 8.89c2.792 4.252 8.505 5.438 12.76 2.646l6.423-4.213 13.458 20.438c-17.965 3.583-34.95 5.752-41.958 7.92-17.183 6.554-25.762 16.542-27.306 18.512-31.598 46.91-35.18 152.16-35.207 153.207.282 14.006 4.444 18.79 5.88 19.38 70.337 31.294 153.134 39.24 193.75 39.24.386 0 .8-.007 1.192-.008.393 0 .807.007 1.192.007 40.616 0 123.413-7.945 193.75-39.24 1.436-.588 5.598-5.373 5.88-19.38-.023-1.045-3.604-106.296-35.203-153.206zM199.63 136.154c-27.123 0-38.15-17.08-38.15-38.15s17.08-38.15 38.15-38.15h100.74c21.07 0 38.15 17.08 38.15 38.15s-11.028 38.15-38.15 38.15c-23.164 0-23.545-25.227-50.37-25.227s-27.206 25.227-50.37 25.227zM438.598 121.468l1.418.93c3.133 2.058 7.34 1.184 9.396-1.95 2.056-3.132 1.183-7.34-1.95-9.395l-24.696-16.207c-3.133-2.056-7.34-1.184-9.397 1.95-2.058 3.134-1.184 7.34 1.95 9.397l1.417.93-4.388 6.686 11.075-2.3 14.158 9.293-34.525 7.167-12.61 19.214 36.206-7.514 11.944-18.202zM382.85 206.416l12.61-19.214-36.204 7.514-12.61 19.215zM417.362 153.828l-36.205 7.514-12.61 19.215 36.205-7.514zM59.984 122.4l1.418-.932 11.944 18.202 36.205 7.514-12.61-19.214-34.524-7.167 14.158-9.292 11.076 2.3-4.388-6.687 1.418-.93c3.133-2.058 4.007-6.264 1.95-9.396-2.055-3.135-6.263-4.007-9.396-1.95l-24.696 16.206c-3.132 2.056-4.006 6.264-1.95 9.396 2.056 3.133 6.263 4.006 9.396 1.95zM117.15 206.416l36.204 7.515-12.61-19.214-36.204-7.514zM95.248 173.043l36.204 7.514-12.61-19.215-36.204-7.514z"/></svg>
