<svg xmlns="http://www.w3.org/2000/svg" width="50" height="50" viewBox="0 0 50 50"><path d="M44.604 21.918C44.007 10.8 35.578 2.418 25 2.418S5.993 10.8 5.395 21.917c-.26 4.846-2.11 19.52-2.13 19.668-.087.696.196 1.387.747 1.82.542.428 5.737 4.177 21.072 4.177 15.082 0 20.34-3.74 20.89-4.166.56-.433.85-1.13.76-1.83-.018-.15-1.867-14.82-2.13-19.67zm-9.266-3.08c2.348.306 3.954 2.664 3.6 5.12-.35 2.46-2.344 4.123-4.46 3.85-6.3-.82-12.657-.82-18.955 0-2.117.272-4.11-1.39-4.462-3.85-.352-2.457 1.255-4.814 3.602-5.12 6.87-.895 13.805-.895 20.676 0z"/><circle cx="18.515" cy="23.448" r="2.171"/><circle cx="31.484" cy="23.448" r="2.171"/></svg>
