<svg xmlns="http://www.w3.org/2000/svg" width="512" height="512" viewBox="0 0 512 512"><path d="M397.183 240.232c-1.015 33.106-37.573 53.66-141.71 53.66-104.375 0-140.86-20.65-141.717-53.89 25.423 0 73.798-33.607 141.716-33.607 66.167 0 120.395 33.837 141.71 33.837zm-141.71 70.215c-34.742 0-63.033-2.252-85.57-6.81 1.047 9.525 7.905 57.02 40.59 57.02 29.016 0 28.202-22.59 45.85-22.59 17.645 0 19.712 22.59 48.064 22.59 35.23 0 41.47-52.58 42.032-58.18-23.357 5.338-53.39 7.97-90.968 7.97zm107.935-12.722c-.658 37.275-12.077 81.865-38.423 110.5-17.674 19.207-40.062 28.945-66.543 28.945-26.552 0-48.842-9.14-66.254-27.16-27.744-28.717-38.8-74.585-40.386-110.906-8.827-2.71-17.026-5.955-25.02-10.785-.262 42.43 11.863 102.006 47.55 138.942C196.6 450.312 224.898 462 258.44 462c33.235 0 62.564-12.78 84.815-36.962 35.91-39.027 46.524-97.5 44.843-139.248-7.716 5.306-15.91 8.95-24.692 11.935zm16.43-192.094S337.087 93.868 256 50c-81.09 43.867-123.837 55.63-123.837 55.63s-21.812 41.21-61.54 86.11l39.797 34.074c7.52-.14 22.83-6.208 28.21-8.83l-32.91-27.697c10.426-11.824 17.46-21.756 28.268-38.876.88-1.394 2.354-2.303 4-2.337 1.65-.034 3.2.787 4.093 2.17l30.49 49.008-20.954-64.964c-1.213-3.584.262-7.512 3.535-9.405 5.79-3.345 52.04-18.598 100.85-45.353 48.81 26.756 95.062 42.01 100.85 45.354 3.274 1.895 4.75 5.822 3.536 9.406L339.43 199.25l30.49-49.006c.895-1.384 2.443-2.205 4.092-2.17 1.647.033 3.122.942 4 2.337 10.808 17.12 17.844 27.053 28.27 38.877l-32.91 27.698c5.38 2.62 20.69 8.69 28.21 8.83l39.797-34.074c-39.733-44.9-61.543-86.11-61.543-86.11zm-93.55 36.766c-3.41-9.26-1.477-12.197 2.112-15.936l3.055-3.18c-17.1-14.467-13.6-11.47-17.436-14.867-1.94 1.98-4.29 5.084-8.694 5.084-4.524 0-7.476-3.28-9.283-4.912-2.002 1.752-4.977 4.912-9.37 4.912-4.462 0-6.898-3.25-8.63-5.02l-17.498 14.804 3.055 3.18c3.59 3.74 5.522 6.677 2.113 15.937-3.025 8.22-5.638 14.205-5.638 20.703 0 11.623 7.44 20.182 20.413 23.48 9.326 2.373 10.736 3.387 15.512 7.254 4.775-3.867 6.185-4.88 15.514-7.254 12.972-3.3 20.41-11.857 20.41-23.48 0-6.5-2.61-12.482-5.637-20.704zm-21.145 11.673l2.122 12.376-11.116-5.843-11.117 5.843 2.123-12.377-8.993-8.77 12.43-1.806 5.557-11.262 5.56 11.262 12.43 1.807-8.997 8.77z"/></svg>
