<svg xmlns="http://www.w3.org/2000/svg" width="512" height="512" viewBox="0 0 512 512"><path d="M397.183 240.232c-1.015 33.106-37.573 53.66-141.71 53.66-104.375 0-140.86-20.65-141.717-53.89 25.423 0 73.798-33.607 141.716-33.607 66.167 0 120.395 33.837 141.71 33.837zm-141.71 70.215c-34.742 0-63.033-2.252-85.57-6.81 1.047 9.525 7.905 57.02 40.59 57.02 29.016 0 28.202-22.59 45.85-22.59 17.645 0 19.712 22.59 48.064 22.59 35.23 0 41.47-52.58 42.032-58.18-23.357 5.338-53.39 7.97-90.968 7.97zm107.935-12.722c-.658 37.275-12.077 81.865-38.423 110.5-17.674 19.207-40.062 28.945-66.543 28.945-26.552 0-48.842-9.14-66.254-27.16-27.744-28.717-38.8-74.585-40.386-110.906-8.827-2.71-17.026-5.955-25.02-10.785-.262 42.43 11.863 102.006 47.55 138.942C196.6 450.312 224.898 462 258.44 462c33.235 0 62.564-12.78 84.815-36.962 35.91-39.027 46.524-97.5 44.843-139.248-7.716 5.306-15.91 8.95-24.692 11.935zM258.31 109.178l-5.278 10.7-11.808 1.715 8.544 8.328-2.017 11.76 10.56-5.55 10.562 5.55-2.016-11.76 8.544-8.327-11.808-1.716-5.28-10.7zm121.527-3.547S337.09 93.868 256 50c-81.09 43.867-123.837 55.63-123.837 55.63s-21.81 41.21-61.54 86.11l38.183 32.76C134.64 221.667 187 188.75 256 188.75s121.36 32.917 147.194 35.75l38.183-32.76c-39.73-44.9-61.54-86.11-61.54-86.11zm-106.93 55.177c-8.862 2.254-10.2 3.218-14.737 6.892-4.537-3.675-5.876-4.64-14.736-6.893-12.325-3.134-19.393-11.265-19.393-22.306 0-6.174 2.483-11.858 5.357-19.67 3.238-8.796 1.402-11.586-2.008-15.138l-2.903-3.02 16.622-14.065c1.645 1.683 3.96 4.77 8.2 4.77 4.173 0 6.998-3 8.9-4.665 1.717 1.55 4.52 4.666 8.818 4.666 4.184 0 6.42-2.947 8.26-4.83 3.644 3.23.32.38 16.563 14.125l-2.9 3.02c-3.41 3.552-5.247 6.342-2.01 15.14 2.876 7.81 5.357 13.495 5.357 19.67.002 11.04-7.066 19.17-19.39 22.304z"/></svg>
