<svg xmlns="http://www.w3.org/2000/svg" width="50" height="50" viewBox="0 0 50 50"><path d="M46.46 29.95c-.12-.16-.32-.23-.52-.187-.193.047-.34.206-.374.404-.05.29-.1.58-.172.87-.326 1.292-.87 2.48-1.58 3.538-.02-3.54-.043-6.764-.043-6.81 0-10.22-8.437-18.536-18.81-18.536-.88 0-1.738.08-2.586.194L17.964 3.2c-.233-.33-.64-.484-1.038-.397-.395.09-.695.408-.764.81l-.77 4.493-4.716-.806c-.544-.09-1.06.27-1.152.816l-.808 4.717L4 12.03c-.396-.072-.797.108-1.014.448-.215.342-.205.778.025 1.108l4.728 6.75c-1.016 2.28-1.59 4.795-1.59 7.442v6.738c-.692-1.043-1.222-2.214-1.54-3.48-.073-.29-.124-.58-.173-.87-.033-.2-.182-.358-.377-.405-.195-.044-.398.028-.52.19-1.948 2.62-2.607 5.937-1.812 9.096 1.213 4.813 5.52 8.174 10.48 8.174.888 0 1.778-.11 2.647-.33 1.39-.35 2.654-.963 3.758-1.772 1.99.83 4.16 1.286 6.413 1.286 2.24 0 4.4-.45 6.38-1.273 1.1.806 2.357 1.412 3.74 1.76.868.222 1.76.333 2.648.333h.002c4.956 0 9.266-3.36 10.477-8.175.8-3.158.14-6.475-1.81-9.097zm-13.328 9.507c-.307.26-.63.498-.962.728-.066.047-.137.09-.205.135-.31.205-.627.397-.955.574-.023.014-.05.027-.072.04-.77.408-1.592.738-2.45.982-1.1.313-2.257.49-3.46.49-1.22 0-2.392-.183-3.504-.503-.848-.244-1.657-.573-2.42-.98l-.094-.05c-.318-.174-.627-.362-.928-.56-.07-.048-.143-.095-.213-.144-.33-.228-.65-.465-.953-.722-1.692-1.428-2.993-3.295-3.722-5.42-.22.104-.463.164-.72.164-1.02 0-1.84-.94-1.84-2.104 0-1.16.818-2.102 1.84-2.104.278.48.603.945.968 1.386-.29-.992-.46-2.008-.508-3.02.942-.956 1.764-2.486 2.2-4.312.034-.144.063-.285.09-.43 2.056 1.702 4.724 3.036 7.57 2.157.396-.12.675-.473.703-.884l.097-1.342c1.21.144 3.027.563 4.146 1.59.803.74 1.986 1.126 3.244 1.126.79 0 1.61-.15 2.382-.465.635-.26 1.198-.615 1.692-1.044.465 1.513 1.19 2.773 2.008 3.603-.05 1.013-.22 2.027-.508 3.02.365-.44.688-.904.97-1.386 1.02.002 1.837.943 1.837 2.104 0 1.16-.82 2.104-1.84 2.104-.238 0-.465-.055-.672-.148-.73 2.126-2.03 3.988-3.72 5.413zm-6.078-5.208c0 .452-.918.82-2.052.82s-2.052-.368-2.052-.82c0-.455.918-.822 2.052-.822s2.052.367 2.052.82zm-5.69-5.034c0 1.067-.87 1.936-1.94 1.936s-1.937-.867-1.937-1.936.87-1.938 1.938-1.938 1.938.87 1.938 1.938zm11.15 0c0 1.067-.87 1.936-1.937 1.936-1.068 0-1.937-.867-1.937-1.936s.868-1.938 1.937-1.938c1.068 0 1.937.87 1.937 1.938z"/></svg>
