<svg xmlns="http://www.w3.org/2000/svg" width="100" height="100" viewBox="0 0 100 100"><path d="M69.348 53.348c.232.594.338 1.207.338 1.816 0 1.227-.424 2.418-1.135 3.39-.702.96-1.698 1.708-2.87 2.036h.002c-.01.004-.02.004-.025.007l-.016.004c-.548.19-1.11.277-1.67.277-1.308 0-2.593-.472-3.62-1.275-1.02-.8-1.79-1.95-2.033-3.316h-.002c0-.004 0-.008-.002-.014 0-.004 0-.008-.004-.014h.003c-.076-.352-.115-.703-.115-1.05 0-1.183.402-2.317 1.066-3.255.662-.932 1.596-1.672 2.688-2.053l.008-.002c.006 0 .006-.005.01-.005.62-.23 1.27-.343 1.916-.343 1.176 0 2.334.356 3.31 1.008.966.642 1.75 1.582 2.142 2.75.004.008.004.015.008.022 0 .008.004.012.008.018h-.006zM65.75 67.846c-.46-.3-.994-.48-1.56-.48-.454 0-.927.13-1.347.41-3.977 2.373-8.654 3.673-13.297 3.673-3.484 0-6.947-.736-10.084-2.277l-.016-.008-.016-.006c-.473-.194-1.012-.606-1.6-.997-.3-.193-.61-.386-.957-.527-.342-.146-.72-.248-1.127-.248-.336 0-.69.076-1.037.234l-.054.02h.002c-.547.21-.975.592-1.25 1.045-.287.467-.428 1.01-.428 1.55 0 .49.115.978.354 1.42.227.42.576.788 1.033 1.034 4.484 3.026 9.764 4.396 15.064 4.39 4.78 0 9.587-1.105 13.868-3.12l.023-.013.022-.012c.564-.333 1.314-.633 2.02-1.07.35-.223.692-.48.985-.815.293-.333.53-.744.662-1.23v-.002c.054-.214.08-.424.08-.632 0-.398-.097-.775-.26-1.114-.236-.51-.625-.928-1.08-1.226zm-31.482-7.274c.008 0 .018.003.027.008.572.21 1.162.312 1.746.312 1.458 0 2.874-.596 3.946-1.57 1.07-.974 1.803-2.354 1.803-3.927 0-.04 0-.083-.003-.13.004-.072.006-.15.006-.228 0-1.56-.723-2.946-1.783-3.925-1.064-.98-2.477-1.58-3.94-1.58-.39 0-.788.045-1.177.136l-.016.002h-.006c-1.935.405-3.634 1.842-4.26 3.818v.002c0 .004-.003.008-.003.008-.18.54-.264 1.1-.264 1.652 0 1.212.4 2.39 1.09 3.362.684.954 1.652 1.704 2.814 2.054.01 0 .013.002.02.006zM94.982 46.45v.007c.014.197.018.393.018.588 0 2.186-.7 4.288-1.87 6.07-1.093 1.67-2.6 3.067-4.333 4.014.11.87.176 1.746.176 2.62-.002 4.707-1.625 9.334-4.45 13.042v.002h-.007c-5.225 6.95-13.248 11.05-21.35 13.116h-.002l-.006.005c-4.32 1.05-8.775 1.585-13.23 1.585-6.638 0-13.272-1.197-19.462-3.68l-.002-.006h-.006c-6.418-2.645-12.533-6.85-16.283-13.01-2.018-3.29-3.125-7.145-3.125-11.02 0-.877.06-1.754.176-2.623-1.69-.95-3.152-2.3-4.238-3.91-1.16-1.73-1.895-3.755-1.988-5.897v-.033c.002-3 1.305-5.842 3.33-7.937s4.79-3.464 7.758-3.464h.123c.312-.022.626-.034.94-.034 1.49 0 2.984.24 4.402.785l.008.007.008.002c1.21.51 2.414 1.124 3.486 1.976.348-.182.727-.387 1.152-.55 6.5-3.848 14.055-5.333 21.418-5.76.064-3.65.512-7.467 2.29-10.81 1.483-2.775 4.054-4.937 7.116-5.686l.012-.006.016-.002c1.166-.226 2.342-.33 3.51-.33 3.11 0 6.186.737 9.063 1.887 1.274-1.923 3.093-3.423 5.226-4.264l.02-.012.02-.008c1.252-.39 2.574-.618 3.902-.618 1.4 0 2.81.256 4.133.847v-.005c.003.005.005.005.005.005.01.003.018.01.025.01 1.896.73 3.5 2.078 4.637 3.755 1.14 1.684 1.81 3.7 1.81 5.775 0 .382-.022.765-.067 1.148l-.004.008c0 .007 0 .015-.002.02-.223 2.68-1.58 5.033-3.502 6.71-1.934 1.684-4.438 2.7-7.008 2.7-.412 0-.828-.022-1.242-.077-2.55-.195-4.926-1.428-6.672-3.263-1.752-1.832-2.88-4.28-2.88-6.922 0-.128.01-.26.015-.386-2.393-1.065-4.934-1.95-7.46-1.947-.364 0-.73.02-1.095.057h-.004c-1.89.182-3.648 1.374-4.5 3.088v.008c-1.293 2.518-1.55 5.46-1.59 8.383 7.248.474 14.54 2.213 20.934 5.89h.01l.092.053c.12.072.346.195.55.303.438-.356.903-.723 1.433-1.04 1.94-1.29 4.236-1.932 6.533-1.932 1.02 0 2.04.13 3.03.384h.005l.04.012c.015.002.026.007.038.007v.002c2.34.594 4.458 1.938 6.052 3.75 1.592 1.815 2.664 4.11 2.873 6.604v.005zm-21.35-23.72c0 .097.003.198.013.3V23.048c.047 1.26.64 2.43 1.545 3.297.908.866 2.113 1.402 3.336 1.407h.032c.088.007.178.007.264.007 1.234 0 2.46-.53 3.38-1.394.92-.867 1.528-2.046 1.577-3.316v-.014c.01-.097.013-.19.013-.288 0-1.307-.61-2.553-1.568-3.476-.953-.922-2.236-1.493-3.502-1.49-.408 0-.813.056-1.21.18H77.5l-.012.005c-1.043.27-2.02.914-2.723 1.768-.704.85-1.132 1.9-1.132 2.994zm-53.5 19.426c-.97-.45-1.972-.773-2.962-.77-.166 0-.334.01-.5.03h-.023l-.023.002c-1.422.04-2.857.66-3.934 1.653-1.078.99-1.79 2.328-1.846 3.802v.014l-.002.012c-.01.12-.014.238-.014.352 0 .91.28 1.788.752 2.588.35.595.81 1.14 1.328 1.61 1.662-3.637 4.258-6.725 7.223-9.292zm63.14 17.798c0-3.243-1.17-6.5-3.065-9.124-3.777-5.256-9.637-8.684-15.732-10.595l-.043-.015c-1.17-.36-2.352-.677-3.543-.95-3.564-.81-7.216-1.214-10.864-1.214-4.9 0-9.8.725-14.49 2.172-6.094 1.934-11.973 5.338-15.742 10.61v.005c-1.91 2.633-3.03 5.902-3.03 9.157 0 1.198.15 2.396.468 3.563l.004.002c.686 2.616 2.027 4.952 3.764 6.987 1.736 2.04 3.865 3.778 6.105 5.197.496.306.994.6 1.504.886 6.505 3.63 13.997 5.223 21.435 5.223 1.258 0 2.523-.045 3.773-.136 7.49-.618 15.012-2.83 21.092-7.347l.002-.005c1.936-1.43 3.73-3.162 5.146-5.132 1.424-1.97 2.467-4.174 2.93-6.566v-.007l.002-.002c.19-.894.28-1.8.28-2.71zm5.912-12.907c-.002-.787-.182-1.57-.576-2.302l-.01-.01-.004-.01c-.527-1.087-1.355-1.907-2.354-2.466-.998-.564-2.166-.85-3.338-.85-1.06 0-2.113.237-3.05.707 2.976 2.583 5.585 5.687 7.272 9.34.543-.472 1.006-1.05 1.352-1.692.452-.84.708-1.786.708-2.718z"/></svg>
