<svg xmlns="http://www.w3.org/2000/svg" width="512" height="512" viewBox="0 0 512 512"><path d="M107.04 123.69c-8.494-11.63 9.078-24.415 17.548-12.813 6.263 8.574 16.514 14.848 28 17.805-11.97-18.625-19.067-38.79-26.272-61.83-5.365-17.142 19.258-24.108 24.623-6.942 4.254 13.605 8.356 25.835 13.51 37.134 6.112-8.52 7.897-16.98 7.394-32.548-.467-14.487 21.258-14.964 21.72-.703.698 21.74-5.022 36.635-10.65 45.215-3.943 6.01-3.45 13.914 1.222 19.378 13.182 15.412 29.538 27.44 31.88 29.297-9.766 2.337-18.74 5.59-27.628 9.598-2.924-2.34-6.838-5.485-9.463-7.85-4.808-4.33-12.182-5.75-18.633-6.22-20.956-1.527-40.577-12.164-53.25-29.52zm119.373 155.835c-2.875-12.154-13.3-20.094-23.29-17.73-9.985 2.36-15.754 14.128-12.88 26.28 2.873 12.155 13.3 20.093 23.287 17.73 9.99-2.36 15.755-14.126 12.883-26.28zm74.006-121.843c9.764 2.337 18.736 5.59 27.625 9.598 2.925-2.34 6.84-5.486 9.463-7.852 4.81-4.33 12.183-5.75 18.633-6.22 20.955-1.525 40.577-12.162 53.25-29.517 8.496-11.63-9.077-24.415-17.547-12.813-6.263 8.574-16.513 14.848-28 17.805 11.972-18.625 19.067-38.79 26.273-61.83 5.365-17.142-19.258-24.108-24.624-6.942-4.254 13.605-8.356 25.835-13.512 37.134-6.11-8.52-7.896-16.98-7.393-32.548.468-14.487-21.257-14.964-21.718-.703-.7 21.74 5.02 36.635 10.65 45.215 3.94 6.01 3.447 13.914-1.224 19.378-13.18 15.41-29.536 27.44-31.877 29.296zM129.795 218.61c4.648 13.55 24.36 20.076 33.203 14.797-6.07-9.865-19.464-16.71-33.204-14.798zm179.08 43.185c-9.988-2.363-20.415 5.576-23.288 17.73-2.873 12.153 2.892 23.92 12.88 26.28 9.99 2.362 20.416-5.575 23.29-17.73 2.873-12.152-2.895-23.92-12.882-26.28zm137.088-74.23c-6.842 44.228-43.594 74.774-70.96 80.184C371.825 373.39 328.877 462 256 462c-72.875 0-115.823-88.608-119.007-194.25-27.363-5.41-64.115-35.956-70.957-80.186 34.27-13.393 72.12-13.39 103.886 5.934 18.193-12.698 50.17-27.016 86.078-27.016s67.885 14.317 86.078 27.016c31.765-19.324 69.615-19.326 103.886-5.934zm-29.678 16.216c-38.586-7.158-66.776 11.19-75.103 18.197-15.898-11.098-43.415-31.63-85.184-31.63s-69.287 20.532-85.184 31.63c-8.327-7.01-36.52-25.355-75.104-18.196 9.244 19.63 31.026 43.133 64.562 44.244.72 23.858.56 91.793 30.798 144.608 14.496 25.318 35.513 45.502 64.927 45.502s50.43-20.184 64.927-45.502c30.238-52.815 30.078-120.75 30.797-144.608 33.537-1.11 55.318-24.615 64.562-44.243zm-67.284 29.627c8.843 5.28 28.555-1.247 33.202-14.798-13.74-1.913-27.135 4.932-33.202 14.797zM256 405.024c-39.47 0-64.155-50.44-23.38-50.44h46.76c40.775 0 16.088 50.44-23.38 50.44zm-3.397-35.94h-14.455c-12.607 0-4.975 15.594 7.228 15.594s19.834-15.595 7.227-15.595z"/></svg>
