<svg xmlns="http://www.w3.org/2000/svg" width="512" height="512" viewBox="0 0 512 512"><path d="M313.042 155.677H114.564c-21.88 0-39.615 14.867-39.615 39.97s17.735 39.973 39.613 39.973h198.48c21.88 0 39.614-14.868 39.614-39.972s-17.735-39.97-39.615-39.97zm0 55.688h-198.48c-20.815 0-20.82-31.436.002-31.436h198.478c20.82 0 20.822 31.435 0 31.435zm92.356-107.002c-21.063 0-38.2 17.135-38.2 38.2 0 21.06 17.137 38.198 38.2 38.198 21.062 0 38.198-17.136 38.198-38.198 0-21.064-17.135-38.2-38.198-38.2zm0 55.974c-9.816 0-17.775-7.958-17.775-17.774s7.96-17.775 17.775-17.775 17.773 7.96 17.773 17.775-7.955 17.774-17.772 17.774zm-50.66-36.85c5.152-10.99 9.036-16.2 16.296-23.218C331.064 66.277 267.88 50 233.164 50c-30.396 0-99.995 4.584-133.648 89.51h227.036c-3.033-4.75-6.657-12.854-8.39-18.343 10.757-1.5 23.49-.48 36.576 2.32zM214.658 462c-21.29 0-38.01-7.99-51.098-24.42-23.168 3.983-44.307-4.226-57.123-20.14-10.568-13.127-14.552-30.536-10.98-47.874-18-10.213-28.07-28.318-26.973-48.577 1.09-20.116 13.49-37.598 32.43-45.81-2.016-11.95-2.63-19.742-2.712-27.733 7.82 3.5 15.002 2.735 24.092 2.735.268 14.947 1.7 27.556 5.71 43.31-24.154-1.99-35.51 14.32-35.606 30.496-.098 16.287 10.232 29.93 32.752 30.204-8.58 13.993-12.195 29.616-4.143 44 8.448 15.09 28.22 23.604 53.932 13.843 6.45 18.58 21.212 27.165 39.72 27.165 18.434 0 33.243-8.514 39.72-27.165 25.682 9.747 45.48 1.248 53.93-13.848 8.04-14.358 4.46-29.978-4.14-43.995 22.807-.277 32.853-14.25 32.756-30.205-.098-16.02-11.258-32.502-35.612-30.495 3.442-13.498 5.4-26.003 5.71-43.31 9.054 0 16.327.745 24.09-2.735-.078 7.955-.686 15.747-2.71 27.733 18.94 8.212 31.34 25.693 32.43 45.81 1.1 20.258-8.97 38.363-26.972 48.576 3.574 17.34-.41 34.752-10.98 47.878-12.594 15.638-33.585 24.184-57.12 20.137C252.67 454.01 235.948 462 214.658 462zm41.564-203.87c-13.905 0-25.727 9.057-29.896 21.58-6.52-2.69-16.377-2.69-22.897 0-4.17-12.523-15.99-21.58-29.896-21.58-17.373 0-31.506 14.134-31.506 31.505 0 17.372 14.133 31.506 31.506 31.506 14.88 0 27.375-10.37 30.656-24.264 7.155-2.942 14.22-2.942 21.373 0 3.282 13.894 15.777 24.265 30.658 24.265 17.374 0 31.507-14.133 31.507-31.505.002-17.37-14.132-31.506-31.505-31.506zm-82.687 45.674c-7.825 0-14.17-6.344-14.17-14.17 0-7.823 6.345-14.167 14.17-14.167 7.824 0 14.168 6.344 14.168 14.168 0 7.825-6.344 14.17-14.168 14.17zm82.687 0c-7.824 0-14.17-6.344-14.17-14.17 0-7.823 6.346-14.167 14.17-14.167 7.828 0 14.17 6.344 14.17 14.168 0 7.825-6.342 14.17-14.17 14.17zm-25.758 35.072c-6.225 0-11.678 3.25-14.79 8.142-3.112-4.89-8.565-8.142-14.79-8.142-19.574 0-30.9 18.663-67.697 2.856 20.076 33.842 64.936 43.834 82.488 25.204 17.552 18.63 62.412 8.638 82.49-25.204-36.8 15.807-48.126-2.856-67.7-2.856z"/></svg>
