<svg xmlns="http://www.w3.org/2000/svg" viewBox="0 0 200 200" enable-background="new 0 0 200 200"><path d="M90.7 21.7C78.3 5.9 54.7 5.4 37.1 11.3 19.7 17.1 2.4 37.5 7.2 57c3.4 13.6 22.3 33.4 37.3 24.2.2 3.6 2.5 7.3 6.3 7.7 3.8.5 5.4-2.1 5.8-5.2 1.2.9 2.7 1.4 4.8 2.3 1 .5 2.2-.1 2.2-1.3.1-1.5.2-2.9.3-4.4 3 2.2 6.6 3 9.9 0 3.5-3.2 2.5-8.6.1-12.4 17-7.7 30.5-28.7 16.8-46.2zM71.4 65.4c-.1 0-.1.1-.2.1-1.3-.1-2.6 1.2-1.7 2.4 2 2.6 3.5 5 2.7 8.4-1.3 5.6-6.9 1.8-9.1-.6-1.1-1.2-2.8.1-2.5 1.4.4 1.9.3 3.6.1 5.4-1.9-.8-3.2-1.5-4.5-3.9-.8-1.5-3-.4-2.7 1.1.5 2.4.6 6.6-3.1 5.9-2.7-.5-3.7-3.6-4.4-5.9.3-.7-.2-1.7-1.1-1.4-18.6 6-34.7-13.4-34.5-30.1.3-17.1 15.7-29.8 30.6-34.7 12-4 26.2-2.9 37.6 2.2 25.4 11.4 12.6 41.5-7.2 49.7zM113.5 100.6c-3.5-2.9-9.1-4.7-14.4-4.6-.7-3.2-1.4-6.4-2.5-9.5 4.2-.8 8.8-.5 12.4-.1 1.7.2 2-2.6.4-3-3.9-1-9.2-1.2-13.9-.2-1.2-3.2-2.5-6.3-4-9.4 3.8-1.9 8.8-1.9 13.7-1 1.6.3 2.3-2 .7-2.5-5.5-1.8-11.2-1.3-15.5 1.2-1-2-2.1-3.9-3.3-5.8-.8-1.3-2.7-.1-2 1.2 1.1 2.1 2.1 4.2 3 6.2-2.6 2.3-4.4 5.7-4.7 10-.1 1 1.7 1.3 1.8.2.5-3.6 1.9-6.2 3.9-7.9 1.2 2.9 2.3 5.8 3.2 8.8-4.5 1.8-8 5-8.3 10.4-.1 1.4 2 1.6 2.3.3.9-3.9 3.6-6.2 6.9-7.5.8 3 1.5 6 2.1 9-4.3.9-7.9 3.2-9.5 7.6-.3 1 1.1 1.8 1.8 1 2.4-2.9 5.2-4.5 8.3-5.3.9 5.1 1.5 10.4 1.9 16 .1 1.8 2.7 1.8 2.8 0 .3-5.6-.1-11.1-1-16.4 4.1 0 8.3 1.3 12.1 3.5 1.4.7 3-1.2 1.8-2.2zM123.2 108c-2.1-4.8-8-4.3-11.3-1.3-2.6 2.3-4.5 4.9-6.5 7.7-3.4 4.8-7 11-12 4.2-.3-.4-.7-.6-1-.6-1.3-4.4-4.1-9-9-7.7-7.4 2-9 10.4-8.6 17 .4 7 1.1 16 7.4 20.3 5.5 3.8 16.2-10.6 21.1-11.9 6.1-1.6 11.3 3.7 15.7-3 4.5-7 7.8-16.6 4.2-24.7zm-4.2 19.5c-3.8 8.1-7.9 5.1-14.6 5.1-4.8 0-8.7 3.6-12.1 6.4-3.1 2.6-7.4 8.9-11.2 2.9-2.1-3.4-2.7-8.3-3.1-12.1-.4-3.6-.4-7.1.5-10.6.8-3.1 3.6-6.7 7.2-6.1 3.6.6 4.7 6.3 5.5 9 .2.7 1.1.8 1.6.4 3.5 3.8 7.8 2.9 11.8-1.8 3-3.6 5.3-7.8 8.3-11.5 4.5-5.4 8.8-.8 9.3 5 .3 4.6-1.4 9.3-3.2 13.3zM81.6 154.1c-1.9 4.5-4.4 8.8-7.2 12.7-1.7 2.4-3.9 4.5-6.2 6.2-1.8 1.3-3.8 1.8-5.4 3.4-.8.8-.5 2.5.7 2.7 5.1.9 9.9-4 12.8-7.7 3.8-4.9 6-10.6 7.2-16.6.2-1-1.5-1.8-1.9-.7zM133.7 164.4c-2.6-2.5-5.6-4.4-8.1-7.2-3-3.4-4.8-7.8-5.3-12.3-.1-.9-1.3-.9-1.4 0-.5 8.6 5.5 18.2 13.6 21.4 1.1.5 1.9-1.1 1.2-1.9zM140.8 161.7c-.9-.7-2.2-.3-2.2.9-.1 2.1 2 4.9.4 6.8-1.6 2-5.5 1.4-7.6 1-1.2-.2-1.8 1.6-.5 1.9 3.3.9 7.4 1.5 10.2-.9 2.5-2 2.2-7.7-.3-9.7zM176.2 182.4c-6.2 3.9-10.9 4-17.5.8-5-2.4-9.3-6-13.7-9.4-1.2-.9-2.6 1-1.6 2.1 7.7 7.8 25.8 22.3 35.1 8.7.9-1.3-.9-3.1-2.3-2.2zM65.1 182.5c-1.3-.4-2.9-.1-4.3.5-.8-3-1.5-6.1-2.1-9.2-.2-1-1.9-1-2 0-.6 4-.3 8.4.9 12.3.4 1.3 1.7 1.7 2.9 1.2 1.9-.8 4.5-.7 5.5-2.8.3-.8 0-1.7-.9-2zM52.9 183.3c-10.4 1.6-19.9 1.8-30.2.4.8-2.7 1.1-5.4 1.6-8.4.2-1.2-1.4-2-2.1-.9-2 3.3-2.2 6.9-4.5 10-.9 1.2.1 3 1.3 3.3 11.4 3 23.4 1.6 34.6-1.6 2-.5 1.1-3.1-.7-2.8zM72.5 89.2c-10.7 4.4-17.3 19.4-15.4 30.5.3 1.5 2.7 1.5 3 0 2.4-11.4 3.6-21.1 13.3-28.9.7-.6-.1-1.9-.9-1.6zM62.3 120.7c-1.4.8-2.3 3.5-4.2 3.1-2.1-.4-3.8-2.9-5-4.4-.7-1-2.2.3-1.6 1.3 1.5 2.5 3.4 5.8 6.6 6.4 2.9.5 6.2-2.3 6.3-5.1 0-1.1-1.2-1.7-2.1-1.3zM57.5 130.8c-.5 7.2-1.8 14.6-3.5 21.6-.7 2.9 3.9 3.5 4 .5.2-7.4 1.9-14.6 1.7-22.1-.1-1.4-2.1-1.4-2.2 0zM47.7 163.8c-.1.2-.1.2 0 0zM48.6 156.6c-.6 1-1.3 2-2 3-.4.5-.7 1.1-1.1 1.6-.1.2-.3.6-.3.7 0 .2-.2 1 0 .4-.2.9.5 2.1 1.5 2 .6-.1 1-.4 1.3-.8-.1.1-.1.2-.2.3l.2-.2c.2-.2.3-.4.5-.6l.3-.6c.2-.3.3-.6.5-.9.1-.1.1-.2.1-.3.5-1.1 1.1-2.2 1.6-3.3.5-1.5-1.5-2.8-2.4-1.3zM54.5 163.4c-.6-1.7-1.4-3.2-2.4-4.7-.5-.8-1.8-.1-1.3.8.7 1.2 1.3 2.5 1.8 3.8.4 1.3.1 2.7.5 4 .3.9 1.7 1 1.9 0 .5-1.4 0-2.7-.5-3.9zM58.7 157.9c-.5-1.3-2.4-.8-2 .6.7 2.5 1.3 5.1 2.8 7.3.6.9 2.2.4 1.8-.8-.7-2.4-1.7-4.8-2.6-7.1zM136.9 43.4c-5.4 10.6-10.3 23.9-25 21.1-1.1-.2-1.5 1.3-.5 1.7 13.7 4.9 26.2-8.8 28.2-21.7.2-1.5-1.9-2.7-2.7-1.1zM141.4 34.7c-4-.9-8.1 1.8-10.9 4.4-.6.6.2 1.7.9 1.2 2.4-1.7 5-3.3 8-3.4 4-.2 4.7 3.6 5.4 6.6.3 1.5 2.6 1.1 2.6-.3 0-3.8-2.1-7.6-6-8.5zM175.1 12.9c-10.7-6-30.6 6.3-32.2 17.8-.1.5.5 1 .9.5 4.1-4.6 7.1-8.9 12.5-12.2 5.9-3.6 11.5-3.5 18-3.6 1.4 0 2-1.8.8-2.5zM187.1 6.7c-3.3-.9-7.6.7-10.6 2-1.2.5-.3 2.3.8 2 1.4-.3 2.8-.6 4.3-.9 1.8-.3 3.7-.2 5.5-.7 1.1-.4 1.2-2.1 0-2.4zM188.2 11.8c-2.3.5-4.4 1.5-6.7 1.7-1.8.2-1.9 2.8 0 2.8 2.9.1 5.7-.4 8-2.2 1.2-.9-.1-2.5-1.3-2.3zM192.3 25.3c-2.7-3-6.9-4-10.9-3.7-1.7.1-1.7 2.5 0 2.7 3.2.3 6 1.2 8.6 3.3 1.6 1.3 3.8-.7 2.3-2.3zM42.9 56.5c-2.6-.7-5.2-1.4-7.8-1.9-.1-.4-.1-.7-.2-1.1-.4-2.4-1-4.8-1.8-7-.4-1-2.2-1-2 .3.2 2.1.6 4.2.7 6.3v1c-1.4-.2-2.8-.3-4.2-.3-1.2 0-1.2 1.8 0 1.9 1.4 0 2.8.2 4.2.5 0 1.5.1 2.9.5 4.3.4 1.5 2.6 1.5 3 0 .3-1.2.3-2.4.1-3.6 2.3.5 4.6 1.1 7 1.4 1.2.2 1.7-1.5.5-1.8zM76.6 42.8c-2.6-1-5.2-2-7.8-3.1.2-3.5.4-7.1.1-10.6-.1-2-2.9-2-3.1 0-.3 3-.4 6-.7 8.9l-2.4-1.2c-1.5-.8-2.6 1.3-1.3 2.2 1.1.7 2.3 1.4 3.4 2-.3 2.9-.7 5.9 0 8.8.4 1.6 2.9 1.6 3.3 0 .6-2.3.6-4.6.6-7 2.3 1 4.7 1.8 7.1 2.6 1.9.6 2.5-2 .8-2.6z"/></svg>
