<svg xmlns="http://www.w3.org/2000/svg" width="512" height="512" viewBox="0 0 512 512"><path d="M353.896 399.15c17.84-12.102 33.17-27.172 45.638-44.87L462 416.744 416.745 462l-62.85-62.85zM50 416.744l62.308-62.307c12.468 17.698 27.796 32.77 45.638 44.87L95.254 462 50 416.745zM401.615 155.64c-12.135-17.877-27.186-33.224-44.815-45.695L416.744 50 462 95.256l-60.385 60.383zM50 95.255L95.256 50l59.865 59.866c-17.628 12.473-32.68 27.82-44.813 45.695L50 95.257zM256 108.1c-80.354 0-145.492 65.14-145.492 145.492 0 59.155 35.305 110.062 85.992 132.806V422c3.545 5.95 13.29 10.25 25.792 12.9v-20.503h20v23.215c9.084.652 18.59.646 27.667-.018v-23.197h20v20.45c12.38-2.657 22.02-6.937 25.54-12.848v-35.604c50.688-22.744 85.992-73.65 85.992-132.806 0-80.352-65.138-145.49-145.492-145.49zm-63.75 199.983c-25.56 0-46.28-20.72-46.28-46.283s20.72-46.282 46.28-46.282 46.283 20.72 46.283 46.282-20.722 46.283-46.283 46.283zm34.025 36.554l30.647-42.373.032.053.03-.053 30.738 42.373h-61.447zm95.475-36.554c-25.56 0-46.282-20.72-46.282-46.283s20.722-46.282 46.282-46.282c25.562 0 46.283 20.72 46.283 46.282s-20.72 46.283-46.283 46.283z"/></svg>
