<svg xmlns="http://www.w3.org/2000/svg" width="512" height="512" viewBox="0 0 512 512"><path d="M312 384.026c33.464-5.765 61.372-15.332 75.887-27.614 2.243 13.297-1.54 37.052-8.295 48.474 6.255 6.998 17.387 14.22 26.442 14.108-21.294 19.36-55.234 31.177-92.666 37.406-5.686-19.126-7.377-51.576-1.367-72.374zm-25.613-124.072c-7.587 0-13.738 8.53-13.738 19.052 0 10.524 6.15 19.054 13.737 19.054 7.59 0 13.74-8.53 13.74-19.054 0-10.52-6.15-19.052-13.74-19.052zM139.344 72.724c43.137-30.962 164.033-29.627 208.23 0-13.236 33.235-15.965 65.33-8.783 91.683-50.576-23.35-144.634-23.145-194.374.89 6.875-29.395 7.48-55.507-5.072-92.572zm27.812 5.193c7.432 19.466 8.988 40.354 5.955 61.55l16.883-3.877c2.228-17.635 2.01-37.866-6.643-61.935-5.048.954-11.07 2.404-16.194 4.262zm65.018 228.562l-50.725 43.464c-7.052 6.642-2.247 17 8.08 13.965l61.376-19.81c31.214-10.057 11.425-65.094-18.732-37.62zm-103.238 51.537c9.123 3.698 19.486 6.835 30.836 9.377-12.69-17.016-20.213-38.104-20.213-60.914 0-56.295 45.796-102.093 102.09-102.093 56.296 0 102.094 45.798 102.094 102.093 0 22.328-7.212 43.002-19.42 59.825 11.282-2.48 21.498-5.406 30.23-8.69 7.072-15.59 11.012-32.902 11.012-51.135 0-23.145-6.352-44.802-17.396-63.337 9.187-6.987 14.604-15.463 14.604-25.44 0-70.567-240.43-70.597-240.43 0 0 9.526 4.93 17.682 13.36 24.48-11.4 18.743-17.967 40.754-17.967 64.297 0 18.39 4.01 35.843 11.2 51.537zm49.13 27.988c-21.344-3.167-41.217-8.206-57.88-15.378-18.333-7.888-19.577 60.728 0 71.658 11.435 6.386 31.442 11.763 55.956 15.282-3.75-21.63-4.072-49.87 1.924-71.562zm114.744.837c-30.815 3.767-64.763 4.466-96.63 1.373-6.605 20.818-5.67 51.24-1.256 71.593 30.844 2.977 66.453 3.14 100.458-.86-5.333-19.93-7.15-49.166-2.572-72.106zm-80.343-107.836c0-10.52-6.15-19.052-13.738-19.052s-13.74 8.53-13.74 19.052c0 10.524 6.15 19.054 13.74 19.054s13.737-8.53 13.737-19.054z"/></svg>
