<svg xmlns="http://www.w3.org/2000/svg" width="64" height="64" viewBox="0 0 64 64"><path d="M37.014 37.257c-1.712.163-3.564-1.934-5.5-1.934-2.07 0-4.048 2.083-5.86 1.897-4.957-.507-8.673-1.64-9.67-3.014.284 2.044.798 3.977 1.487 5.768l.538.536c.514.57 1.192 1.023 1.805 1.58.69.466 1.367.994 2.14 1.4.736.47 1.56.8 2.36 1.174.832.292 1.652.632 2.506.812.836.248 1.69.347 2.508.496.828.03 1.63.18 2.395.135l1.117-.01c.36-.037.706-.076 1.04-.11.67-.054 1.272-.177 1.813-.28.27-.05.523-.098.758-.14l.63-.184 1.205-.333-1.143.518-.61.264-.744.236c-.532.175-1.136.38-1.82.475l-1.063.195c-.373.03-.758.063-1.154.098-.793.105-1.635.028-2.507.014-.86-.13-1.77-.177-2.652-.436-.9-.18-1.77-.52-2.653-.824-.84-.402-1.702-.766-2.472-1.27-.81-.434-1.495-1.033-2.2-1.545-.32-.303-.647-.592-.956-.883 2.82 5.754 7.672 9.567 13.205 9.567 7.74 0 14.17-7.44 15.53-17.254-1.022 1.41-4.895 2.562-10.03 3.05zM36.87 34.732c1.972-.377 1.93-.82 1.912-.99-.048-.45-.69-.45-.997-.45-.325 0-.712.03-1.12.09-.353.05-1.528.244-1.835.664-.076.106-.107.23-.088.35.076.46.73.46.977.46.327 0 .737-.044 1.15-.124zM26.6 34.87c.22 0 .884 0 .963-.46.02-.12-.01-.245-.086-.352-.296-.414-1.387-.615-1.714-.666-.376-.06-.735-.09-1.04-.09-.273 0-.917 0-.978.452-.057.425.547.76 1.792 1.002.384.075.752.114 1.064.114zM51.542 19.688s-.106-.238-.37-.596c-.13-.182-.3-.39-.512-.62-.208-.24-.47-.466-.784-.654-.31-.202-.66-.403-1.045-.592-.38-.198-.816-.27-1.266-.364-.14-.02-.285-.032-.43-.046.322-.124.635-.245.922-.386.31-.132.598-.264.857-.395.26-.143.492-.238.686-.35.388-.21.62-.38.62-.38l.008-.004c.015-.01.028-.024.04-.04.05-.077.03-.18-.048-.23 0 0-.23-.154-.658-.335-.213-.09-.476-.2-.78-.27-.304-.07-.654-.147-1.036-.192-.38-.026-.8-.044-1.237-.014-.436.047-.9.1-1.355.256-.456.153-.91.366-1.342.64-.443.243-.86.56-1.29.828l-.234.173c.374.337.732.695 1.08 1.07.174.19.345.387.514.587.383.452.74.928 1.078 1.423.336.062.672.13.994.206.39.07.752.218 1.11.294.357.077.727.07 1.06.117.332.05.66.076.975.082.158.007.315 0 .466-.004.145.01.272.04.408.04.262.02.506.028.717.024.42-.002.704-.036.704-.036l.02-.002c.016-.002.03-.006.047-.013.082-.037.12-.134.082-.217zM43.855 20.725c-.736-.47-1.56-.8-2.36-1.174-.832-.29-1.652-.63-2.507-.81-.836-.248-1.69-.347-2.508-.497-.828-.03-1.63-.18-2.396-.134l-1.117.008c-.358.038-.706.076-1.04.11-.67.054-1.273.178-1.813.28-.27.05-.524.098-.758.14-.228.068-.438.13-.628.184l-1.206.333 1.142-.517.61-.263.745-.237c.53-.174 1.134-.38 1.82-.474l1.063-.195 1.154-.1c.793-.104 1.635-.027 2.508-.012.86.128 1.77.176 2.65.435.903.18 1.773.522 2.655.824.555.266 1.108.53 1.65.813-.188-.248-.363-.507-.563-.743-.17-.2-.34-.396-.516-.586-.345-.373-.704-.73-1.08-1.068-2.703-2.43-6.122-3.892-9.85-3.892-8.73 0-15.807 7.97-15.807 17.8 0 .75.055 1.486.135 2.213.973-1.683 7.612-2.985 15.675-2.985s14.703 1.302 15.672 2.983c.08-.726.135-1.46.135-2.212 0-3.564-.94-6.875-2.545-9.656-.296-.2-.595-.397-.92-.567z"/></svg>
