<svg xmlns="http://www.w3.org/2000/svg" viewBox="0 0 256 256" enable-background="new 0 0 256 256"><path d="M229.8 175.3c-.6-.9-1.7-1.6-2.8-1.7 0 0-25.7 7.3-57.7-2.9l-.7-.2 1.6-70.9c0-1.1-.4-2.1-1.2-2.8l-35.4-33.6 2.5-44.2c.1-1.8-1.1-3.4-2.8-3.9-1.7-.5-3.6.3-4.4 2L103.7 67c-.5 1-.5 2.2-.1 3.2l15.9 37.5-30.6 66.1c-5.6 5.9-44.4 3.3-60.2 6.4-1.1.2-2.1.9-2.6 2-.5 1-.6 2.2-.1 3.3 1.9 4.3 4.6 8.1 7.1 11.3 3 3.9 6.5 7.8 10.6 11.6 7.7 7.2 16.6 13.4 26.4 18.4 12.8 6.5 27 10.9 42.3 13.1l2.7.4h.2l2.8.2c4.2.3 8.2.5 12.1.5 3.6 0 7.2-.1 10.6-.4 7-.6 14.1-1.9 22.6-4h.1c3.4-1 6.8-2.1 10.5-3.4 0 0 .1 0 .1-.1 3.9-1.6 7-3 9.8-4.3 0 0 .1 0 .1-.1 5.7-3 13.1-7.1 19.6-12.6 2.9-2.4 5.7-4.9 8.3-7.6l1-1c2.2-2.3 4.5-4.8 6.4-7.5 5.6-7.8 9.2-14.6 11.2-21.4.1-1.2-.1-2.3-.7-3.3zm-82.6-14.6l-3.5 27.3c-.3 2.2-2.3 3.7-4.4 3.4l-22.8-2.9c-2.2-.3-3.7-2.3-3.4-4.4l3.5-27.3c.3-2.2 2.3-3.7 4.4-3.4l22.8 2.9c2.1.3 3.6 2.2 3.4 4.4zM123.9 161.7l14.9 1.9-2.5 19.4-14.9-1.9 2.5-19.4z"/></svg>
