<svg xmlns="http://www.w3.org/2000/svg" width="27.162" height="31.458" viewBox="0 0 27.162 31.458"><path d="M14.12 12.57C12.177 9.658 13.343 1.3 11.594.798 10.04.33 5.22 3.517 2.85 7.753c-2.37 4.236-5.285 10.57.622 14.573 3.225 2.487-.932 3.652-1.67 1.67-.07 4.032 3.89 4.135 4.468 1.283.403-1.986-2.01-6.15-2.76-8.162C1.685 12.222 7.087 5.654 7.087 5.654S2.266 13.582 4.21 17.43c6.646 9.793 2.222 9.56.505 10.726 6.49.31 8.72-5.413 9.094-6.18.853-2.292.33-6.373-1.79-8.315-.504-.446-.97.098-2.73 0-1.758-.097-.805-1.748-.805-1.748s-.607-.515-.622-.738.543-.39.543-.39-.544-.29-.583-.543c-.038-.253.584-.855.584-.855s-.82-.38-.836-.758.897-1.004 1.77-2.817c.66-1.37.62-3.653 1.67-4.178.622 1.07-1.942 9.23 2.254 11.834.777.427 5.752 4.313 1.67 9.326 4.51-3.147.408-8.427-.814-10.22zM17.423.252c1.943 2.294-.04 10.96 4.547 13.835 6.217 4.43 1.835 10.403.933 12.01 1.554-4.51 1.438-6.84.7-8.667s-5.403-6.684-6.14-9.133c-.74-2.45-.973-9.21-4.55-7.978 3.306 4.17 1.304 7.993 5.812 13.728 4.508 5.734 3.594 13.796-.174 15.66 5.888-7.79.7-13.873-.815-16.283-.802-1.275-2.487-2.33-2.643-5.284-.155-2.953-2.208-8.064-3.03-7.77 2.136 4.235-.08 10.18 4.7 15.894 3.265 3.575 4.704 11.348-.814 15.194 5.79-.233 9.132-6.41 10.53-10.415 1.866-5.557-3.458-10.336-4.468-12.28C21 6.82 20.454.293 17.423.253zM24.884 6.528c-1.865-2.973-4.452-4.716-5.42-5.45 2.65 4.576 2.476 6.616 3.438 8.016.962 1.398 2.652 1.72 4.255 6.72.058-.71-.408-6.312-2.273-9.286zM17 3.556c.13.727.772 4.488 1.268 5.188-.32-4.605.118-4.343-.262-6.063S16.956.03 14.74 0c2.216 1.865 2.13 2.83 2.26 3.556z"/></svg>
