<svg version="1" xmlns="http://www.w3.org/2000/svg" width="26" height="26" viewBox="0 0 26 26"><path d="M21.87 11.012c.02-.266.04-.532.055-.8.027-.43.333-.807.32-1.24-.007-.303-.333-.6-.35-.88-.025-.477.384-.527.374-.974-.014-.525-.432-1.17-.716-1.585-.16-.236-.746-.708-.796-1.014-.037-.23.077-.23.126-.422.07-.28.233-.21.106-.516-.035-.083-.35-.294-.424-.347-1.153-.83-2.104-1.802-3.433-2.38-1.286-.56-2.7-.79-4.098-.79-2.448 0-4.833.94-7.02 1.972-.34.16-.727.255-.98.568-.462.575.173.454.337.91.205.572-.955 1.624-1.257 2.114-.24.388-.51.757-.5 1.228.01.413.276.712.267 1.087-.008.425-.305.84-.33 1.256-.028.436.374.817.5 1.218.052.17.088.346.117.525-.67.628-1.07 1.63-1.07 2.783 0 1.52.987 3.067 2.135 3.57C6.53 22.697 11.237 23.9 13 23.9c1.178 0 3.678-.55 5.595-2.546.012.756-.196 1.703-.342 2.105-.057.157-.118.314-.176.473-.094.258-.108.484-.11.766 0 .407.233.955.61 1.14.34.166.61.234 1.195-.053.304-.15.43-.678.46-.994.028-.304-.026-.602-.15-.876-.14-.313-.335-.595-.48-.9-.132-.282-.2-.59-.23-.898-.022-.216-.067-1.217-.034-1.665.6-.84 1.103-1.864 1.416-3.126 1.268-.482 2.146-2.118 2.146-3.606 0-1.073-.394-2.067-1.03-2.712zM20 15.67c-.37 0-.68.23-.82.56-.155.128-.32.243-.496.255-.44.03-1.082-.33-1.49-.102-.557.31-.233 1.723-.544 2.275-.34.606-.88.63-1.363.793-.21.07-.41.167-.577.348-.308.33-.1.817-.272 1.202-.158.35-.485.55-.83.69-.522.21-1.164.285-1.762.235-1.71-.445-4.283-1.87-4.96-5.522-.08-.427-.433-.734-.867-.734-.28-.053-1.12-.908-1.12-1.944 0-.833.32-1.382.634-1.57.474-.175.932-.4 1.028-.527.39-.52.317-1.273.29-1.88-.043-.99-.11-1.968.03-2.953.063-.452.058-1.115.206-1.533.247-.7.7-.356 1.2-.313.59.052.487-.47.964-.553.854-.15 1.18.963 1.332 1.537.066.25.135.863.404 1.03.408.253.686-.156.782-.503.184-.662-.273-1.823.257-2.354 1.587-1.587 1.65 3.167 2.447 3.166.43-.002.527-.592.61-.873.21-.7.156-1.45.528-2.103.675-1.184 2.213-1.04 3.008-.068 1.115 1.362.61 2.98.492 4.587-.088 1.188.102 2.335.9 2.973.09.13.2.248.353.32.356.167.734.79.734 1.615 0 1.064-.728 1.945-1.1 1.945zM14 17c-.28 0-.604-.656-.953-.656S12.375 17 12 17s.434-2 1-2 1.28 2 1 2zm2.037-5.704c-1.777.518-2.037 1.46-2.037 1.46 0 1.086.918 2.207 2.004 2.207C18 14.963 19 13.085 19 12c0 0-1.186-1.222-2.963-.704zm1.135 2.204c0 .37-.3.672-.672.672-.37 0-.672-.3-.672-.672s.3-.672.672-.672c.37 0 .672.3.672.672zM7 12c0 1.085 1 2.963 3.035 2.963.874 0 1.965-1.12 1.965-2.206L7 12zm2.5 2.172c-.372 0-.672-.3-.672-.672s.3-.672.672-.672c.37 0 .672.3.672.672 0 .37-.3.672-.672.672z"/></svg>
